<svg width="944" height="355" viewBox="0 0 944 355" fill="none" xmlns="http://www.w3.org/2000/svg">
<g clip-path="url(#clip0_1553_16498)">
<path d="M146.682 198.301C149.206 199.742 156.924 210.167 159.733 213.401C168.026 222.954 200.876 209.166 208.606 219.102C211.039 222.225 201.676 259.446 192.759 259.446C197.585 270.838 201.64 282.799 206.692 294.103C202.453 297.639 181.588 313.519 180.863 316.979C182.685 319.131 204.536 329.884 208.606 332.27C206.642 335.963 201.605 323.89 199.319 327.365C200.078 323.707 203.128 337.266 204.329 333.344C197.098 329.051 189.314 325.53 182.481 320.61C179.363 318.477 177.398 314.987 180.276 311.669C186.18 304.857 193.484 299.107 199.319 292.161C197.451 287.245 195.245 282.077 193.261 277.172C191.29 272.348 195.141 297.024 193.261 292.161C190.07 303.251 197.431 306.959 191.627 316.979C190.357 319.169 176.553 349.203 174.301 349.8C159.747 353.96 153.875 354.09 152.816 353.96C150.112 355.741 149.152 319.808 146.774 322.759C142.818 319.93 145.228 311.103 141.345 308.179L146.444 321.52C145.22 320.595 142.926 318.401 141.468 318.997C141.598 319.987 141.683 320.205 141.556 321.18C140.202 320.893 139.627 320.19 138.579 319.269C132.115 328.604 122.774 340.16 115.738 349.453C117.323 343.019 119.621 335.462 121.412 328.994L135.706 278.17C140.302 261.831 145.097 246.097 146.774 229.108C147.813 218.596 147.18 208.844 146.682 198.301Z" fill="white"/>
<path d="M132.925 -0.0115521C143.132 -0.0412925 146.016 3.91491 154.124 8.42464C156.214 9.58771 162.349 10.0918 165.113 11.1276C183.998 18.1992 200.004 32.8545 210.519 49.8874C211.205 50.9977 214.323 53.9152 215.426 55.0645C218.386 58.1317 220.887 61.6113 222.853 65.3952C228.014 75.4376 227.705 84.3216 228.243 94.9945C228.518 100.459 230.982 101.332 228.557 107.749C226.017 114.46 223.985 121.845 221.784 128.69C225.056 128.932 228.245 130.062 229.741 133.258C232.955 140.133 228.452 147.282 226.599 153.842C225.553 157.553 225.422 161.519 224.344 165.231C223.585 168.417 221.988 171.085 220.953 174.166C219.529 178.422 221.56 184.266 216.519 186.522C214.097 187.606 212.163 187.021 209.856 186.1C209.633 192.318 208.765 199.632 207.208 205.642C213.949 213.485 223.55 227.237 231.508 233.379C247.104 245.418 271.067 252.273 289.117 259.069C285.859 265.248 282.29 271.255 278.42 277.07C256.292 309.942 223.848 334.506 186.214 346.882C177.549 349.703 170.599 351.249 161.703 352.935C171.225 326.786 180.289 300.474 188.89 274.008C191.325 266.398 193.614 258.742 195.752 251.041C199.287 238.784 201.031 232.774 200.859 219.804C193.801 228.53 187.17 236.732 177.947 243.314C173.274 246.652 168.363 249.53 163.472 252.533C155.222 257.624 149.225 260.585 140.606 264.862C144.373 270.788 143.518 275.76 145.532 282.126C146.414 284.909 151.964 290.891 151.048 293.673C148.967 294.782 146.478 289.608 145.505 287.996C139.327 301.145 145.385 296.394 149.581 306.973C151.163 310.962 152.013 317.131 153.89 321.541C154.588 323.18 155.519 329.799 155.939 332.061C157.281 339.112 158.497 346.189 159.585 353.287C100.621 363.202 37.2559 333.651 0.141602 288.229C18.9773 278.776 37.9263 269.554 56.9847 260.561C59.6294 259.295 72.1232 254.042 73.058 253.172C76.2496 250.198 83.2677 237.924 85.3795 233.743C79.0688 223.798 69.8263 211.27 68.3296 199.155C59.7051 198.251 61.2953 194.893 58.7314 188.35C57.3578 184.844 54.9544 180.972 53.508 177.425C50.4574 169.943 46.3305 162.443 44.4243 154.605C43.9057 152.477 44.4899 149.628 45.7583 147.936C47.4319 145.704 50.3904 145.589 52.9332 145.352C50.4238 141.619 48.8161 134.784 47.5968 130.326C47.4029 130.159 47.2064 129.98 47.0007 129.806C44.7823 127.934 42.6134 123.625 41.3391 120.984C40.6192 119.492 40.2588 117.514 39.313 115.918C38.687 114.862 36.6171 113.256 36.4771 112.871C35.1433 109.209 38.0531 97.8823 38.8614 94.4872C38.781 94.5145 38.701 94.542 38.6209 94.5693L38.2177 94.6991C37.0915 95.0677 36.966 95.2076 35.8231 95.0528C33.7095 93.6749 36.9544 89.5894 37.0168 87.0811C37.4532 69.4795 46.0556 54.0803 55.3084 39.6363C56.6373 37.5621 58.33 35.4665 59.9559 33.6418C63.1655 30.04 67.8054 27.5839 71.4225 24.4579C76.395 20.1603 80.9708 15.4584 86.7905 12.2476C90.1494 10.3526 93.9876 9.79786 97.1719 8.10905C100.145 6.4984 103.774 3.16084 107.177 2.50384C115.207 0.953412 124.753 0.335255 132.925 -0.0115521Z" fill="#DAB96A"/>
<path d="M121.433 67.2963C123.394 68.3947 126.05 69.8092 128.376 69.3213L128.86 68.918C128.873 68.5618 128.825 67.5467 129.033 67.444C131.623 66.1646 136.584 66.4173 139.26 66.6953C141.68 66.9467 143.994 69.2043 145.463 69.4705C149.217 70.0874 152.873 71.1588 156.531 72.128C158.123 72.55 160.541 73.8305 161.907 74.0724C169.348 75.3903 174.367 79.875 180.436 83.9381C182.551 85.3543 186.022 86.3154 188.192 87.8211C190.138 89.2299 197.596 97.1018 199.515 97.3655C199.547 96.1088 198.783 96.4674 199.029 95.5334C201.232 94.7304 204.149 99.3257 204.969 100.984C204.09 100.53 202.974 99.7811 202.1 99.8101C201.982 100.479 202.247 100.932 202.495 101.581L202.309 101.781C201.35 101.366 200.338 100.68 199.505 100.715C198.972 102.634 203.674 107.28 204.49 109.043C207.303 115.12 210.573 121.03 209.802 127.937C209.541 130.273 207.959 137.871 209.104 139.553C209.846 139.21 212.273 134.341 213.647 132.707L214.035 132.635C215.956 132.268 217.705 131.565 219.545 130.903C224.464 129.133 228.436 131.491 229.267 136.672C230.353 143.436 226.154 148.653 224.7 154.938C223.832 158.666 223.769 162.731 222.597 166.36C221.496 169.649 219.823 172.76 218.74 176.048C217.877 178.661 219.167 181.903 217.381 184.071C215.443 186.425 212.612 186.43 210.551 184.269C209.696 183.372 209.266 182.52 208.681 181.473C207.185 195.953 207.006 209.274 197.763 221.298C196.063 223.511 194.086 226.418 191.83 228.134C181.964 235.643 169.857 243.166 157.408 245.012C154.099 245.305 149.713 245.523 146.443 244.96C138.724 243.631 128.634 242.559 123.06 236.535C120.161 233.403 121.921 228.475 125.208 226.342C128.811 224.002 135 220.799 139.469 221.65C140.984 222.011 142.287 222.095 143.864 222.087C145.001 219.499 146.512 217.803 148.348 215.658C140.655 213.645 133.568 214.933 125.721 214.606C121.605 214.434 118.901 213.627 115.075 212.46C117.957 211.042 121.013 210.004 124.163 209.375C131.685 207.81 152.802 206.01 159.823 208.547C160.818 208.906 161.779 209.4 162.752 209.81C161.543 204.811 161.602 202.643 156.013 204.43C151.726 202.854 147.355 200.001 143.345 198.521L142.803 198.914C143.267 199.546 143.176 199.202 143.257 199.915C142.287 200.527 139.773 199.989 138.977 199.308L139.044 198.836L139.186 198.074C138.331 198.212 135.161 199.173 134.047 199.455C132.237 198.917 128.867 197.504 126.986 196.771C123.833 197.892 119.937 200.507 116.79 202.056C115.252 202.81 110.805 204.531 109.895 205.288C106.962 207.731 104.623 210.213 101.468 212.61L101.2 212.374C99.8981 211.219 95.2412 206.954 95.1634 205.509L95.8849 204.88C95.7682 203.749 94.0296 202.727 93.9468 201.237L94.7504 200.979C94.8228 199.573 92.9893 197.688 92.0214 196.481C94.9634 197.454 97.358 198.597 100.18 199.9C93.6141 194.006 88.8902 188.614 83.1543 182.016C76.0711 173.866 69.1899 165.383 76.9674 154.848C89.1595 159.328 94.1806 160.77 106.055 154.693C102.228 154.71 91.8528 156.068 90.1468 151.942L90.3638 151.523C91.9233 150.784 96.1945 151.417 98.2724 151.288L98.0611 150.764C97.5039 150.531 97.2425 150.395 96.763 150.029C99.3168 149.38 103.011 150.286 104.625 147.517C105.504 146.009 105.967 144.808 106.449 143.115C108.129 144.022 109.35 144.532 110.392 146.17C110.485 146.86 110.11 147.279 109.739 147.907C110.844 148.145 112.915 147.702 113.963 147.861C114.732 147.977 116.866 148.862 117.66 149.179C116.459 147.151 114.39 144.153 113.579 142.167C118.239 145.708 117.96 149.501 121.964 151.915C125.664 147.284 127.583 143.722 126.888 137.55C125.335 123.776 110.74 124.68 100.415 122.452C97.1096 121.738 93.8131 121.038 90.5048 120.36C85.2114 119.275 81.2945 123.496 76.72 125.866C76.5942 124.474 76.4986 122.882 76.2357 121.525C78.1012 118.993 77.7612 118.79 78.8562 115.969C78.1078 115.126 77.4234 114.851 77.3411 114.081L78.2724 113.307C78.3073 112.507 77.7444 112.256 77.3017 111.453L77.4784 110.967C78.0543 110.868 78.398 110.843 78.9832 110.805C79.5925 109.937 78.9593 109.133 78.5034 108.25L80.671 106.793C80.0376 106.054 79.3261 105.26 78.7289 104.503C80.669 101.109 80.6855 98.8739 81.9981 95.2938C82.0964 95.0254 83.1666 94.7432 83.4182 94.6714C83.7774 93.8001 83.6241 93.4572 83.2668 92.5847C83.1929 92.405 83.1165 92.2261 83.0379 92.0481C83.1042 90.4869 85.363 89.0864 86.5894 88.2296C86.5781 85.1127 86.3717 83.1587 88.9646 80.707C94.1494 75.8045 104.724 71.8215 111.569 69.705C115.199 68.5825 116.9 69.3658 121.433 67.2963Z" fill="white"/>
<path d="M139.044 198.836C140.619 198.285 141.157 198.502 142.803 198.915C143.267 199.546 143.176 199.202 143.257 199.915C142.287 200.527 139.774 199.989 138.978 199.308L139.044 198.836Z" fill="white"/>
<path d="M139.186 198.074C140.724 197.774 141.899 197.742 143.346 198.521L142.803 198.915C141.157 198.502 140.619 198.286 139.044 198.836L139.186 198.074Z" fill="#E5C98B"/>
<path d="M96.7627 150.029C97.7953 150.021 99.0048 149.914 99.944 150.249L100.144 150.736L100.005 150.292L100.196 150.445C99.7693 151.12 99.0971 151.442 98.2721 151.288L98.0609 150.764C97.5037 150.531 97.2423 150.395 96.7627 150.029Z" fill="#FAF6E2"/>
<path d="M138.183 131.643C136.63 129.678 139.012 125.14 140.997 124.002C145.193 121.596 150.409 120.962 154.922 119.485C159.167 118.096 162.427 117.197 166.928 116.97C168.179 116.907 168.432 117.296 169.532 117.777C170.719 117.496 173.048 116.753 174.087 117.275C174.06 117.333 164.012 122.121 162.663 123.025C160.361 124.57 147.193 129.771 152.197 134.09C153.091 134.779 157.221 133.102 158.273 132.987C167.486 132.099 178.04 131.964 184.202 139.957C180.335 139.963 177.478 139.744 173.908 138.071C172.343 137.336 170.687 136.506 169.051 135.997C168.817 141.559 167.098 143.104 161.631 143.716C159.408 143.966 150.922 144.758 149.156 144.226C149.03 143.606 149.025 143.471 149.008 142.836L148.679 142.649C148.264 143.076 148.264 143.263 148.053 143.837C146.768 143.603 145.195 138.414 144.888 137.083L144.95 135.953C144.34 134.083 144.026 133.82 142.213 132.963C141.397 132.781 140.586 132.578 139.78 132.353C139.154 132.174 138.754 131.938 138.183 131.643Z" fill="#DAB96A"/>
<path d="M139.78 132.353C141.235 131.691 143.836 131.304 145.298 131.921L145.465 132.381C144.313 133.055 142.583 131.865 142.213 132.962C141.397 132.781 140.586 132.578 139.78 132.353Z" fill="#E5C98B"/>
<path d="M138.183 131.643C139.198 130.538 137.935 129.91 138.826 128.494L139.093 128.56C139.341 129.831 139.525 131.092 139.781 132.353C139.154 132.174 138.754 131.938 138.183 131.643Z" fill="#E5C98B"/>
<path d="M144.95 135.953L145.697 135.1C146.316 135.391 146.048 135.184 146.402 135.856C146.434 136.774 146.449 136.726 146.041 137.546L145.586 137.646L144.889 137.083L144.95 135.953Z" fill="#E5C98B"/>
<path d="M156.76 138.353L157.17 138.596C157.774 139.952 158.597 141.382 159.396 142.633L159.042 143.139C155.946 142.38 154.738 141.226 156.76 138.353Z" fill="white"/>
<path d="M118.677 164.239C118.862 164.416 118.987 164.69 119.127 164.929C119.115 165.852 119.101 165.983 119.318 166.864L120.236 167.313C120.424 168.986 116.14 171.684 116.041 174.289C115.905 177.838 118.69 179.741 121.875 178.153C123.308 177.439 124.336 176.367 125.489 175.298C128.983 177.067 132.489 178.64 136.033 180.282C136.286 180.399 136.825 181.282 136.991 181.559C139.599 179.625 142.711 177.597 146.178 178.7C150.689 180.135 151.092 183.102 146.657 185.254C143.589 186.057 142.775 184.921 140.262 184.887C136.745 185.315 133 187.583 129.609 188.741C127.912 189.32 126.57 192.426 124.039 192.094C117.146 191.189 111.398 187.656 112.595 179.767C113.427 174.288 114.114 167.96 118.677 164.239Z" fill="#DAB96A"/>
<path d="M212.205 147.821C217.222 147.668 217.723 152.113 217.711 156.071C217.694 161.006 218.06 162.116 213.549 164.335C213.028 164.373 213.22 164.382 212.709 164.23C212.276 163.249 213.021 160.808 212.608 159.786C210.724 155.109 205.577 151.815 212.205 147.821Z" fill="#DAB96A"/>
<path d="M223.074 137.069C224.467 136.877 227.051 137.072 227.388 138.836C228.265 143.447 224.184 146.028 222.273 149.609C221.656 147.843 220.752 145.822 220.02 144.072C219.607 142.997 219.477 142.586 218.502 142.065C216.703 142.052 214.534 144.326 212.868 145.574C215.477 141.786 218.661 138.53 223.074 137.069Z" fill="#DAB96A"/>
<path d="M149.343 145.923C152.623 145.696 157.037 147.794 160.755 148.181C162.437 148.356 168.609 148.38 169.265 148.678L169.09 148.964C164.739 150.483 159.14 150.584 154.76 149.081C153.249 148.562 150.247 147.17 149.343 145.923Z" fill="#DAB96A"/>
<path d="M153.844 170.375C157.445 172.853 160.489 179.135 162.266 183.101C160.634 182.132 157.16 177.316 155.903 175.645C154.868 174.267 154.264 172.051 153.844 170.375Z" fill="#DAB96A"/>
<path d="M135.927 187.767C136.603 188.722 137.743 192.706 137.618 193.923C137.523 194.839 137.15 194.925 136.486 195.505L136.01 195.611L135.736 195.363C135.852 192.777 135.82 190.287 135.927 187.767Z" fill="#DAB96A"/>
<path d="M206.03 210.87C207.647 211.796 212.59 218.499 214.388 220.579C219.7 226.721 225.923 232.9 230.873 239.288C232.431 241.296 234.453 247.608 235.539 250.184C238.63 257.508 241.226 265.199 244.462 272.467C241.747 274.74 228.385 284.95 227.92 287.175C229.087 288.559 243.081 295.473 245.688 297.006C244.43 299.381 241.735 303.758 240.271 305.992C240.757 303.64 242.18 300.219 242.949 297.697C238.318 294.937 233.333 292.673 228.957 289.51C226.96 288.138 225.702 285.894 227.544 283.761C231.325 279.381 236.003 275.684 239.74 271.218C238.544 268.057 237.131 264.734 235.861 261.581C234.598 258.479 233.367 255.365 232.163 252.238C230.119 259.369 227.51 266.389 223.793 272.831C222.98 274.239 219.97 279.366 218.528 279.75C217.934 279.406 217.764 279.238 217.086 279.155C215.354 280.3 211.666 285.169 210.143 287.067C207.61 285.248 205.099 283.397 202.613 281.517L205.878 290.095C205.094 289.5 203.625 288.089 202.692 288.473C202.775 289.109 202.829 289.249 202.748 289.876C201.881 289.692 201.512 289.239 200.842 288.647C196.702 294.649 190.72 302.079 186.214 308.055C187.229 303.918 188.7 299.059 189.847 294.9L199.001 262.222C201.945 251.717 205.016 241.601 206.089 230.678C206.755 223.919 206.35 217.649 206.03 210.87Z" fill="white"/>
<path d="M93.4678 242.842C94.2146 243.021 97.6866 246.209 98.5204 246.92C101.884 249.761 105.412 252.403 109.088 254.829C112.297 256.936 116.056 258.998 119.487 260.762C122.312 262.215 125.642 263.338 128.228 265.15C125.166 264.503 122.988 263.446 120.104 262.247C112.978 265.617 113.533 272.251 113.61 278.939C113.643 281.856 113.625 284.491 114.115 287.396C114.551 283.891 114.837 280.369 114.97 276.839C116.093 277.98 117.905 279.936 118.738 281.264C118.776 286.086 120.142 289.38 120.775 293.944C120.973 295.374 118.949 299.658 118.453 301.318C117.836 303.377 116.892 305.781 116.555 308.015C114.889 316.876 114.384 325.978 113.491 334.949C113.354 336.424 113.044 338.171 112.818 339.661C111.992 335.659 111.039 331.709 110.048 327.747C106.175 312.265 103.62 296.613 101.056 280.87C104.48 286.145 108.025 291.343 111.688 296.458C111.114 294.76 106.421 280.917 106.772 280.096C108.2 280.072 109.448 281.598 110.556 282.633C108.357 278.872 105.34 274.6 103.323 270.845C99.1523 263.075 94.9551 251.558 93.4678 242.842Z" fill="white"/>
<path d="M139.675 274.158C141.935 274.58 144.031 278.036 143.294 280.175C142.685 280.312 142.889 280.202 142.407 280.565C142.911 281.416 142.96 281.524 143.292 282.456L143.048 282.687C142.063 282.266 141.083 281.839 140.108 281.399C141.439 282.524 142.754 283.67 144.053 284.835C143.043 284.655 141.498 284.208 140.673 284.584L141.053 285.248L140.918 285.648C140.007 285.98 138.635 285.7 137.617 285.584C138.915 286.216 141.53 287.44 140.437 289.76C139.375 292.007 138.543 290.422 137.442 290.785C137.541 291.225 138.559 291.724 139.132 292.14L139.137 292.449L137.364 292.946C137.1 293.663 137.873 293.13 138.193 293.912C136.088 293.904 134.943 293.477 132.925 292.98C132.368 292.771 132.236 292.688 131.72 292.383L131.745 292.12L133.462 291.744C133.488 291.176 132.881 291.097 132.186 290.318L132.36 290.001C133.135 289.947 133.517 289.927 134.292 289.753L134.248 289.505C133.52 289.141 132.902 288.804 132.197 288.399L132.236 288.087C132.943 287.929 133.15 287.9 133.833 287.62L133.773 287.145C132.976 286.076 132.124 285.592 131.036 284.847C132.98 284.913 134.61 284.945 136.551 284.881C134.726 284.23 132.588 283.623 130.724 283.053C133.073 282.733 134.933 282.819 137.293 282.844C136.269 282.473 134.457 282.03 133.938 281.268C134.485 280.556 135.159 280.949 136.444 280.298L136.402 279.988C135.847 279.602 135.643 279.523 135.254 278.97C135.835 278.388 136.368 278.702 137.603 278.57C137.679 277.918 136.773 278.036 135.964 277.004C136.407 276.227 137.316 277.075 138.097 276.473C137.44 275.913 137.103 275.834 136.907 275.151C137.714 274.816 137.439 274.912 138.464 275.163C139.265 274.942 139.039 274.964 139.675 274.158Z" fill="white"/>
<path d="M137.3 297.901C137.259 296.859 137.119 297.097 137.57 296.323C138.88 296.608 139.488 301.217 139.675 302.377C139.808 300.521 139.906 298.39 140.12 296.564C140.54 298.326 142.766 306.405 142.876 307.234C143.54 312.23 148.625 342.863 148.227 345.154L147.945 345.1C147.529 344.09 147.468 342.448 147.296 341.934C146.198 338.64 141.864 311.55 141.083 310.766L140.928 311.687C141.25 313.801 141.672 318.439 141.061 320.43H140.953L141.137 319.838L140.697 319.729L140.257 316.463C139.508 312.629 138.797 308.789 138.128 304.94C137.771 302.657 137.619 300.229 137.3 297.901Z" fill="white"/>
<path d="M140.928 311.687C141.249 313.801 141.672 318.439 141.06 320.43H140.952L141.136 319.838L140.697 319.729L140.257 316.463L140.584 316.394C140.905 315.954 140.851 312.715 140.928 311.687Z" fill="#FAF6E2"/>
<path d="M98.0757 133.426C102.603 132.999 108.613 133.872 112.099 137.024C112.966 137.807 114.789 140.248 113.695 141.327C113.177 141.255 108.265 139.318 106.858 138.92C104.549 138.491 102.205 138.28 99.8556 138.289C97.9432 138.282 96.196 138.496 94.3091 138.595C92.7314 138.678 88.8779 139.44 88.3359 137.617C89.3769 134.551 95.315 133.747 98.0757 133.426Z" fill="white"/>
<path d="M155.364 15.6385C155.914 15.578 156.45 15.4802 156.953 15.6967C159.599 16.8316 163.415 15.6614 166.422 16.5499C167.623 16.9043 171.574 17.9617 172.122 18.8424L171.51 19.6618C173.271 20.4129 174.9 19.9872 178.207 21.4713C175.34 21.5028 173.04 21.5155 170.208 22.0054C168.461 22.4282 165.176 23.4487 163.631 23.4922L163.508 23.2353C163.965 22.614 164.073 22.6312 164.186 21.9231C162.13 21.7439 158.946 23.7129 157.145 22.659C157.13 21.8326 157.597 21.4231 158.115 20.6157L157.995 20.3122C156.027 20.1851 156.293 19.838 155.251 18.2355C154.167 18.0922 153.025 18.0558 152.227 17.348L152.308 16.879C153.217 16.1623 154.236 15.9725 155.364 15.6385Z" fill="white"/>
<path d="M188.659 40.0036C193.494 39.5956 197.818 41.4107 201.029 44.9609L197.889 45.9644C199.181 46.8153 200.304 47.6872 201.53 48.628C198.742 48.6275 195.958 48.7802 193.187 49.0854C191.617 49.2319 187.883 49.9027 186.745 49.139L186.858 48.7571C190.194 46.1584 191.75 45.1371 195.779 44.0421C194.572 43.7646 191.425 43.3669 190.686 42.7446L190.927 41.9945C190.541 41.1797 189.924 41.4028 188.733 40.5991L188.659 40.0036Z" fill="white"/>
<path d="M182.372 29.4741C183.301 29.4805 184.227 29.5569 185.146 29.7032C191.192 30.7276 193.413 34.8045 196.648 39.3968C193.57 38.1087 191.865 37.5478 188.585 37.1786C187.686 37.1847 187.487 37.1872 186.613 37.0166C186.698 36.5059 188.126 35.6321 188.784 35.0739L188.789 34.6866C187.079 34.123 180.881 34.4806 178.608 34.4823C180.171 33.0054 181.343 32.3584 183.21 31.3505C181.515 31.0066 179.832 30.6092 178.161 30.1589C179.844 29.742 180.635 29.6447 182.372 29.4741Z" fill="white"/>
<path d="M126.907 295.34C127.64 297.137 127.702 298.444 128.65 300.573L128.902 300.615C129.37 298.565 128.57 296.404 129.426 295.094L129.886 295.193C131.296 296.975 130.763 301.2 131.873 303.744L132.031 304.36C131.634 305.604 133.022 315.566 133.176 317.702C131.21 313.455 130.927 310.242 130.246 305.653C130.032 304.56 129.975 303.837 129.405 302.876L129.086 302.837C128.799 303.815 129.175 304.628 129.416 305.607C129.207 306.45 130.14 314.91 130.085 317.112C127.28 311.879 126.809 301.359 126.907 295.34Z" fill="white"/>
<path d="M203.362 90.5527C207.598 90.5456 211.447 94.1695 213.396 97.6578C211.678 97.0487 209.904 95.9952 208.276 95.5867C207.625 96.3681 209.177 96.4649 208.352 98.5918C205.549 98.2218 201.596 93.2193 200.058 91.0873C202.244 91.9872 204.414 92.9273 206.566 93.907C205.413 92.5793 204.163 91.9444 203.362 90.5527Z" fill="white"/>
<path d="M134.788 295.817C135.851 295.849 135.411 295.667 136.182 296.306C136.38 296.891 136.547 297.326 136.646 297.945L137.3 297.901C137.619 300.229 137.771 302.657 138.127 304.94L137.595 305.838C137.963 309.608 138.517 315.689 138.368 319.334C137.061 314.17 135.23 304.306 134.738 298.938C134.671 297.864 134.518 296.842 134.788 295.817Z" fill="white"/>
<path d="M137.3 297.901C137.619 300.228 137.771 302.657 138.128 304.94L137.596 305.837C137.222 304.073 136.983 300.142 136.646 297.945L137.3 297.901Z" fill="#E5C98B"/>
<path d="M131.873 303.743C133.066 301.851 130.483 296.982 132.137 295.188C133.094 295.31 132.641 295.153 133.487 295.812C133.584 297.262 133.84 298.28 134.155 299.695C134.547 303.279 134.848 306.845 135.17 310.434C135.378 312.759 135.824 314.959 135.754 317.299L135.558 317.466C133.967 314.354 133.387 305.85 132.485 304.5L132.032 304.36L131.873 303.743Z" fill="#F9F8F2"/>
<path d="M68.8728 261.291L69.1775 261.603C69.1558 262.22 66.9904 265.713 66.4968 266.622C63.2979 272.521 60.2871 278.53 57.0235 284.39C56.6699 285.024 56.5058 284.914 55.8737 285.036C55.1479 284.346 55.1243 284.537 54.917 283.719C55.7901 281.782 58.3356 278.039 59.5805 276.063L68.8728 261.291Z" fill="white"/>
<path d="M141.859 4.10107C145.019 5.23391 147.203 6.36086 149.839 8.51249C148.932 8.6108 147.836 8.71846 146.959 8.93942C145.48 9.31277 142.161 10.9035 140.812 10.3011C141.277 8.46136 144.672 7.99068 146.222 7.65493C144.844 7.16433 143.063 6.71528 141.933 5.9902C141.837 5.63406 141.78 5.57384 141.788 5.21794L141.859 4.10107Z" fill="white"/>
<path d="M82.2775 44.7018C82.9979 44.6379 83.8211 44.4641 84.3137 44.969C84.1412 45.185 76.0584 49.9541 74.8106 50.9045C74.135 51.4637 74.4706 51.4015 73.781 51.4499C73.6387 50.0615 75.8488 48.0084 76.88 47.1354C78.5636 45.7095 80.15 45.1098 82.2775 44.7018Z" fill="white"/>
<path d="M212.517 56.1155C214.843 57.1382 218.538 61.6804 219.091 64.1422L218.88 64.4185L218.467 64.3086C217.086 63.378 213.915 61.4631 212.922 60.4168C213.418 59.2154 213.131 60.592 214.298 59.8588C214.094 58.8155 213.033 57.6313 212.517 56.1155Z" fill="white"/>
<path d="M191.69 55.2848C193.071 55.2263 198.365 54.8168 199.006 55.8567C198.458 56.4464 197.486 56.6157 196.67 56.8529C193.083 57.6997 191.049 57.0454 187.786 55.6965C188.872 55.4758 190.545 55.3833 191.69 55.2848Z" fill="white"/>
<path d="M148.367 308.934L148.785 309.202C149.635 310.903 151.45 316.792 149.93 318.25C148.529 315.467 146.377 311.672 148.367 308.934Z" fill="white"/>
<path d="M177.223 24.485C180.131 24.179 181.922 24.7185 184.672 25.5635C183.446 25.8489 181.249 25.8644 179.918 25.9167C177.579 26.0121 175.277 26.2645 172.95 26.4961C174.667 25.4374 175.331 25.0928 177.223 24.485Z" fill="white"/>
<path d="M145.055 310.419C147.2 311.488 147.704 315.443 147.765 317.623C145.237 317.247 144.969 312.432 145.055 310.419Z" fill="white"/>
<path d="M85.9651 55.8389C86.469 55.9495 86.2636 55.815 86.5636 56.2692C85.9255 57.5151 82.6661 59.5392 81.3421 60.4282L80.8734 60.4528L80.8594 59.9497C82.0239 57.9573 83.8903 56.7117 85.9651 55.8389Z" fill="white"/>
<path d="M141.788 5.21783C141.299 4.87594 137.782 3.95644 136.045 3.04924L136.163 2.87939C138.564 3.18393 139.533 3.40882 141.859 4.10096L141.788 5.21783Z" fill="#FAF6E2"/>
<path d="M93.4327 145.976C94.4562 146.404 95.3203 148.211 95.7703 149.225C93.7754 149.157 93.359 147.639 93.4327 145.976Z" fill="white"/>
<path d="M206.33 48.4304C207.799 48.8743 208.59 50.4515 209.035 51.8071C207.389 51.3044 206.974 49.8752 206.33 48.4304Z" fill="#FAF6E2"/>
</g>
<path d="M413.348 123.247L394.108 78.6381L375.01 123.247H413.348ZM419.619 138.117H368.597L358.525 161.728H339L384.939 59.6829H403.609L449.691 161.728H429.881L419.667 138.117H419.619Z" fill="#D9B96B"/>
<path d="M529.363 75.6927H478.768L478.91 161.728H460.24V59.6829H529.505L529.363 75.6927Z" fill="#D9B96B"/>
<path d="M638.197 59.6829L593.873 142.06C589.978 149.328 585.322 154.839 579.954 158.45C574.538 162.108 568.695 163.913 562.376 163.913C557.34 163.913 552.305 162.82 547.364 160.682L552.02 145.813C556.01 147.095 559.288 147.713 561.949 147.713C568.077 147.713 573.113 144.578 577.103 138.259L578.719 135.789L538.053 59.6829H558.338L588.505 119.589L619.574 59.6829H638.245H638.197Z" fill="#D9B96B"/>
<path d="M739.957 59.6829V161.728H721.334V75.6927H668.364V161.728H649.741V59.6829H739.957Z" fill="#D9B96B"/>
<path d="M792.549 118.734H773.594V161.728H754.924V59.6829H773.594V102.392H793.119L822.431 59.6829H842.526L807.704 109.09L843.857 161.728H822.431L792.549 118.734Z" fill="#D9B96B"/>
<path d="M899.677 116.216C907.943 116.216 914.214 114.458 918.49 110.99C922.765 107.475 924.903 102.487 924.903 95.9781C924.903 89.4697 922.765 84.4814 918.49 80.9659C914.214 77.4504 907.943 75.6927 899.677 75.6927H877.539V116.216H899.677ZM900.532 59.6829C909.368 59.6829 917.065 61.1556 923.62 64.0535C930.176 66.9514 935.212 71.132 938.728 76.5953C942.243 82.0586 943.953 88.5195 943.953 95.9781C943.953 103.437 942.196 109.803 938.728 115.313C935.212 120.824 930.176 125.005 923.62 127.903C917.065 130.801 909.368 132.273 900.532 132.273H877.491V161.728H858.536V59.6829H900.532Z" fill="#D9B96B"/>
<path d="M612.261 251.848C613.116 251.848 613.828 251.658 614.304 251.278C614.779 250.898 615.016 250.328 615.016 249.568C615.016 248.807 614.779 248.237 614.304 247.81C613.828 247.382 613.116 247.192 612.261 247.192H609.268V251.848H612.261ZM620.194 239.639H623.377V254.603H620.194V239.639ZM606.037 239.639H609.268V244.389H612.403C614.161 244.389 615.586 244.864 616.631 245.767C617.724 246.67 618.247 247.905 618.247 249.473C618.247 251.04 617.724 252.275 616.631 253.226C615.539 254.128 614.114 254.603 612.403 254.603H606.037V239.639ZM602.997 254.603H599.006L589.695 243.914L598.151 234.508H602.094L593.733 243.914L602.997 254.603ZM586.37 234.508H589.6V254.603H586.37V234.508ZM566.939 242.014C565.894 242.014 564.944 242.347 564.184 243.012C563.424 243.677 562.901 244.579 562.664 245.672H570.787C570.787 244.532 570.407 243.629 569.647 243.012C568.887 242.347 567.984 242.014 566.939 242.014ZM573.733 248.19H562.569C562.759 249.425 563.329 250.375 564.184 251.088C565.086 251.8 566.132 252.133 567.414 252.133C568.982 252.133 570.407 251.563 571.785 250.375L573.305 252.561C571.595 254.176 569.6 254.983 567.319 254.983C565.799 254.983 564.421 254.651 563.186 253.986C561.951 253.321 561.001 252.37 560.288 251.183C559.576 249.995 559.243 248.665 559.243 247.192C559.243 245.72 559.576 244.437 560.241 243.249C560.906 242.062 561.856 241.111 563.044 240.399C564.231 239.686 565.514 239.354 566.939 239.354C568.269 239.354 569.457 239.639 570.502 240.256C571.547 240.874 572.355 241.681 572.973 242.727C573.59 243.772 573.875 244.912 573.875 246.242C573.875 246.86 573.78 247.525 573.638 248.237L573.733 248.19ZM549.457 242.442H544.658V239.686H557.485V242.442H552.687V254.651H549.504V242.442H549.457ZM528.934 239.639H532.164V245.387H538.578V239.639H541.761V254.603H538.578V248.142H532.164V254.603H528.934V239.639ZM518.197 242.014C517.152 242.014 516.202 242.347 515.442 243.012C514.682 243.677 514.159 244.579 513.922 245.672H522.045C522.045 244.532 521.665 243.629 520.905 243.012C520.145 242.347 519.242 242.014 518.197 242.014ZM524.991 248.19H513.827C514.017 249.425 514.587 250.375 515.442 251.088C516.344 251.8 517.39 252.133 518.672 252.133C520.24 252.133 521.665 251.563 523.043 250.375L524.563 252.561C522.853 254.176 520.858 254.983 518.577 254.983C517.057 254.983 515.679 254.651 514.444 253.986C513.209 253.321 512.259 252.37 511.546 251.183C510.834 249.995 510.501 248.665 510.501 247.192C510.501 245.72 510.834 244.437 511.499 243.249C512.164 242.062 513.114 241.111 514.302 240.399C515.489 239.686 516.772 239.354 518.197 239.354C519.527 239.354 520.715 239.639 521.76 240.256C522.805 240.874 523.613 241.681 524.231 242.727C524.848 243.772 525.133 244.912 525.133 246.242C525.133 246.86 525.038 247.525 524.896 248.237L524.991 248.19ZM496.201 251.848H502.757V242.442H497.769V243.962C497.674 247.572 497.152 250.185 496.201 251.848ZM508.458 251.848V258.926H505.37V254.651H494.349V258.926H491.213V251.848H492.876C493.494 251.183 493.969 250.185 494.254 248.855C494.539 247.525 494.729 245.815 494.776 243.629L494.919 239.639H505.988V251.848H508.458ZM488.695 239.306V254.603H485.465V245.292L476.771 254.936H475.631V239.639H478.861V248.998L487.603 239.306H488.695ZM469.55 246.717C470.31 247.097 470.88 247.572 471.26 248.19C471.64 248.807 471.878 249.473 471.878 250.233C471.878 251.705 471.355 252.846 470.31 253.701C469.265 254.508 467.84 254.936 465.987 254.936C463.374 254.936 461.331 253.986 459.906 252.085L461.854 250.185C462.329 250.755 462.899 251.23 463.564 251.61C464.182 251.943 464.989 252.133 465.845 252.133C466.7 252.133 467.46 251.943 467.982 251.563C468.458 251.183 468.743 250.708 468.743 250.043C468.743 249.473 468.505 248.998 468.03 248.617C467.555 248.285 466.89 248.095 466.035 248.095H464.277V245.53H465.94C466.652 245.53 467.175 245.387 467.507 245.054C467.887 244.769 468.077 244.342 468.077 243.819C468.077 243.297 467.887 242.917 467.507 242.584C467.127 242.299 466.557 242.109 465.845 242.109C464.989 242.109 464.324 242.252 463.754 242.537C463.184 242.822 462.662 243.249 462.187 243.772L460.239 241.871C460.856 241.064 461.664 240.446 462.662 239.971C463.659 239.496 464.752 239.259 465.987 239.259C467.602 239.259 468.885 239.639 469.835 240.351C470.785 241.111 471.213 242.157 471.213 243.487C471.213 244.152 471.07 244.769 470.785 245.292C470.5 245.815 470.12 246.29 469.598 246.67L469.55 246.717ZM450.69 242.014C449.645 242.014 448.695 242.347 447.935 243.012C447.174 243.677 446.652 244.579 446.414 245.672H454.538C454.538 244.532 454.158 243.629 453.398 243.012C452.638 242.347 451.735 242.014 450.69 242.014ZM457.483 248.19H446.319C446.509 249.425 447.079 250.375 447.935 251.088C448.837 251.8 449.882 252.133 451.165 252.133C452.733 252.133 454.158 251.563 455.536 250.375L457.056 252.561C455.346 254.176 453.35 254.983 451.07 254.983C449.55 254.983 448.172 254.651 446.937 253.986C445.702 253.321 444.752 252.37 444.039 251.183C443.326 249.995 442.994 248.665 442.994 247.192C442.994 245.72 443.326 244.437 443.991 243.249C444.657 242.062 445.607 241.111 446.794 240.399C447.982 239.686 449.265 239.354 450.69 239.354C452.02 239.354 453.208 239.639 454.253 240.256C455.298 240.874 456.106 241.681 456.723 242.727C457.341 243.772 457.626 244.912 457.626 246.242C457.626 246.86 457.531 247.525 457.388 248.237L457.483 248.19ZM432.447 252.038C433.302 252.038 434.063 251.848 434.775 251.42C435.488 250.993 436.01 250.423 436.438 249.71C436.865 248.998 437.055 248.142 437.055 247.192C437.055 246.242 436.865 245.387 436.438 244.627C436.058 243.867 435.488 243.297 434.775 242.869C434.063 242.442 433.302 242.252 432.447 242.252C431.64 242.252 430.927 242.442 430.262 242.774C429.597 243.107 429.027 243.677 428.599 244.389C428.172 245.102 427.982 246.005 427.982 247.097C427.982 248.19 428.172 249.093 428.599 249.805C429.027 250.565 429.597 251.088 430.262 251.468C430.927 251.8 431.687 251.99 432.447 251.99V252.038ZM432.97 239.306C434.348 239.306 435.63 239.639 436.77 240.304C437.911 240.969 438.766 241.919 439.383 243.107C440.001 244.294 440.333 245.625 440.333 247.097C440.333 248.57 440.001 249.9 439.383 251.088C438.766 252.275 437.863 253.226 436.77 253.891C435.63 254.556 434.395 254.888 432.97 254.888C431.972 254.888 431.022 254.698 430.167 254.318C429.312 253.938 428.599 253.416 427.982 252.703V260.019H424.799V239.591H427.792V241.681C428.362 240.921 429.074 240.304 429.977 239.876C430.88 239.449 431.877 239.259 432.97 239.259V239.306ZM403.801 234.508H420.048V254.603H416.818V237.406H406.984V254.603H403.753V234.508H403.801ZM390.356 239.306V254.603H387.126V245.292L378.432 254.936H377.292V239.639H380.522V248.998L389.264 239.306H390.356ZM365.748 252.038C366.603 252.038 367.363 251.848 368.076 251.42C368.788 250.993 369.311 250.423 369.738 249.71C370.166 248.998 370.356 248.142 370.356 247.192C370.356 246.242 370.166 245.387 369.786 244.627C369.406 243.867 368.836 243.297 368.123 242.869C367.41 242.442 366.65 242.252 365.795 242.252C364.988 242.252 364.275 242.442 363.61 242.774C362.945 243.107 362.375 243.677 361.947 244.389C361.52 245.102 361.33 246.005 361.33 247.097C361.33 248.19 361.567 249.093 361.947 249.805C362.375 250.565 362.945 251.088 363.61 251.468C364.275 251.8 365.035 251.99 365.795 251.99L365.748 252.038ZM366.27 239.306C367.648 239.306 368.931 239.639 370.071 240.304C371.211 240.969 372.066 241.919 372.684 243.107C373.301 244.294 373.634 245.625 373.634 247.097C373.634 248.57 373.301 249.9 372.684 251.088C372.066 252.275 371.163 253.226 370.071 253.891C368.931 254.556 367.695 254.888 366.27 254.888C365.273 254.888 364.323 254.698 363.467 254.318C362.612 253.938 361.9 253.416 361.282 252.703V260.019H358.099V239.591H361.092V241.681C361.662 240.921 362.375 240.304 363.277 239.876C364.18 239.449 365.178 239.259 366.27 239.259V239.306ZM340.664 239.639H353.348V254.603H350.118V242.394H343.895V254.603H340.664V239.639ZM933.359 207.952H930.367C929.559 207.952 928.941 208.142 928.514 208.569C928.086 208.949 927.849 209.519 927.849 210.184C927.849 210.85 928.086 211.42 928.514 211.8C928.989 212.18 929.606 212.37 930.367 212.37H933.359V207.904V207.952ZM936.59 205.196V220.161H933.407V215.125H931.174L927.326 220.161H923.621L927.896 214.698C926.851 214.318 925.996 213.747 925.426 212.94C924.856 212.18 924.523 211.23 924.523 210.137C924.523 208.617 925.046 207.429 926.043 206.526C927.041 205.624 928.466 205.149 930.177 205.149H936.542L936.59 205.196ZM920.153 204.864V220.161H916.922V210.85L908.228 220.493H907.088V205.196H910.319V214.555L919.06 204.864H920.153ZM889.558 205.196H892.789V210.945H899.202V205.196H902.385V220.161H899.202V213.7H892.789V220.161H889.558V205.196ZM878.822 207.572C877.777 207.572 876.826 207.904 876.066 208.569C875.306 209.234 874.784 210.137 874.546 211.23H882.67C882.67 210.089 882.29 209.187 881.53 208.569C880.769 207.904 879.867 207.572 878.822 207.572ZM885.615 213.7H874.451C874.641 214.935 875.211 215.885 876.066 216.598C876.969 217.31 878.014 217.643 879.297 217.643C880.864 217.643 882.29 217.073 883.667 215.885L885.188 218.071C883.477 219.686 881.482 220.493 879.202 220.493C877.681 220.493 876.304 220.161 875.069 219.496C873.833 218.831 872.883 217.881 872.171 216.693C871.458 215.505 871.125 214.175 871.125 212.702C871.125 211.23 871.458 209.947 872.123 208.759C872.788 207.572 873.738 206.621 874.926 205.909C876.114 205.196 877.396 204.864 878.822 204.864C880.152 204.864 881.34 205.149 882.385 205.766C883.43 206.384 884.237 207.191 884.855 208.237C885.473 209.282 885.758 210.422 885.758 211.752C885.758 212.37 885.663 213.035 885.52 213.747L885.615 213.7ZM867.468 205.196V220.161H864.285V207.952H859.486V209.424C859.391 211.99 859.201 214.08 858.869 215.648C858.536 217.215 858.014 218.403 857.301 219.163C856.588 219.923 855.638 220.303 854.451 220.303C854.023 220.303 853.596 220.256 853.31 220.113V217.453C853.548 217.453 853.738 217.5 853.928 217.5C854.831 217.5 855.448 216.835 855.828 215.458C856.208 214.08 856.446 211.895 856.446 208.902V205.149H867.515L867.468 205.196ZM845.709 217.595C846.517 217.595 847.135 217.405 847.61 217.025C848.085 216.645 848.275 216.17 848.275 215.553C848.275 214.935 848.037 214.508 847.61 214.127C847.135 213.795 846.517 213.605 845.709 213.605H841.671V217.548H845.709V217.595ZM841.671 211.135H844.997C846.422 211.135 847.135 210.564 847.135 209.424C847.135 208.284 846.422 207.762 844.997 207.762H841.671V211.135ZM848.75 212.085C849.557 212.37 850.175 212.845 850.65 213.462C851.078 214.08 851.315 214.793 851.315 215.648C851.315 216.978 850.84 218.071 849.842 218.926C848.845 219.781 847.562 220.208 845.994 220.208H838.536V205.244H845.139C846.612 205.244 847.847 205.624 848.75 206.336C849.7 207.096 850.128 208.047 850.128 209.329C850.128 209.899 850.033 210.422 849.795 210.897C849.557 211.372 849.225 211.8 848.75 212.132V212.085ZM826.944 218.023C828.037 218.023 828.939 217.691 829.7 217.025C830.46 216.36 830.84 215.505 830.84 214.508V214.223H826.992C826.137 214.223 825.471 214.365 825.044 214.698C824.569 214.983 824.379 215.458 824.379 216.075C824.379 216.693 824.616 217.215 825.091 217.548C825.566 217.881 826.184 218.071 826.992 218.071L826.944 218.023ZM827.942 204.864C829.795 204.864 831.267 205.386 832.407 206.479C833.548 207.572 834.07 209.092 834.07 211.135V220.161H831.077V218.498C830.507 219.163 829.842 219.638 829.034 219.971C828.227 220.303 827.324 220.493 826.279 220.493C824.711 220.493 823.476 220.113 822.479 219.306C821.528 218.498 821.053 217.453 821.053 216.17C821.053 214.888 821.528 213.842 822.526 213.082C823.524 212.322 824.854 211.942 826.564 211.942H830.792V210.945C830.792 209.899 830.507 209.139 829.937 208.569C829.367 207.999 828.607 207.762 827.562 207.762C826.707 207.762 825.994 207.952 825.329 208.332C824.664 208.712 824.046 209.234 823.429 209.994L821.576 208.094C822.336 207.001 823.239 206.194 824.331 205.671C825.424 205.149 826.612 204.864 827.894 204.864H827.942ZM810.649 217.548C811.504 217.548 812.265 217.358 812.977 216.93C813.69 216.503 814.212 215.933 814.64 215.22C815.067 214.508 815.258 213.652 815.258 212.702C815.258 211.752 815.067 210.897 814.687 210.137C814.307 209.377 813.737 208.807 813.025 208.379C812.312 207.952 811.552 207.762 810.697 207.762C809.889 207.762 809.177 207.952 808.512 208.284C807.846 208.617 807.276 209.187 806.849 209.899C806.421 210.612 806.231 211.515 806.231 212.607C806.231 213.7 806.421 214.603 806.849 215.315C807.276 216.075 807.846 216.598 808.512 216.978C809.177 217.31 809.937 217.5 810.697 217.5L810.649 217.548ZM811.124 204.864C812.502 204.864 813.785 205.196 814.925 205.909C816.065 206.574 816.92 207.524 817.538 208.712C818.155 209.899 818.488 211.23 818.488 212.702C818.488 214.175 818.155 215.505 817.538 216.693C816.92 217.881 816.018 218.831 814.925 219.496C813.785 220.161 812.55 220.493 811.124 220.493C810.127 220.493 809.177 220.303 808.321 219.923C807.466 219.543 806.754 219.021 806.136 218.308V225.624H802.953V205.196H805.946V207.286C806.516 206.526 807.229 205.909 808.131 205.481C809.034 205.054 810.032 204.864 811.172 204.864H811.124ZM785.566 205.196H798.25V220.161H795.02V207.952H788.796V220.161H785.566V205.196ZM782.668 205.196L775.399 221.871C774.782 223.296 774.022 224.341 773.166 225.007C772.311 225.672 771.219 226.004 769.936 226.004C769.081 226.004 768.273 225.909 767.466 225.719V223.011C768.416 223.106 768.986 223.154 769.223 223.154C769.983 223.154 770.601 223.011 771.124 222.679C771.646 222.346 772.121 221.776 772.454 220.968L773.071 219.543L767.086 205.244H770.506L774.782 216.123L779.2 205.244H782.62L782.668 205.196ZM748.7 217.5C749.556 217.5 750.363 217.31 751.076 216.883C751.788 216.455 752.358 215.885 752.738 215.125C753.166 214.365 753.356 213.557 753.356 212.655C753.356 211.752 753.166 210.897 752.738 210.137C752.311 209.377 751.788 208.807 751.076 208.379C750.363 207.952 749.603 207.762 748.748 207.762C747.893 207.762 747.085 207.999 746.373 208.379C745.66 208.807 745.09 209.377 744.71 210.137C744.282 210.897 744.092 211.705 744.092 212.655C744.092 213.605 744.282 214.413 744.71 215.125C745.137 215.885 745.66 216.455 746.373 216.883C747.085 217.31 747.845 217.5 748.748 217.5H748.7ZM748.7 220.493C747.275 220.493 745.945 220.161 744.71 219.448C743.522 218.736 742.525 217.786 741.859 216.598C741.147 215.41 740.814 214.08 740.814 212.655C740.814 211.23 741.147 209.899 741.859 208.712C742.572 207.524 743.522 206.574 744.71 205.909C745.897 205.196 747.228 204.864 748.7 204.864C750.173 204.864 751.503 205.196 752.738 205.909C753.974 206.621 754.924 207.524 755.636 208.759C756.349 209.947 756.682 211.277 756.682 212.702C756.682 214.127 756.349 215.458 755.636 216.645C754.924 217.833 753.974 218.783 752.738 219.496C751.503 220.208 750.173 220.541 748.7 220.541V220.493ZM728.795 205.196H739.342V207.952H732.025V220.161H728.795V205.196ZM717.156 217.5C718.011 217.5 718.819 217.31 719.531 216.883C720.244 216.455 720.814 215.885 721.194 215.125C721.621 214.365 721.812 213.557 721.812 212.655C721.812 211.752 721.621 210.897 721.194 210.137C720.766 209.377 720.244 208.807 719.531 208.379C718.819 207.952 718.058 207.762 717.203 207.762C716.348 207.762 715.541 207.999 714.828 208.379C714.115 208.807 713.545 209.377 713.165 210.137C712.738 210.897 712.548 211.705 712.548 212.655C712.548 213.605 712.738 214.413 713.165 215.125C713.593 215.838 714.115 216.455 714.828 216.883C715.541 217.31 716.301 217.5 717.203 217.5H717.156ZM717.156 220.493C715.731 220.493 714.4 220.161 713.165 219.448C711.978 218.736 710.98 217.786 710.315 216.598C709.602 215.41 709.27 214.08 709.27 212.655C709.27 211.23 709.602 209.899 710.315 208.712C711.027 207.524 711.978 206.574 713.165 205.909C714.353 205.196 715.683 204.864 717.156 204.864C718.629 204.864 719.959 205.196 721.194 205.909C722.429 206.621 723.379 207.524 724.092 208.759C724.804 209.947 725.137 211.277 725.137 212.702C725.137 214.127 724.804 215.458 724.092 216.645C723.379 217.833 722.429 218.783 721.194 219.496C719.959 220.208 718.629 220.541 717.156 220.541V220.493ZM692.69 205.196H695.92V210.945H702.334V205.196H705.517V220.161H702.334V213.7H695.92V220.161H692.69V205.196ZM675.112 205.196H678.343V210.945H684.756V205.196H687.939V220.161H684.756V213.7H678.343V220.161H675.112V205.196ZM664.423 207.572C663.378 207.572 662.428 207.904 661.668 208.569C660.908 209.234 660.385 210.137 660.148 211.23H668.271C668.271 210.089 667.891 209.187 667.131 208.569C666.371 207.904 665.468 207.572 664.423 207.572ZM671.217 213.7H660.053C660.243 214.935 660.813 215.885 661.668 216.598C662.57 217.31 663.616 217.643 664.898 217.643C666.466 217.643 667.939 217.073 669.269 215.885L670.789 218.071C669.079 219.686 667.084 220.493 664.803 220.493C663.283 220.493 661.905 220.161 660.67 219.496C659.435 218.831 658.485 217.881 657.772 216.693C657.06 215.505 656.727 214.175 656.727 212.702C656.727 211.23 657.06 209.947 657.772 208.759C658.437 207.572 659.388 206.621 660.575 205.909C661.763 205.196 663.046 204.864 664.471 204.864C665.801 204.864 666.989 205.149 668.034 205.766C669.079 206.384 669.887 207.191 670.504 208.237C671.122 209.282 671.407 210.422 671.407 211.752C671.407 212.37 671.312 213.035 671.169 213.747L671.217 213.7ZM648.223 217.595C649.031 217.595 649.649 217.405 650.124 217.025C650.599 216.645 650.789 216.17 650.789 215.553C650.789 214.935 650.551 214.508 650.124 214.127C649.649 213.795 649.031 213.605 648.223 213.605H644.185V217.548H648.223V217.595ZM644.185 211.135H647.511C648.936 211.135 649.649 210.564 649.649 209.424C649.649 208.284 648.936 207.762 647.511 207.762H644.185V211.135ZM651.264 212.085C652.071 212.37 652.689 212.845 653.164 213.462C653.592 214.08 653.829 214.793 653.829 215.648C653.829 216.978 653.354 218.071 652.356 218.926C651.359 219.781 650.076 220.208 648.508 220.208H641.05V205.244H647.653C649.126 205.244 650.361 205.624 651.264 206.336C652.166 207.049 652.689 208.047 652.689 209.329C652.689 209.899 652.594 210.422 652.356 210.897C652.119 211.372 651.786 211.8 651.359 212.132L651.264 212.085ZM630.171 207.952H625.373V205.196H638.199V207.952H633.401V220.161H630.218V207.952H630.171ZM617.296 220.493C615.824 220.493 614.494 220.161 613.306 219.448C612.118 218.736 611.121 217.833 610.455 216.598C609.743 215.41 609.41 214.08 609.41 212.655C609.41 211.23 609.743 209.899 610.455 208.712C611.168 207.524 612.118 206.574 613.353 205.909C614.589 205.196 615.919 204.864 617.344 204.864C618.769 204.864 619.957 205.196 621.049 205.814C622.142 206.431 622.997 207.287 623.662 208.379L621.43 210.137C620.337 208.617 619.007 207.857 617.391 207.857C616.489 207.857 615.681 208.047 614.969 208.474C614.256 208.902 613.686 209.472 613.306 210.232C612.878 210.992 612.688 211.8 612.688 212.702C612.688 213.605 612.878 214.46 613.306 215.173C613.733 215.933 614.256 216.503 614.969 216.93C615.681 217.358 616.489 217.548 617.391 217.548C618.959 217.548 620.337 216.788 621.43 215.315L623.662 217.073C622.997 218.166 622.095 219.021 621.049 219.638C619.957 220.256 618.722 220.588 617.391 220.588L617.296 220.493ZM598.769 217.548C599.624 217.548 600.384 217.358 601.097 216.93C601.809 216.503 602.332 215.933 602.759 215.22C603.187 214.508 603.377 213.652 603.377 212.702C603.377 211.752 603.187 210.897 602.759 210.137C602.379 209.377 601.809 208.807 601.097 208.379C600.384 207.952 599.624 207.762 598.769 207.762C597.961 207.762 597.249 207.952 596.583 208.284C595.918 208.617 595.348 209.187 594.921 209.899C594.493 210.612 594.303 211.515 594.303 212.607C594.303 213.7 594.493 214.603 594.921 215.315C595.348 216.075 595.918 216.598 596.583 216.978C597.249 217.31 598.009 217.5 598.769 217.5V217.548ZM599.291 204.864C600.669 204.864 601.952 205.196 603.092 205.909C604.232 206.574 605.087 207.524 605.705 208.712C606.322 209.899 606.655 211.23 606.655 212.702C606.655 214.175 606.322 215.505 605.705 216.693C605.087 217.881 604.185 218.831 603.092 219.496C601.952 220.161 600.717 220.493 599.291 220.493C598.294 220.493 597.344 220.303 596.488 219.923C595.633 219.543 594.921 219.021 594.303 218.308V225.624H591.12V205.196H594.113V207.286C594.683 206.526 595.396 205.909 596.298 205.481C597.201 205.054 598.199 204.864 599.291 204.864ZM579.576 218.023C580.669 218.023 581.571 217.691 582.331 217.025C583.092 216.36 583.472 215.505 583.472 214.508V214.223H579.624C578.768 214.223 578.103 214.365 577.676 214.698C577.201 214.983 577.011 215.458 577.011 216.075C577.011 216.693 577.248 217.215 577.723 217.548C578.198 217.881 578.863 218.071 579.624 218.071L579.576 218.023ZM580.526 204.864C582.379 204.864 583.852 205.386 584.992 206.479C586.132 207.572 586.655 209.092 586.655 211.135V220.161H583.662V218.498C583.092 219.163 582.426 219.638 581.619 219.971C580.811 220.303 579.909 220.493 578.863 220.493C577.296 220.493 576.06 220.113 575.063 219.306C574.113 218.498 573.638 217.453 573.638 216.17C573.638 214.888 574.113 213.842 575.11 213.082C576.108 212.322 577.438 211.942 579.148 211.942H583.377V210.945C583.377 209.899 583.092 209.139 582.521 208.569C581.951 207.999 581.191 207.762 580.146 207.762C579.291 207.762 578.578 207.952 577.913 208.332C577.248 208.712 576.631 209.234 576.013 209.994L574.16 208.094C574.92 207.001 575.823 206.194 576.916 205.671C578.008 205.149 579.196 204.864 580.479 204.864H580.526ZM559.196 217.358H565.799V207.952H560.811V209.472C560.716 213.082 560.193 215.743 559.243 217.358H559.196ZM571.405 217.358V224.436H568.317V220.161H557.295V224.436H554.16V217.358H555.823C556.44 216.693 556.915 215.695 557.2 214.365C557.485 213.035 557.675 211.325 557.723 209.139L557.865 205.149H568.934V217.358H571.405ZM554.92 205.196L547.651 221.871C547.034 223.296 546.274 224.341 545.419 225.007C544.563 225.672 543.471 226.004 542.188 226.004C541.333 226.004 540.525 225.909 539.718 225.719V223.011C540.668 223.106 541.238 223.154 541.476 223.154C542.236 223.154 542.853 223.011 543.376 222.679C543.898 222.346 544.373 221.776 544.706 220.968L545.324 219.543L539.338 205.244H542.758L547.034 216.123L551.452 205.244H554.872L554.92 205.196ZM531.214 220.493C529.741 220.493 528.411 220.161 527.223 219.448C526.036 218.736 525.038 217.833 524.373 216.598C523.66 215.41 523.328 214.08 523.328 212.655C523.328 211.23 523.66 209.899 524.373 208.712C525.086 207.524 526.036 206.574 527.271 205.909C528.506 205.196 529.836 204.864 531.262 204.864C532.687 204.864 533.874 205.196 534.967 205.814C536.06 206.431 536.915 207.287 537.58 208.379L535.347 210.137C534.255 208.617 532.924 207.857 531.309 207.857C530.406 207.857 529.599 208.047 528.886 208.474C528.174 208.902 527.604 209.472 527.223 210.232C526.796 210.992 526.606 211.8 526.606 212.702C526.606 213.605 526.796 214.46 527.223 215.173C527.651 215.933 528.174 216.503 528.886 216.93C529.599 217.358 530.406 217.548 531.309 217.548C532.877 217.548 534.255 216.788 535.347 215.315L537.58 217.073C536.915 218.166 536.012 219.021 534.92 219.638C533.827 220.256 532.592 220.588 531.262 220.588L531.214 220.493ZM512.639 217.5C513.494 217.5 514.302 217.31 515.014 216.883C515.727 216.455 516.297 215.885 516.677 215.125C517.105 214.365 517.295 213.557 517.295 212.655C517.295 211.752 517.105 210.897 516.677 210.137C516.249 209.377 515.727 208.807 515.014 208.379C514.302 207.952 513.541 207.762 512.686 207.762C511.831 207.762 511.024 207.999 510.311 208.379C509.598 208.807 509.028 209.377 508.648 210.137C508.221 210.897 508.031 211.705 508.031 212.655C508.031 213.605 508.221 214.413 508.648 215.125C509.076 215.885 509.598 216.455 510.311 216.883C511.024 217.31 511.784 217.5 512.686 217.5H512.639ZM512.639 220.493C511.214 220.493 509.883 220.161 508.648 219.448C507.461 218.736 506.463 217.786 505.798 216.598C505.085 215.41 504.753 214.08 504.753 212.655C504.753 211.23 505.085 209.899 505.798 208.712C506.51 207.524 507.461 206.574 508.648 205.909C509.836 205.196 511.166 204.864 512.639 204.864C514.112 204.864 515.442 205.196 516.677 205.909C517.912 206.621 518.862 207.524 519.575 208.759C520.287 209.947 520.62 211.277 520.62 212.702C520.62 214.127 520.287 215.458 519.575 216.645C518.862 217.833 517.912 218.783 516.677 219.496C515.442 220.208 514.112 220.541 512.639 220.541V220.493ZM492.734 205.196H503.28V207.952H495.964V220.161H492.734V205.196ZM476.344 207.952H473.351C472.543 207.952 471.926 208.142 471.498 208.569C471.07 208.949 470.833 209.519 470.833 210.184C470.833 210.85 471.07 211.42 471.498 211.8C471.973 212.18 472.591 212.37 473.351 212.37H476.344V207.904V207.952ZM479.527 205.196V220.161H476.344V215.125H474.111L470.263 220.161H466.557L470.833 214.698C469.788 214.318 468.933 213.747 468.362 212.94C467.792 212.18 467.46 211.23 467.46 210.137C467.46 208.617 467.982 207.429 468.98 206.526C470.025 205.624 471.403 205.149 473.113 205.149H479.479L479.527 205.196ZM463.089 204.864V220.161H459.859V210.85L451.165 220.493H450.025V205.196H453.255V214.555L461.997 204.864H463.089ZM429.027 204.864H430.167L437.198 212.987L444.277 204.864H445.322V220.161H442.139V211.515L437.768 216.598H436.628L432.257 211.562V220.208H429.027V204.911V204.864ZM418.338 207.572C417.293 207.572 416.342 207.904 415.582 208.569C414.822 209.234 414.3 210.137 414.062 211.23H422.186C422.186 210.089 421.806 209.187 421.046 208.569C420.286 207.904 419.383 207.572 418.338 207.572ZM425.131 213.7H413.967C414.157 214.935 414.727 215.885 415.582 216.598C416.485 217.31 417.53 217.643 418.813 217.643C420.381 217.643 421.806 217.073 423.183 215.885L424.704 218.071C422.993 219.686 420.998 220.493 418.718 220.493C417.198 220.493 415.82 220.161 414.585 219.496C413.35 218.831 412.399 217.881 411.687 216.693C410.974 215.505 410.642 214.175 410.642 212.702C410.642 211.23 410.974 209.947 411.639 208.759C412.304 207.572 413.255 206.621 414.442 205.909C415.63 205.196 416.913 204.864 418.338 204.864C419.668 204.864 420.856 205.149 421.901 205.766C422.946 206.384 423.754 207.191 424.371 208.237C424.989 209.282 425.274 210.422 425.274 211.752C425.274 212.37 425.179 213.035 425.036 213.747L425.131 213.7ZM396.342 217.358H402.946V207.952H397.957V209.472C397.862 213.082 397.34 215.743 396.39 217.358H396.342ZM408.599 217.358V224.436H405.511V220.161H394.489V224.436H391.354V217.358H393.017C393.634 216.693 394.109 215.695 394.394 214.365C394.679 213.035 394.869 211.325 394.917 209.139L395.059 205.149H406.129V217.358H408.599ZM381.948 218.023C383.04 218.023 383.943 217.691 384.703 217.025C385.463 216.36 385.843 215.505 385.843 214.508V214.223H381.995C381.14 214.223 380.475 214.365 380.047 214.698C379.572 214.983 379.382 215.458 379.382 216.075C379.382 216.693 379.62 217.215 380.095 217.548C380.57 217.881 381.235 218.071 381.995 218.071L381.948 218.023ZM382.898 204.864C384.75 204.864 386.223 205.386 387.363 206.479C388.503 207.572 389.026 209.092 389.026 211.135V220.161H386.033V218.498C385.463 219.163 384.798 219.638 383.99 219.971C383.183 220.303 382.28 220.493 381.235 220.493C379.667 220.493 378.432 220.113 377.434 219.306C376.484 218.498 376.009 217.453 376.009 216.17C376.009 214.888 376.484 213.842 377.482 213.082C378.48 212.322 379.81 211.942 381.52 211.942H385.748V210.945C385.748 209.899 385.463 209.139 384.893 208.569C384.323 207.999 383.563 207.762 382.518 207.762C381.662 207.762 380.95 207.952 380.285 208.332C379.62 208.712 379.002 209.234 378.385 209.994L376.532 208.094C377.292 207.001 378.194 206.194 379.287 205.671C380.38 205.149 381.567 204.864 382.85 204.864H382.898ZM374.584 220.161H370.688L364.227 212.132L370.213 205.196H374.014L368.028 212.037L374.631 220.161H374.584ZM360.854 205.196H364.085V220.161H360.854V205.196ZM348.408 205.719L345.035 214.032H351.781L348.408 205.719ZM352.921 216.788H343.895L342.469 220.161H339.049L347.933 199.733H349.025L357.909 220.161H354.441L353.016 216.788H352.921Z" fill="#D9B96B"/>
<path d="M763.949 286.956C765.042 286.956 765.945 286.623 766.705 285.958C767.465 285.293 767.845 284.438 767.845 283.44V283.155H763.997C763.142 283.155 762.477 283.298 762.049 283.63C761.574 283.915 761.384 284.391 761.384 285.008C761.384 285.626 761.622 286.148 762.097 286.481C762.572 286.813 763.237 287.003 763.997 287.003M764.9 273.796C766.752 273.796 768.225 274.319 769.365 275.412C770.505 276.504 771.028 278.025 771.028 280.02V289.046H768.035V287.383C767.465 288.049 766.8 288.524 765.992 288.856C765.185 289.189 764.282 289.379 763.237 289.379C761.669 289.379 760.434 288.999 759.436 288.191C758.486 287.383 758.011 286.338 758.011 285.056C758.011 283.773 758.486 282.728 759.484 281.968C760.481 281.208 761.812 280.828 763.522 280.828H767.75V279.83C767.75 278.785 767.465 278.025 766.895 277.455C766.325 276.884 765.565 276.647 764.519 276.647C763.664 276.647 762.952 276.837 762.287 277.217C761.622 277.597 761.004 278.12 760.386 278.88L758.534 276.979C759.294 275.887 760.196 275.079 761.289 274.557C762.382 274.034 763.569 273.749 764.852 273.749L764.9 273.796ZM749.65 286.528C750.457 286.528 751.075 286.338 751.55 285.958C752.025 285.578 752.215 285.103 752.215 284.486C752.215 283.868 751.978 283.44 751.55 283.06C751.075 282.728 750.457 282.538 749.65 282.538H745.612V286.481H749.65V286.528ZM745.612 280.067H748.937C750.362 280.067 751.075 279.497 751.075 278.357C751.075 277.217 750.362 276.694 748.937 276.694H745.612V280.067ZM752.69 281.018C753.498 281.303 754.115 281.778 754.591 282.395C755.018 283.013 755.256 283.725 755.256 284.581C755.256 285.911 754.781 287.003 753.783 287.859C752.785 288.714 751.503 289.141 749.935 289.141H742.476V274.177H749.032C750.505 274.177 751.74 274.557 752.643 275.269C753.593 276.029 754.068 276.979 754.068 278.262C754.068 278.832 753.973 279.355 753.735 279.83C753.498 280.305 753.165 280.732 752.738 281.065L752.69 281.018ZM730.837 286.481C731.692 286.481 732.5 286.243 733.212 285.863C733.925 285.436 734.495 284.866 734.875 284.105C735.303 283.345 735.493 282.538 735.493 281.635C735.493 280.732 735.303 279.877 734.875 279.117C734.448 278.357 733.925 277.787 733.212 277.36C732.5 276.932 731.74 276.742 730.885 276.742C730.03 276.742 729.222 276.932 728.509 277.36C727.797 277.787 727.227 278.357 726.847 279.117C726.419 279.877 726.229 280.685 726.229 281.635C726.229 282.585 726.419 283.393 726.847 284.105C727.274 284.866 727.797 285.436 728.509 285.863C729.222 286.291 729.982 286.481 730.885 286.481H730.837ZM730.837 289.426C729.412 289.426 728.082 289.094 726.847 288.381C725.659 287.668 724.661 286.718 723.996 285.531C723.284 284.343 722.951 283.013 722.951 281.588C722.951 280.162 723.284 278.832 723.996 277.645C724.709 276.457 725.659 275.507 726.847 274.842C728.034 274.129 729.364 273.796 730.837 273.796C732.31 273.796 733.64 274.129 734.875 274.842C736.11 275.554 737.061 276.457 737.773 277.692C738.486 278.88 738.818 280.21 738.818 281.635C738.818 283.06 738.486 284.343 737.773 285.578C737.061 286.766 736.11 287.716 734.875 288.429C733.64 289.141 732.31 289.474 730.837 289.474V289.426ZM706.371 274.129H709.602V279.877H716.015V274.129H719.198V289.094H716.015V282.633H709.602V289.094H706.371V274.129ZM694.779 286.956C695.872 286.956 696.775 286.623 697.535 285.958C698.295 285.293 698.675 284.438 698.675 283.44V283.155H694.827C693.972 283.155 693.307 283.298 692.879 283.63C692.404 283.915 692.214 284.391 692.214 285.008C692.214 285.626 692.452 286.148 692.927 286.481C693.402 286.813 694.067 287.003 694.827 287.003L694.779 286.956ZM695.777 273.796C697.63 273.796 699.103 274.319 700.243 275.412C701.383 276.504 701.905 278.025 701.905 280.02V289.046H698.913V287.383C698.342 288.049 697.677 288.524 696.87 288.856C696.062 289.189 695.159 289.379 694.114 289.379C692.547 289.379 691.311 288.999 690.314 288.191C689.364 287.383 688.889 286.338 688.889 285.056C688.889 283.773 689.364 282.728 690.361 281.968C691.359 281.208 692.689 280.828 694.399 280.828H698.627V279.83C698.627 278.785 698.342 278.025 697.772 277.455C697.202 276.884 696.442 276.647 695.397 276.647C694.542 276.647 693.829 276.837 693.164 277.217C692.499 277.597 691.882 278.12 691.264 278.88L689.411 276.979C690.171 275.887 691.074 275.079 692.167 274.557C693.259 274.034 694.447 273.749 695.73 273.749L695.777 273.796ZM669.031 273.796H670.171L677.202 281.92L684.28 273.796H685.326V289.094H682.143V280.447L677.772 285.531H676.632L672.261 280.495V289.141H669.031V273.844V273.796ZM662.57 289.094L658.817 283.63L655.111 289.094H651.453L657.012 281.303L651.881 274.129H655.539L658.912 279.07L662.237 274.129H665.895L660.717 281.35L666.275 289.094H662.617H662.57ZM641.809 286.956C642.902 286.956 643.805 286.623 644.565 285.958C645.325 285.293 645.705 284.438 645.705 283.44V283.155H641.857C641.002 283.155 640.337 283.298 639.909 283.63C639.434 283.915 639.244 284.391 639.244 285.008C639.244 285.626 639.481 286.148 639.956 286.481C640.432 286.813 641.097 287.003 641.857 287.003L641.809 286.956ZM642.759 273.796C644.612 273.796 646.085 274.319 647.225 275.412C648.365 276.504 648.888 278.025 648.888 280.02V289.046H645.895V287.383C645.325 288.049 644.66 288.524 643.852 288.856C643.044 289.189 642.142 289.379 641.097 289.379C639.529 289.379 638.294 288.999 637.296 288.191C636.346 287.383 635.871 286.338 635.871 285.056C635.871 283.773 636.346 282.728 637.344 281.968C638.341 281.208 639.671 280.828 641.382 280.828H645.61V279.83C645.61 278.785 645.325 278.025 644.755 277.455C644.185 276.884 643.425 276.647 642.379 276.647C641.524 276.647 640.812 276.837 640.147 277.217C639.481 277.597 638.864 278.12 638.246 278.88L636.393 276.979C637.154 275.887 638.056 275.079 639.149 274.557C640.242 274.034 641.429 273.749 642.712 273.749L642.759 273.796ZM625.467 286.481C626.322 286.481 627.082 286.291 627.795 285.863C628.507 285.436 629.03 284.866 629.458 284.153C629.885 283.44 630.075 282.585 630.075 281.635C630.075 280.685 629.885 279.83 629.505 279.07C629.125 278.31 628.555 277.74 627.842 277.312C627.13 276.884 626.37 276.694 625.514 276.694C624.707 276.694 623.994 276.884 623.282 277.217C622.617 277.55 622.046 278.12 621.619 278.832C621.191 279.545 621.001 280.447 621.001 281.54C621.001 282.633 621.239 283.535 621.619 284.248C622.046 285.008 622.617 285.531 623.282 285.911C623.947 286.243 624.707 286.433 625.514 286.433L625.467 286.481ZM625.99 273.796C627.415 273.796 628.65 274.129 629.79 274.794C630.93 275.459 631.785 276.409 632.403 277.597C633.021 278.785 633.353 280.115 633.353 281.588C633.353 283.06 633.021 284.391 632.403 285.578C631.785 286.766 630.883 287.716 629.79 288.381C628.65 289.046 627.415 289.426 625.99 289.426C624.992 289.426 624.042 289.236 623.187 288.856C622.331 288.476 621.619 287.954 621.001 287.241V294.557H617.818V274.129H620.811V276.219C621.381 275.459 622.094 274.842 622.997 274.414C623.899 273.987 624.897 273.796 625.99 273.796ZM602.189 286.291H608.792V276.884H603.804V278.405C603.709 282.015 603.186 284.628 602.236 286.291H602.189ZM614.445 286.291V293.369H611.357V289.094H600.336V293.369H597.2V286.291H598.863C599.481 285.626 599.956 284.628 600.241 283.298C600.526 281.968 600.716 280.257 600.763 278.072L600.906 274.082H611.975V286.291H614.445ZM588.079 286.481C588.934 286.481 589.694 286.291 590.407 285.863C591.119 285.436 591.642 284.913 592.07 284.2C592.497 283.488 592.687 282.728 592.687 281.873C592.687 281.018 592.497 280.257 592.07 279.592C591.642 278.927 591.119 278.357 590.407 277.93C589.694 277.502 588.934 277.312 588.079 277.312C587.224 277.312 586.464 277.502 585.799 277.93C585.086 278.357 584.564 278.88 584.136 279.592C583.708 280.305 583.518 281.065 583.518 281.873C583.518 282.68 583.708 283.488 584.136 284.2C584.564 284.913 585.086 285.483 585.799 285.863C586.511 286.291 587.271 286.481 588.079 286.481ZM588.744 274.319C590.074 274.319 591.262 274.652 592.402 275.317C593.542 275.982 594.397 276.884 595.015 278.025C595.633 279.165 595.965 280.447 595.965 281.825C595.965 283.203 595.633 284.486 594.92 285.626C594.207 286.766 593.305 287.668 592.07 288.334C590.882 288.999 589.552 289.331 588.079 289.331C586.511 289.331 585.134 288.951 583.946 288.239C582.758 287.526 581.856 286.481 581.191 285.198C580.525 283.868 580.193 282.395 580.193 280.685V278.262C580.193 275.982 580.43 274.082 580.953 272.561C581.476 271.089 582.426 269.853 583.803 268.856C585.229 267.858 587.224 267.193 589.884 266.813C592.26 266.48 593.827 266.148 594.635 265.815V268.808C593.637 269.188 592.117 269.521 590.027 269.758C588.079 269.996 586.606 270.424 585.609 271.089C584.611 271.706 583.993 272.514 583.661 273.416C583.376 274.367 583.186 275.554 583.186 277.027C583.803 276.172 584.564 275.459 585.514 274.984C586.464 274.509 587.509 274.272 588.649 274.272L588.744 274.319ZM568.934 274.652L565.561 282.965H572.307L568.934 274.652ZM573.447 285.721H564.421L562.995 289.094H559.575L568.459 268.666H569.551L578.435 289.094H574.967L573.542 285.721H573.447ZM541.095 286.956C542.187 286.956 543.09 286.623 543.85 285.958C544.61 285.293 544.99 284.438 544.99 283.44V283.155H541.142C540.287 283.155 539.622 283.298 539.195 283.63C538.719 283.915 538.529 284.391 538.529 285.008C538.529 285.626 538.767 286.148 539.242 286.481C539.717 286.813 540.382 287.003 541.142 287.003L541.095 286.956ZM542.045 273.796C543.898 273.796 545.37 274.319 546.511 275.412C547.651 276.504 548.173 278.025 548.173 280.02V289.046H545.18V287.383C544.61 288.049 543.945 288.524 543.138 288.856C542.33 289.189 541.427 289.379 540.382 289.379C538.814 289.379 537.579 288.999 536.582 288.191C535.631 287.383 535.156 286.338 535.156 285.056C535.156 283.773 535.632 282.728 536.629 281.968C537.627 281.208 538.957 280.828 540.667 280.828H544.895V279.83C544.895 278.785 544.61 278.025 544.04 277.455C543.47 276.884 542.71 276.647 541.665 276.647C540.81 276.647 540.097 276.837 539.432 277.217C538.767 277.597 538.149 278.12 537.532 278.88L535.679 276.979C536.439 275.887 537.342 275.079 538.434 274.557C539.527 274.034 540.715 273.749 541.997 273.749L542.045 273.796ZM518.909 274.129H531.593V289.094H528.363V276.884H522.14V289.094H518.909V274.129ZM516.011 274.129L508.743 290.804C508.125 292.229 507.365 293.274 506.51 293.939C505.655 294.604 504.562 294.937 503.279 294.937C502.424 294.937 501.617 294.842 500.809 294.652V291.944C501.759 292.039 502.329 292.087 502.567 292.087C503.327 292.087 503.944 291.944 504.467 291.612C504.99 291.279 505.465 290.709 505.797 289.901L506.415 288.476L500.429 274.177H503.849L508.125 285.056L512.543 274.177H515.964L516.011 274.129ZM492.305 289.426C490.833 289.426 489.502 289.094 488.315 288.381C487.127 287.668 486.129 286.766 485.464 285.531C484.752 284.343 484.419 283.013 484.419 281.588C484.419 280.162 484.752 278.832 485.464 277.645C486.177 276.457 487.127 275.507 488.362 274.842C489.597 274.177 490.928 273.796 492.353 273.796C493.778 273.796 494.966 274.129 496.058 274.747C497.151 275.364 498.006 276.219 498.671 277.312L496.438 279.07C495.346 277.55 494.016 276.789 492.4 276.789C491.498 276.789 490.69 277.027 489.977 277.455C489.265 277.882 488.695 278.452 488.315 279.212C487.887 279.972 487.697 280.78 487.697 281.683C487.697 282.585 487.887 283.44 488.315 284.153C488.742 284.913 489.265 285.483 489.977 285.911C490.69 286.338 491.498 286.528 492.4 286.528C493.968 286.528 495.346 285.768 496.438 284.296L498.671 286.053C498.006 287.146 497.103 288.001 496.058 288.619C494.966 289.236 493.73 289.569 492.4 289.569L492.305 289.426ZM483.041 274.129L475.773 290.804C475.155 292.229 474.395 293.274 473.54 293.939C472.685 294.604 471.592 294.937 470.31 294.937C469.454 294.937 468.647 294.842 467.839 294.652V291.944C468.789 292.039 469.359 292.087 469.597 292.087C470.357 292.087 470.975 291.944 471.497 291.612C472.02 291.279 472.495 290.709 472.827 289.901L473.445 288.476L467.459 274.177H470.88L475.155 285.056L479.573 274.177H482.994L483.041 274.129ZM467.459 289.094H463.469L454.917 278.405L462.756 268.998H466.699L458.765 278.405L467.459 289.094ZM451.592 268.951H454.822V289.046H451.592V268.951ZM443.706 268.951L451.497 278.357L442.946 289.046H438.955L447.649 278.357L439.668 268.951H443.658H443.706ZM427.411 273.796V289.094H424.18V279.782L415.487 289.426H414.347V274.129H417.577V283.488L426.318 273.796H427.411ZM396.817 274.129H400.047V279.877H406.46V274.129H409.643V289.094H406.46V282.633H400.047V289.094H396.817V274.129ZM386.08 276.504C385.035 276.504 384.085 276.837 383.325 277.502C382.564 278.167 382.042 279.07 381.804 280.162H389.928C389.928 279.022 389.548 278.12 388.788 277.502C388.028 276.837 387.125 276.504 386.08 276.504ZM392.873 282.633H381.709C381.899 283.868 382.469 284.818 383.325 285.531C384.227 286.243 385.272 286.576 386.555 286.576C388.123 286.576 389.548 286.006 390.926 284.818L392.446 287.003C390.736 288.619 388.74 289.426 386.46 289.426C384.94 289.426 383.562 289.094 382.327 288.381C381.092 287.716 380.142 286.766 379.429 285.578C378.716 284.391 378.384 283.06 378.384 281.588C378.384 280.115 378.716 278.832 379.382 277.645C380.047 276.457 380.997 275.507 382.184 274.794C383.372 274.082 384.655 273.749 386.08 273.749C387.41 273.749 388.598 274.034 389.643 274.652C390.688 275.269 391.496 276.077 392.113 277.122C392.731 278.167 393.016 279.307 393.016 280.637C393.016 281.255 392.921 281.92 392.778 282.633H392.873ZM358.431 273.796H359.571L366.602 281.92L373.681 273.796H374.726V289.094H371.543V280.447L367.172 285.531H366.032L361.661 280.495V289.141H358.431V273.844V273.796ZM353.775 273.796V289.094H350.545V279.782L341.851 289.426H340.711V274.129H343.941V283.488L352.683 273.796H353.775ZM944 239.307V254.604H940.77V245.292L932.076 254.936H930.936V239.639H934.166V248.998L942.908 239.307H944ZM928.133 254.604H924.237L917.777 246.575L923.762 239.639H927.563L921.577 246.48L928.181 254.604H928.133ZM914.404 239.639H917.634V254.604H914.404V239.639ZM909.748 239.307V254.604H906.517V245.292L897.824 254.936H896.684V239.639H899.914V248.998L908.655 239.307H909.748ZM891.98 239.639V254.604H888.797V242.394H883.999V243.867C883.904 246.433 883.714 248.523 883.382 250.091C883.049 251.658 882.526 252.846 881.814 253.606C881.101 254.366 880.151 254.746 878.964 254.746C878.536 254.746 878.108 254.699 877.823 254.556V251.896C878.061 251.896 878.251 251.943 878.441 251.943C879.344 251.943 879.961 251.278 880.341 249.901C880.721 248.523 880.959 246.338 880.959 243.345V239.592H892.028L891.98 239.639ZM868.179 251.991C869.035 251.991 869.795 251.801 870.507 251.373C871.22 250.946 871.742 250.423 872.17 249.711C872.598 248.998 872.788 248.238 872.788 247.383C872.788 246.528 872.598 245.767 872.17 245.102C871.742 244.39 871.22 243.867 870.507 243.44C869.795 243.012 869.035 242.822 868.179 242.822C867.324 242.822 866.564 243.012 865.899 243.44C865.187 243.867 864.664 244.39 864.236 245.102C863.809 245.815 863.619 246.575 863.619 247.383C863.619 248.19 863.809 248.998 864.236 249.711C864.664 250.423 865.187 250.993 865.899 251.373C866.612 251.801 867.372 251.991 868.179 251.991ZM868.797 239.877C870.127 239.877 871.315 240.209 872.455 240.874C873.595 241.539 874.45 242.442 875.068 243.582C875.685 244.722 876.018 246.005 876.018 247.383C876.018 248.76 875.685 250.043 874.973 251.183C874.26 252.323 873.358 253.226 872.122 253.891C870.935 254.556 869.605 254.889 868.132 254.889C866.564 254.889 865.186 254.509 863.999 253.796C862.811 253.084 861.908 252.038 861.243 250.756C860.578 249.425 860.246 247.953 860.246 246.243V243.82C860.246 241.539 860.483 239.639 861.006 238.119C861.529 236.646 862.479 235.411 863.856 234.413C865.234 233.416 867.277 232.751 869.937 232.371C872.312 232.038 873.88 231.705 874.688 231.373V234.366C873.69 234.746 872.17 235.078 870.08 235.316C868.132 235.553 866.659 235.981 865.662 236.646C864.664 237.264 864.046 238.071 863.714 238.974C863.429 239.924 863.239 241.112 863.239 242.584C863.856 241.729 864.616 241.017 865.567 240.542C866.517 240.067 867.562 239.829 868.702 239.829L868.797 239.877ZM858.06 239.639L850.792 256.314C850.174 257.739 849.414 258.784 848.559 259.449C847.704 260.115 846.611 260.447 845.329 260.447C844.474 260.447 843.666 260.352 842.858 260.162V257.454C843.808 257.549 844.378 257.597 844.616 257.597C845.376 257.597 845.994 257.454 846.516 257.122C847.039 256.789 847.514 256.219 847.846 255.411L848.464 253.986L842.478 239.687H845.899L850.174 250.566L854.592 239.687H858.013L858.06 239.639ZM826.848 239.639H839.533V254.604H836.302V242.394H830.079V254.604H826.848V239.639ZM816.967 254.936C815.494 254.936 814.164 254.604 812.976 253.891C811.789 253.179 810.791 252.276 810.126 251.041C809.413 249.853 809.081 248.523 809.081 247.098C809.081 245.672 809.413 244.342 810.126 243.155C810.839 241.967 811.789 241.017 813.024 240.352C814.259 239.639 815.589 239.307 817.015 239.307C818.44 239.307 819.627 239.639 820.72 240.257C821.813 240.874 822.668 241.729 823.333 242.822L821.1 244.58C820.007 243.06 818.677 242.299 817.062 242.299C816.159 242.299 815.352 242.489 814.639 242.917C813.927 243.345 813.357 243.915 812.976 244.675C812.549 245.435 812.359 246.243 812.359 247.145C812.359 248.048 812.549 248.903 812.976 249.616C813.404 250.376 813.927 250.946 814.639 251.373C815.352 251.801 816.159 251.991 817.062 251.991C818.63 251.991 820.007 251.231 821.1 249.758L823.333 251.516C822.668 252.608 821.765 253.464 820.72 254.081C819.627 254.699 818.392 255.031 817.062 255.031L816.967 254.936ZM799.294 242.014C798.249 242.014 797.299 242.347 796.539 243.012C795.779 243.677 795.256 244.58 795.019 245.672H803.143C803.143 244.532 802.762 243.63 802.002 243.012C801.242 242.347 800.34 242.014 799.294 242.014ZM806.135 248.19H794.971C795.161 249.425 795.731 250.376 796.587 251.088C797.489 251.801 798.534 252.133 799.817 252.133C801.385 252.133 802.81 251.563 804.188 250.376L805.708 252.561C803.998 254.176 802.002 254.984 799.722 254.984C798.202 254.984 796.824 254.651 795.589 253.986C794.354 253.321 793.404 252.371 792.691 251.183C791.978 249.996 791.646 248.665 791.646 247.193C791.646 245.72 791.978 244.437 792.644 243.25C793.309 242.062 794.259 241.112 795.446 240.399C796.634 239.687 797.917 239.354 799.342 239.354C800.672 239.354 801.86 239.639 802.905 240.257C803.95 240.874 804.758 241.682 805.375 242.727C805.993 243.772 806.278 244.912 806.278 246.243C806.278 246.86 806.183 247.525 806.04 248.238L806.135 248.19ZM782.715 243.962C783.855 243.962 784.71 243.677 785.327 243.06C785.945 242.442 786.278 241.682 786.278 240.684C786.278 239.687 785.993 238.879 785.327 238.261C784.71 237.644 783.807 237.359 782.715 237.359H778.677V243.962H782.715ZM775.446 234.508H782.81C784.14 234.508 785.327 234.746 786.373 235.268C787.418 235.791 788.225 236.504 788.795 237.454C789.366 238.404 789.651 239.449 789.651 240.637C789.651 241.824 789.366 242.917 788.795 243.82C788.225 244.77 787.418 245.482 786.373 246.005C785.327 246.528 784.14 246.813 782.81 246.813H778.677V254.604H775.446V234.508ZM755.826 237.169C754.353 237.169 753.165 236.694 752.263 235.744C751.36 234.793 750.885 233.606 750.885 232.085V231.183H753.498V232.038C753.498 232.941 753.688 233.606 754.068 234.081C754.448 234.556 755.018 234.793 755.778 234.793C756.538 234.793 757.108 234.556 757.488 234.081C757.868 233.606 758.059 232.893 758.059 232.038V231.183H760.719V232.085C760.719 233.606 760.244 234.793 759.341 235.744C758.439 236.694 757.251 237.169 755.731 237.169H755.826ZM762.049 239.307V254.604H758.819V245.292L750.125 254.936H748.985V239.639H752.215V248.998L760.956 239.307H762.049ZM737.298 251.991C738.153 251.991 738.961 251.801 739.673 251.373C740.386 250.946 740.956 250.376 741.336 249.616C741.764 248.855 741.954 248.048 741.954 247.145C741.954 246.243 741.764 245.387 741.336 244.627C740.909 243.867 740.386 243.297 739.673 242.87C738.961 242.442 738.201 242.252 737.346 242.252C736.49 242.252 735.683 242.489 734.97 242.87C734.258 243.297 733.688 243.867 733.307 244.627C732.88 245.387 732.69 246.195 732.69 247.145C732.69 248.095 732.88 248.903 733.307 249.616C733.735 250.376 734.258 250.946 734.97 251.373C735.683 251.801 736.443 251.991 737.346 251.991H737.298ZM737.298 254.936C735.873 254.936 734.543 254.604 733.307 253.891C732.12 253.179 731.122 252.228 730.457 251.041C729.744 249.853 729.412 248.523 729.412 247.098C729.412 245.672 729.744 244.342 730.457 243.155C731.17 241.967 732.12 241.017 733.307 240.352C734.495 239.639 735.825 239.307 737.298 239.307C738.771 239.307 740.101 239.639 741.336 240.352C742.571 241.064 743.521 241.967 744.234 243.202C744.947 244.39 745.279 245.72 745.279 247.145C745.279 248.57 744.947 249.901 744.234 251.088C743.521 252.276 742.571 253.226 741.336 253.939C740.101 254.651 738.771 254.984 737.298 254.984V254.936ZM728.082 254.604H724.186L717.725 246.575L723.711 239.639H727.512L721.526 246.48L728.129 254.604H728.082ZM714.352 239.639H717.583V254.604H714.352V239.639ZM704.518 254.936C703.046 254.936 701.715 254.604 700.528 253.891C699.34 253.179 698.342 252.276 697.677 251.041C696.965 249.853 696.632 248.523 696.632 247.098C696.632 245.672 696.965 244.342 697.677 243.155C698.39 241.967 699.34 241.017 700.575 240.352C701.81 239.639 703.141 239.307 704.566 239.307C705.991 239.307 707.179 239.639 708.271 240.257C709.364 240.874 710.219 241.729 710.884 242.822L708.651 244.58C707.559 243.06 706.229 242.299 704.613 242.299C703.711 242.299 702.903 242.489 702.19 242.917C701.478 243.345 700.908 243.915 700.528 244.675C700.1 245.435 699.91 246.243 699.91 247.145C699.91 248.048 700.1 248.903 700.528 249.616C700.955 250.376 701.478 250.946 702.19 251.373C702.903 251.801 703.711 251.991 704.613 251.991C706.181 251.991 707.559 251.231 708.651 249.758L710.884 251.516C710.219 252.608 709.316 253.464 708.271 254.081C707.179 254.699 705.944 255.031 704.613 255.031L704.518 254.936ZM691.454 246.718C692.214 247.098 692.784 247.573 693.164 248.19C693.544 248.808 693.734 249.473 693.734 250.233C693.734 251.706 693.212 252.846 692.167 253.701C691.121 254.509 689.696 254.936 687.843 254.936C685.231 254.936 683.188 253.986 681.763 252.086L683.71 250.186C684.185 250.756 684.755 251.231 685.421 251.611C686.038 251.943 686.846 252.133 687.701 252.133C688.556 252.133 689.316 251.943 689.839 251.563C690.314 251.183 690.599 250.708 690.599 250.043C690.599 249.473 690.361 248.998 689.886 248.618C689.411 248.285 688.746 248.095 687.891 248.095H686.133V245.53H687.796C688.509 245.53 689.031 245.387 689.364 245.055C689.744 244.77 689.934 244.342 689.934 243.82C689.934 243.297 689.744 242.917 689.364 242.584C688.984 242.299 688.413 242.109 687.701 242.109C686.846 242.109 686.181 242.252 685.611 242.537C685.04 242.822 684.518 243.25 684.043 243.772L682.095 241.872C682.713 241.064 683.52 240.447 684.518 239.972C685.516 239.497 686.608 239.259 687.843 239.259C689.459 239.259 690.741 239.639 691.692 240.352C692.642 241.112 693.117 242.157 693.117 243.487C693.117 244.152 692.974 244.77 692.689 245.292C692.404 245.815 692.024 246.29 691.501 246.67L691.454 246.718ZM667.13 251.848C667.986 251.848 668.698 251.658 669.173 251.278C669.648 250.898 669.886 250.328 669.886 249.568C669.886 248.808 669.648 248.238 669.173 247.81C668.698 247.383 667.986 247.193 667.13 247.193H664.138V251.848H667.13ZM675.017 239.639H678.2V254.604H675.017V239.639ZM660.86 239.639H664.09V244.39H667.225C668.983 244.39 670.408 244.865 671.454 245.767C672.546 246.67 673.069 247.905 673.069 249.473C673.069 251.041 672.546 252.276 671.454 253.226C670.361 254.129 668.936 254.604 667.225 254.604H660.86V239.639ZM647.368 239.639H657.914V242.394H650.598V254.604H647.368V239.639ZM635.776 252.038C636.631 252.038 637.391 251.848 638.104 251.421C638.816 250.993 639.339 250.423 639.767 249.711C640.194 248.998 640.384 248.143 640.384 247.193C640.384 246.243 640.194 245.387 639.767 244.627C639.386 243.867 638.816 243.297 638.104 242.87C637.391 242.442 636.631 242.252 635.776 242.252C634.968 242.252 634.256 242.442 633.591 242.775C632.926 243.107 632.355 243.677 631.928 244.39C631.5 245.102 631.31 246.005 631.31 247.098C631.31 248.19 631.5 249.093 631.928 249.806C632.355 250.566 632.926 251.088 633.591 251.468C634.256 251.801 635.016 251.991 635.776 251.991V252.038ZM636.299 239.307C637.724 239.307 638.959 239.639 640.099 240.304C641.239 240.969 642.094 241.919 642.712 243.107C643.329 244.295 643.662 245.625 643.662 247.098C643.662 248.57 643.329 249.901 642.712 251.088C642.094 252.276 641.192 253.226 640.099 253.891C638.959 254.556 637.724 254.889 636.299 254.889C635.301 254.889 634.351 254.699 633.496 254.319C632.641 253.939 631.928 253.416 631.31 252.703V260.02H628.127V239.592H631.12V241.682C631.69 240.922 632.403 240.304 633.306 239.877C634.208 239.449 635.206 239.259 636.346 239.259L636.299 239.307Z" fill="#D9B96B"/>
<defs>
<clipPath id="clip0_1553_16498">
<rect width="289" height="355" rx="16" fill="white"/>
</clipPath>
</defs>
</svg>
