<svg width="168" height="572" viewBox="0 0 168 572" fill="none" xmlns="http://www.w3.org/2000/svg">
<path d="M164.224 203.893C170.019 218.977 166.173 244.377 159.591 259.098C150.402 279.219 133.584 294.855 112.848 302.554C106.499 304.979 95.1546 307.947 88.5888 307.614C84.3646 307.594 79.8071 307.651 75.6054 307.376C39.667 305.024 5.43877 273.21 1.65326 236.965C-0.888931 227.732 0.341614 217.885 2.39836 208.728C2.51653 206.877 4.03716 201.309 4.53227 198.987L6.09569 195.575C7.07271 196.463 7.14104 196.691 7.65291 197.878L6.1508 202.399C5.0618 205.531 4.68219 207.367 4.04378 210.646C3.52969 214.106 2.97682 219.221 3.147 222.75C4.41412 222.25 5.76678 221.3 6.95322 220.605C36.3995 203.345 61.7993 178.628 78.9333 149.041C80.2123 146.832 83.6394 143.207 86.1101 145.965C89.24 149.46 91.6896 154.284 94.3425 158.203C97.6099 163.029 100.801 167.793 104.523 172.278C117.202 187.817 132.041 201.46 148.586 212.793C153.84 216.445 159.461 219.671 164.806 223.283C163.624 217.233 162.976 209.484 161.874 202.926C162.517 202.947 163.596 203.579 164.224 203.893ZM4.64117 223.983C4.74875 224.303 4.8744 224.679 5.01901 225.109C7.35046 226.34 10.9481 228.548 12.9529 229.908C15.9809 231.161 22.004 235.728 24.8358 237.754C42.9644 250.64 58.1399 265.922 71.241 283.905C73.5143 287.026 81.7122 300.897 83.2549 302.165C83.5075 302.197 83.8069 302.236 84.1539 302.281C86.2472 300.016 89.4243 294.458 90.933 292.082C105.019 270.16 123.297 251.236 144.716 236.396C148.816 233.285 159.441 226.517 164.066 224.247C158.722 222.627 149.253 216.271 144.525 212.951C117.236 193.789 100.798 173.808 83.6283 145.746C67.9295 174.06 45.5882 198.135 18.5262 215.903C14.7681 218.375 8.68857 222.748 4.64117 223.983ZM146.654 237.53C142.325 241.11 138.015 243.987 133.849 247.363C118.442 259.848 105.863 274.109 94.6709 290.463C91.8166 294.634 87.6308 303.873 83.4366 304.35C82.1209 303.859 80.7537 302.91 80.0108 301.732C73.1122 290.794 66.7281 281.122 58.1518 271.273C47.9566 259.499 36.4344 248.943 23.8147 239.815C19.874 236.963 11.6113 232.048 8.5056 229.505C6.56082 228.29 4.59578 227.107 2.61177 225.958C2.97815 227.927 3.60728 230.639 3.25854 232.577C3.27486 232.844 3.29735 233.112 3.32512 233.379C5.52959 255.131 17.4055 275.059 34.3908 288.615C50.7016 301.502 71.4377 307.434 92.0957 305.122C108.585 302.481 118.322 299.492 132.214 289.455C146.762 278.944 158.008 261.642 162.369 244.254C163.608 239.309 163.76 231.438 164.595 225.9C160.597 228.855 151.003 235.146 146.654 237.53Z" fill="#D0A858"/>
<path d="M146.652 237.528C142.323 241.108 138.013 243.985 133.846 247.361C118.44 259.846 105.861 274.108 94.6687 290.461C91.8143 294.632 87.6285 303.871 83.4343 304.348C82.1187 303.858 80.7515 302.908 80.0086 301.731C73.1099 290.792 66.7258 281.12 58.1496 271.271C47.9544 259.497 36.4321 248.941 23.8124 239.813C19.8717 236.961 11.609 232.046 8.50333 229.503C9.14349 229.457 11.6266 229.88 12.9506 229.906C15.9786 231.16 22.0017 235.726 24.8335 237.752C42.9621 250.638 58.1376 265.92 71.2388 283.903C73.512 287.024 81.71 300.895 83.2526 302.163C83.5053 302.195 83.8046 302.234 84.1516 302.279C86.245 300.014 89.422 294.456 90.9308 292.08C105.017 270.158 123.294 251.234 144.713 236.394L146.652 237.528Z" fill="#D0A858"/>
<path d="M92.095 305.12C89.8901 307.139 89.1847 306.121 88.5881 307.613C84.3639 307.592 79.8064 307.649 75.6047 307.375C39.6663 305.023 5.43807 273.208 1.65257 236.964C3.40644 235.69 3.13925 234.571 3.25785 232.575C3.27417 232.843 3.29665 233.11 3.32443 233.377C5.52889 255.13 17.4048 275.058 34.3901 288.614C50.7009 301.501 71.437 307.432 92.095 305.12Z" fill="#D8AA54"/>
<path d="M42.5562 536.486C42.819 537.566 41.872 538.757 40.9981 539.365C28.8692 547.782 16.8191 556.521 4.38775 564.462C3.40324 565.088 2.32219 565.128 1.24464 564.749C-0.489826 561.922 0.267609 520.45 0.276424 514.33C0.277309 507.685 0.144619 501.036 0.168869 494.391C0.17989 491.331 -0.167992 487.01 2.45664 485.031L3.2701 485.15C15.1596 495.582 36.1174 522.244 42.5562 536.486ZM2.90725 487.253C3.0695 496.684 3.13473 506.12 3.1021 515.551L3.09772 545.238C3.09375 550.26 3.32873 557.945 2.73309 562.769C6.72757 560.578 38.4299 539.127 39.9162 536.874L39.91 536.067C33.9946 524.863 23.4863 511.142 15.3082 501.279C11.9786 497.262 5.61168 490.992 2.90725 487.253Z" fill="#D8AA54"/>
<path d="M22.2226 349.686C24.8173 350.973 40.7639 362.733 43.2395 364.769C39.2887 372.187 31.1326 384.989 25.7493 391.663C22.3134 396.101 6.30378 418.088 1.21942 415.815C-0.346634 413.575 0.246361 399.12 0.249447 395.45L0.274124 363.515C0.27721 359.534 -0.26376 338.968 1.05804 337.292C4.88234 336.071 18.2978 347.016 22.2226 349.686ZM2.95255 339.15C3.70559 352.524 2.68228 369.501 3.09054 383.217C3.25191 388.631 3.36345 410.944 2.52928 414.768C8.96675 408.568 19.3493 397.086 24.1013 389.715C29.4198 383.913 36.2183 372.074 40.5033 365.146C37.5101 363.005 23.4871 353.691 21.638 352.009C15.6044 347.952 8.77982 343.419 2.95255 339.15Z" fill="#D8AA54"/>
<path d="M42.1297 82.5753C42.3709 84.5987 41.9745 86.149 40.169 87.3527C28.7975 94.9343 17.7638 103.102 6.27105 110.484C5.10886 111.23 2.59753 112.289 1.28941 112.077C-0.472401 108.847 0.27137 69.1997 0.281952 62.8311C0.302673 58.5154 -0.248421 35.9087 0.643944 33.5342C4.38403 31.4907 8.54957 37.1515 10.9732 39.8049C22.8861 52.8835 33.3334 67.2257 42.1297 82.5753ZM2.82768 35.1345C3.21611 44.1441 3.11337 53.8769 3.09926 62.9413L3.06839 93.7835C3.06531 97.9453 2.81796 105.571 3.16847 109.262C4.71688 109.494 39.4129 85.6798 39.9226 83.6159C34.8554 72.8006 11.9409 41.9735 2.82768 35.1345Z" fill="#D0A858"/>
<path d="M74.5696 450.388C73.9343 453.082 71.329 454.401 69.162 455.737C58.4854 462.315 49.1879 473.797 42.9457 484.59C39.9763 480.878 37.6074 476.636 34.7063 472.769C27.6895 463.413 20.2292 457.998 10.7156 451.764C10.9462 451.014 11.3765 450.115 12.0021 449.647C17.4979 445.52 22.5593 442.544 27.5537 437.702C34.2562 431.201 37.6533 425.095 42.6966 417.574C45.752 421.646 48.2457 425.845 51.522 430.062C58.6701 439.263 65.7575 443.572 74.5696 450.388ZM42.716 421.711C33.8365 435.665 27.4633 442.386 13.4492 451.125C29.364 461.967 31.3189 463.056 42.7239 480.075C49.8673 470.053 56.2219 461.363 66.7786 454.639C67.5885 454.123 71.8453 451.477 72.2263 451.102C57.4233 442.011 52.204 435.77 42.716 421.711Z" fill="#D8AA54"/>
<path d="M167.52 451.01C164.368 454.863 154.67 460.847 150.049 464.021L124.487 481.614L74.6159 516.208C67.1141 521.376 59.5466 526.433 52.0889 531.667C50.2883 532.928 48.0376 534.193 46.1012 532.778C45.6069 530.075 50.1971 524.374 51.7627 521.989C67.6978 497.72 87.5613 477.61 111.511 461.138C115.847 458.153 123.498 453.104 128.378 451.393C98.9549 435.109 73.7372 412.184 54.7316 384.441C52.8971 381.786 45.7555 372.11 46.0033 369.291C46.766 368.09 46.3097 368.425 47.7245 368.061C50.8073 368.567 58.335 374.697 61.5306 376.741L57.4215 376.86C54.1774 374.501 51.6458 372.748 48.2179 370.623C65.2478 396.682 83.2781 418.129 108.954 436.134C115.922 441.019 125.434 447.319 133.024 451.102C98.7516 467.998 67.4289 499.661 47.7695 532.227C53.0069 528.02 60.8265 523.038 66.6185 518.982C81.1561 508.814 95.7452 498.717 110.385 488.695L145.003 464.634C150.814 460.6 158.745 454.749 164.751 451.358C153.562 444.136 140.099 434.155 128.837 426.433C129.473 426.123 129.512 426.022 129.979 425.469L129.76 423.805C135.819 428.029 141.876 432.358 147.946 436.58C153.768 440.63 162.685 446.168 167.52 451.01Z" fill="#D0A858"/>
<path d="M106.522 144.564L104.657 146.453C83.9745 140.851 61.9114 143.745 43.3728 154.491C27.3287 163.816 13.4436 180.174 7.65077 197.875C7.13889 196.688 7.07056 196.461 6.09354 195.573C10.983 179.902 25.0444 163.649 38.8875 154.678C53.1685 145.423 71.0079 140.789 88.0572 141.262C91.5429 141.359 102.63 143.735 106.522 144.564Z" fill="#D8AA54"/>
<path d="M129.76 423.804L129.979 425.468C129.511 426.021 129.473 426.123 128.836 426.432C120.215 420.146 111.074 414.215 102.376 408.017C98.6556 405.366 93.8415 402.344 90.3624 399.496C90.6384 398.975 91.3862 398.073 91.7777 397.565C104.329 406.468 116.991 415.215 129.76 423.804Z" fill="#D8AA54"/>
<path d="M134.751 158.841C144.81 165.719 155.007 179.394 159.669 190.804C159.241 191.782 159.05 192.471 158.223 193.135C152.236 179.207 144.643 170.355 133.284 160.78C133.907 159.306 133.514 159.81 134.751 158.841Z" fill="#D0A858"/>
<path d="M84.0647 392.621C83.7565 393.696 83.9025 393.845 83.1481 394.509C78.7123 392.056 72.3996 387.225 68.0043 384.309C65.9101 382.92 59.089 378.303 57.4207 376.859L61.5298 376.741C63.8555 377.899 82.3056 390.963 84.0647 392.621Z" fill="#D8AA54"/>
<path d="M134.751 158.842C133.514 159.81 133.907 159.307 133.284 160.78C130.818 158.854 125.481 155.169 122.667 153.689C120.188 152.595 118.226 151.583 115.835 150.301C116.761 149.786 118.524 149.565 119.629 149.372C121.987 150.637 123.715 151.584 125.929 153.077C127.49 153.482 133.383 157.786 134.751 158.842Z" fill="#D8AA54"/>
<path d="M106.523 144.565C108.96 144.654 117.037 148.278 119.629 149.373C118.524 149.566 116.761 149.787 115.835 150.302C112.05 148.565 108.131 148.031 104.658 146.455L106.523 144.565Z" fill="#D6AB48"/>
<path d="M164.222 203.892C163.594 203.577 162.514 202.945 161.872 202.924C161.261 201.277 158.459 194.364 158.221 193.136C159.049 192.473 159.24 191.783 159.668 190.805C161.559 194.699 163.248 199.658 164.222 203.892Z" fill="#D8AA54"/>
<path d="M84.066 392.622C86.7974 394.243 89.1451 395.785 91.7786 397.566C91.3871 398.074 90.6393 398.976 90.3633 399.497C87.46 397.755 85.8336 396.589 83.1494 394.51C83.9038 393.845 83.7579 393.697 84.066 392.622Z" fill="#D0A858"/>
<path d="M165.996 0C146.837 14.2736 123.642 29.4445 103.807 43.2175C91.2982 51.9776 78.7129 60.6283 66.0527 69.1685C62.3382 71.6993 50.4786 80.9807 46.7518 81.1804C43.4601 78.7673 57.3072 61.1151 59.4918 58.2148C72.5091 40.8764 87.9827 25.5267 105.425 12.6491C106.928 11.5588 111.983 7.83643 113.463 7.1668L114.218 9.54749C89.2097 25.4087 63.3196 52.7765 48.6974 78.4586L121.023 28.5476C134.683 19.0754 148.397 9.19216 162.231 0L165.996 0Z" fill="#D0A858"/>
<path d="M52.2971 18.2028L52.1543 18.3594C48.6399 22.2566 46.0369 28.2387 43.1596 31.3635L42.4022 31.23C39.5712 25.8268 30.5135 14.5057 26.165 10.3428L29.7473 10.8381C33.1968 12.9773 40.3829 23.7264 42.6716 27.6577C44.858 24.2329 47.6078 20.262 50.2849 17.2564C50.9374 17.4225 51.6878 17.8762 52.2971 18.2028Z" fill="#D0A858"/>
<path d="M73.4319 0C67.7201 3.89505 63.0105 7.04401 57.9632 11.8522C55.9417 13.7776 54.0062 16.6736 52.2982 18.2035C51.6889 17.877 50.9385 17.4232 50.2859 17.2571C53.2959 11.6821 63.9408 3.50465 69.5049 0L73.4319 0Z" fill="#D8AA54"/>
<path d="M16.305 0C21.5172 3.54805 25.5496 6.0952 29.7473 10.8388L26.1651 10.3435C20.9039 6.1504 17.7824 3.68634 12.0684 0L16.305 0Z" fill="#D8AA54"/>
<path d="M129.141 0L114.218 9.54749L113.463 7.1668C117.127 4.74533 121.044 2.34281 124.775 0L129.141 0Z" fill="#D8AA54"/>
</svg>
