<svg width="259" height="215" viewBox="0 0 259 215" fill="none" xmlns="http://www.w3.org/2000/svg">
<path d="M31.8346 140.674L23.5897 121.578L15.418 140.674H31.8346ZM34.5138 147.043H12.6656L8.35445 157.151H0L19.6561 113.455H27.6452L47.3743 157.151H38.8859L34.5138 147.043Z" fill="#D9B96B"/>
<path d="M81.4985 120.324H59.8329L59.8938 157.151H51.9047V113.455H81.5594L81.4985 120.324Z" fill="#D9B96B"/>
<path d="M128.081 113.455L109.107 148.724C107.439 151.841 105.454 154.18 103.152 155.751C100.838 157.31 98.3291 158.089 95.6255 158.089C93.4577 158.089 91.3143 157.626 89.1952 156.713L91.1925 150.343C92.8975 150.879 94.3102 151.159 95.4428 151.159C98.0612 151.159 100.229 149.808 101.934 147.104L102.616 146.044L85.2007 113.467H93.8718L106.793 139.127L120.092 113.467H128.081V113.455Z" fill="#D9B96B"/>
<path d="M171.668 113.455V157.151H163.679V120.324H141.015V157.151H133.026V113.455H171.668Z" fill="#D9B96B"/>
<path d="M194.174 138.737H186.051V157.151H178.062V113.455H186.051V131.747H194.417L206.961 113.455H215.584L200.665 134.621L216.144 157.151H206.961L194.174 138.737Z" fill="#D9B96B"/>
<path d="M240.038 137.678C243.57 137.678 246.261 136.923 248.088 135.425C249.915 133.927 250.828 131.783 250.828 128.995C250.828 126.206 249.915 124.062 248.088 122.564C246.261 121.066 243.57 120.311 240.038 120.311H230.551V137.666H240.038V137.678ZM240.403 113.455C244.191 113.455 247.491 114.076 250.292 115.33C253.106 116.573 255.249 118.363 256.747 120.701C258.245 123.027 259 125.804 259 129.007C259 132.21 258.245 134.926 256.747 137.276C255.249 139.626 253.093 141.429 250.292 142.671C247.479 143.925 244.191 144.547 240.403 144.547H230.539V157.151H222.428V113.455H240.403Z" fill="#D9B96B"/>
<path d="M6.85653 180.631H2.97159L2.36267 182.068H0.876892L4.68876 173.288H5.16372L8.97559 182.068H7.48981L6.88089 180.631H6.85653ZM4.92015 175.869L3.47091 179.438H6.35721L4.92015 175.869Z" fill="#D9B96B"/>
<path d="M10.2543 175.65H11.6427V182.068H10.2543V175.65ZM16.1487 182.08H14.4681L11.6914 178.646L14.2732 175.662H15.893L13.3111 178.597L16.1365 182.093L16.1487 182.08Z" fill="#D9B96B"/>
<path d="M21.6412 176.198C22.1162 176.661 22.3598 177.319 22.3598 178.183V182.068H21.081V181.35C20.8496 181.63 20.5573 181.837 20.2042 181.995C19.851 182.141 19.4613 182.214 19.0229 182.214C18.353 182.214 17.805 182.044 17.4031 181.703C17.0012 181.362 16.7942 180.911 16.7942 180.351C16.7942 179.791 17.0134 179.353 17.4396 179.024C17.8659 178.695 18.4383 178.524 19.169 178.524H20.9836V178.11C20.9836 177.66 20.8618 177.331 20.6304 177.087C20.399 176.844 20.058 176.734 19.6196 176.734C19.2664 176.734 18.9376 176.807 18.6697 176.966C18.3896 177.124 18.1095 177.367 17.8415 177.684L17.0378 176.868C17.3544 176.405 17.7563 176.064 18.2191 175.833C18.6819 175.602 19.1934 175.492 19.7536 175.492C20.5452 175.492 21.1784 175.723 21.6656 176.186L21.6412 176.198ZM20.4843 180.729C20.8009 180.436 20.9714 180.083 20.9714 179.645V179.523H19.3273C18.962 179.523 18.6819 179.584 18.487 179.718C18.2921 179.852 18.1947 180.047 18.1947 180.302C18.1947 180.558 18.3043 180.777 18.5114 180.936C18.7184 181.082 18.9863 181.155 19.3273 181.155C19.7901 181.155 20.1798 181.009 20.5086 180.729H20.4843Z" fill="#D9B96B"/>
<path d="M30.7507 180.887V183.919H29.4111V182.08H24.6858V183.919H23.334V180.887H24.0525C24.3204 180.595 24.5153 180.181 24.6371 179.608C24.7589 179.036 24.8319 178.293 24.8563 177.367L24.905 175.65H29.6668V180.887H30.7263H30.7507ZM25.5018 180.887H28.3272V176.844H26.1838V177.501C26.135 179.048 25.9158 180.181 25.5018 180.887Z" fill="#D9B96B"/>
<path d="M37.8386 179.316H33.0525C33.1377 179.839 33.3691 180.254 33.7466 180.558C34.1242 180.862 34.587 181.009 35.135 181.009C35.8048 181.009 36.4259 180.753 37.0105 180.254L37.6681 181.191C36.9374 181.885 36.0849 182.226 35.1106 182.226C34.453 182.226 33.8684 182.08 33.3448 181.788C32.8211 181.496 32.407 181.094 32.1147 180.582C31.8224 180.071 31.6641 179.498 31.6641 178.877C31.6641 178.256 31.8103 177.696 32.1025 177.172C32.3948 176.661 32.7967 176.247 33.3082 175.955C33.8197 175.662 34.3799 175.504 34.9889 175.504C35.5491 175.504 36.0606 175.638 36.5112 175.894C36.9618 176.149 37.3149 176.503 37.5707 176.941C37.8264 177.392 37.9604 177.891 37.9604 178.451C37.9604 178.719 37.9239 179.011 37.8508 179.316H37.8386ZM34.928 176.673C34.4774 176.673 34.0755 176.819 33.7466 177.099C33.4056 177.379 33.1864 177.769 33.089 178.244H36.5842C36.5842 177.757 36.4137 177.367 36.0971 177.087C35.7805 176.807 35.3907 176.673 34.9401 176.673H34.928Z" fill="#D9B96B"/>
<path d="M39.5315 175.504H40.0186L43.0389 178.999L46.0713 175.504H46.5341V182.068H45.1579V178.354L43.2703 180.534H42.7831L40.9076 178.366V182.068H39.5193V175.504H39.5315Z" fill="#D9B96B"/>
<path d="M54.1577 175.504V182.068H52.7694V178.074L49.0306 182.202H48.5435V175.638H49.9318V179.657L53.6828 175.492H54.1577V175.504Z" fill="#D9B96B"/>
<path d="M61.197 175.65V182.068H59.8209V179.913H58.8709L57.2147 182.068H55.6315L57.4704 179.73C57.0198 179.559 56.6666 179.316 56.4109 178.975C56.1551 178.634 56.0334 178.244 56.0334 177.781C56.0334 177.136 56.2526 176.624 56.691 176.235C57.1294 175.845 57.7262 175.65 58.4691 175.65H61.2092H61.197ZM59.8331 176.844H58.5421C58.2011 176.844 57.9332 176.929 57.7383 177.099C57.5435 177.27 57.4461 177.501 57.4461 177.806C57.4461 178.11 57.5435 178.329 57.7383 178.5C57.9332 178.67 58.2011 178.756 58.5421 178.756H59.8209V176.844H59.8331Z" fill="#D9B96B"/>
<path d="M66.8843 175.65H71.4147V176.844H68.2727V182.08H66.8843V175.662V175.65Z" fill="#D9B96B"/>
<path d="M73.7164 181.764C73.1927 181.459 72.7908 181.058 72.4864 180.546C72.1819 180.035 72.0358 179.474 72.0358 178.865C72.0358 178.257 72.1819 177.684 72.4864 177.173C72.7908 176.661 73.1927 176.259 73.7164 175.967C74.2401 175.675 74.8003 175.516 75.4214 175.516C76.0425 175.516 76.6271 175.663 77.1507 175.967C77.6744 176.271 78.0885 176.673 78.3929 177.185C78.6974 177.696 78.8435 178.257 78.8435 178.878C78.8435 179.499 78.6974 180.047 78.3929 180.558C78.0885 181.07 77.6744 181.484 77.1507 181.776C76.6271 182.068 76.0547 182.227 75.4214 182.227C74.7881 182.227 74.2279 182.081 73.7164 181.776V181.764ZM75.4214 180.948C75.7989 180.948 76.1399 180.851 76.4444 180.668C76.7488 180.485 76.9924 180.229 77.1629 179.913C77.3334 179.596 77.4187 179.243 77.4187 178.865C77.4187 178.488 77.3334 178.11 77.1629 177.794C76.9924 177.477 76.7488 177.221 76.4444 177.039C76.1399 176.856 75.7989 176.759 75.4336 176.759C75.0682 176.759 74.715 176.856 74.4106 177.039C74.1061 177.221 73.8625 177.477 73.692 177.794C73.5215 178.11 73.4363 178.476 73.4363 178.865C73.4363 179.255 73.5215 179.608 73.692 179.937C73.8625 180.254 74.1061 180.51 74.3984 180.68C74.6907 180.851 75.0317 180.948 75.4092 180.948H75.4214Z" fill="#D9B96B"/>
<path d="M81.6811 181.776C81.1574 181.484 80.7555 181.07 80.451 180.558C80.1466 180.047 80.0004 179.475 80.0004 178.853C80.0004 178.232 80.1466 177.672 80.451 177.161C80.7555 176.649 81.1574 176.247 81.6811 175.955C82.2047 175.663 82.7771 175.504 83.3982 175.504C84.0193 175.504 84.5186 175.638 84.9814 175.906C85.4442 176.174 85.8217 176.54 86.1018 177.002L85.1398 177.757C84.677 177.1 84.1046 176.771 83.4104 176.771C83.0207 176.771 82.6797 176.868 82.3752 177.051C82.0708 177.234 81.8272 177.489 81.6567 177.806C81.4862 178.123 81.4009 178.476 81.4009 178.866C81.4009 179.255 81.4862 179.609 81.6567 179.937C81.8272 180.254 82.0708 180.51 82.3752 180.692C82.6797 180.875 83.0207 180.973 83.4104 180.973C84.0924 180.973 84.6648 180.656 85.1398 180.01L86.1018 180.753C85.8096 181.216 85.432 181.581 84.9692 181.849C84.5065 182.117 83.9828 182.251 83.3982 182.251C82.7649 182.251 82.1926 182.105 81.6811 181.801V181.776Z" fill="#D9B96B"/>
<path d="M93.5673 175.65L90.4374 182.811C90.1695 183.42 89.8407 183.871 89.4753 184.151C89.0978 184.431 88.635 184.577 88.087 184.577C87.7338 184.577 87.3806 184.528 87.0275 184.443V183.274C87.4293 183.311 87.6851 183.323 87.7825 183.323C88.0992 183.323 88.3793 183.25 88.6107 183.116C88.8421 182.982 89.0247 182.738 89.1831 182.373L89.4388 181.776L86.8691 175.638H88.3427L90.1817 180.303L92.0815 175.638H93.5429L93.5673 175.65Z" fill="#D9B96B"/>
<path d="M100.655 180.887V183.919H99.3157V182.08H94.5904V183.919H93.2386V180.887H93.9571C94.225 180.595 94.4199 180.181 94.5417 179.608C94.6635 179.036 94.7365 178.293 94.7609 177.367L94.8096 175.65H99.5714V180.887H100.631H100.655ZM95.3942 180.887H98.2196V176.844H96.0762V177.501C96.0275 179.048 95.8083 180.181 95.3942 180.887Z" fill="#D9B96B"/>
<path d="M106.477 176.198C106.952 176.661 107.195 177.319 107.195 178.183V182.068H105.916V181.35C105.685 181.63 105.393 181.837 105.04 181.995C104.686 182.154 104.297 182.214 103.858 182.214C103.188 182.214 102.64 182.044 102.239 181.703C101.824 181.362 101.63 180.911 101.63 180.351C101.63 179.791 101.837 179.353 102.275 179.024C102.701 178.695 103.274 178.524 104.004 178.524H105.819V178.11C105.819 177.66 105.697 177.331 105.466 177.087C105.222 176.856 104.893 176.734 104.455 176.734C104.102 176.734 103.785 176.807 103.505 176.966C103.225 177.124 102.957 177.367 102.677 177.684L101.885 176.868C102.202 176.405 102.604 176.064 103.067 175.833C103.529 175.602 104.041 175.492 104.601 175.492C105.393 175.492 106.026 175.723 106.513 176.186L106.477 176.198ZM105.32 180.729C105.636 180.436 105.807 180.083 105.807 179.645V179.523H104.163C103.797 179.523 103.517 179.584 103.322 179.718C103.128 179.852 103.03 180.047 103.03 180.302C103.03 180.558 103.14 180.777 103.347 180.936C103.554 181.082 103.822 181.155 104.163 181.155C104.625 181.155 105.015 181.009 105.344 180.729H105.32Z" fill="#D9B96B"/>
<path d="M114.234 175.942C114.709 176.235 115.087 176.637 115.355 177.148C115.623 177.66 115.757 178.232 115.757 178.853C115.757 179.474 115.623 180.059 115.355 180.57C115.087 181.082 114.709 181.484 114.234 181.776C113.759 182.068 113.211 182.214 112.615 182.214C112.176 182.214 111.774 182.129 111.409 181.971C111.044 181.812 110.727 181.581 110.471 181.289V184.431H109.095V175.65H110.374V176.551C110.605 176.222 110.922 175.967 111.311 175.784C111.701 175.601 112.14 175.504 112.602 175.504C113.199 175.504 113.747 175.65 114.222 175.942H114.234ZM113.394 180.692C113.686 180.509 113.93 180.266 114.1 179.949C114.271 179.632 114.356 179.279 114.356 178.865C114.356 178.451 114.271 178.086 114.1 177.769C113.93 177.452 113.698 177.209 113.394 177.026C113.09 176.844 112.761 176.758 112.395 176.758C112.054 176.758 111.738 176.831 111.445 176.99C111.153 177.148 110.922 177.379 110.739 177.696C110.556 178.013 110.459 178.402 110.459 178.865C110.459 179.328 110.556 179.718 110.739 180.034C110.922 180.351 111.153 180.595 111.445 180.741C111.738 180.887 112.054 180.972 112.395 180.972C112.761 180.972 113.09 180.887 113.394 180.704V180.692Z" fill="#D9B96B"/>
<path d="M118.631 181.776C118.107 181.484 117.705 181.069 117.401 180.558C117.096 180.046 116.95 179.474 116.95 178.853C116.95 178.232 117.096 177.672 117.401 177.16C117.705 176.649 118.107 176.247 118.631 175.955C119.154 175.662 119.727 175.504 120.348 175.504C120.969 175.504 121.468 175.638 121.931 175.906C122.394 176.174 122.771 176.539 123.051 177.002L122.089 177.757C121.627 177.099 121.054 176.77 120.36 176.77C119.97 176.77 119.629 176.868 119.325 177.051C119.02 177.233 118.777 177.489 118.606 177.806C118.436 178.122 118.351 178.475 118.351 178.865C118.351 179.255 118.436 179.608 118.606 179.937C118.777 180.254 119.02 180.509 119.325 180.692C119.629 180.875 119.97 180.972 120.36 180.972C121.042 180.972 121.614 180.655 122.089 180.01L123.051 180.753C122.759 181.216 122.382 181.581 121.919 181.849C121.456 182.117 120.932 182.251 120.348 182.251C119.715 182.251 119.142 182.105 118.631 181.8V181.776Z" fill="#D9B96B"/>
<path d="M125.865 176.844H123.794V175.65H129.299V176.844H127.229V182.08H125.853V176.844H125.865Z" fill="#D9B96B"/>
<path d="M135.741 179.194C135.936 179.45 136.034 179.767 136.034 180.132C136.034 180.704 135.827 181.179 135.4 181.545C134.974 181.91 134.426 182.093 133.744 182.093H130.541V175.675H133.367C134 175.675 134.524 175.833 134.925 176.15C135.327 176.466 135.522 176.892 135.522 177.428C135.522 177.672 135.473 177.903 135.376 178.11C135.279 178.317 135.132 178.488 134.938 178.634C135.291 178.768 135.559 178.963 135.754 179.219L135.741 179.194ZM131.881 178.22H133.306C133.915 178.22 134.219 177.976 134.219 177.489C134.219 177.002 133.915 176.771 133.306 176.771H131.881V178.22ZM134.426 180.729C134.621 180.57 134.718 180.351 134.718 180.095C134.718 179.84 134.621 179.645 134.426 179.499C134.231 179.352 133.963 179.279 133.61 179.279H131.881V180.984H133.61C133.963 180.984 134.231 180.899 134.426 180.741V180.729Z" fill="#D9B96B"/>
<path d="M143.487 179.316H138.701C138.786 179.839 139.017 180.254 139.395 180.558C139.772 180.862 140.235 181.009 140.783 181.009C141.453 181.009 142.074 180.753 142.659 180.254L143.316 181.191C142.586 181.885 141.733 182.226 140.759 182.226C140.101 182.226 139.517 182.08 138.993 181.788C138.469 181.496 138.055 181.094 137.763 180.582C137.471 180.071 137.312 179.498 137.312 178.877C137.312 178.256 137.459 177.696 137.751 177.172C138.043 176.661 138.445 176.247 138.957 175.955C139.468 175.662 140.028 175.504 140.637 175.504C141.197 175.504 141.709 175.638 142.159 175.894C142.61 176.149 142.963 176.503 143.219 176.941C143.475 177.392 143.609 177.891 143.609 178.451C143.609 178.719 143.572 179.011 143.499 179.316H143.487ZM140.564 176.673C140.113 176.673 139.712 176.819 139.383 177.099C139.042 177.379 138.823 177.769 138.725 178.244H142.22C142.22 177.757 142.05 177.367 141.733 177.087C141.417 176.807 141.027 176.673 140.576 176.673H140.564Z" fill="#D9B96B"/>
<path d="M145.18 175.65H146.568V178.11H149.333V175.65H150.709V182.068H149.333V179.292H146.568V182.068H145.18V175.65Z" fill="#D9B96B"/>
<path d="M152.706 175.65H154.095V178.11H156.859V175.65H158.235V182.068H156.859V179.292H154.095V182.068H152.706V175.65Z" fill="#D9B96B"/>
<path d="M161.499 181.764C160.975 181.459 160.573 181.058 160.269 180.546C159.964 180.035 159.818 179.474 159.818 178.865C159.818 178.257 159.964 177.684 160.269 177.173C160.573 176.661 160.975 176.259 161.499 175.967C162.023 175.675 162.583 175.516 163.204 175.516C163.825 175.516 164.41 175.663 164.933 175.967C165.457 176.271 165.871 176.673 166.163 177.185C166.456 177.696 166.614 178.257 166.614 178.878C166.614 179.499 166.468 180.047 166.163 180.558C165.859 181.07 165.457 181.484 164.933 181.776C164.41 182.068 163.837 182.227 163.204 182.227C162.571 182.227 162.01 182.081 161.499 181.776V181.764ZM163.204 180.948C163.581 180.948 163.922 180.851 164.227 180.668C164.531 180.485 164.775 180.229 164.945 179.913C165.116 179.596 165.201 179.243 165.201 178.865C165.201 178.488 165.116 178.11 164.945 177.794C164.775 177.477 164.531 177.221 164.227 177.039C163.922 176.856 163.581 176.759 163.216 176.759C162.851 176.759 162.498 176.856 162.193 177.039C161.889 177.221 161.645 177.477 161.475 177.794C161.304 178.11 161.219 178.476 161.219 178.865C161.219 179.255 161.304 179.608 161.475 179.937C161.645 180.254 161.889 180.51 162.193 180.68C162.498 180.851 162.826 180.948 163.204 180.948Z" fill="#D9B96B"/>
<path d="M168.209 175.65H172.74V176.844H169.598V182.08H168.209V175.662V175.65Z" fill="#D9B96B"/>
<path d="M175.042 181.764C174.518 181.459 174.116 181.058 173.811 180.546C173.507 180.035 173.361 179.474 173.361 178.865C173.361 178.257 173.507 177.684 173.811 177.173C174.116 176.661 174.518 176.259 175.042 175.967C175.565 175.675 176.125 175.516 176.747 175.516C177.368 175.516 177.952 175.663 178.476 175.967C179 176.271 179.414 176.673 179.706 177.185C179.998 177.696 180.156 178.257 180.156 178.878C180.156 179.499 180.01 180.047 179.706 180.558C179.401 181.07 179 181.484 178.476 181.776C177.952 182.068 177.38 182.227 176.747 182.227C176.113 182.227 175.553 182.081 175.042 181.776V181.764ZM176.747 180.948C177.124 180.948 177.465 180.851 177.77 180.668C178.074 180.485 178.318 180.229 178.488 179.913C178.659 179.596 178.744 179.243 178.744 178.865C178.744 178.488 178.659 178.11 178.488 177.794C178.318 177.477 178.074 177.221 177.77 177.039C177.465 176.856 177.124 176.759 176.759 176.759C176.393 176.759 176.04 176.856 175.736 177.039C175.431 177.221 175.188 177.477 175.017 177.794C174.847 178.11 174.761 178.476 174.761 178.865C174.761 179.255 174.847 179.608 175.017 179.937C175.188 180.254 175.431 180.51 175.736 180.68C176.04 180.851 176.369 180.948 176.747 180.948Z" fill="#D9B96B"/>
<path d="M191.336 175.65L188.206 182.811C187.939 183.42 187.61 183.87 187.244 184.15C186.879 184.431 186.404 184.577 185.856 184.577C185.503 184.577 185.15 184.528 184.796 184.443V183.274C185.198 183.31 185.454 183.322 185.552 183.322C185.868 183.322 186.148 183.249 186.38 183.115C186.611 182.981 186.794 182.738 186.952 182.372L187.208 181.776L184.65 175.638H186.124L187.963 180.302L189.863 175.638H191.324L191.336 175.65Z" fill="#D9B96B"/>
<path d="M192.591 175.65H198.047V182.068H196.658V176.831H193.979V182.068H192.591V175.65Z" fill="#D9B96B"/>
<path d="M205.183 175.942C205.658 176.235 206.036 176.637 206.304 177.148C206.572 177.66 206.706 178.232 206.706 178.853C206.706 179.474 206.572 180.059 206.304 180.57C206.036 181.082 205.658 181.484 205.183 181.776C204.708 182.068 204.16 182.214 203.564 182.214C203.125 182.214 202.723 182.129 202.358 181.971C201.993 181.812 201.676 181.581 201.42 181.289V184.431H200.044V175.65H201.323V176.551C201.554 176.222 201.871 175.967 202.26 175.784C202.65 175.601 203.089 175.504 203.551 175.504C204.148 175.504 204.696 175.65 205.171 175.942H205.183ZM204.331 180.692C204.623 180.509 204.867 180.266 205.037 179.949C205.208 179.632 205.293 179.279 205.293 178.865C205.293 178.451 205.208 178.086 205.037 177.769C204.867 177.452 204.635 177.209 204.331 177.026C204.026 176.844 203.698 176.758 203.332 176.758C202.991 176.758 202.674 176.831 202.382 176.99C202.09 177.148 201.859 177.379 201.676 177.696C201.493 178.013 201.396 178.402 201.396 178.865C201.396 179.328 201.493 179.718 201.676 180.034C201.859 180.351 202.09 180.595 202.382 180.741C202.674 180.887 202.991 180.972 203.332 180.972C203.698 180.972 204.026 180.887 204.331 180.704V180.692Z" fill="#D9B96B"/>
<path d="M212.673 176.198C213.148 176.661 213.392 177.319 213.392 178.183V182.068H212.113V181.35C211.881 181.63 211.589 181.837 211.236 181.995C210.883 182.154 210.493 182.214 210.055 182.214C209.385 182.214 208.837 182.044 208.435 181.703C208.021 181.362 207.826 180.911 207.826 180.351C207.826 179.791 208.033 179.353 208.472 179.024C208.898 178.695 209.47 178.524 210.201 178.524H212.015V178.11C212.015 177.66 211.894 177.331 211.662 177.087C211.419 176.856 211.09 176.734 210.651 176.734C210.298 176.734 209.982 176.807 209.702 176.966C209.421 177.124 209.154 177.367 208.873 177.684L208.082 176.868C208.398 176.405 208.8 176.064 209.263 175.833C209.726 175.602 210.237 175.492 210.798 175.492C211.589 175.492 212.222 175.723 212.71 176.186L212.673 176.198ZM211.528 180.729C211.845 180.436 212.015 180.083 212.015 179.645V179.523H210.371C210.006 179.523 209.726 179.584 209.531 179.718C209.336 179.852 209.239 180.047 209.239 180.302C209.239 180.558 209.348 180.777 209.555 180.936C209.762 181.082 210.03 181.155 210.371 181.155C210.834 181.155 211.224 181.009 211.553 180.729H211.528Z" fill="#D9B96B"/>
<path d="M220.528 179.194C220.723 179.45 220.82 179.767 220.82 180.132C220.82 180.704 220.613 181.179 220.187 181.545C219.761 181.91 219.213 182.093 218.531 182.093H215.328V175.675H218.153C218.787 175.675 219.31 175.833 219.712 176.15C220.114 176.466 220.309 176.892 220.309 177.428C220.309 177.672 220.26 177.903 220.163 178.11C220.065 178.317 219.919 178.488 219.724 178.634C220.077 178.768 220.345 178.963 220.54 179.219L220.528 179.194ZM216.668 178.22H218.092C218.701 178.22 219.006 177.976 219.006 177.489C219.006 177.002 218.701 176.771 218.092 176.771H216.668V178.22ZM219.213 180.729C219.408 180.57 219.505 180.351 219.505 180.095C219.505 179.84 219.408 179.645 219.213 179.499C219.018 179.352 218.75 179.279 218.397 179.279H216.668V180.984H218.397C218.75 180.984 219.018 180.899 219.213 180.741V180.729Z" fill="#D9B96B"/>
<path d="M227.75 175.65V182.068H226.374V176.831H224.304V177.477C224.267 178.585 224.182 179.474 224.036 180.156C223.889 180.838 223.67 181.338 223.366 181.666C223.061 181.995 222.647 182.153 222.136 182.153C221.941 182.153 221.783 182.129 221.636 182.08V180.923C221.746 180.936 221.831 180.948 221.892 180.948C222.282 180.948 222.55 180.656 222.72 180.071C222.891 179.486 222.976 178.549 223 177.27L223.025 175.662H227.75V175.65Z" fill="#D9B96B"/>
<path d="M235.532 179.316H230.746C230.831 179.839 231.063 180.254 231.452 180.558C231.842 180.862 232.293 181.009 232.841 181.009C233.511 181.009 234.132 180.753 234.716 180.254L235.374 181.191C234.643 181.885 233.791 182.226 232.804 182.226C232.147 182.226 231.562 182.08 231.038 181.788C230.515 181.496 230.101 181.094 229.808 180.582C229.516 180.071 229.358 179.498 229.358 178.877C229.358 178.256 229.504 177.696 229.796 177.172C230.088 176.649 230.49 176.247 231.002 175.955C231.513 175.662 232.073 175.504 232.682 175.504C233.255 175.504 233.754 175.638 234.205 175.894C234.655 176.149 235.008 176.503 235.264 176.941C235.52 177.379 235.654 177.891 235.654 178.451C235.654 178.719 235.617 179.011 235.544 179.316H235.532ZM232.609 176.673C232.159 176.673 231.757 176.819 231.428 177.099C231.087 177.379 230.868 177.769 230.77 178.244H234.266C234.266 177.757 234.095 177.367 233.778 177.087C233.462 176.807 233.072 176.673 232.621 176.673H232.609Z" fill="#D9B96B"/>
<path d="M237.213 175.65H238.601V178.11H241.366V175.65H242.742V182.068H241.366V179.292H238.601V182.068H237.213V175.65Z" fill="#D9B96B"/>
<path d="M250.366 175.504V182.068H248.977V178.074L245.238 182.202H244.751V175.638H246.14V179.657L249.891 175.492H250.366V175.504Z" fill="#D9B96B"/>
<path d="M257.405 175.65V182.068H256.028V179.913H255.078L253.422 182.068H251.839L253.678 179.73C253.227 179.559 252.874 179.316 252.618 178.975C252.363 178.634 252.241 178.244 252.241 177.781C252.241 177.136 252.46 176.624 252.899 176.235C253.337 175.845 253.934 175.65 254.677 175.65H257.417H257.405ZM256.041 176.844H254.75C254.409 176.844 254.141 176.929 253.946 177.099C253.751 177.27 253.654 177.501 253.654 177.806C253.654 178.11 253.751 178.329 253.946 178.5C254.141 178.67 254.409 178.756 254.75 178.756H256.028V176.844H256.041Z" fill="#D9B96B"/>
<path d="M0 190.448H5.45596V196.866H4.06762V191.629H1.40053V196.866H0V190.448Z" fill="#D9B96B"/>
<path d="M12.6047 190.74C13.0797 191.032 13.4572 191.434 13.7251 191.945C13.9931 192.457 14.127 193.029 14.127 193.65C14.127 194.271 13.9931 194.856 13.7251 195.368C13.4572 195.879 13.0797 196.281 12.6047 196.573C12.1298 196.865 11.5817 197.012 10.985 197.012C10.5466 197.012 10.1447 196.926 9.77931 196.768C9.41395 196.61 9.09731 196.378 8.84156 196.086V199.228H7.46539V190.447H8.74413V191.349C8.97553 191.02 9.29217 190.764 9.68188 190.581C10.0716 190.399 10.51 190.301 10.9728 190.301C11.5695 190.301 12.1176 190.447 12.5925 190.74H12.6047ZM11.7522 195.489C12.0445 195.307 12.2881 195.063 12.4586 194.746C12.6291 194.43 12.7143 194.077 12.7143 193.663C12.7143 193.248 12.6291 192.883 12.4586 192.566C12.2881 192.25 12.0567 192.006 11.7522 191.824C11.4478 191.641 11.1189 191.556 10.7536 191.556C10.4126 191.556 10.0959 191.629 9.80366 191.787C9.51138 191.945 9.27999 192.177 9.09731 192.493C8.91463 192.81 8.81721 193.2 8.81721 193.663C8.81721 194.125 8.91463 194.515 9.09731 194.832C9.27999 195.148 9.51138 195.392 9.80366 195.538C10.0959 195.684 10.4126 195.769 10.7536 195.769C11.1189 195.769 11.4478 195.684 11.7522 195.501V195.489Z" fill="#D9B96B"/>
<path d="M21.349 190.301V196.865H19.9606V192.871L16.2218 196.999H15.7347V190.435H17.123V194.454L20.874 190.289H21.349V190.301Z" fill="#D9B96B"/>
<path d="M27.0972 188.243H34.0755V196.877H32.6871V189.485H28.4734V196.877H27.085V188.243H27.0972Z" fill="#D9B96B"/>
<path d="M41.2485 190.74C41.7235 191.032 42.101 191.434 42.3689 191.945C42.6369 192.457 42.7708 193.029 42.7708 193.65C42.7708 194.271 42.6369 194.856 42.3689 195.368C42.101 195.879 41.7235 196.281 41.2485 196.573C40.7736 196.865 40.2255 197.012 39.6288 197.012C39.1904 197.012 38.7885 196.926 38.4231 196.768C38.0577 196.61 37.7411 196.378 37.4854 196.086V199.228H36.1092V190.447H37.3879V191.349C37.6193 191.02 37.936 190.764 38.3257 190.581C38.7154 190.399 39.1538 190.301 39.6166 190.301C40.2133 190.301 40.7614 190.447 41.2363 190.74H41.2485ZM40.396 195.489C40.6883 195.307 40.9319 195.063 41.1024 194.746C41.2729 194.43 41.3581 194.077 41.3581 193.663C41.3581 193.248 41.2729 192.883 41.1024 192.566C40.9319 192.25 40.7005 192.006 40.396 191.824C40.0916 191.641 39.7627 191.556 39.3974 191.556C39.0564 191.556 38.7397 191.629 38.4475 191.787C38.1552 191.945 37.9238 192.177 37.7411 192.493C37.5584 192.81 37.461 193.2 37.461 193.663C37.461 194.125 37.5584 194.515 37.7411 194.832C37.9238 195.148 38.1552 195.392 38.4475 195.538C38.7397 195.684 39.0564 195.769 39.3974 195.769C39.7627 195.769 40.0916 195.684 40.396 195.501V195.489Z" fill="#D9B96B"/>
<path d="M50.1389 194.113H45.3527C45.438 194.637 45.6693 195.051 46.0591 195.355C46.4488 195.66 46.8994 195.806 47.4474 195.806C48.1172 195.806 48.7383 195.55 49.3229 195.051L49.9805 195.989C49.2498 196.683 48.3973 197.024 47.4109 197.024C46.7532 197.024 46.1687 196.878 45.645 196.585C45.1213 196.293 44.7072 195.891 44.415 195.38C44.1227 194.868 43.9644 194.296 43.9644 193.675C43.9644 193.054 44.1105 192.493 44.4028 191.97C44.6951 191.446 45.097 191.044 45.6085 190.752C46.12 190.46 46.6802 190.301 47.2891 190.301C47.8615 190.301 48.3608 190.435 48.8114 190.691C49.262 190.947 49.6152 191.3 49.8709 191.738C50.1267 192.177 50.2606 192.688 50.2606 193.248C50.2606 193.516 50.2241 193.809 50.151 194.113H50.1389ZM47.2282 191.47C46.7776 191.47 46.3757 191.617 46.0469 191.897C45.7059 192.177 45.4867 192.566 45.3892 193.041H48.8845C48.8845 192.554 48.714 192.165 48.3973 191.884C48.0807 191.604 47.691 191.47 47.2404 191.47H47.2282Z" fill="#D9B96B"/>
<path d="M56.0575 194.113C56.228 194.381 56.3133 194.673 56.3133 194.99C56.3133 195.623 56.0941 196.123 55.6435 196.476C55.1929 196.829 54.5717 196.999 53.7923 196.999C52.6719 196.999 51.7951 196.597 51.174 195.782L52.0143 194.953C52.2213 195.209 52.4649 195.404 52.745 195.55C53.0251 195.696 53.3539 195.769 53.7314 195.769C54.109 195.769 54.4256 195.684 54.6448 195.526C54.864 195.367 54.9615 195.148 54.9615 194.88C54.9615 194.625 54.864 194.43 54.657 194.271C54.45 194.125 54.1699 194.04 53.7923 194.04H53.0494V192.944H53.7558C54.0481 192.944 54.2795 192.883 54.4378 192.749C54.5961 192.615 54.6692 192.445 54.6692 192.213C54.6692 191.982 54.5839 191.824 54.4134 191.69C54.2429 191.556 54.0115 191.495 53.7071 191.495C53.3539 191.495 53.0494 191.556 52.8059 191.69C52.5623 191.811 52.3431 191.994 52.1361 192.225L51.2957 191.397C51.5637 191.056 51.9168 190.788 52.3309 190.581C52.7572 190.374 53.2321 190.277 53.768 190.277C54.4621 190.277 55.0102 190.435 55.4121 190.752C55.814 191.068 56.0088 191.519 56.0088 192.091C56.0088 192.384 55.9479 192.639 55.8383 192.871C55.7165 193.102 55.546 193.297 55.3268 193.455C55.6556 193.614 55.8992 193.821 56.0697 194.089L56.0575 194.113Z" fill="#D9B96B"/>
<path d="M63.5473 190.301V196.865H62.1589V192.871L58.4201 196.999H57.933V190.435H59.3213V194.454L63.0723 190.289H63.5473V190.301Z" fill="#D9B96B"/>
<path d="M72.0356 195.684V198.716H70.7082V196.877H65.9829V198.716H64.6311V195.684H65.3496C65.6176 195.391 65.8124 194.977 65.9342 194.405C66.056 193.845 66.1291 193.09 66.1534 192.164L66.2021 190.447H70.9639V195.684H72.0234H72.0356ZM66.7867 195.684H69.6121V191.641H67.4687V192.298C67.42 193.845 67.2008 194.977 66.7867 195.684Z" fill="#D9B96B"/>
<path d="M79.1237 194.113H74.3375C74.4228 194.637 74.6541 195.051 75.0317 195.355C75.4092 195.66 75.872 195.806 76.42 195.806C77.0898 195.806 77.7109 195.55 78.2955 195.051L78.9532 195.989C78.2224 196.683 77.3699 197.024 76.3957 197.024C75.738 197.024 75.1535 196.878 74.6298 196.585C74.1061 196.293 73.692 195.891 73.3998 195.38C73.1075 194.868 72.9492 194.296 72.9492 193.675C72.9492 193.054 73.0953 192.493 73.3876 191.97C73.6799 191.458 74.0818 191.044 74.5933 190.752C75.1047 190.46 75.665 190.301 76.2739 190.301C76.8341 190.301 77.3456 190.435 77.7962 190.691C78.2468 190.947 78.6 191.3 78.8557 191.738C79.1115 192.189 79.2454 192.688 79.2454 193.248C79.2454 193.516 79.2089 193.809 79.1358 194.113H79.1237ZM76.213 191.47C75.7624 191.47 75.3605 191.617 75.0317 191.897C74.6907 192.177 74.4715 192.566 74.374 193.041H77.8693C77.8693 192.554 77.6988 192.165 77.3821 191.884C77.0655 191.604 76.6758 191.47 76.2252 191.47H76.213Z" fill="#D9B96B"/>
<path d="M80.8165 190.448H82.2049V192.908H84.9694V190.448H86.3456V196.866H84.9694V194.089H82.2049V196.866H80.8165V190.448Z" fill="#D9B96B"/>
<path d="M89.6337 191.641H87.5634V190.448H93.068V191.641H90.9977V196.878H89.6215V191.641H89.6337Z" fill="#D9B96B"/>
<path d="M100.071 194.113H95.2845C95.3698 194.637 95.6012 195.051 95.9787 195.355C96.3562 195.66 96.819 195.806 97.367 195.806C98.0369 195.806 98.658 195.55 99.2425 195.051L99.9002 195.989C99.1695 196.683 98.317 197.024 97.3427 197.024C96.6851 197.024 96.1005 196.878 95.5768 196.585C95.0531 196.293 94.6391 195.891 94.3468 195.38C94.0545 194.868 93.8962 194.296 93.8962 193.675C93.8962 193.054 94.0423 192.493 94.3346 191.97C94.6269 191.458 95.0288 191.044 95.5403 190.752C96.0518 190.46 96.612 190.301 97.2209 190.301C97.7811 190.301 98.2926 190.435 98.7432 190.691C99.1938 190.947 99.547 191.3 99.8027 191.738C100.058 192.189 100.192 192.688 100.192 193.248C100.192 193.516 100.156 193.809 100.083 194.113H100.071ZM97.1478 191.47C96.6972 191.47 96.2953 191.617 95.9665 191.897C95.6255 192.177 95.4063 192.566 95.3089 193.041H98.8041C98.8041 192.554 98.6336 192.165 98.317 191.884C98.0003 191.604 97.6106 191.47 97.16 191.47H97.1478Z" fill="#D9B96B"/>
<path d="M105.502 188.243H106.891V196.877H105.502V188.243ZM112.639 196.877H110.922L106.915 192.286L110.532 188.243H112.237L108.657 192.286L112.627 196.877H112.639Z" fill="#D9B96B"/>
<path d="M113.93 190.448H115.318V192.493H116.67C117.425 192.493 118.034 192.688 118.497 193.078C118.959 193.468 119.203 194.004 119.203 194.673C119.203 195.343 118.972 195.879 118.497 196.281C118.034 196.683 117.425 196.878 116.67 196.878H113.942V190.46L113.93 190.448ZM116.609 195.684C116.987 195.684 117.279 195.599 117.474 195.429C117.681 195.258 117.778 195.014 117.778 194.686C117.778 194.357 117.669 194.113 117.462 193.943C117.254 193.772 116.962 193.687 116.585 193.687H115.306V195.684H116.597H116.609ZM120.019 190.448H121.395V196.866H120.019V190.448Z" fill="#D9B96B"/>
<path d="M128.544 190.74C129.019 191.032 129.396 191.434 129.664 191.945C129.932 192.457 130.066 193.029 130.066 193.65C130.066 194.271 129.932 194.856 129.664 195.368C129.396 195.879 129.019 196.281 128.544 196.573C128.069 196.865 127.521 197.012 126.924 197.012C126.486 197.012 126.084 196.926 125.719 196.768C125.353 196.61 125.037 196.378 124.781 196.086V199.228H123.405V190.447H124.683V191.349C124.915 191.02 125.231 190.764 125.621 190.581C126.011 190.399 126.449 190.301 126.912 190.301C127.509 190.301 128.057 190.447 128.532 190.74H128.544ZM127.691 195.489C127.984 195.307 128.227 195.063 128.398 194.746C128.568 194.43 128.654 194.077 128.654 193.663C128.654 193.248 128.568 192.883 128.398 192.566C128.227 192.25 127.996 192.006 127.691 191.824C127.387 191.641 127.058 191.556 126.693 191.556C126.352 191.556 126.035 191.629 125.743 191.787C125.451 191.945 125.207 192.177 125.024 192.493C124.842 192.81 124.744 193.2 124.744 193.663C124.744 194.125 124.842 194.515 125.024 194.832C125.207 195.148 125.451 195.392 125.743 195.538C126.035 195.684 126.352 195.769 126.693 195.769C127.058 195.769 127.387 195.684 127.691 195.501V195.489Z" fill="#D9B96B"/>
<path d="M131.674 190.448H136.204V191.641H133.062V196.878H131.674V190.46V190.448Z" fill="#D9B96B"/>
<path d="M137.471 190.448H138.859V192.493H140.211C140.966 192.493 141.563 192.688 142.038 193.078C142.5 193.468 142.732 194.004 142.732 194.673C142.732 195.343 142.5 195.879 142.038 196.281C141.575 196.683 140.966 196.878 140.211 196.878H137.471V190.46V190.448ZM140.162 195.684C140.54 195.684 140.832 195.599 141.027 195.429C141.222 195.258 141.331 195.014 141.331 194.686C141.331 194.357 141.222 194.113 141.015 193.943C140.808 193.772 140.515 193.687 140.138 193.687H138.859V195.684H140.15H140.162ZM143.56 190.448H144.936V196.866H143.56V190.448Z" fill="#D9B96B"/>
<path d="M151.342 194.113C151.513 194.381 151.598 194.673 151.598 194.99C151.598 195.623 151.379 196.123 150.928 196.476C150.478 196.829 149.856 196.999 149.077 196.999C147.957 196.999 147.08 196.597 146.459 195.782L147.299 194.953C147.506 195.209 147.75 195.404 148.03 195.55C148.31 195.696 148.639 195.769 149.016 195.769C149.394 195.769 149.71 195.684 149.929 195.526C150.137 195.367 150.246 195.148 150.246 194.88C150.246 194.625 150.149 194.43 149.942 194.271C149.735 194.113 149.455 194.04 149.077 194.04H148.334V192.944H149.04C149.333 192.944 149.564 192.883 149.722 192.749C149.881 192.615 149.954 192.445 149.954 192.213C149.954 191.982 149.869 191.824 149.698 191.69C149.528 191.556 149.296 191.495 148.98 191.495C148.626 191.495 148.322 191.556 148.078 191.69C147.835 191.811 147.616 191.994 147.409 192.225L146.568 191.397C146.836 191.056 147.189 190.788 147.603 190.581C148.017 190.374 148.505 190.277 149.04 190.277C149.735 190.277 150.283 190.435 150.685 190.752C151.086 191.068 151.281 191.519 151.281 192.091C151.281 192.384 151.22 192.639 151.099 192.871C150.977 193.102 150.806 193.297 150.587 193.455C150.904 193.614 151.16 193.821 151.33 194.089L151.342 194.113Z" fill="#D9B96B"/>
<path d="M154.484 196.573C153.96 196.281 153.559 195.867 153.254 195.355C152.95 194.844 152.803 194.271 152.803 193.65C152.803 193.029 152.95 192.469 153.254 191.958C153.559 191.446 153.96 191.044 154.484 190.752C155.008 190.46 155.58 190.301 156.201 190.301C156.822 190.301 157.322 190.435 157.784 190.703C158.247 190.971 158.625 191.336 158.905 191.799L157.943 192.554C157.48 191.897 156.908 191.568 156.213 191.568C155.824 191.568 155.483 191.665 155.178 191.848C154.874 192.031 154.63 192.286 154.46 192.603C154.289 192.92 154.204 193.273 154.204 193.663C154.204 194.052 154.289 194.405 154.46 194.734C154.63 195.051 154.874 195.307 155.178 195.489C155.483 195.672 155.824 195.769 156.213 195.769C156.895 195.769 157.468 195.453 157.943 194.807L158.905 195.55C158.613 196.013 158.235 196.378 157.772 196.646C157.31 196.914 156.786 197.048 156.201 197.048C155.568 197.048 154.996 196.902 154.484 196.598V196.573Z" fill="#D9B96B"/>
<path d="M160.439 190.448H161.828V196.866H160.439V190.448ZM166.334 196.878H164.653L161.877 193.443L164.458 190.46H166.078L163.496 193.395L166.322 196.89L166.334 196.878Z" fill="#D9B96B"/>
<path d="M168.575 196.561C168.051 196.256 167.649 195.854 167.345 195.343C167.04 194.831 166.894 194.271 166.894 193.662C166.894 193.053 167.04 192.481 167.345 191.97C167.649 191.458 168.051 191.056 168.575 190.764C169.098 190.472 169.659 190.313 170.28 190.313C170.901 190.313 171.485 190.459 172.009 190.764C172.533 191.068 172.947 191.47 173.251 191.982C173.556 192.493 173.702 193.053 173.702 193.674C173.702 194.296 173.556 194.844 173.251 195.355C172.947 195.867 172.533 196.281 172.009 196.573C171.485 196.865 170.913 197.024 170.28 197.024C169.646 197.024 169.086 196.877 168.575 196.573V196.561ZM170.28 195.745C170.657 195.745 170.998 195.647 171.303 195.465C171.607 195.282 171.851 195.026 172.021 194.71C172.192 194.393 172.277 194.04 172.277 193.662C172.277 193.285 172.192 192.907 172.021 192.591C171.851 192.274 171.607 192.018 171.303 191.836C170.998 191.653 170.657 191.555 170.292 191.555C169.926 191.555 169.573 191.653 169.269 191.836C168.964 192.018 168.721 192.274 168.55 192.591C168.38 192.907 168.295 193.273 168.295 193.662C168.295 194.052 168.38 194.405 168.55 194.734C168.721 195.051 168.964 195.306 169.257 195.477C169.549 195.647 169.89 195.745 170.267 195.745H170.28Z" fill="#D9B96B"/>
<path d="M180.887 190.301V196.865H179.499V192.871L175.76 196.999H175.273V190.435H176.661V194.454L180.412 190.289H180.887V190.301ZM176.71 188.791C176.32 188.389 176.125 187.865 176.125 187.22V186.842H177.246V187.208C177.246 187.585 177.331 187.89 177.501 188.084C177.672 188.279 177.916 188.389 178.232 188.389C178.549 188.389 178.805 188.292 178.975 188.084C179.146 187.877 179.231 187.585 179.231 187.208V186.842H180.363V187.22C180.363 187.865 180.169 188.389 179.779 188.791C179.389 189.193 178.865 189.388 178.232 189.388C177.599 189.388 177.1 189.193 176.71 188.791Z" fill="#D9B96B"/>
<path d="M186.635 188.243H189.79C190.362 188.243 190.873 188.353 191.324 188.572C191.775 188.791 192.116 189.108 192.359 189.509C192.603 189.911 192.725 190.374 192.725 190.886C192.725 191.397 192.603 191.86 192.359 192.262C192.116 192.664 191.775 192.98 191.324 193.2C190.873 193.431 190.374 193.541 189.79 193.541H188.024V196.877H186.635V188.243ZM189.765 192.311C190.252 192.311 190.63 192.177 190.898 191.921C191.166 191.665 191.3 191.324 191.3 190.898C191.3 190.472 191.166 190.131 190.898 189.863C190.63 189.607 190.252 189.473 189.765 189.473H188.024V192.311H189.765Z" fill="#D9B96B"/>
<path d="M199.813 194.113H195.026C195.112 194.637 195.343 195.051 195.733 195.355C196.122 195.66 196.573 195.806 197.121 195.806C197.791 195.806 198.412 195.55 198.997 195.051L199.654 195.989C198.924 196.683 198.071 197.024 197.085 197.024C196.427 197.024 195.842 196.878 195.319 196.585C194.795 196.293 194.381 195.891 194.089 195.38C193.796 194.868 193.638 194.296 193.638 193.675C193.638 193.054 193.784 192.493 194.076 191.97C194.369 191.446 194.771 191.044 195.282 190.752C195.794 190.46 196.354 190.301 196.963 190.301C197.535 190.301 198.034 190.435 198.485 190.691C198.936 190.947 199.289 191.3 199.545 191.738C199.8 192.177 199.934 192.688 199.934 193.248C199.934 193.516 199.898 193.809 199.825 194.113H199.813ZM196.89 191.47C196.439 191.47 196.037 191.617 195.708 191.897C195.367 192.177 195.148 192.566 195.051 193.041H198.546C198.546 192.554 198.376 192.165 198.059 191.884C197.742 191.604 197.352 191.47 196.902 191.47H196.89Z" fill="#D9B96B"/>
<path d="M202.76 196.573C202.236 196.281 201.834 195.867 201.53 195.355C201.225 194.844 201.079 194.271 201.079 193.65C201.079 193.029 201.225 192.469 201.53 191.958C201.834 191.446 202.236 191.044 202.76 190.752C203.283 190.46 203.856 190.301 204.477 190.301C205.098 190.301 205.597 190.435 206.06 190.703C206.523 190.971 206.9 191.336 207.181 191.799L206.218 192.554C205.756 191.897 205.183 191.568 204.489 191.568C204.099 191.568 203.758 191.665 203.454 191.848C203.149 192.031 202.906 192.286 202.735 192.603C202.565 192.92 202.48 193.273 202.48 193.663C202.48 194.052 202.565 194.405 202.735 194.734C202.906 195.051 203.149 195.307 203.454 195.489C203.758 195.672 204.099 195.769 204.489 195.769C205.171 195.769 205.743 195.453 206.218 194.807L207.181 195.55C206.888 196.013 206.511 196.378 206.048 196.646C205.585 196.914 205.061 197.048 204.477 197.048C203.844 197.048 203.271 196.902 202.76 196.598V196.573Z" fill="#D9B96B"/>
<path d="M208.715 190.447H214.171V196.865H212.783V191.628H210.103V196.865H208.715V190.447Z" fill="#D9B96B"/>
<path d="M222.111 190.447L218.981 197.608C218.714 198.217 218.385 198.668 218.019 198.948C217.654 199.228 217.179 199.374 216.631 199.374C216.278 199.374 215.925 199.325 215.571 199.24V198.071C215.973 198.108 216.229 198.12 216.327 198.12C216.643 198.12 216.923 198.047 217.155 197.913C217.386 197.779 217.569 197.535 217.727 197.17L217.983 196.573L215.425 190.435H216.899L218.738 195.099L220.638 190.435H222.099L222.111 190.447Z" fill="#D9B96B"/>
<path d="M228.298 190.971C228.773 191.263 229.151 191.653 229.431 192.14C229.699 192.639 229.845 193.175 229.845 193.772C229.845 194.369 229.699 194.917 229.394 195.416C229.09 195.915 228.688 196.293 228.176 196.585C227.665 196.865 227.092 197.012 226.459 197.012C225.789 197.012 225.193 196.853 224.681 196.549C224.17 196.244 223.78 195.806 223.488 195.246C223.207 194.685 223.061 194.04 223.061 193.309V192.274C223.061 191.288 223.171 190.472 223.39 189.838C223.609 189.205 224.023 188.669 224.62 188.243C225.217 187.829 226.094 187.537 227.226 187.366C228.237 187.22 228.919 187.074 229.272 186.94V188.219C228.858 188.389 228.201 188.523 227.299 188.621C226.459 188.73 225.838 188.913 225.412 189.181C224.985 189.449 224.718 189.79 224.584 190.192C224.45 190.593 224.377 191.117 224.377 191.75C224.632 191.373 224.973 191.081 225.387 190.874C225.801 190.667 226.252 190.557 226.739 190.557C227.299 190.557 227.823 190.703 228.31 190.983L228.298 190.971ZM227.458 195.489C227.762 195.319 227.994 195.075 228.164 194.771C228.335 194.466 228.42 194.137 228.42 193.772C228.42 193.407 228.335 193.09 228.164 192.786C227.994 192.481 227.75 192.25 227.458 192.079C227.165 191.909 226.824 191.824 226.459 191.824C226.094 191.824 225.777 191.909 225.473 192.079C225.168 192.25 224.937 192.493 224.766 192.786C224.596 193.09 224.511 193.419 224.511 193.772C224.511 194.125 224.596 194.466 224.766 194.771C224.937 195.075 225.18 195.319 225.473 195.489C225.777 195.66 226.106 195.745 226.459 195.745C226.812 195.745 227.153 195.66 227.458 195.489Z" fill="#D9B96B"/>
<path d="M236.677 190.447V196.865H235.301V191.628H233.23V192.274C233.194 193.382 233.109 194.271 232.962 194.953C232.816 195.635 232.597 196.134 232.293 196.463C231.988 196.792 231.574 196.95 231.063 196.95C230.868 196.95 230.709 196.926 230.563 196.877V195.72C230.673 195.732 230.758 195.745 230.819 195.745C231.209 195.745 231.477 195.452 231.647 194.868C231.818 194.283 231.903 193.346 231.927 192.067L231.952 190.459H236.677V190.447Z" fill="#D9B96B"/>
<path d="M244.301 190.301V196.865H242.912V192.871L239.173 196.999H238.686V190.435H240.075V194.454L243.826 190.289H244.301V190.301Z" fill="#D9B96B"/>
<path d="M246.31 190.447H247.698V196.865H246.31V190.447ZM252.192 196.877H250.512L247.735 193.443L250.317 190.459H251.937L249.355 193.394L252.18 196.889L252.192 196.877Z" fill="#D9B96B"/>
<path d="M259 190.301V196.865H257.612V192.871L253.873 196.999H253.386V190.435H254.774V194.454L258.525 190.289H259V190.301Z" fill="#D9B96B"/>
<path d="M42.783 205.098V211.662H41.3946V207.668L37.6558 211.796H37.1687V205.232H38.557V209.251L42.308 205.086H42.783V205.098Z" fill="#D9B96B"/>
<path d="M44.8046 205.098H45.2917L48.312 208.593L51.3444 205.098H51.8072V211.662H50.4311V207.948L48.5434 210.128H48.0563L46.1808 207.96V211.662H44.7924V205.098H44.8046Z" fill="#D9B96B"/>
<path d="M59.5771 208.91H54.791C54.8763 209.434 55.1076 209.848 55.4852 210.152C55.8627 210.457 56.3255 210.603 56.8735 210.603C57.5433 210.603 58.1644 210.347 58.749 209.848L59.4066 210.785C58.6759 211.48 57.8234 211.821 56.8492 211.821C56.1915 211.821 55.607 211.675 55.0833 211.382C54.5596 211.09 54.1455 210.688 53.8533 210.177C53.561 209.665 53.4026 209.093 53.4026 208.472C53.4026 207.85 53.5488 207.29 53.8411 206.767C54.1334 206.255 54.5353 205.841 55.0467 205.549C55.5582 205.256 56.1185 205.098 56.7274 205.098C57.2876 205.098 57.7991 205.232 58.2497 205.488C58.7003 205.744 59.0535 206.097 59.3092 206.535C59.565 206.986 59.6989 207.485 59.6989 208.045C59.6989 208.313 59.6624 208.606 59.5893 208.91H59.5771ZM56.6665 206.267C56.2159 206.267 55.814 206.413 55.4852 206.694C55.1442 206.974 54.925 207.363 54.8275 207.838H58.3228C58.3228 207.351 58.1523 206.961 57.8356 206.681C57.519 206.401 57.1293 206.267 56.6787 206.267H56.6665Z" fill="#D9B96B"/>
<path d="M61.27 205.244H62.6583V207.704H65.4228V205.244H66.799V211.662H65.4228V208.885H62.6583V211.662H61.27V205.244Z" fill="#D9B96B"/>
<path d="M74.4105 205.098V211.662H73.0222V207.668L69.2834 211.796H68.7963V205.232H70.1846V209.251L73.9356 205.086H74.4105V205.098Z" fill="#D9B96B"/>
<path d="M81.4011 203.04L84.7501 207.083L81.0844 211.674H79.3672L83.106 207.083L79.6839 203.04H81.4011ZM84.7867 203.04H86.175V211.674H84.7867V203.04ZM91.5945 211.674H89.8773L86.1994 207.083L89.5606 203.04H91.2656L87.8557 207.083L91.5945 211.674Z" fill="#D9B96B"/>
<path d="M98.2925 205.244L95.1627 212.405C94.8947 213.014 94.5659 213.465 94.2006 213.745C93.823 214.025 93.3602 214.171 92.8122 214.171C92.459 214.171 92.1059 214.122 91.7527 214.037V212.868C92.1546 212.904 92.4103 212.917 92.5077 212.917C92.8244 212.917 93.1045 212.843 93.3359 212.71C93.5673 212.576 93.75 212.332 93.9083 211.967L94.164 211.37L91.5944 205.232H93.068L94.9069 209.896L96.8068 205.232H98.2682L98.2925 205.244Z" fill="#D9B96B"/>
<path d="M100.546 211.37C100.022 211.078 99.6201 210.663 99.3156 210.152C99.0111 209.64 98.865 209.068 98.865 208.447C98.865 207.826 99.0111 207.266 99.3156 206.754C99.6201 206.243 100.022 205.841 100.546 205.548C101.069 205.256 101.642 205.098 102.263 205.098C102.884 205.098 103.383 205.232 103.846 205.5C104.309 205.768 104.686 206.133 104.966 206.596L104.004 207.351C103.542 206.693 102.969 206.364 102.275 206.364C101.885 206.364 101.544 206.462 101.24 206.645C100.935 206.827 100.692 207.083 100.521 207.4C100.351 207.716 100.266 208.069 100.266 208.459C100.266 208.849 100.351 209.202 100.521 209.531C100.692 209.848 100.935 210.103 101.24 210.286C101.544 210.469 101.885 210.566 102.275 210.566C102.957 210.566 103.529 210.249 104.004 209.604L104.966 210.347C104.674 210.81 104.297 211.175 103.834 211.443C103.371 211.711 102.847 211.845 102.263 211.845C101.63 211.845 101.057 211.699 100.546 211.394V211.37Z" fill="#D9B96B"/>
<path d="M112.432 205.244L109.302 212.405C109.034 213.014 108.705 213.464 108.34 213.744C107.962 214.025 107.5 214.171 106.952 214.171C106.598 214.171 106.245 214.122 105.892 214.037V212.868C106.294 212.904 106.55 212.916 106.647 212.916C106.964 212.916 107.244 212.843 107.475 212.709C107.707 212.575 107.889 212.332 108.048 211.966L108.303 211.37L105.734 205.232H107.207L109.046 209.896L110.946 205.232H112.408L112.432 205.244Z" fill="#D9B96B"/>
<path d="M113.686 205.244H119.142V211.662H117.754V206.425H115.075V211.662H113.686V205.244Z" fill="#D9B96B"/>
<path d="M125.524 205.792C125.999 206.255 126.242 206.912 126.242 207.777V211.662H124.964V210.943C124.732 211.223 124.44 211.43 124.087 211.589C123.734 211.747 123.344 211.808 122.905 211.808C122.236 211.808 121.688 211.637 121.286 211.296C120.872 210.955 120.677 210.505 120.677 209.945C120.677 209.384 120.884 208.946 121.322 208.617C121.748 208.288 122.321 208.118 123.052 208.118H124.866V207.704C124.866 207.253 124.744 206.924 124.513 206.681C124.269 206.449 123.941 206.328 123.502 206.328C123.149 206.328 122.832 206.401 122.552 206.559C122.272 206.717 122.004 206.961 121.724 207.278L120.932 206.462C121.249 205.999 121.651 205.658 122.114 205.426C122.577 205.195 123.088 205.085 123.648 205.085C124.44 205.085 125.073 205.317 125.56 205.78L125.524 205.792ZM124.379 210.322C124.696 210.03 124.866 209.677 124.866 209.238V209.117H123.222C122.857 209.117 122.577 209.177 122.382 209.311C122.187 209.445 122.089 209.64 122.089 209.896C122.089 210.152 122.199 210.371 122.406 210.529C122.613 210.675 122.881 210.748 123.222 210.748C123.685 210.748 124.075 210.602 124.403 210.322H124.379Z" fill="#D9B96B"/>
<path d="M137.093 210.225H133.208L132.599 211.662H131.126L134.926 202.881H135.401L139.2 211.662H137.714L137.105 210.225H137.093ZM135.157 205.463L133.708 209.031H136.594L135.157 205.463Z" fill="#D9B96B"/>
<path d="M145.228 205.768C145.703 206.06 146.081 206.45 146.361 206.937C146.641 207.436 146.775 207.972 146.775 208.569C146.775 209.166 146.629 209.714 146.337 210.213C146.044 210.7 145.63 211.09 145.119 211.382C144.607 211.662 144.035 211.808 143.402 211.808C142.732 211.808 142.135 211.65 141.624 211.346C141.112 211.041 140.71 210.603 140.43 210.043C140.15 209.482 140.004 208.837 140.004 208.106V207.071C140.004 206.085 140.114 205.269 140.333 204.635C140.552 203.99 140.954 203.466 141.563 203.04C142.159 202.626 143.036 202.334 144.169 202.163C145.18 202.017 145.862 201.871 146.215 201.737V203.016C145.801 203.186 145.143 203.32 144.242 203.417C143.402 203.527 142.768 203.71 142.354 203.978C141.928 204.246 141.648 204.587 141.526 204.988C141.404 205.39 141.331 205.914 141.319 206.547C141.575 206.17 141.916 205.878 142.33 205.67C142.744 205.463 143.195 205.354 143.682 205.354C144.254 205.354 144.766 205.5 145.253 205.78L145.228 205.768ZM144.376 210.286C144.68 210.116 144.912 209.872 145.095 209.568C145.265 209.263 145.35 208.934 145.35 208.569C145.35 208.204 145.265 207.887 145.095 207.582C144.924 207.278 144.68 207.047 144.376 206.876C144.072 206.706 143.743 206.62 143.377 206.62C143.012 206.62 142.695 206.706 142.391 206.876C142.086 207.047 141.855 207.29 141.672 207.582C141.502 207.887 141.417 208.216 141.417 208.569C141.417 208.922 141.502 209.263 141.672 209.568C141.843 209.872 142.086 210.116 142.391 210.286C142.695 210.457 143.024 210.542 143.377 210.542C143.731 210.542 144.072 210.457 144.376 210.286Z" fill="#D9B96B"/>
<path d="M154.691 210.481V213.513H153.352V211.674H148.626V213.513H147.275V210.481H147.993C148.261 210.188 148.456 209.774 148.578 209.202C148.699 208.63 148.772 207.887 148.797 206.961L148.846 205.244H153.607V210.481H154.667H154.691ZM149.442 210.481H152.268V206.437H150.124V207.095C150.076 208.642 149.856 209.774 149.442 210.481Z" fill="#D9B96B"/>
<path d="M161.267 205.536C161.742 205.828 162.12 206.23 162.388 206.742C162.656 207.253 162.79 207.826 162.79 208.447C162.79 209.068 162.656 209.652 162.388 210.164C162.12 210.675 161.742 211.077 161.267 211.37C160.793 211.662 160.245 211.808 159.648 211.808C159.209 211.808 158.807 211.723 158.442 211.564C158.077 211.406 157.76 211.175 157.504 210.882V214.024H156.128V205.244H157.407V206.145C157.638 205.816 157.955 205.56 158.345 205.378C158.734 205.195 159.173 205.098 159.636 205.098C160.232 205.098 160.78 205.244 161.255 205.536H161.267ZM160.427 210.286C160.719 210.103 160.963 209.859 161.134 209.543C161.304 209.226 161.389 208.873 161.389 208.459C161.389 208.045 161.304 207.679 161.134 207.363C160.963 207.046 160.732 206.803 160.427 206.62C160.123 206.437 159.794 206.352 159.429 206.352C159.088 206.352 158.771 206.425 158.479 206.583C158.186 206.742 157.943 206.973 157.76 207.29C157.577 207.606 157.48 207.996 157.48 208.459C157.48 208.922 157.577 209.311 157.76 209.628C157.943 209.945 158.186 210.188 158.479 210.334C158.771 210.481 159.088 210.566 159.429 210.566C159.794 210.566 160.123 210.481 160.427 210.298V210.286Z" fill="#D9B96B"/>
<path d="M168.769 205.792C169.244 206.255 169.488 206.912 169.488 207.777V211.662H168.209V210.944C167.978 211.224 167.686 211.431 167.332 211.589C166.979 211.735 166.589 211.808 166.151 211.808C165.481 211.808 164.933 211.638 164.531 211.297C164.129 210.956 163.922 210.505 163.922 209.945C163.922 209.385 164.142 208.946 164.568 208.617C164.994 208.289 165.567 208.118 166.297 208.118H168.112V207.704C168.112 207.253 167.99 206.925 167.759 206.681C167.527 206.438 167.186 206.328 166.748 206.328C166.395 206.328 166.066 206.401 165.798 206.559C165.518 206.718 165.238 206.961 164.97 207.278L164.166 206.462C164.483 205.999 164.885 205.658 165.347 205.427C165.81 205.195 166.322 205.086 166.882 205.086C167.673 205.086 168.307 205.317 168.794 205.78L168.769 205.792ZM167.613 210.322C167.929 210.03 168.1 209.677 168.1 209.239V209.117H166.456C166.09 209.117 165.81 209.178 165.615 209.312C165.42 209.446 165.323 209.64 165.323 209.896C165.323 210.152 165.433 210.371 165.64 210.529C165.847 210.676 166.115 210.749 166.456 210.749C166.918 210.749 167.308 210.603 167.637 210.322H167.613Z" fill="#D9B96B"/>
<path d="M175.358 211.674L173.751 209.324L172.155 211.674H170.584L172.971 208.337L170.755 205.244H172.326L173.763 207.363L175.188 205.244H176.759L174.53 208.349L176.917 211.674H175.346H175.358Z" fill="#D9B96B"/>
<path d="M178.135 205.098H178.622L181.642 208.593L184.675 205.098H185.137V211.662H183.761V207.947L181.874 210.127H181.386L179.511 207.96V211.662H178.123V205.098H178.135Z" fill="#D9B96B"/>
<path d="M191.507 205.792C191.982 206.255 192.225 206.912 192.225 207.777V211.662H190.947V210.944C190.715 211.224 190.423 211.431 190.07 211.589C189.717 211.735 189.327 211.808 188.888 211.808C188.219 211.808 187.671 211.638 187.269 211.297C186.867 210.956 186.66 210.505 186.66 209.945C186.66 209.385 186.879 208.946 187.305 208.617C187.731 208.289 188.304 208.118 189.035 208.118H190.849V207.704C190.849 207.253 190.727 206.925 190.496 206.681C190.265 206.438 189.924 206.328 189.485 206.328C189.132 206.328 188.803 206.401 188.535 206.559C188.255 206.718 187.975 206.961 187.707 207.278L186.903 206.462C187.22 205.999 187.622 205.658 188.085 205.427C188.547 205.195 189.059 205.086 189.619 205.086C190.411 205.086 191.044 205.317 191.531 205.78L191.507 205.792ZM190.362 210.322C190.679 210.03 190.849 209.677 190.849 209.239V209.117H189.205C188.84 209.117 188.56 209.178 188.365 209.312C188.17 209.446 188.072 209.64 188.072 209.896C188.072 210.152 188.182 210.371 188.389 210.529C188.596 210.676 188.864 210.749 189.205 210.749C189.668 210.749 190.058 210.603 190.386 210.322H190.362Z" fill="#D9B96B"/>
<path d="M194.15 205.244H195.538V207.704H198.302V205.244H199.679V211.662H198.302V208.885H195.538V211.662H194.15V205.244Z" fill="#D9B96B"/>
<path d="M202.954 211.358C202.431 211.053 202.029 210.651 201.724 210.14C201.42 209.628 201.274 209.068 201.274 208.459C201.274 207.85 201.42 207.278 201.724 206.766C202.029 206.255 202.431 205.853 202.954 205.561C203.478 205.268 204.038 205.11 204.659 205.11C205.281 205.11 205.865 205.256 206.389 205.561C206.913 205.865 207.327 206.267 207.619 206.779C207.911 207.29 208.069 207.85 208.069 208.471C208.069 209.092 207.923 209.641 207.619 210.152C207.314 210.663 206.913 211.078 206.389 211.37C205.865 211.662 205.293 211.82 204.659 211.82C204.026 211.82 203.466 211.674 202.954 211.37V211.358ZM204.659 210.542C205.037 210.542 205.378 210.444 205.682 210.262C205.987 210.079 206.231 209.823 206.401 209.507C206.571 209.19 206.657 208.837 206.657 208.459C206.657 208.082 206.571 207.704 206.401 207.387C206.231 207.071 205.987 206.815 205.682 206.632C205.378 206.45 205.037 206.352 204.672 206.352C204.306 206.352 203.953 206.45 203.649 206.632C203.344 206.815 203.101 207.071 202.93 207.387C202.76 207.704 202.674 208.069 202.674 208.459C202.674 208.849 202.76 209.202 202.93 209.531C203.101 209.848 203.344 210.103 203.649 210.274C203.953 210.444 204.282 210.542 204.659 210.542Z" fill="#D9B96B"/>
<path d="M214.865 208.788C215.06 209.044 215.157 209.36 215.157 209.726C215.157 210.298 214.95 210.773 214.524 211.138C214.098 211.504 213.55 211.686 212.868 211.686H209.665V205.268H212.49C213.124 205.268 213.647 205.427 214.049 205.743C214.451 206.06 214.646 206.486 214.646 207.022C214.646 207.266 214.597 207.497 214.5 207.704C214.402 207.911 214.256 208.082 214.061 208.228C214.414 208.362 214.682 208.557 214.877 208.812L214.865 208.788ZM211.004 207.814H212.429C213.038 207.814 213.343 207.57 213.343 207.083C213.343 206.596 213.038 206.364 212.429 206.364H211.004V207.814ZM213.55 210.322C213.745 210.164 213.842 209.945 213.842 209.689C213.842 209.433 213.745 209.238 213.55 209.092C213.355 208.946 213.087 208.873 212.734 208.873H211.004V210.578H212.734C213.087 210.578 213.355 210.493 213.55 210.335V210.322Z" fill="#D9B96B"/>
<path d="M221.198 205.792C221.673 206.255 221.917 206.912 221.917 207.777V211.662H220.638V210.944C220.406 211.224 220.114 211.431 219.761 211.589C219.408 211.747 219.018 211.808 218.58 211.808C217.91 211.808 217.362 211.638 216.96 211.297C216.546 210.956 216.351 210.505 216.351 209.945C216.351 209.385 216.558 208.946 216.996 208.617C217.423 208.289 217.995 208.118 218.726 208.118H220.54V207.704C220.54 207.253 220.419 206.925 220.187 206.681C219.944 206.45 219.615 206.328 219.176 206.328C218.823 206.328 218.507 206.401 218.226 206.559C217.946 206.718 217.678 206.961 217.398 207.278L216.607 206.462C216.923 205.999 217.325 205.658 217.788 205.427C218.251 205.195 218.762 205.086 219.323 205.086C220.114 205.086 220.747 205.317 221.235 205.78L221.198 205.792ZM220.053 210.322C220.37 210.03 220.54 209.677 220.54 209.239V209.117H218.896C218.531 209.117 218.251 209.178 218.056 209.312C217.861 209.446 217.764 209.64 217.764 209.896C217.764 210.152 217.873 210.371 218.08 210.529C218.287 210.676 218.555 210.749 218.896 210.749C219.359 210.749 219.749 210.603 220.078 210.322H220.053Z" fill="#D9B96B"/>
<path d="M157.139 14.5289C150.063 7.45324 140.296 3.08116 129.506 3.08116C118.716 3.08116 108.949 7.45324 101.873 14.5289C94.7974 21.6046 90.4253 31.3718 90.4253 42.1619C90.4253 52.9521 94.7974 62.7192 101.873 69.7949C108.949 76.8706 118.716 81.2427 129.506 81.2427C140.296 81.2427 150.063 76.8706 157.139 69.7949C164.215 62.7192 168.587 52.9521 168.587 42.1619C168.587 31.3718 164.215 21.6046 157.139 14.5289ZM129.506 0C141.149 0 151.683 4.72526 159.319 12.349C166.943 19.9727 171.668 30.5193 171.668 42.1619C171.668 53.8046 166.943 64.339 159.319 71.9749C151.695 79.5986 141.149 84.3239 129.506 84.3239C117.863 84.3239 107.329 79.5986 99.6931 71.9749C92.0694 64.3511 87.3441 53.8046 87.3441 42.1619C87.3441 30.5193 92.0694 19.9849 99.6931 12.349C107.317 4.72526 117.863 0 129.506 0Z" fill="#D9B96B"/>
<path fill-rule="evenodd" clip-rule="evenodd" d="M117.181 59.2971H92.6661C92.1668 58.2376 91.7162 57.1537 91.3143 56.0455L98.8163 44.9265C98.9015 44.7926 99.072 44.756 99.206 44.8413C105.429 48.4217 111.117 52.6111 116.146 57.5556C116.56 57.9697 116.974 58.3837 117.388 58.7978C117.474 58.8831 117.498 59.0049 117.449 59.1266C117.401 59.2362 117.303 59.3093 117.169 59.3093" fill="#D9B96B"/>
<path fill-rule="evenodd" clip-rule="evenodd" d="M160.184 44.9264L167.686 56.0454C167.284 57.1536 166.833 58.2375 166.334 59.297H141.819C141.697 59.297 141.587 59.224 141.551 59.1144C141.502 59.0048 141.526 58.883 141.612 58.7855C146.946 53.293 153.059 48.7018 159.794 44.829C159.928 44.7559 160.099 44.7925 160.184 44.9264Z" fill="#D9B96B"/>
<path fill-rule="evenodd" clip-rule="evenodd" d="M130.919 1.57074L158.905 43.0385C158.978 43.1603 158.966 43.3064 158.881 43.4039C158.783 43.5013 158.637 43.5256 158.515 43.4526C152.791 40.0426 147.542 36.0968 142.854 31.4811C137.678 26.3905 133.184 20.5083 129.506 13.6762C122.516 26.6828 112.541 36.2673 100.497 43.4526C100.375 43.5256 100.229 43.5013 100.131 43.4039C100.034 43.3064 100.022 43.1481 100.095 43.0385L128.093 1.57074C128.568 1.55857 129.031 1.54639 129.506 1.54639C129.981 1.54639 130.456 1.54639 130.919 1.57074Z" fill="#D9B96B"/>
<path fill-rule="evenodd" clip-rule="evenodd" d="M140.71 44.5248C138.372 45.8522 136.241 47.4111 134.353 49.2622C132.465 51.1133 130.834 53.2567 129.506 55.7412C128.166 53.2567 126.535 51.1133 124.659 49.2622C122.771 47.4111 120.64 45.8522 118.302 44.5248C122.978 41.8699 126.839 38.2772 129.506 33.3206C130.846 35.805 132.478 37.9484 134.353 39.7995C136.241 41.6506 138.372 43.2095 140.71 44.5369V44.5248Z" fill="#E5262B"/>
<path d="M123.21 66.7744V72.4496H122.296V67.8461L121.14 68.2115L120.92 67.4199L122.893 66.7744H123.21Z" fill="#D9B96B"/>
<path d="M126.461 69.7584C126.766 69.7584 127.034 69.6488 127.241 69.4296C127.448 69.2104 127.557 68.9424 127.557 68.6258C127.557 68.3092 127.448 68.0412 127.241 67.822C127.034 67.6028 126.766 67.5054 126.461 67.5054C126.157 67.5054 125.877 67.615 125.67 67.822C125.463 68.0291 125.353 68.3092 125.353 68.6258C125.353 68.9424 125.463 69.2104 125.67 69.4296C125.889 69.6488 126.145 69.7462 126.461 69.7462M126.461 66.6772C126.827 66.6772 127.156 66.7625 127.46 66.933C127.765 67.1035 128.008 67.3349 128.191 67.6393C128.373 67.9438 128.459 68.2726 128.459 68.6502C128.459 68.8694 128.422 69.0764 128.361 69.2713C128.3 69.4661 128.215 69.6366 128.118 69.7949C128.02 69.9533 127.874 70.1725 127.679 70.4404L126.267 72.4499H125.183L126.547 70.5135C126.474 70.5257 126.388 70.5378 126.303 70.5378C125.986 70.5378 125.682 70.4526 125.39 70.2943C125.097 70.1238 124.878 69.9045 124.708 69.6123C124.537 69.32 124.452 69.0033 124.452 68.6502C124.452 68.297 124.549 67.956 124.732 67.6515C124.915 67.3592 125.158 67.1157 125.463 66.9452C125.767 66.7747 126.108 66.6894 126.461 66.6894V66.6772Z" fill="#D9B96B"/>
<path d="M131.248 69.7584C131.552 69.7584 131.82 69.6488 132.027 69.4296C132.234 69.2104 132.344 68.9424 132.344 68.6258C132.344 68.3092 132.234 68.0412 132.027 67.822C131.82 67.6028 131.552 67.5054 131.248 67.5054C130.943 67.5054 130.663 67.615 130.456 67.822C130.237 68.0412 130.139 68.3092 130.139 68.6258C130.139 68.9424 130.249 69.2104 130.456 69.4296C130.663 69.6488 130.931 69.7462 131.248 69.7462M131.248 66.6772C131.613 66.6772 131.942 66.7625 132.246 66.933C132.551 67.1035 132.794 67.3349 132.977 67.6393C133.16 67.9438 133.245 68.2726 133.245 68.6502C133.245 68.8694 133.208 69.0764 133.147 69.2713C133.086 69.4661 133.001 69.6366 132.904 69.7949C132.806 69.9533 132.66 70.1725 132.465 70.4404L131.053 72.4499H129.969L131.333 70.5135C131.26 70.5257 131.174 70.5378 131.089 70.5378C130.773 70.5378 130.468 70.4526 130.176 70.2943C129.884 70.1238 129.664 69.9045 129.494 69.6123C129.323 69.32 129.238 69.0033 129.238 68.6502C129.238 68.297 129.336 67.956 129.518 67.6515C129.701 67.3592 129.944 67.1157 130.249 66.9452C130.553 66.7747 130.894 66.6894 131.248 66.6894V66.6772Z" fill="#D9B96B"/>
<path d="M138.092 71.6582V72.4499H134.024V72.2428L136.046 70.0629C136.363 69.734 136.594 69.4539 136.728 69.2104C136.874 68.979 136.947 68.7476 136.947 68.504C136.947 68.2117 136.862 67.9803 136.691 67.7855C136.521 67.5906 136.29 67.5054 136.009 67.5054C135.729 67.5054 135.486 67.6028 135.315 67.7977C135.133 67.9925 135.047 68.2361 135.047 68.5284C135.047 68.6502 135.06 68.7963 135.096 68.9668H134.17C134.134 68.8085 134.11 68.6502 134.11 68.4797C134.11 68.1752 134.183 67.8707 134.341 67.6028C134.499 67.3227 134.719 67.1035 135.011 66.933C135.303 66.7625 135.632 66.6772 136.022 66.6772C136.387 66.6772 136.704 66.7503 136.984 66.9086C137.264 67.067 137.495 67.274 137.654 67.5419C137.812 67.8098 137.897 68.1021 137.897 68.4431C137.897 68.8328 137.8 69.1738 137.593 69.4905C137.386 69.8071 137.093 70.1725 136.691 70.5987L135.693 71.6582H138.092Z" fill="#D9B96B"/>
<path fill-rule="evenodd" clip-rule="evenodd" d="M115.513 68.4065C116.146 68.4065 116.658 68.918 116.658 69.5513C116.658 70.1846 116.146 70.6961 115.513 70.6961C114.88 70.6961 114.368 70.1846 114.368 69.5513C114.368 68.918 114.88 68.4065 115.513 68.4065Z" fill="#D9B96B"/>
<path fill-rule="evenodd" clip-rule="evenodd" d="M143.487 68.4065C144.12 68.4065 144.632 68.918 144.632 69.5513C144.632 70.1846 144.12 70.6961 143.487 70.6961C142.854 70.6961 142.342 70.1846 142.342 69.5513C142.342 68.918 142.854 68.4065 143.487 68.4065Z" fill="#D9B96B"/>
</svg>
