<svg width="255" height="210" viewBox="0 0 255 210" fill="none" xmlns="http://www.w3.org/2000/svg">
<path d="M30.9664 138.218L22.9472 119.63L14.9897 138.218H30.9664ZM33.5778 144.407H12.3167L8.122 154.236H0L19.1227 111.734H26.8951L46.0795 154.236H37.8136L33.5572 144.407H33.5778Z" fill="#D9B96B"/>
<path d="M68.6155 135.298C72.0493 135.298 74.6607 134.579 76.4496 133.119C78.2385 131.659 79.1227 129.582 79.1227 126.868C79.1227 124.154 78.2385 122.077 76.4496 120.617C74.6607 119.157 72.0493 118.438 68.6155 118.438H59.3831V135.319H68.6155V135.298ZM68.9856 111.755C72.6662 111.755 75.8739 112.372 78.6086 113.585C81.3434 114.798 83.4407 116.546 84.9006 118.808C86.3605 121.069 87.0802 123.763 87.0802 126.889C87.0802 130.014 86.3605 132.646 84.9006 134.928C83.4407 137.211 81.3434 138.958 78.6086 140.172C75.8739 141.385 72.6662 142.002 68.9856 142.002H59.3831V154.277H51.4873V111.775H68.965L68.9856 111.755Z" fill="#D9B96B"/>
<path d="M115.641 138.218L107.622 119.63L99.6641 138.218H115.641ZM118.252 144.407H96.991L92.7964 154.236H84.6538L103.777 111.734H111.549L130.733 154.236H122.467L118.211 144.407H118.252Z" fill="#D9B96B"/>
<path d="M152.571 135.298C156.004 135.298 158.616 134.579 160.405 133.119C162.194 131.659 163.078 129.582 163.078 126.868C163.078 124.154 162.194 122.077 160.405 120.617C158.616 119.157 156.004 118.438 152.571 118.438H143.338V135.319H152.571V135.298ZM152.941 111.755C156.621 111.755 159.829 112.372 162.564 113.585C165.298 114.798 167.396 116.546 168.856 118.808C170.316 121.069 171.035 123.763 171.035 126.889C171.035 130.014 170.316 132.646 168.856 134.928C167.396 137.211 165.298 138.958 162.564 140.172C159.829 141.385 156.621 142.002 152.941 142.002H143.338V154.277H135.442V111.775H152.92L152.941 111.755Z" fill="#D9B96B"/>
<path d="M190.692 136.45L183.948 143.379V154.257H176.052V111.755H183.948V133.551L204.962 111.755H213.825L195.977 130.754L214.914 154.257H205.682L190.692 136.45Z" fill="#D9B96B"/>
<path d="M246.395 132.502H253.859V149.445C251.679 151.193 249.129 152.529 246.21 153.454C243.29 154.38 240.308 154.853 237.224 154.853C232.885 154.853 228.979 153.907 225.504 152.036C222.029 150.144 219.294 147.553 217.299 144.243C215.325 140.932 214.318 137.169 214.318 133.016C214.318 128.862 215.305 125.099 217.299 121.789C219.273 118.478 222.029 115.867 225.524 113.996C229.02 112.104 232.968 111.179 237.327 111.179C240.884 111.179 244.133 111.775 247.053 112.947C249.972 114.119 252.419 115.847 254.393 118.108L249.417 122.961C246.189 119.733 242.282 118.108 237.697 118.108C234.695 118.108 232.042 118.725 229.719 120C227.395 121.254 225.565 123.023 224.249 125.285C222.933 127.546 222.275 130.137 222.275 133.057C222.275 135.977 222.933 138.444 224.249 140.706C225.565 142.968 227.395 144.757 229.719 146.052C232.042 147.348 234.695 148.006 237.635 148.006C240.946 148.006 243.865 147.286 246.374 145.826V140.048H237.697V132.584H246.374L246.395 132.502Z" fill="#D9B96B"/>
<path d="M251.72 178.232C251.104 178.232 250.528 178.088 250.014 177.8C249.5 177.512 249.088 177.101 248.801 176.587C248.492 176.073 248.348 175.518 248.348 174.901C248.348 174.284 248.492 173.729 248.801 173.215C249.109 172.701 249.5 172.31 250.034 172.022C250.548 171.734 251.124 171.57 251.741 171.57C252.358 171.57 252.851 171.693 253.324 171.96C253.797 172.228 254.167 172.577 254.435 173.05L253.468 173.811C253.016 173.153 252.44 172.845 251.761 172.845C251.371 172.845 251.042 172.927 250.733 173.112C250.425 173.297 250.199 173.544 250.014 173.852C249.849 174.16 249.746 174.51 249.746 174.901C249.746 175.291 249.829 175.641 250.014 175.97C250.178 176.278 250.425 176.525 250.733 176.71C251.042 176.895 251.371 176.977 251.761 176.977C252.44 176.977 253.016 176.648 253.468 176.011L254.435 176.751C254.147 177.204 253.777 177.574 253.304 177.841C252.831 178.108 252.317 178.232 251.741 178.232M246.086 170.233C245.819 170.233 245.613 170.151 245.428 169.966C245.243 169.801 245.161 169.575 245.161 169.328C245.161 169.082 245.243 168.855 245.428 168.691C245.613 168.506 245.84 168.424 246.086 168.424C246.333 168.424 246.559 168.506 246.744 168.691C246.929 168.876 247.012 169.082 247.012 169.328C247.012 169.575 246.929 169.801 246.744 169.966C246.559 170.13 246.354 170.233 246.086 170.233ZM245.387 171.714H246.744V178.088H245.387V171.714ZM242.056 168.341H243.413V178.088H242.056V168.341ZM237.121 176.977C237.491 176.977 237.82 176.895 238.108 176.71C238.417 176.525 238.643 176.278 238.807 175.97C238.972 175.662 239.054 175.291 239.054 174.88C239.054 174.469 238.972 174.119 238.787 173.811C238.622 173.503 238.376 173.256 238.088 173.071C237.8 172.886 237.471 172.803 237.101 172.803C236.772 172.803 236.443 172.886 236.155 173.03C235.867 173.174 235.62 173.42 235.456 173.729C235.271 174.037 235.188 174.428 235.188 174.901C235.188 175.374 235.271 175.744 235.456 176.052C235.641 176.361 235.867 176.587 236.155 176.751C236.443 176.895 236.751 176.977 237.101 176.977H237.121ZM237.348 171.57C237.944 171.57 238.478 171.714 238.951 172.001C239.424 172.289 239.794 172.701 240.062 173.194C240.329 173.708 240.473 174.263 240.473 174.901C240.473 175.538 240.329 176.093 240.062 176.587C239.794 177.101 239.424 177.492 238.951 177.779C238.478 178.067 237.944 178.211 237.348 178.211C236.875 178.211 236.443 178.129 236.052 177.944C235.661 177.759 235.353 177.512 235.106 177.183V178.067H233.831V168.321H235.188V172.474C235.435 172.187 235.744 171.96 236.114 171.796C236.484 171.631 236.895 171.549 237.327 171.549L237.348 171.57ZM229.184 178.232C228.65 178.232 228.177 178.108 227.745 177.882C227.313 177.656 226.984 177.327 226.737 176.895C226.491 176.463 226.367 175.97 226.367 175.415V171.714H227.724V175.518C227.724 175.949 227.868 176.319 228.136 176.587C228.403 176.854 228.753 176.977 229.164 176.977C229.575 176.977 229.904 176.854 230.171 176.587C230.439 176.319 230.583 175.97 230.583 175.518V171.714H231.94V175.415C231.94 175.97 231.816 176.463 231.57 176.895C231.323 177.327 230.994 177.656 230.583 177.882C230.171 178.108 229.698 178.232 229.164 178.232H229.184ZM222.07 173.564C222.563 173.564 222.934 173.441 223.201 173.174C223.468 172.927 223.591 172.577 223.591 172.145C223.591 171.714 223.468 171.385 223.201 171.117C222.934 170.85 222.563 170.727 222.07 170.727H220.343V173.544H222.07V173.564ZM218.965 169.513H222.09C222.666 169.513 223.16 169.616 223.612 169.842C224.064 170.069 224.393 170.377 224.64 170.768C224.887 171.158 225.01 171.631 225.01 172.125C225.01 172.618 224.887 173.091 224.64 173.482C224.393 173.873 224.064 174.202 223.612 174.407C223.18 174.633 222.666 174.736 222.09 174.736H220.343V178.047H218.965V169.472V169.513ZM214.297 169.431C213.886 169.431 213.578 169.513 213.352 169.678C213.146 169.842 213.043 170.13 213.043 170.542V171.714H214.544V172.906H213.043V178.108H211.686V172.906H210.781V171.714H211.686V170.418C211.686 169.678 211.892 169.123 212.303 168.753C212.714 168.383 213.269 168.198 213.968 168.198C214.318 168.198 214.606 168.239 214.853 168.321V169.472C214.647 169.452 214.462 169.431 214.297 169.431ZM206.504 176.977C206.875 176.977 207.224 176.895 207.512 176.71C207.82 176.525 208.047 176.278 208.232 175.97C208.396 175.662 208.499 175.312 208.499 174.921C208.499 174.531 208.417 174.181 208.232 173.852C208.067 173.523 207.82 173.276 207.512 173.091C207.204 172.906 206.875 172.824 206.504 172.824C206.134 172.824 205.785 172.906 205.497 173.091C205.188 173.276 204.962 173.523 204.777 173.852C204.613 174.181 204.51 174.531 204.51 174.921C204.51 175.312 204.592 175.662 204.777 175.97C204.942 176.278 205.188 176.525 205.476 176.71C205.785 176.895 206.114 176.977 206.484 176.977H206.504ZM206.504 178.232C205.888 178.232 205.332 178.088 204.818 177.779C204.304 177.471 203.893 177.08 203.605 176.566C203.297 176.052 203.153 175.497 203.153 174.88C203.153 174.263 203.297 173.708 203.605 173.194C203.914 172.68 204.304 172.289 204.818 172.001C205.332 171.714 205.908 171.549 206.504 171.549C207.101 171.549 207.697 171.693 208.211 172.001C208.725 172.289 209.136 172.701 209.445 173.215C209.753 173.729 209.897 174.284 209.897 174.901C209.897 175.518 209.753 176.073 209.445 176.587C209.136 177.101 208.746 177.512 208.211 177.8C207.697 178.108 207.121 178.252 206.504 178.252V178.232ZM198.67 171.714L195.565 178.828C195.298 179.424 194.969 179.877 194.599 180.165C194.229 180.452 193.777 180.596 193.221 180.596C192.872 180.596 192.522 180.555 192.173 180.473V179.322C192.563 179.363 192.831 179.383 192.934 179.383C193.263 179.383 193.53 179.322 193.756 179.178C193.982 179.034 194.167 178.808 194.332 178.437L194.599 177.841L192.049 171.755H193.509L195.339 176.402L197.231 171.755H198.691L198.67 171.714ZM188.492 171.57C189.232 171.57 189.808 171.796 190.219 172.269C190.631 172.742 190.857 173.338 190.857 174.099V178.088H189.479V174.284C189.479 173.832 189.356 173.482 189.13 173.215C188.883 172.947 188.574 172.803 188.163 172.803C187.752 172.803 187.402 172.947 187.156 173.215C186.909 173.482 186.765 173.832 186.765 174.222V178.088H185.408V174.284C185.408 173.852 185.284 173.482 185.038 173.215C184.791 172.947 184.462 172.803 184.071 172.803C183.681 172.803 183.31 172.947 183.064 173.215C182.796 173.482 182.673 173.852 182.673 174.284V178.088H181.316V171.714H182.591V172.31C182.817 172.084 183.084 171.899 183.393 171.755C183.701 171.631 184.051 171.549 184.441 171.549C184.873 171.549 185.264 171.631 185.593 171.816C185.922 172.001 186.189 172.248 186.374 172.557C186.6 172.248 186.909 172.001 187.3 171.837C187.67 171.652 188.081 171.57 188.533 171.57H188.492ZM176.731 172.721C176.278 172.721 175.888 172.865 175.559 173.153C175.23 173.441 175.003 173.811 174.901 174.284H178.376C178.376 173.79 178.211 173.42 177.882 173.132C177.574 172.865 177.183 172.721 176.731 172.721ZM179.63 175.353H174.88C174.962 175.867 175.209 176.278 175.579 176.587C175.949 176.895 176.422 177.039 176.957 177.039C177.615 177.039 178.252 176.792 178.807 176.278L179.465 177.224C178.746 177.903 177.882 178.252 176.916 178.252C176.258 178.252 175.682 178.108 175.168 177.821C174.654 177.533 174.243 177.142 173.934 176.628C173.626 176.114 173.482 175.559 173.482 174.942C173.482 174.325 173.626 173.77 173.914 173.256C174.202 172.742 174.613 172.351 175.106 172.043C175.62 171.755 176.175 171.59 176.772 171.59C177.327 171.59 177.841 171.714 178.293 171.981C178.746 172.228 179.095 172.577 179.342 173.03C179.589 173.461 179.733 173.975 179.733 174.531C179.733 174.798 179.692 175.086 179.63 175.394V175.353ZM168.629 176.977C168.958 176.977 169.287 176.895 169.575 176.751C169.863 176.607 170.11 176.361 170.274 176.052C170.459 175.744 170.541 175.353 170.541 174.901C170.541 174.448 170.459 174.058 170.274 173.749C170.089 173.441 169.863 173.194 169.554 173.05C169.267 172.886 168.938 172.824 168.609 172.824C168.239 172.824 167.91 172.906 167.622 173.091C167.313 173.276 167.087 173.523 166.923 173.832C166.758 174.14 166.655 174.51 166.655 174.901C166.655 175.291 166.737 175.662 166.902 175.991C167.066 176.299 167.313 176.546 167.601 176.731C167.91 176.916 168.239 176.998 168.609 176.998L168.629 176.977ZM171.899 168.341V178.088H170.624V177.183C170.398 177.512 170.069 177.779 169.698 177.964C169.308 178.15 168.876 178.252 168.403 178.252C167.807 178.252 167.272 178.108 166.799 177.821C166.326 177.533 165.956 177.142 165.689 176.628C165.422 176.114 165.278 175.559 165.278 174.942C165.278 174.325 165.422 173.749 165.689 173.235C165.956 172.721 166.326 172.33 166.799 172.043C167.272 171.755 167.807 171.611 168.403 171.611C168.835 171.611 169.246 171.693 169.616 171.858C169.986 172.022 170.295 172.248 170.541 172.536V168.383H171.919L171.899 168.341ZM160.754 177.183C161.206 177.183 161.597 177.039 161.926 176.751C162.255 176.463 162.399 176.114 162.399 175.682V175.559H160.754C160.384 175.559 160.117 175.62 159.911 175.744C159.726 175.867 159.623 176.073 159.623 176.32C159.623 176.566 159.726 176.792 159.931 176.936C160.137 177.08 160.404 177.163 160.733 177.163L160.754 177.183ZM161.165 171.57C161.947 171.57 162.584 171.796 163.057 172.269C163.53 172.721 163.777 173.379 163.777 174.243V178.108H162.502V177.389C162.276 177.656 161.967 177.882 161.638 178.026C161.289 178.17 160.898 178.252 160.466 178.252C159.808 178.252 159.253 178.088 158.862 177.738C158.451 177.409 158.245 176.957 158.245 176.402C158.245 175.847 158.451 175.415 158.883 175.086C159.315 174.757 159.87 174.592 160.589 174.592H162.399V174.181C162.399 173.749 162.276 173.4 162.049 173.174C161.803 172.947 161.474 172.824 161.042 172.824C160.692 172.824 160.363 172.906 160.096 173.05C159.829 173.215 159.541 173.441 159.273 173.77L158.472 172.968C158.801 172.516 159.191 172.166 159.644 171.94C160.096 171.714 160.61 171.611 161.165 171.611V171.57ZM154.503 178.232C153.886 178.232 153.31 178.088 152.796 177.8C152.282 177.512 151.871 177.101 151.583 176.587C151.275 176.073 151.131 175.518 151.131 174.901C151.131 174.284 151.275 173.729 151.583 173.215C151.892 172.701 152.282 172.31 152.817 172.022C153.331 171.734 153.907 171.57 154.524 171.57C155.141 171.57 155.634 171.693 156.107 171.96C156.58 172.228 156.95 172.577 157.217 173.05L156.251 173.811C155.798 173.153 155.223 172.845 154.544 172.845C154.154 172.845 153.825 172.927 153.516 173.112C153.208 173.297 152.981 173.544 152.796 173.852C152.632 174.16 152.529 174.51 152.529 174.901C152.529 175.291 152.611 175.641 152.796 175.97C152.961 176.278 153.208 176.525 153.516 176.71C153.825 176.895 154.154 176.977 154.544 176.977C155.223 176.977 155.798 176.648 156.251 176.011L157.217 176.751C156.929 177.204 156.559 177.574 156.086 177.841C155.613 178.108 155.099 178.232 154.524 178.232H154.503ZM146.463 171.94L145.024 175.497H147.903L146.463 171.94ZM148.396 176.669H144.531L143.914 178.108H142.454L146.237 169.39H146.71L150.493 178.108H149.013L148.396 176.669ZM138.28 171.714L135.195 178.232H134.722L131.638 171.714H133.098L134.969 175.929L136.82 171.714H138.28ZM127.69 176.977C128.06 176.977 128.41 176.895 128.698 176.71C129.006 176.525 129.232 176.278 129.417 175.97C129.582 175.662 129.685 175.312 129.685 174.921C129.685 174.531 129.602 174.181 129.417 173.852C129.253 173.523 129.006 173.276 128.698 173.091C128.389 172.906 128.06 172.824 127.69 172.824C127.32 172.824 126.971 172.906 126.683 173.091C126.374 173.276 126.148 173.523 125.963 173.852C125.798 174.181 125.696 174.531 125.696 174.921C125.696 175.312 125.778 175.662 125.963 175.97C126.127 176.278 126.374 176.525 126.662 176.71C126.971 176.895 127.3 176.977 127.67 176.977H127.69ZM127.69 178.232C127.073 178.232 126.518 178.088 126.004 177.779C125.49 177.471 125.079 177.08 124.791 176.566C124.483 176.052 124.339 175.497 124.339 174.88C124.339 174.263 124.483 173.708 124.791 173.194C125.099 172.68 125.49 172.289 126.004 172.001C126.518 171.714 127.094 171.549 127.69 171.549C128.286 171.549 128.883 171.693 129.397 172.001C129.911 172.289 130.322 172.701 130.631 173.215C130.939 173.729 131.083 174.284 131.083 174.901C131.083 175.518 130.939 176.073 130.631 176.587C130.322 177.101 129.931 177.512 129.397 177.8C128.883 178.108 128.307 178.252 127.69 178.252V178.232ZM120.432 171.57C121.172 171.57 121.768 171.796 122.18 172.269C122.611 172.742 122.817 173.338 122.817 174.099V178.088H121.46V174.284C121.46 173.852 121.337 173.482 121.069 173.215C120.822 172.947 120.473 172.803 120.062 172.803C119.65 172.803 119.28 172.947 119.013 173.215C118.746 173.482 118.602 173.852 118.602 174.284V178.088H117.245V171.714H118.52V172.33C119.013 171.816 119.65 171.57 120.432 171.57ZM112.33 177.183C112.783 177.183 113.173 177.039 113.502 176.751C113.831 176.463 113.975 176.114 113.975 175.682V175.559H112.33C111.96 175.559 111.693 175.62 111.487 175.744C111.302 175.867 111.199 176.073 111.199 176.32C111.199 176.566 111.302 176.792 111.508 176.936C111.714 177.08 111.981 177.163 112.31 177.163L112.33 177.183ZM112.742 171.57C113.523 171.57 114.16 171.796 114.633 172.269C115.106 172.721 115.353 173.379 115.353 174.243V178.108H114.078V177.389C113.852 177.656 113.544 177.882 113.215 178.026C112.865 178.17 112.474 178.252 112.042 178.252C111.385 178.252 110.829 178.088 110.439 177.738C110.027 177.409 109.822 176.957 109.822 176.402C109.822 175.847 110.027 175.415 110.459 175.086C110.891 174.757 111.446 174.592 112.166 174.592H113.975V174.181C113.975 173.749 113.852 173.4 113.626 173.174C113.379 172.947 113.05 172.824 112.618 172.824C112.269 172.824 111.94 172.906 111.672 173.05C111.405 173.215 111.117 173.441 110.85 173.77L110.048 172.968C110.377 172.516 110.768 172.166 111.22 171.94C111.672 171.714 112.186 171.611 112.742 171.611V171.57ZM106.018 171.57C106.758 171.57 107.334 171.796 107.745 172.269C108.156 172.742 108.382 173.338 108.382 174.099V178.088H107.005V174.284C107.005 173.832 106.881 173.482 106.655 173.215C106.409 172.947 106.1 172.803 105.689 172.803C105.278 172.803 104.928 172.947 104.681 173.215C104.435 173.482 104.291 173.832 104.291 174.222V178.088H102.934V174.284C102.934 173.852 102.81 173.482 102.563 173.215C102.317 172.947 101.988 172.803 101.597 172.803C101.206 172.803 100.836 172.947 100.589 173.215C100.322 173.482 100.199 173.852 100.199 174.284V178.088H98.8417V171.714H100.117V172.31C100.343 172.084 100.61 171.899 100.918 171.755C101.227 171.631 101.576 171.549 101.967 171.549C102.399 171.549 102.79 171.631 103.119 171.816C103.448 172.001 103.715 172.248 103.9 172.557C104.126 172.248 104.435 172.001 104.825 171.837C105.195 171.652 105.607 171.57 106.059 171.57H106.018ZM94.5442 171.57C95.2639 171.57 95.8396 171.796 96.2714 172.269C96.7032 172.742 96.9088 173.338 96.9088 174.099V178.088H95.5518V174.284C95.5518 173.852 95.4284 173.482 95.1816 173.215C94.9349 172.947 94.5853 172.803 94.1741 172.803C93.7628 172.803 93.3927 172.947 93.1254 173.215C92.8581 173.482 92.7142 173.852 92.7142 174.284V178.088H91.3571V168.341H92.7142V172.351C92.9404 172.104 93.1871 171.899 93.5161 171.775C93.8245 171.631 94.1741 171.57 94.5648 171.57H94.5442ZM90.2262 178.088H88.5812L85.8053 174.51L88.2934 171.714H89.9794L87.4092 174.531L90.2056 178.108L90.2262 178.088ZM84.4071 168.341H85.7642V178.088H84.4071V168.341ZM79.4722 177.183C79.9246 177.183 80.3153 177.039 80.6443 176.751C80.9733 176.463 81.1172 176.114 81.1172 175.682V175.559H79.4722C79.1021 175.559 78.8348 175.62 78.6292 175.744C78.4236 175.867 78.3413 176.073 78.3413 176.32C78.3413 176.566 78.4441 176.792 78.6498 176.936C78.8554 177.08 79.1227 177.163 79.4517 177.163L79.4722 177.183ZM79.904 171.57C80.6854 171.57 81.3228 171.796 81.7957 172.269C82.2687 172.721 82.5154 173.379 82.5154 174.243V178.108H81.2406V177.389C81.0144 177.656 80.706 177.882 80.377 178.026C80.0274 178.17 79.6367 178.252 79.2049 178.252C78.547 178.252 77.9918 178.088 77.6011 177.738C77.1899 177.409 76.9842 176.957 76.9842 176.402C76.9842 175.847 77.1899 175.415 77.6217 175.086C78.0535 174.757 78.6086 174.592 79.3283 174.592H81.1378V174.181C81.1378 173.749 81.0144 173.4 80.7882 173.174C80.5415 172.947 80.2125 172.824 79.7807 172.824C79.4311 172.824 79.1021 172.906 78.8348 173.05C78.5675 173.215 78.2796 173.441 78.0123 173.77L77.2104 172.968C77.5394 172.516 77.9301 172.166 78.3825 171.94C78.8348 171.714 79.3489 171.611 79.904 171.611V171.57ZM76.3468 171.714V172.927H75.9356C75.401 172.927 74.9486 173.071 74.599 173.379C74.2495 173.688 74.0644 174.119 74.0644 174.695V178.108H72.7073V171.734H73.9822V172.557C74.2084 172.269 74.4757 172.043 74.8047 171.899C75.1337 171.734 75.4832 171.672 75.8328 171.672C76.0178 171.672 76.2029 171.693 76.3468 171.734V171.714ZM67.4435 176.977C67.7724 176.977 68.1014 176.895 68.3893 176.751C68.6772 176.607 68.9239 176.361 69.0884 176.052C69.2735 175.744 69.3557 175.353 69.3557 174.901C69.3557 174.448 69.2735 174.058 69.0884 173.749C68.9034 173.441 68.6772 173.194 68.3687 173.05C68.0809 172.886 67.7519 172.824 67.4229 172.824C67.0528 172.824 66.7238 172.906 66.4359 173.091C66.1275 173.276 65.9013 173.523 65.7368 173.832C65.5723 174.14 65.4695 174.51 65.4695 174.901C65.4695 175.291 65.5517 175.662 65.7162 175.991C65.8807 176.299 66.1275 176.546 66.4154 176.731C66.7238 176.916 67.0528 176.998 67.4229 176.998L67.4435 176.977ZM70.7128 168.341V178.088H69.438V177.183C69.2118 177.512 68.8828 177.779 68.5127 177.964C68.122 178.15 67.6902 178.252 67.2173 178.252C66.621 178.252 66.0864 178.108 65.6134 177.821C65.1405 177.533 64.7704 177.142 64.5031 176.628C64.2358 176.114 64.0918 175.559 64.0918 174.942C64.0918 174.325 64.2358 173.749 64.5031 173.235C64.7704 172.721 65.1405 172.33 65.6134 172.043C66.0864 171.755 66.621 171.611 67.2173 171.611C67.6491 171.611 68.0603 171.693 68.4304 171.858C68.8005 172.022 69.109 172.248 69.3557 172.536V168.383H70.7334L70.7128 168.341ZM59.5682 176.977C59.9383 176.977 60.2673 176.895 60.5552 176.71C60.8636 176.525 61.0898 176.278 61.2543 175.97C61.4188 175.662 61.501 175.291 61.501 174.88C61.501 174.469 61.4188 174.119 61.2337 173.811C61.0692 173.503 60.8225 173.256 60.5346 173.071C60.2467 172.886 59.9178 172.803 59.5476 172.803C59.2186 172.803 58.8897 172.886 58.6018 173.03C58.3139 173.174 58.0672 173.42 57.9027 173.729C57.7176 174.037 57.6354 174.428 57.6354 174.901C57.6354 175.374 57.7176 175.744 57.9027 176.052C58.0877 176.361 58.3139 176.587 58.6018 176.751C58.8897 176.895 59.1981 176.977 59.5476 176.977H59.5682ZM59.7944 171.57C60.3907 171.57 60.9253 171.714 61.3982 172.001C61.8711 172.289 62.2413 172.701 62.5086 173.194C62.7759 173.708 62.9198 174.263 62.9198 174.901C62.9198 175.538 62.7759 176.093 62.5086 176.587C62.2413 177.101 61.8711 177.492 61.3982 177.779C60.9253 178.067 60.3907 178.211 59.7944 178.211C59.3215 178.211 58.8897 178.129 58.499 177.944C58.1083 177.759 57.7999 177.512 57.5531 177.183V178.067H56.2783V168.321H57.6354V172.474C57.8821 172.187 58.1905 171.96 58.5607 171.796C58.9308 171.631 59.342 171.549 59.7738 171.549L59.7944 171.57ZM51.0144 171.94L49.5751 175.497H52.4537L51.0144 171.94ZM52.9267 176.669H49.061L48.4441 178.108H46.9842L50.7677 169.39H51.2406L55.024 178.108H53.5435L52.9267 176.669ZM39.767 176.977C40.1371 176.977 40.4661 176.895 40.7539 176.71C41.0418 176.525 41.2886 176.278 41.453 175.97C41.6175 175.662 41.7204 175.291 41.7204 174.901C41.7204 174.51 41.6381 174.14 41.4736 173.811C41.3091 173.503 41.0624 173.256 40.7745 173.071C40.4661 172.886 40.1371 172.803 39.7875 172.803C39.4585 172.803 39.1295 172.886 38.8417 173.03C38.5538 173.174 38.3071 173.42 38.1426 173.729C37.9575 174.037 37.8753 174.428 37.8753 174.88C37.8753 175.333 37.9575 175.723 38.1426 176.052C38.3276 176.361 38.5538 176.607 38.8417 176.751C39.1295 176.895 39.438 176.977 39.7875 176.977H39.767ZM39.9931 171.57C40.5894 171.57 41.1241 171.714 41.597 172.001C42.0699 172.289 42.44 172.68 42.7073 173.194C42.9746 173.708 43.1186 174.263 43.1186 174.88C43.1186 175.497 42.9746 176.073 42.7073 176.587C42.44 177.101 42.0699 177.492 41.597 177.779C41.1241 178.067 40.5894 178.211 39.9931 178.211C39.5613 178.211 39.1501 178.129 38.8005 177.964C38.4304 177.8 38.122 177.574 37.8753 177.286V180.411H36.5182V171.693H37.793V172.598C38.0192 172.269 38.3482 172.022 38.7389 171.837C39.1295 171.652 39.5613 171.57 40.0343 171.57H39.9931ZM31.83 178.232C31.2954 178.232 30.8225 178.108 30.3907 177.882C29.9589 177.656 29.6299 177.327 29.3831 176.895C29.1364 176.463 29.013 175.97 29.013 175.415V171.714H30.3701V175.518C30.3701 175.949 30.5141 176.319 30.7814 176.587C31.0487 176.854 31.3982 176.977 31.8095 176.977C32.2207 176.977 32.5497 176.854 32.817 176.587C33.0843 176.319 33.2282 175.97 33.2282 175.518V171.714H34.5853V175.415C34.5853 175.97 34.462 176.463 34.2152 176.895C33.9685 177.327 33.6395 177.656 33.2282 177.882C32.817 178.108 32.3441 178.232 31.8095 178.232H31.83ZM25.1474 178.232C24.5922 178.232 24.0987 178.129 23.6669 177.903C23.2351 177.677 22.865 177.368 22.5771 176.998L23.3585 176.134C23.6258 176.422 23.9136 176.648 24.2015 176.813C24.4894 176.977 24.7978 177.039 25.1474 177.039C25.4352 177.039 25.682 176.977 25.8876 176.854C26.0727 176.731 26.1755 176.546 26.1755 176.32C26.1755 176.134 26.1138 175.991 25.9698 175.888C25.8259 175.785 25.5997 175.662 25.2913 175.538L24.6333 175.271C24.0781 175.045 23.6463 174.777 23.379 174.51C23.1117 174.222 22.9678 173.873 22.9678 173.42C22.9678 172.845 23.1734 172.392 23.6052 172.063C24.037 171.734 24.5716 171.57 25.209 171.57C26.1343 171.57 26.8746 171.899 27.4092 172.557L26.669 173.4C26.4633 173.194 26.2371 173.03 25.9698 172.927C25.7025 172.824 25.4352 172.762 25.1679 172.762C24.9006 172.762 24.695 172.824 24.5305 172.927C24.366 173.03 24.3043 173.174 24.3043 173.379C24.3043 173.544 24.366 173.688 24.4894 173.79C24.6127 173.893 24.8389 174.017 25.1474 174.14L25.7642 174.387C26.3811 174.633 26.8129 174.901 27.0802 175.209C27.3475 175.497 27.4914 175.867 27.4914 176.32C27.4914 176.936 27.2653 177.409 26.8129 177.759C26.3605 178.108 25.8053 178.273 25.1268 178.273L25.1474 178.232ZM18.5058 178.232C17.9712 178.232 17.4983 178.108 17.0665 177.882C16.6347 177.656 16.3057 177.327 16.0589 176.895C15.8122 176.463 15.6888 175.97 15.6888 175.415V171.714H17.0459V175.518C17.0459 175.949 17.1899 176.319 17.4572 176.587C17.7245 176.854 18.074 176.977 18.4853 176.977C18.8965 176.977 19.2255 176.854 19.4928 176.587C19.7601 176.319 19.904 175.97 19.904 175.518V171.714H21.2611V175.415C21.2611 175.97 21.1378 176.463 20.891 176.895C20.6443 177.327 20.3153 177.656 19.904 177.882C19.4928 178.108 19.0199 178.232 18.4853 178.232H18.5058ZM11.5147 171.57C12.2344 171.57 12.8101 171.796 13.2419 172.269C13.6737 172.742 13.8794 173.338 13.8794 174.099V178.088H12.5223V174.284C12.5223 173.852 12.3989 173.482 12.1522 173.215C11.9054 172.947 11.5559 172.803 11.1446 172.803C10.7334 172.803 10.3633 172.947 10.096 173.215C9.82865 173.482 9.68472 173.852 9.68472 174.284V178.088H8.32762V168.341H9.68472V172.351C9.9109 172.104 10.1576 171.899 10.4866 171.775C10.7951 171.631 11.1446 171.57 11.5353 171.57H11.5147ZM6.9294 176.854V178.088H0V177.718L4.74983 170.747H0.575737V169.513H6.90884V169.884L2.13845 176.854H6.9294Z" fill="#D9B96B"/>
<path d="M249.479 187.423C249.027 187.423 248.636 187.567 248.307 187.855C247.978 188.142 247.752 188.513 247.649 188.986H251.124C251.124 188.492 250.959 188.122 250.63 187.834C250.322 187.567 249.931 187.423 249.479 187.423ZM252.378 190.055H247.628C247.711 190.569 247.957 190.98 248.327 191.288C248.698 191.597 249.17 191.741 249.705 191.741C250.363 191.741 251 191.494 251.556 190.98L252.214 191.926C251.494 192.604 250.63 192.954 249.664 192.954C249.006 192.954 248.43 192.81 247.916 192.522C247.402 192.234 246.991 191.844 246.682 191.33C246.374 190.816 246.23 190.26 246.23 189.644C246.23 189.027 246.374 188.471 246.662 187.957C246.95 187.443 247.361 187.053 247.855 186.744C248.369 186.456 248.924 186.292 249.52 186.292C250.075 186.292 250.589 186.415 251.042 186.683C251.494 186.929 251.844 187.279 252.09 187.731C252.337 188.163 252.481 188.677 252.481 189.232C252.481 189.5 252.44 189.787 252.378 190.096V190.055ZM242.364 186.271C243.084 186.271 243.66 186.498 244.092 186.97C244.523 187.443 244.729 188.04 244.729 188.8V192.79H243.372V188.986C243.372 188.554 243.249 188.184 243.002 187.916C242.755 187.649 242.406 187.505 241.994 187.505C241.583 187.505 241.213 187.649 240.946 187.916C240.678 188.184 240.534 188.554 240.534 188.986V192.79H239.177V183.043H240.534V187.053C240.761 186.806 241.028 186.6 241.336 186.477C241.645 186.333 241.994 186.271 242.385 186.271H242.364ZM237.779 191.638V192.79C237.347 192.892 236.977 192.933 236.648 192.933C235.908 192.933 235.332 192.748 234.921 192.378C234.51 192.008 234.304 191.453 234.304 190.713V187.587H233.255V186.395H234.304V184.709H235.682V186.395H237.574V187.587H235.682V190.589C235.682 191.001 235.785 191.288 235.99 191.453C236.196 191.617 236.525 191.7 236.936 191.7C237.121 191.7 237.409 191.679 237.779 191.638ZM229.39 184.133C228.979 184.133 228.67 184.215 228.444 184.38C228.238 184.544 228.136 184.832 228.136 185.243V186.415H229.637V187.608H228.136V192.81H226.778V187.608H225.874V186.415H226.778V185.12C226.778 184.38 226.984 183.824 227.395 183.454C227.807 183.084 228.362 182.899 229.061 182.899C229.41 182.899 229.698 182.94 229.945 183.023V184.174C229.739 184.153 229.554 184.133 229.39 184.133ZM221.597 191.679C221.967 191.679 222.316 191.597 222.604 191.412C222.913 191.227 223.139 190.98 223.324 190.672C223.489 190.363 223.591 190.014 223.591 189.623C223.591 189.232 223.509 188.883 223.324 188.554C223.16 188.225 222.913 187.978 222.604 187.793C222.296 187.608 221.967 187.526 221.597 187.526C221.227 187.526 220.877 187.608 220.589 187.793C220.281 187.978 220.055 188.225 219.87 188.554C219.705 188.883 219.602 189.232 219.602 189.623C219.602 190.014 219.685 190.363 219.87 190.692C220.034 191.001 220.281 191.247 220.569 191.432C220.877 191.617 221.206 191.7 221.576 191.7L221.597 191.679ZM221.597 192.933C220.98 192.933 220.425 192.79 219.911 192.481C219.397 192.173 218.985 191.782 218.698 191.268C218.389 190.754 218.245 190.199 218.245 189.582C218.245 188.965 218.389 188.41 218.698 187.896C219.006 187.382 219.397 186.991 219.911 186.703C220.425 186.415 221 186.251 221.597 186.251C222.193 186.251 222.789 186.395 223.303 186.703C223.817 186.991 224.229 187.402 224.537 187.916C224.846 188.43 224.99 188.986 224.99 189.602C224.99 190.219 224.846 190.774 224.537 191.288C224.229 191.803 223.838 192.214 223.303 192.502C222.789 192.81 222.214 192.954 221.597 192.954V192.933ZM213.619 191.638V192.79C213.187 192.892 212.817 192.933 212.488 192.933C211.748 192.933 211.172 192.748 210.761 192.378C210.349 192.008 210.144 191.453 210.144 190.713V187.587H209.095V186.395H210.144V184.709H211.521V186.395H213.413V187.587H211.521V190.589C211.521 191.001 211.624 191.288 211.83 191.453C212.035 191.617 212.364 191.7 212.776 191.7C212.961 191.7 213.249 191.679 213.619 191.638ZM205.538 186.271C206.278 186.271 206.874 186.498 207.286 186.97C207.717 187.443 207.923 188.04 207.923 188.8V192.79H206.566V188.986C206.566 188.554 206.443 188.184 206.175 187.916C205.929 187.649 205.579 187.505 205.168 187.505C204.757 187.505 204.386 187.649 204.119 187.916C203.852 188.184 203.708 188.554 203.708 188.986V192.79H202.351V186.415H203.626V187.032C204.119 186.518 204.757 186.271 205.538 186.271ZM197.786 187.423C197.334 187.423 196.943 187.567 196.614 187.855C196.285 188.142 196.059 188.513 195.956 188.986H199.431C199.431 188.492 199.266 188.122 198.937 187.834C198.629 187.567 198.238 187.423 197.786 187.423ZM200.685 190.055H195.935C196.018 190.569 196.244 190.98 196.634 191.288C197.005 191.597 197.478 191.741 198.012 191.741C198.67 191.741 199.308 191.494 199.863 190.98L200.521 191.926C199.801 192.604 198.937 192.954 197.971 192.954C197.313 192.954 196.737 192.81 196.223 192.522C195.709 192.234 195.298 191.844 194.99 191.33C194.681 190.816 194.537 190.26 194.537 189.644C194.537 189.027 194.681 188.471 194.969 187.957C195.257 187.443 195.648 187.053 196.162 186.744C196.676 186.456 197.231 186.292 197.827 186.292C198.382 186.292 198.896 186.415 199.349 186.683C199.801 186.929 200.151 187.279 200.397 187.731C200.644 188.163 200.788 188.677 200.788 189.232C200.788 189.5 200.747 189.787 200.685 190.096V190.055ZM189.685 191.679C190.014 191.679 190.343 191.597 190.63 191.453C190.918 191.309 191.165 191.062 191.329 190.754C191.515 190.445 191.597 190.055 191.597 189.602C191.597 189.15 191.515 188.759 191.329 188.451C191.144 188.142 190.918 187.896 190.61 187.752C190.322 187.587 189.993 187.526 189.664 187.526C189.294 187.526 188.965 187.608 188.677 187.793C188.369 187.978 188.142 188.225 187.978 188.533C187.813 188.842 187.711 189.212 187.711 189.602C187.711 189.993 187.793 190.363 187.957 190.692C188.122 191.001 188.369 191.247 188.656 191.432C188.965 191.617 189.294 191.7 189.664 191.7L189.685 191.679ZM192.974 183.043V192.79H191.7V191.885C191.473 192.214 191.144 192.481 190.754 192.666C190.363 192.851 189.931 192.954 189.458 192.954C188.862 192.954 188.327 192.81 187.855 192.522C187.382 192.234 187.011 191.844 186.744 191.33C186.477 190.816 186.333 190.26 186.333 189.644C186.333 189.027 186.477 188.451 186.744 187.937C187.011 187.423 187.382 187.032 187.855 186.744C188.327 186.456 188.862 186.312 189.458 186.312C189.89 186.312 190.301 186.395 190.672 186.559C191.042 186.724 191.35 186.95 191.597 187.238V183.084H192.974V183.043ZM184.092 184.935C183.824 184.935 183.619 184.853 183.434 184.668C183.249 184.503 183.166 184.277 183.166 184.03C183.166 183.783 183.249 183.557 183.434 183.393C183.619 183.208 183.845 183.125 184.092 183.125C184.338 183.125 184.565 183.208 184.75 183.393C184.935 183.578 185.017 183.783 185.017 184.03C185.017 184.277 184.935 184.503 184.75 184.668C184.565 184.832 184.359 184.935 184.092 184.935ZM183.393 186.415H184.75V192.79H183.393V186.415ZM179.465 192.933C178.91 192.933 178.417 192.831 177.985 192.604C177.553 192.378 177.183 192.07 176.895 191.7L177.676 190.836C177.944 191.124 178.231 191.35 178.519 191.515C178.807 191.679 179.116 191.741 179.465 191.741C179.753 191.741 180 191.679 180.205 191.556C180.39 191.432 180.493 191.247 180.493 191.021C180.493 190.836 180.432 190.692 180.288 190.589C180.144 190.487 179.918 190.363 179.609 190.24L178.951 189.973C178.396 189.746 177.964 189.479 177.697 189.212C177.43 188.944 177.286 188.574 177.286 188.122C177.286 187.546 177.491 187.094 177.923 186.765C178.355 186.436 178.889 186.271 179.527 186.271C180.452 186.271 181.172 186.6 181.727 187.258L180.987 188.101C180.781 187.896 180.555 187.731 180.308 187.628C180.041 187.526 179.774 187.464 179.506 187.464C179.239 187.464 179.033 187.526 178.869 187.628C178.704 187.731 178.643 187.875 178.643 188.081C178.643 188.245 178.704 188.389 178.828 188.492C178.951 188.595 179.177 188.718 179.486 188.842L180.103 189.088C180.719 189.335 181.151 189.602 181.419 189.911C181.686 190.199 181.83 190.569 181.83 191.021C181.83 191.638 181.604 192.111 181.151 192.461C180.699 192.81 180.144 192.975 179.465 192.975V192.933ZM172.926 187.423C172.474 187.423 172.083 187.567 171.754 187.855C171.425 188.142 171.199 188.513 171.096 188.986H174.571C174.571 188.492 174.407 188.122 174.078 187.834C173.77 187.567 173.379 187.423 172.926 187.423ZM175.826 190.055H171.076C171.158 190.569 171.405 190.98 171.775 191.288C172.145 191.597 172.618 191.741 173.153 191.741C173.811 191.741 174.448 191.494 175.003 190.98L175.661 191.926C174.942 192.604 174.078 192.954 173.112 192.954C172.454 192.954 171.878 192.81 171.364 192.522C170.85 192.234 170.438 191.844 170.13 191.33C169.822 190.816 169.678 190.26 169.678 189.644C169.678 189.027 169.822 188.471 170.109 187.957C170.397 187.443 170.809 187.053 171.302 186.744C171.816 186.456 172.371 186.292 172.968 186.292C173.523 186.292 174.037 186.415 174.489 186.683C174.942 186.929 175.291 187.279 175.538 187.731C175.785 188.163 175.929 188.677 175.929 189.232C175.929 189.5 175.887 189.787 175.826 190.096V190.055ZM168.979 186.415V187.628H168.567C168.033 187.628 167.58 187.772 167.231 188.081C166.881 188.389 166.696 188.821 166.696 189.397V192.81H165.339V186.436H166.614V187.258C166.84 186.97 167.107 186.744 167.436 186.6C167.765 186.436 168.115 186.374 168.465 186.374C168.65 186.374 168.835 186.395 168.979 186.436V186.415ZM160.98 188.266C161.473 188.266 161.844 188.142 162.111 187.875C162.378 187.628 162.502 187.279 162.502 186.847C162.502 186.415 162.378 186.086 162.111 185.819C161.844 185.552 161.473 185.428 160.98 185.428H159.253V188.245H160.98V188.266ZM157.855 184.215H160.98C161.556 184.215 162.049 184.318 162.502 184.544C162.954 184.77 163.283 185.079 163.53 185.469C163.776 185.86 163.9 186.312 163.9 186.827C163.9 187.341 163.776 187.793 163.53 188.184C163.283 188.574 162.954 188.903 162.502 189.109C162.07 189.335 161.556 189.438 160.98 189.438H159.232V192.748H157.855V184.174V184.215ZM149.568 187.423C149.116 187.423 148.725 187.567 148.396 187.855C148.067 188.142 147.841 188.513 147.738 188.986H151.213C151.213 188.492 151.048 188.122 150.719 187.834C150.411 187.567 150.02 187.423 149.568 187.423ZM152.467 190.055H147.717C147.8 190.569 148.026 190.98 148.417 191.288C148.787 191.597 149.26 191.741 149.794 191.741C150.452 191.741 151.09 191.494 151.645 190.98L152.303 191.926C151.583 192.604 150.719 192.954 149.753 192.954C149.095 192.954 148.519 192.81 148.005 192.522C147.491 192.234 147.08 191.844 146.772 191.33C146.463 190.816 146.319 190.26 146.319 189.644C146.319 189.027 146.463 188.471 146.751 187.957C147.039 187.443 147.43 187.053 147.944 186.744C148.458 186.456 149.013 186.292 149.609 186.292C150.164 186.292 150.678 186.415 151.131 186.683C151.583 186.929 151.933 187.279 152.179 187.731C152.426 188.163 152.57 188.677 152.57 189.232C152.57 189.5 152.529 189.787 152.467 190.096V190.055ZM142.454 186.271C143.173 186.271 143.749 186.498 144.181 186.97C144.613 187.443 144.818 188.04 144.818 188.8V192.79H143.461V188.986C143.461 188.554 143.338 188.184 143.091 187.916C142.844 187.649 142.495 187.505 142.083 187.505C141.672 187.505 141.302 187.649 141.035 187.916C140.767 188.184 140.624 188.554 140.624 188.986V192.79H139.266V183.043H140.624V187.053C140.85 186.806 141.096 186.6 141.425 186.477C141.734 186.333 142.083 186.271 142.474 186.271H142.454ZM137.868 191.638V192.79C137.436 192.892 137.066 192.933 136.737 192.933C135.997 192.933 135.421 192.748 135.01 192.378C134.599 192.008 134.393 191.453 134.393 190.713V187.587H133.345V186.395H134.393V184.709H135.771V186.395H137.663V187.587H135.771V190.589C135.771 191.001 135.874 191.288 136.1 191.453C136.306 191.617 136.635 191.7 137.046 191.7C137.231 191.7 137.519 191.679 137.889 191.638H137.868ZM129.212 186.415V187.628H128.8C128.266 187.628 127.813 187.772 127.464 188.081C127.114 188.389 126.929 188.821 126.929 189.397V192.81H125.572V186.436H126.847V187.258C127.073 186.97 127.34 186.744 127.669 186.6C127.998 186.436 128.348 186.374 128.698 186.374C128.883 186.374 129.068 186.395 129.212 186.436V186.415ZM121.007 187.423C120.555 187.423 120.164 187.567 119.835 187.855C119.506 188.142 119.28 188.513 119.177 188.986H122.652C122.652 188.492 122.488 188.122 122.159 187.834C121.85 187.567 121.46 187.423 121.007 187.423ZM123.907 190.055H119.157C119.239 190.569 119.465 190.98 119.856 191.288C120.226 191.597 120.699 191.741 121.234 191.741C121.892 191.741 122.529 191.494 123.084 190.98L123.742 191.926C123.022 192.604 122.159 192.954 121.192 192.954C120.534 192.954 119.959 192.81 119.445 192.522C118.931 192.234 118.519 191.844 118.211 191.33C117.902 190.816 117.759 190.26 117.759 189.644C117.759 189.027 117.902 188.471 118.19 187.957C118.478 187.443 118.869 187.053 119.383 186.744C119.897 186.456 120.452 186.292 121.048 186.292C121.604 186.292 122.118 186.415 122.57 186.683C123.022 186.929 123.372 187.279 123.619 187.731C123.865 188.163 124.009 188.677 124.009 189.232C124.009 189.5 123.968 189.787 123.907 190.096V190.055ZM112.906 191.679C113.235 191.679 113.564 191.597 113.852 191.453C114.14 191.309 114.386 191.062 114.551 190.754C114.736 190.445 114.818 190.055 114.818 189.602C114.818 189.15 114.736 188.759 114.551 188.451C114.366 188.142 114.14 187.896 113.831 187.752C113.543 187.587 113.214 187.526 112.885 187.526C112.515 187.526 112.186 187.608 111.898 187.793C111.59 187.978 111.364 188.225 111.199 188.533C111.035 188.842 110.932 189.212 110.932 189.602C110.932 189.993 111.014 190.363 111.179 190.692C111.343 191.001 111.59 191.247 111.878 191.432C112.186 191.617 112.515 191.7 112.885 191.7L112.906 191.679ZM116.175 183.043V192.79H114.9V191.885C114.674 192.214 114.345 192.481 113.955 192.666C113.564 192.851 113.132 192.954 112.659 192.954C112.063 192.954 111.528 192.81 111.055 192.522C110.582 192.234 110.212 191.844 109.945 191.33C109.678 190.816 109.534 190.26 109.534 189.644C109.534 189.027 109.678 188.451 109.945 187.937C110.212 187.423 110.582 187.032 111.055 186.744C111.528 186.456 112.063 186.312 112.659 186.312C113.091 186.312 113.502 186.395 113.872 186.559C114.242 186.724 114.551 186.95 114.798 187.238V183.084H116.175V183.043ZM105.668 186.271C106.408 186.271 107.005 186.498 107.416 186.97C107.848 187.443 108.053 188.04 108.053 188.8V192.79H106.696V188.986C106.696 188.554 106.573 188.184 106.306 187.916C106.059 187.649 105.709 187.505 105.298 187.505C104.887 187.505 104.517 187.649 104.249 187.916C103.982 188.184 103.838 188.554 103.838 188.986V192.79H102.481V186.415H103.756V187.032C104.249 186.518 104.887 186.271 105.668 186.271ZM97.8134 192.933C97.2788 192.933 96.8058 192.81 96.374 192.584C95.9422 192.358 95.6133 192.029 95.3665 191.597C95.1198 191.165 94.9964 190.672 94.9964 190.116V186.415H96.3535V190.219C96.3535 190.651 96.4974 191.021 96.7647 191.288C97.032 191.556 97.3816 191.679 97.7928 191.679C98.2041 191.679 98.5331 191.556 98.8004 191.288C99.0677 191.021 99.2116 190.672 99.2116 190.219V186.415H100.569V190.116C100.569 190.672 100.445 191.186 100.199 191.597C99.9518 192.029 99.6228 192.358 99.2116 192.584C98.8004 192.81 98.3274 192.933 97.7928 192.933H97.8134ZM87.1417 186.271C87.8819 186.271 88.4782 186.498 88.8895 186.97C89.3213 187.443 89.5269 188.04 89.5269 188.8V192.79H88.1698V188.986C88.1698 188.554 88.0464 188.184 87.7791 187.916C87.5324 187.649 87.1828 187.505 86.7716 187.505C86.3603 187.505 85.9902 187.649 85.7229 187.916C85.4556 188.184 85.3117 188.554 85.3117 188.986V192.79H83.9546V186.415H85.2294V187.032C85.7229 186.518 86.3603 186.271 87.1417 186.271ZM79.0197 191.679C79.3898 191.679 79.7394 191.597 80.0272 191.412C80.3357 191.227 80.5618 190.98 80.7469 190.672C80.9114 190.363 81.0142 190.014 81.0142 189.623C81.0142 189.232 80.932 188.883 80.7469 188.554C80.5824 188.225 80.3357 187.978 80.0272 187.793C79.7188 187.608 79.3898 187.526 79.0197 187.526C78.6496 187.526 78.3 187.608 78.0121 187.793C77.7037 187.978 77.4775 188.225 77.2925 188.554C77.128 188.883 77.0252 189.232 77.0252 189.623C77.0252 190.014 77.1074 190.363 77.2925 190.692C77.457 191.001 77.7037 191.247 77.9916 191.432C78.3 191.617 78.629 191.7 78.9991 191.7L79.0197 191.679ZM79.0197 192.933C78.4028 192.933 77.8477 192.79 77.3336 192.481C76.8196 192.173 76.4083 191.782 76.1204 191.268C75.812 190.754 75.6681 190.199 75.6681 189.582C75.6681 188.965 75.812 188.41 76.1204 187.896C76.4289 187.382 76.8196 186.991 77.3336 186.703C77.8477 186.415 78.4234 186.251 79.0197 186.251C79.616 186.251 80.2123 186.395 80.7263 186.703C81.2404 186.991 81.6516 187.402 81.9601 187.916C82.2685 188.43 82.4124 188.986 82.4124 189.602C82.4124 190.219 82.2685 190.774 81.9601 191.288C81.6516 191.803 81.2609 192.214 80.7263 192.502C80.2123 192.81 79.6366 192.954 79.0197 192.954V192.933ZM73.4063 184.935C73.139 184.935 72.9333 184.853 72.7483 184.668C72.5632 184.503 72.481 184.277 72.481 184.03C72.481 183.783 72.5632 183.557 72.7483 183.393C72.9333 183.208 73.1595 183.125 73.4063 183.125C73.653 183.125 73.8792 183.208 74.0642 183.393C74.2493 183.578 74.3316 183.783 74.3316 184.03C74.3316 184.277 74.2493 184.503 74.0642 184.668C73.8792 184.832 73.6736 184.935 73.4063 184.935ZM72.7072 186.415H74.0642V192.79H72.7072V186.415ZM71.3295 191.638V192.79C70.8977 192.892 70.5276 192.933 70.1986 192.933C69.4583 192.933 68.8826 192.748 68.4714 192.378C68.0601 192.008 67.8545 191.453 67.8545 190.713V187.587H66.8058V186.395H67.8545V184.709H69.2322V186.395H71.1239V187.587H69.2322V190.589C69.2322 191.001 69.335 191.288 69.5406 191.453C69.7462 191.617 70.0752 191.7 70.4865 191.7C70.6715 191.7 70.9594 191.679 71.3295 191.638ZM62.6112 191.885C63.0636 191.885 63.4542 191.741 63.7832 191.453C64.1122 191.165 64.2562 190.816 64.2562 190.384V190.26H62.6112C62.2411 190.26 61.9738 190.322 61.7682 190.445C61.5625 190.569 61.4803 190.774 61.4803 191.021C61.4803 191.268 61.5831 191.494 61.7887 191.638C61.9943 191.782 62.2616 191.864 62.5906 191.864L62.6112 191.885ZM63.0224 186.271C63.8038 186.271 64.4412 186.498 64.9141 186.95C65.3871 187.402 65.6338 188.06 65.6338 188.924V192.79H64.359V192.07C64.1328 192.337 63.8244 192.563 63.4954 192.707C63.1458 192.851 62.7551 192.933 62.3233 192.933C61.6653 192.933 61.1102 192.769 60.7195 192.419C60.3082 192.09 60.1026 191.638 60.1026 191.083C60.1026 190.528 60.3082 190.096 60.7401 189.767C61.1719 189.438 61.727 189.273 62.4467 189.273H64.2562V188.862C64.2562 188.43 64.1328 188.081 63.9066 187.855C63.6599 187.628 63.3309 187.505 62.8991 187.505C62.5495 187.505 62.2205 187.587 61.9532 187.731C61.6859 187.896 61.398 188.122 61.1307 188.451L60.3288 187.649C60.6578 187.197 61.0485 186.847 61.5008 186.621C61.9532 186.395 62.4673 186.292 63.0224 186.292V186.271ZM59.4858 186.415V187.628H59.0745C58.5399 187.628 58.0875 187.772 57.738 188.081C57.3884 188.389 57.2034 188.821 57.2034 189.397V192.81H55.8463V186.436H57.1211V187.258C57.3473 186.97 57.6146 186.744 57.9436 186.6C58.2726 186.436 58.6222 186.374 58.9717 186.374C59.1568 186.374 59.3418 186.395 59.4858 186.436V186.415ZM54.4481 191.638V192.79C54.0163 192.892 53.6461 192.933 53.3172 192.933C52.5769 192.933 52.0012 192.748 51.5899 192.378C51.1787 192.008 50.9731 191.453 50.9731 190.713V187.587H49.9244V186.395H50.9731V184.709H52.3507V186.395H54.2424V187.587H52.3507V190.589C52.3507 191.001 52.4536 191.288 52.6797 191.453C52.8854 191.617 53.2143 191.7 53.6256 191.7C53.8106 191.7 54.0985 191.679 54.4686 191.638H54.4481ZM46.7167 192.933C46.1616 192.933 45.6681 192.831 45.2363 192.604C44.8045 192.378 44.4344 192.07 44.1465 191.7L44.9278 190.836C45.1952 191.124 45.483 191.35 45.7709 191.515C46.0588 191.679 46.3672 191.741 46.7167 191.741C47.0046 191.741 47.2514 191.679 47.457 191.556C47.642 191.432 47.7448 191.247 47.7448 191.021C47.7448 190.836 47.6832 190.692 47.5392 190.589C47.3953 190.487 47.1691 190.363 46.8607 190.24L46.2027 189.973C45.6475 189.746 45.2157 189.479 44.9484 189.212C44.6811 188.944 44.5372 188.574 44.5372 188.122C44.5372 187.546 44.7428 187.094 45.1746 186.765C45.6064 186.436 46.141 186.271 46.7784 186.271C47.7037 186.271 48.4234 186.6 48.9786 187.258L48.2383 188.101C48.0327 187.896 47.8065 187.731 47.5392 187.628C47.2719 187.526 47.0046 187.464 46.7373 187.464C46.47 187.464 46.2644 187.526 46.0999 187.628C45.9354 187.731 45.8737 187.875 45.8737 188.081C45.8737 188.245 45.9354 188.389 46.0588 188.492C46.1821 188.595 46.4083 188.718 46.7167 188.842L47.3336 189.088C47.9505 189.335 48.3823 189.602 48.6496 189.911C48.9169 190.199 49.0608 190.569 49.0608 191.021C49.0608 191.638 48.8346 192.111 48.3823 192.461C47.9299 192.81 47.3747 192.975 46.6962 192.975L46.7167 192.933ZM42.0903 184.935C41.823 184.935 41.6174 184.853 41.4323 184.668C41.2472 184.503 41.165 184.277 41.165 184.03C41.165 183.783 41.2472 183.557 41.4323 183.393C41.6174 183.208 41.8435 183.125 42.0903 183.125C42.337 183.125 42.5632 183.208 42.7483 183.393C42.9333 183.578 43.0156 183.783 43.0156 184.03C43.0156 184.277 42.9333 184.503 42.7483 184.668C42.5632 184.832 42.3576 184.935 42.0903 184.935ZM41.3912 186.415H42.7483V192.79H41.3912V186.415ZM37.1143 186.271C37.8545 186.271 38.4508 186.498 38.862 186.97C39.2938 187.443 39.4995 188.04 39.4995 188.8V192.79H38.1424V188.986C38.1424 188.554 38.019 188.184 37.7517 187.916C37.505 187.649 37.1554 187.505 36.7442 187.505C36.3329 187.505 35.9628 187.649 35.6955 187.916C35.4282 188.184 35.2843 188.554 35.2843 188.986V192.79H33.9272V186.415H35.202V187.032C35.6955 186.518 36.3329 186.271 37.1143 186.271ZM31.2747 184.935C31.0074 184.935 30.8017 184.853 30.6167 184.668C30.4316 184.503 30.3494 184.277 30.3494 184.03C30.3494 183.783 30.4316 183.557 30.6167 183.393C30.8017 183.208 31.0279 183.125 31.2747 183.125C31.5214 183.125 31.7476 183.208 31.9326 183.393C32.1177 183.578 32.1999 183.783 32.1999 184.03C32.1999 184.277 32.1177 184.503 31.9326 184.668C31.7476 184.832 31.542 184.935 31.2747 184.935ZM30.5961 186.415H31.9532V192.79H30.5961V186.415ZM26.3192 186.271C27.0594 186.271 27.6352 186.498 28.0464 186.97C28.4577 187.443 28.6838 188.04 28.6838 188.8V192.79H27.3062V188.986C27.3062 188.533 27.1828 188.184 26.9566 187.916C26.7099 187.649 26.4015 187.505 25.9902 187.505C25.579 187.505 25.2294 187.649 24.9827 187.916C24.7154 188.184 24.592 188.533 24.592 188.924V192.79H23.2349V188.986C23.2349 188.554 23.1115 188.184 22.8648 187.916C22.618 187.649 22.2891 187.505 21.8984 187.505C21.5077 187.505 21.1376 187.649 20.8908 187.916C20.6235 188.184 20.5002 188.554 20.5002 188.986V192.79H19.1431V186.415H20.4179V187.012C20.6441 186.785 20.9114 186.6 21.2198 186.456C21.5283 186.333 21.8778 186.251 22.2685 186.251C22.7003 186.251 23.091 186.333 23.42 186.518C23.749 186.703 24.0163 186.95 24.2013 187.258C24.4275 186.95 24.7359 186.703 25.1266 186.539C25.4967 186.354 25.908 186.271 26.3603 186.271H26.3192ZM13.8586 191.679C14.1876 191.679 14.5166 191.597 14.8045 191.453C15.0923 191.309 15.3391 191.062 15.5036 190.754C15.6886 190.445 15.7709 190.055 15.7709 189.602C15.7709 189.15 15.6886 188.759 15.5036 188.451C15.3185 188.142 15.0923 187.896 14.7839 187.752C14.496 187.587 14.1671 187.526 13.8381 187.526C13.4679 187.526 13.139 187.608 12.8511 187.793C12.5427 187.978 12.3165 188.225 12.152 188.533C11.9875 188.842 11.8847 189.212 11.8847 189.602C11.8847 189.993 11.9669 190.363 12.1314 190.692C12.2959 191.001 12.5427 191.247 12.8305 191.432C13.1389 191.617 13.4679 191.7 13.8381 191.7L13.8586 191.679ZM17.128 183.043V192.79H15.8531V191.885C15.627 192.214 15.298 192.481 14.9278 192.666C14.5372 192.851 14.1054 192.954 13.6324 192.954C13.0361 192.954 12.5015 192.81 12.0286 192.522C11.5557 192.234 11.1856 191.844 10.9183 191.33C10.6509 190.816 10.507 190.26 10.507 189.644C10.507 189.027 10.6509 188.451 10.9183 187.937C11.1856 187.423 11.5557 187.032 12.0286 186.744C12.5015 186.456 13.0361 186.312 13.6324 186.312C14.0642 186.312 14.4755 186.395 14.8456 186.559C15.2157 186.724 15.5241 186.95 15.7709 187.238V183.084H17.1485L17.128 183.043ZM5.83943 186.641L4.40009 190.199H7.27877L5.83943 186.641ZM7.77226 191.371H3.9066L3.28974 192.81H1.82983L5.61325 184.092H6.08617L9.86959 192.81H8.38912L7.77226 191.371Z" fill="#D9B96B"/>
<path d="M173.029 207.635C172.412 207.635 171.837 207.491 171.323 207.203C170.809 206.916 170.397 206.504 170.109 205.99C169.801 205.476 169.657 204.921 169.657 204.304C169.657 203.687 169.801 203.132 170.109 202.618C170.418 202.104 170.809 201.713 171.343 201.426C171.857 201.138 172.433 200.973 173.05 200.973C173.667 200.973 174.16 201.097 174.633 201.364C175.106 201.631 175.476 201.981 175.743 202.454L174.777 203.214C174.325 202.556 173.749 202.248 173.07 202.248C172.68 202.248 172.351 202.33 172.042 202.515C171.734 202.7 171.508 202.947 171.323 203.256C171.158 203.564 171.055 203.914 171.055 204.304C171.055 204.695 171.138 205.044 171.323 205.353C171.487 205.661 171.734 205.929 172.042 206.093C172.351 206.278 172.68 206.36 173.07 206.36C173.749 206.36 174.325 206.031 174.777 205.394L175.743 206.134C175.456 206.587 175.085 206.957 174.613 207.224C174.14 207.491 173.626 207.615 173.05 207.615M167.416 199.637C167.149 199.637 166.943 199.554 166.758 199.369C166.573 199.205 166.491 198.979 166.491 198.732C166.491 198.485 166.573 198.259 166.758 198.094C166.943 197.909 167.169 197.827 167.416 197.827C167.663 197.827 167.889 197.909 168.074 198.094C168.259 198.28 168.341 198.485 168.341 198.732C168.341 198.979 168.259 199.205 168.074 199.369C167.889 199.534 167.683 199.637 167.416 199.637ZM166.717 201.117H168.074V207.491H166.717V201.117ZM163.386 197.745H164.743V207.491H163.386V197.745ZM158.451 206.402C158.821 206.402 159.15 206.319 159.438 206.134C159.746 205.949 159.972 205.702 160.137 205.394C160.301 205.086 160.384 204.715 160.384 204.304C160.384 203.893 160.301 203.543 160.116 203.235C159.952 202.927 159.705 202.68 159.417 202.495C159.129 202.31 158.8 202.227 158.43 202.227C158.101 202.227 157.772 202.31 157.484 202.454C157.196 202.598 156.95 202.844 156.785 203.153C156.6 203.461 156.518 203.852 156.518 204.325C156.518 204.798 156.6 205.168 156.785 205.476C156.97 205.785 157.196 206.011 157.484 206.175C157.772 206.319 158.081 206.402 158.43 206.402H158.451ZM158.677 200.973C159.273 200.973 159.808 201.117 160.281 201.405C160.754 201.693 161.124 202.104 161.391 202.598C161.658 203.112 161.802 203.667 161.802 204.304C161.802 204.942 161.658 205.497 161.391 205.99C161.124 206.504 160.754 206.895 160.281 207.183C159.808 207.471 159.273 207.615 158.677 207.615C158.204 207.615 157.772 207.532 157.382 207.347C156.991 207.162 156.682 206.916 156.436 206.587V207.471H155.161V197.724H156.518V201.878C156.765 201.59 157.073 201.364 157.443 201.199C157.813 201.035 158.225 200.953 158.656 200.953L158.677 200.973ZM150.493 207.635C149.959 207.635 149.486 207.512 149.054 207.286C148.622 207.06 148.293 206.731 148.046 206.299C147.8 205.867 147.676 205.373 147.676 204.818V201.117H149.033V204.921C149.033 205.353 149.177 205.723 149.445 205.97C149.712 206.237 150.061 206.36 150.473 206.36C150.884 206.36 151.213 206.237 151.48 205.97C151.748 205.702 151.892 205.353 151.892 204.921V201.117H153.249V204.818C153.249 205.373 153.125 205.887 152.878 206.299C152.632 206.731 152.303 207.06 151.892 207.286C151.48 207.512 151.007 207.635 150.473 207.635H150.493ZM142.844 206.402C143.214 206.402 143.543 206.319 143.831 206.134C144.119 205.949 144.366 205.702 144.53 205.394C144.695 205.086 144.798 204.715 144.798 204.325C144.798 203.934 144.715 203.564 144.551 203.235C144.386 202.927 144.14 202.68 143.852 202.495C143.543 202.31 143.214 202.227 142.865 202.227C142.536 202.227 142.207 202.31 141.919 202.454C141.631 202.598 141.384 202.844 141.22 203.153C141.035 203.461 140.953 203.852 140.953 204.304C140.953 204.757 141.035 205.147 141.22 205.476C141.405 205.785 141.631 206.031 141.919 206.175C142.207 206.319 142.515 206.402 142.865 206.402H142.844ZM143.07 200.973C143.667 200.973 144.201 201.117 144.674 201.405C145.147 201.693 145.517 202.104 145.785 202.598C146.052 203.112 146.196 203.667 146.196 204.284C146.196 204.901 146.052 205.476 145.785 205.99C145.517 206.504 145.147 206.895 144.674 207.183C144.201 207.471 143.667 207.615 143.07 207.615C142.639 207.615 142.227 207.532 141.878 207.368C141.508 207.203 141.199 206.977 140.953 206.689V209.815H139.595V201.097H140.87V202.001C141.096 201.672 141.425 201.426 141.796 201.24C142.186 201.055 142.618 200.973 143.091 200.973H143.07ZM135.01 202.125C134.558 202.125 134.167 202.269 133.838 202.556C133.509 202.844 133.283 203.214 133.18 203.687H136.655C136.655 203.194 136.491 202.824 136.162 202.536C135.853 202.269 135.462 202.125 135.01 202.125ZM137.909 204.757H133.159C133.242 205.271 133.488 205.682 133.859 205.99C134.229 206.299 134.702 206.443 135.236 206.443C135.894 206.443 136.532 206.196 137.087 205.682L137.745 206.628C137.025 207.306 136.162 207.656 135.195 207.656C134.537 207.656 133.961 207.512 133.447 207.224C132.933 206.936 132.522 206.545 132.214 206.031C131.905 205.517 131.761 204.962 131.761 204.345C131.761 203.728 131.905 203.173 132.193 202.659C132.481 202.145 132.892 201.755 133.386 201.446C133.9 201.158 134.455 200.994 135.051 200.994C135.606 200.994 136.12 201.117 136.573 201.384C137.025 201.631 137.375 201.981 137.621 202.433C137.868 202.865 138.012 203.379 138.012 203.934C138.012 204.201 137.971 204.489 137.909 204.798V204.757ZM125.634 202.968H127.361C127.834 202.968 128.204 202.844 128.471 202.577C128.739 202.31 128.883 201.981 128.883 201.569C128.883 201.158 128.739 200.809 128.471 200.541C128.204 200.274 127.834 200.151 127.361 200.151H125.634V202.968ZM129.643 207.491L127.196 204.181H125.634V207.491H124.256V198.917H127.382C127.957 198.917 128.451 199.02 128.903 199.246C129.356 199.472 129.685 199.781 129.931 200.171C130.178 200.562 130.301 201.035 130.301 201.528C130.301 202.084 130.157 202.577 129.87 203.009C129.582 203.441 129.17 203.749 128.656 203.955L131.227 207.491H129.664H129.643ZM119.239 206.319V207.512H113.811V207.142L117.142 202.33H114.098V201.138H119.198V201.528L115.846 206.34H119.218L119.239 206.319ZM113.297 201.117L110.192 208.232C109.924 208.828 109.595 209.28 109.225 209.568C108.855 209.856 108.403 210 107.848 210C107.498 210 107.149 209.959 106.799 209.877V208.725C107.19 208.766 107.457 208.787 107.56 208.787C107.889 208.787 108.156 208.725 108.382 208.581C108.608 208.437 108.793 208.211 108.958 207.841L109.225 207.245L106.676 201.158H108.135L109.966 205.805L111.857 201.158H113.317L113.297 201.117ZM102.131 206.175C102.666 206.175 103.118 206.011 103.488 205.661C103.859 205.312 104.044 204.818 104.044 204.16C104.044 203.502 103.859 203.029 103.488 202.7C103.118 202.371 102.666 202.207 102.131 202.207C101.597 202.207 101.124 202.392 100.733 202.762C100.363 203.132 100.178 203.605 100.178 204.201C100.178 204.798 100.363 205.291 100.733 205.641C101.103 206.011 101.576 206.196 102.131 206.196V206.175ZM105.421 201.117V206.833C105.421 207.841 105.133 208.622 104.558 209.157C103.982 209.712 103.201 209.979 102.234 209.979C101.597 209.979 101.021 209.877 100.507 209.65C99.9929 209.424 99.5406 209.136 99.1705 208.787L99.9312 207.841C100.281 208.129 100.63 208.355 101 208.519C101.35 208.684 101.741 208.766 102.173 208.766C102.748 208.766 103.221 208.622 103.571 208.314C103.92 208.005 104.085 207.553 104.085 206.957V206.504C103.838 206.792 103.53 207.018 103.159 207.183C102.789 207.347 102.378 207.409 101.926 207.409C101.329 207.409 100.815 207.265 100.342 206.998C99.8696 206.731 99.4994 206.34 99.2321 205.867C98.9648 205.373 98.8209 204.839 98.8209 204.222C98.8209 203.605 98.9648 203.05 99.2321 202.577C99.4994 202.084 99.8696 201.713 100.342 201.446C100.815 201.179 101.35 201.035 101.926 201.035C102.419 201.035 102.851 201.138 103.242 201.323C103.632 201.508 103.941 201.775 104.188 202.104V201.199H105.442L105.421 201.117ZM98.0601 201.117V202.33H97.6489C97.1143 202.33 96.6619 202.474 96.3123 202.783C95.9628 203.091 95.7777 203.523 95.7777 204.099V207.512H94.4206V201.138H95.6955V201.96C95.9217 201.672 96.189 201.446 96.518 201.302C96.8469 201.138 97.1965 201.076 97.5461 201.076C97.7311 201.076 97.9162 201.097 98.0601 201.138V201.117ZM93.1663 201.117L90.0615 208.232C89.7942 208.828 89.4652 209.28 89.0951 209.568C88.7249 209.856 88.2726 210 87.7174 210C87.3678 210 87.0183 209.959 86.6687 209.877V208.725C87.0594 208.766 87.3267 208.787 87.4295 208.787C87.7585 208.787 88.0258 208.725 88.252 208.581C88.4782 208.437 88.6633 208.211 88.8278 207.841L89.0951 207.245L86.5454 201.158H88.0053L89.8353 205.805L91.727 201.158H93.1869L93.1663 201.117ZM86.5248 207.491H84.8182L80.8497 202.927L84.448 198.917H86.1341L82.5769 202.927L86.5248 207.491ZM79.4309 198.917H80.8086V207.491H79.4309V198.917Z" fill="#D9B96B"/>
<path d="M154.277 14.2289C147.348 7.29952 137.786 3.02262 127.217 3.02262C116.648 3.02262 107.067 7.29952 100.158 14.2289C93.2283 21.1583 88.9514 30.7197 88.9514 41.2886C88.9514 51.8574 93.2283 61.4393 100.158 68.3482C107.087 75.2776 116.648 79.5545 127.217 79.5545C137.786 79.5545 147.368 75.2776 154.277 68.3482C161.206 61.4188 165.483 51.8574 165.483 41.2886C165.483 30.7197 161.206 21.1378 154.277 14.2289ZM127.197 0C138.609 0 148.931 4.62646 156.395 12.0905C163.859 19.5545 168.485 29.8972 168.485 41.2886C168.485 52.6799 163.859 63.0226 156.395 70.4866C148.931 77.9506 138.588 82.5771 127.197 82.5771C115.805 82.5771 105.463 77.9506 97.9987 70.4866C90.5347 63.0226 85.9082 52.6799 85.9082 41.2886C85.9082 29.8972 90.5347 19.5545 97.9987 12.0905C105.463 4.62646 115.805 0 127.197 0Z" fill="#D9B96B"/>
<path fill-rule="evenodd" clip-rule="evenodd" d="M115.127 58.0875H91.1102C90.6167 57.0388 90.1849 55.9901 89.7942 54.9004L97.1554 44.0025C97.2376 43.8791 97.4021 43.838 97.5461 43.9202C103.632 47.4158 109.205 51.5282 114.14 56.3808C114.551 56.7715 114.962 57.1827 115.353 57.594C115.435 57.6762 115.456 57.7996 115.414 57.9024C115.373 58.0052 115.271 58.0875 115.147 58.0875" fill="#D9B96B"/>
<path fill-rule="evenodd" clip-rule="evenodd" d="M157.259 44.0025L164.599 54.9004C164.209 55.9901 163.756 57.0594 163.283 58.0875H139.267C139.144 58.0875 139.041 58.0258 139 57.9024C138.958 57.7996 138.979 57.6762 139.061 57.594C144.284 52.2067 150.268 47.7036 156.868 43.9202C156.991 43.838 157.176 43.8791 157.259 44.0025Z" fill="#D9B96B"/>
<path fill-rule="evenodd" clip-rule="evenodd" d="M128.595 1.54205L156.024 42.1726C156.107 42.296 156.086 42.4399 156.004 42.5427C155.901 42.6455 155.757 42.6661 155.634 42.5839C150.02 39.2528 144.88 35.3666 140.295 30.8635C135.216 25.8875 130.815 20.1096 127.217 13.4269C120.37 26.1754 110.603 35.5516 98.8003 42.5839C98.677 42.6455 98.533 42.625 98.4302 42.5427C98.3274 42.4399 98.3274 42.296 98.4097 42.1726L125.819 1.54205C126.271 1.54205 126.744 1.52148 127.197 1.52148C127.649 1.52148 128.122 1.52148 128.574 1.54205" fill="#D9B96B"/>
<path fill-rule="evenodd" clip-rule="evenodd" d="M138.177 43.6122C135.894 44.9076 133.797 46.4292 131.946 48.2592C130.096 50.0687 128.513 52.166 127.197 54.5923C125.881 52.166 124.297 50.0687 122.447 48.2592C120.596 46.4498 118.52 44.9282 116.217 43.6122C120.802 41.0214 124.585 37.5053 127.197 32.6321C128.513 35.0584 130.096 37.1557 131.946 38.9652C133.797 40.7746 135.874 42.3168 138.177 43.6122Z" fill="#E5262B"/>
<path d="M121.028 65.408V70.9597H120.144V66.4566L119.013 66.8267L118.787 66.0454L120.72 65.408H121.028Z" fill="#D9B96B"/>
<path d="M124.236 68.3482C124.544 68.3482 124.791 68.2454 124.996 68.0192C125.202 67.8136 125.305 67.5462 125.305 67.2378C125.305 66.9294 125.202 66.6621 124.996 66.4565C124.791 66.2508 124.524 66.148 124.236 66.148C123.948 66.148 123.66 66.2508 123.454 66.4565C123.249 66.6621 123.146 66.9294 123.146 67.2378C123.146 67.5462 123.249 67.8136 123.454 68.0192C123.66 68.2248 123.927 68.3276 124.236 68.3276M124.236 65.305C124.585 65.305 124.914 65.3872 125.223 65.5517C125.531 65.7162 125.757 65.9424 125.942 66.2508C126.127 66.5387 126.21 66.8677 126.21 67.2378C126.21 67.464 126.169 67.6696 126.107 67.8547C126.045 68.0397 125.963 68.2042 125.86 68.3687C125.757 68.5332 125.613 68.7388 125.428 69.0062L124.051 70.9595H122.981L124.318 69.0678C124.318 69.0678 124.153 69.0884 124.071 69.0884C123.763 69.0884 123.454 69.0062 123.187 68.8417C122.899 68.6772 122.673 68.451 122.508 68.1631C122.344 67.8752 122.262 67.5668 122.262 67.2173C122.262 66.8677 122.344 66.5387 122.529 66.2303C122.714 65.9424 122.94 65.7162 123.249 65.5312C123.557 65.3667 123.886 65.2844 124.236 65.2844V65.305Z" fill="#D9B96B"/>
<path d="M128.903 68.3482C129.212 68.3482 129.459 68.2454 129.664 68.0192C129.87 67.8136 129.973 67.5462 129.973 67.2378C129.973 66.9294 129.87 66.6621 129.664 66.4565C129.459 66.2508 129.191 66.148 128.903 66.148C128.616 66.148 128.328 66.2508 128.122 66.4565C127.916 66.6621 127.814 66.9294 127.814 67.2378C127.814 67.5462 127.916 67.8136 128.122 68.0192C128.328 68.2248 128.595 68.3276 128.903 68.3276M128.903 65.305C129.253 65.305 129.582 65.3872 129.89 65.5517C130.199 65.7162 130.425 65.9424 130.61 66.2508C130.795 66.5387 130.877 66.8677 130.877 67.2378C130.877 67.464 130.836 67.6696 130.775 67.8547C130.713 68.0397 130.631 68.2042 130.528 68.3687C130.425 68.5332 130.281 68.7388 130.096 69.0062L128.718 70.9595H127.649L128.986 69.0678C128.986 69.0678 128.821 69.0884 128.739 69.0884C128.43 69.0884 128.122 69.0062 127.855 68.8417C127.567 68.6772 127.341 68.451 127.176 68.1631C127.012 67.8752 126.929 67.5668 126.929 67.2173C126.929 66.8677 127.012 66.5387 127.197 66.2303C127.382 65.9424 127.608 65.7162 127.916 65.5312C128.225 65.3667 128.554 65.2844 128.903 65.2844V65.305Z" fill="#D9B96B"/>
<path d="M135.607 70.1989V70.9802H131.618V70.7746L133.592 68.6362C133.9 68.3072 134.126 68.0399 134.27 67.8137C134.414 67.5875 134.476 67.3613 134.476 67.1146C134.476 66.8267 134.394 66.6005 134.229 66.4155C134.065 66.2304 133.838 66.1276 133.55 66.1276C133.263 66.1276 133.036 66.2304 132.872 66.4155C132.707 66.6005 132.605 66.8473 132.605 67.1351C132.605 67.2585 132.605 67.4024 132.646 67.5669H131.741C131.7 67.423 131.679 67.2585 131.679 67.094C131.679 66.7856 131.762 66.4977 131.906 66.2304C132.049 65.9631 132.276 65.7369 132.564 65.5724C132.851 65.4079 133.18 65.3257 133.55 65.3257C133.9 65.3257 134.229 65.4079 134.496 65.5519C134.764 65.6958 134.99 65.9014 135.154 66.1687C135.319 66.436 135.401 66.7239 135.401 67.0529C135.401 67.423 135.298 67.7726 135.093 68.081C134.887 68.3894 134.599 68.7595 134.208 69.1708L133.242 70.1989H135.586H135.607Z" fill="#D9B96B"/>
<path fill-rule="evenodd" clip-rule="evenodd" d="M113.502 67.0117C114.119 67.0117 114.633 67.5258 114.633 68.1426C114.633 68.7595 114.119 69.2735 113.502 69.2735C112.885 69.2735 112.371 68.7595 112.371 68.1426C112.371 67.5258 112.885 67.0117 113.502 67.0117Z" fill="#D9B96B"/>
<path fill-rule="evenodd" clip-rule="evenodd" d="M140.912 67.0117C141.529 67.0117 142.043 67.5258 142.043 68.1426C142.043 68.7595 141.529 69.2735 140.912 69.2735C140.295 69.2735 139.781 68.7595 139.781 68.1426C139.781 67.5258 140.295 67.0117 140.912 67.0117Z" fill="#D9B96B"/>
</svg>
