<svg width="272" height="210" viewBox="0 0 272 210" fill="none" xmlns="http://www.w3.org/2000/svg">
<path d="M15.9199 134.823H7.89522V153.051H0V109.843H7.89522V127.92H16.1787L28.5824 109.843H37.1032L22.3482 130.767L37.6425 153.051H28.5824L15.9199 134.823Z" fill="#D9B96B"/>
<path d="M62.2344 133.787C65.729 133.787 68.3823 133.054 70.1943 131.565C72.0064 130.077 72.9124 127.963 72.9124 125.202C72.9124 122.441 72.0064 120.326 70.1943 118.838C68.3823 117.35 65.729 116.616 62.2344 116.616H52.8507V133.766H62.2344V133.787ZM62.6227 109.843C66.3762 109.843 69.6335 110.468 72.4162 111.698C75.199 112.927 77.313 114.696 78.8014 117.004C80.2899 119.313 81.0233 122.052 81.0233 125.223C81.0233 128.394 80.2899 131.069 78.8014 133.399C77.313 135.729 75.199 137.498 72.4162 138.727C69.6335 139.957 66.3762 140.582 62.6227 140.582H52.8723V153.051H44.8477V109.843H62.6227Z" fill="#D9B96B"/>
<path d="M124.447 109.843V153.051H116.53V116.616H94.1387V153.051H86.2219V109.843H124.447Z" fill="#D9B96B"/>
<path d="M170.934 153.051L170.869 124.404L156.675 148.111H153.094L138.9 124.77V153.051H131.307V109.843H137.929L155.014 138.404L171.926 109.843H178.463L178.592 153.051H170.934Z" fill="#D9B96B"/>
<path d="M204.413 146.86C207.498 146.86 209.849 146.256 211.445 145.069C213.042 143.883 213.861 142.157 213.861 139.892C213.861 135.448 210.712 133.226 204.413 133.226H193.304V146.86H204.413ZM185.408 109.843H219.038V116.444H193.304V127.057H206.074C211.251 127.057 215.199 128.135 217.895 130.293C220.592 132.45 221.929 135.578 221.929 139.633C221.929 143.904 220.441 147.205 217.485 149.534C214.53 151.864 210.302 153.029 204.823 153.029H185.387V109.821L185.408 109.843Z" fill="#D9B96B"/>
<path d="M256.206 136.743L248.052 117.846L239.963 136.743H256.206ZM258.86 143.041H237.266L233.017 153.051H224.755L244.191 109.843H252.086L271.587 153.051H263.196L258.881 143.041H258.86Z" fill="#D9B96B"/>
<path d="M162.542 14.0647C155.704 7.2265 146.234 2.97689 135.794 2.97689C125.353 2.97689 115.883 7.20493 109.045 14.0647C102.206 20.9029 97.9569 30.3729 97.9569 40.8136C97.9569 51.2542 102.185 60.7242 109.045 67.5624C115.883 74.4006 125.353 78.6502 135.794 78.6502C146.234 78.6502 155.704 74.4222 162.542 67.5624C169.381 60.7242 173.63 51.2542 173.63 40.8136C173.63 30.3729 169.402 20.9029 162.542 14.0647ZM135.794 0C147.054 0 157.257 4.57319 164.656 11.9507C172.034 19.3282 176.607 29.5316 176.607 40.8136C176.607 52.0955 172.034 62.2773 164.656 69.6764C157.279 77.0539 147.076 81.6271 135.794 81.6271C124.512 81.6271 114.308 77.0539 106.931 69.6764C99.5532 62.2989 94.98 52.0955 94.98 40.8136C94.98 29.5316 99.5532 19.3282 106.931 11.9507C114.308 4.57319 124.512 0 135.794 0Z" fill="#D9B96B"/>
<path fill-rule="evenodd" clip-rule="evenodd" d="M123.865 57.4021H100.136C99.6611 56.3666 99.2297 55.3312 98.8198 54.2526L106.089 43.4884C106.176 43.3589 106.348 43.3158 106.478 43.4021C112.496 46.8751 117.997 50.9306 122.872 55.7195C123.282 56.1078 123.67 56.5176 124.08 56.9275C124.167 57.0138 124.188 57.1216 124.145 57.2295C124.102 57.3374 123.994 57.4021 123.886 57.4021" fill="#D9B96B"/>
<path fill-rule="evenodd" clip-rule="evenodd" d="M165.498 43.4883L172.767 54.2525C172.379 55.3311 171.948 56.3665 171.452 57.402H147.723C147.615 57.402 147.507 57.3373 147.464 57.2294C147.421 57.1216 147.442 56.9921 147.529 56.9274C152.684 51.6208 158.595 47.1554 165.131 43.4236C165.261 43.3373 165.433 43.3804 165.519 43.5098" fill="#D9B96B"/>
<path fill-rule="evenodd" clip-rule="evenodd" d="M137.153 1.50985L164.247 41.6547C164.333 41.7626 164.311 41.9136 164.225 42.0214C164.139 42.1293 163.988 42.1508 163.858 42.0646C158.315 38.7641 153.224 34.9459 148.694 30.4806C143.667 25.5622 139.331 19.8673 135.772 13.2448C128.999 25.8427 119.356 35.1185 107.686 42.0646C107.578 42.1293 107.427 42.1077 107.319 42.0214C107.233 41.9136 107.211 41.7841 107.298 41.6547L134.413 1.50985C134.866 1.50985 135.319 1.48828 135.794 1.48828C136.268 1.48828 136.7 1.48828 137.174 1.50985" fill="#D9B96B"/>
<path fill-rule="evenodd" clip-rule="evenodd" d="M146.644 43.1001C144.379 44.3944 142.308 45.8828 140.496 47.6732C138.662 49.4637 137.088 51.5346 135.793 53.9506C134.499 51.5561 132.924 49.4637 131.091 47.6732C129.257 45.8828 127.208 44.3728 124.943 43.1001C129.473 40.533 133.205 37.06 135.793 32.2495C137.088 34.644 138.662 36.7364 140.496 38.5269C142.33 40.3173 144.379 41.8273 146.644 43.1001Z" fill="#E5262B"/>
<path d="M129.689 64.6501V70.1293H128.805V65.6856L127.704 66.0307L127.489 65.2757L129.387 64.6501H129.689Z" fill="#D9B96B"/>
<path d="M132.838 67.5407C133.14 67.5407 133.399 67.4328 133.593 67.2171C133.809 67.0014 133.895 66.7425 133.895 66.4405C133.895 66.1385 133.787 65.8796 133.593 65.6639C133.377 65.4482 133.14 65.3619 132.838 65.3619C132.536 65.3619 132.277 65.4698 132.061 65.6639C131.846 65.8796 131.759 66.1385 131.759 66.4405C131.759 66.7425 131.867 67.0014 132.061 67.2171C132.277 67.4328 132.536 67.5191 132.838 67.5191M132.838 64.5422C133.183 64.5422 133.507 64.6285 133.809 64.7795C134.111 64.9521 134.348 65.1678 134.521 65.4698C134.693 65.7502 134.779 66.0954 134.779 66.4405C134.779 66.6562 134.736 66.8504 134.693 67.0445C134.628 67.2387 134.542 67.3897 134.456 67.5622C134.37 67.7132 134.219 67.929 134.024 68.1878L132.665 70.1293H131.608L132.924 68.2525C132.924 68.2525 132.773 68.2741 132.687 68.2741C132.385 68.2741 132.083 68.1878 131.803 68.0368C131.522 67.8858 131.306 67.6485 131.134 67.3681C130.961 67.0877 130.875 66.7857 130.875 66.4405C130.875 66.0954 130.961 65.7718 131.134 65.4698C131.306 65.1894 131.544 64.9521 131.846 64.7795C132.148 64.6069 132.471 64.5206 132.816 64.5206L132.838 64.5422Z" fill="#D9B96B"/>
<path d="M137.476 67.5407C137.778 67.5407 138.037 67.4328 138.231 67.2171C138.447 67.0014 138.533 66.7425 138.533 66.4405C138.533 66.1385 138.425 65.8796 138.231 65.6639C138.015 65.4482 137.778 65.3619 137.476 65.3619C137.174 65.3619 136.915 65.4698 136.7 65.6639C136.484 65.8796 136.398 66.1385 136.398 66.4405C136.398 66.7425 136.505 67.0014 136.7 67.2171C136.915 67.4328 137.174 67.5191 137.476 67.5191M137.476 64.5422C137.821 64.5422 138.145 64.6285 138.447 64.7795C138.749 64.9521 138.986 65.1678 139.159 65.4698C139.331 65.7502 139.418 66.0954 139.418 66.4405C139.418 66.6562 139.396 66.8504 139.331 67.0445C139.267 67.2387 139.18 67.3897 139.094 67.5622C139.008 67.7132 138.857 67.929 138.663 68.1878L137.304 70.1293H136.247L137.562 68.2525C137.562 68.2525 137.411 68.2741 137.325 68.2741C137.023 68.2741 136.721 68.1878 136.441 68.0368C136.16 67.8858 135.945 67.6485 135.772 67.3681C135.599 67.0877 135.513 66.7857 135.513 66.4405C135.513 66.0954 135.599 65.7718 135.772 65.4698C135.945 65.1894 136.182 64.9521 136.484 64.7795C136.786 64.6069 137.109 64.5206 137.455 64.5206L137.476 64.5422Z" fill="#D9B96B"/>
<path d="M144.098 69.3743V70.1293H140.151V69.9351L142.114 67.8211C142.416 67.4975 142.632 67.2171 142.783 67.0014C142.912 66.7857 142.998 66.5484 142.998 66.3111C142.998 66.0306 142.912 65.7934 142.739 65.6208C142.567 65.4266 142.351 65.3404 142.071 65.3404C141.79 65.3404 141.575 65.4266 141.402 65.6208C141.229 65.8149 141.143 66.0522 141.143 66.3326C141.143 66.4405 141.143 66.5915 141.186 66.7641H140.302C140.259 66.6131 140.237 66.4621 140.237 66.2895C140.237 65.9875 140.302 65.7071 140.453 65.4266C140.604 65.1678 140.82 64.9305 141.1 64.7795C141.38 64.6069 141.704 64.5206 142.071 64.5206C142.416 64.5206 142.739 64.5853 142.998 64.7363C143.279 64.8873 143.494 65.0815 143.645 65.3404C143.796 65.5992 143.883 65.8796 143.883 66.2032C143.883 66.5699 143.775 66.9151 143.581 67.2171C143.387 67.5191 143.085 67.8858 142.718 68.2957L141.747 69.3095H144.077L144.098 69.3743Z" fill="#D9B96B"/>
<path fill-rule="evenodd" clip-rule="evenodd" d="M122.246 66.2249C122.872 66.2249 123.368 66.721 123.368 67.3466C123.368 67.9722 122.872 68.4683 122.246 68.4683C121.621 68.4683 121.125 67.9722 121.125 67.3466C121.125 66.721 121.621 66.2249 122.246 66.2249Z" fill="#D9B96B"/>
<path fill-rule="evenodd" clip-rule="evenodd" d="M149.319 66.2249C149.944 66.2249 150.44 66.721 150.44 67.3466C150.44 67.9722 149.944 68.4683 149.319 68.4683C148.693 68.4683 148.197 67.9722 148.197 67.3466C148.197 66.721 148.693 66.2249 149.319 66.2249Z" fill="#D9B96B"/>
<path d="M268.394 170.589C267.92 170.589 267.51 170.74 267.143 171.042C266.798 171.344 266.561 171.732 266.453 172.25H270.12C270.12 171.732 269.948 171.344 269.602 171.042C269.257 170.74 268.869 170.61 268.394 170.61M271.458 173.372H266.431C266.518 173.911 266.777 174.364 267.165 174.666C267.553 174.989 268.049 175.14 268.632 175.14C269.344 175.14 269.991 174.882 270.595 174.342L271.285 175.335C270.508 176.068 269.624 176.413 268.589 176.413C267.898 176.413 267.273 176.262 266.733 175.96C266.173 175.658 265.741 175.227 265.439 174.687C265.116 174.148 264.965 173.544 264.965 172.897C264.965 172.25 265.116 171.646 265.418 171.107C265.72 170.567 266.151 170.136 266.69 169.834C267.23 169.532 267.812 169.359 268.459 169.359C269.063 169.359 269.581 169.489 270.055 169.769C270.53 170.05 270.897 170.416 271.177 170.869C271.458 171.344 271.587 171.862 271.587 172.444C271.587 172.724 271.544 173.026 271.479 173.35L271.458 173.372ZM257.479 169.51H258.946V172.099H261.837V169.51H263.282V176.262H261.837V173.35H258.946V176.262H257.479V169.51ZM255.365 169.359V176.262H253.898V172.077L249.972 176.413H249.455V169.51H250.921V173.738L254.869 169.359H255.365ZM244.558 170.761H242.379V169.51H248.16V170.761H245.982V176.262H244.536V170.761H244.558ZM235.304 169.51H236.77V172.099H239.661V169.51H241.106V176.262H239.661V173.35H236.77V176.262H235.304V169.51ZM230.45 170.589C229.975 170.589 229.565 170.74 229.199 171.042C228.854 171.344 228.616 171.732 228.508 172.25H232.176C232.176 171.732 232.003 171.344 231.658 171.042C231.334 170.74 230.924 170.61 230.45 170.61V170.589ZM233.535 173.372H228.508C228.595 173.911 228.854 174.364 229.242 174.666C229.63 174.989 230.126 175.14 230.709 175.14C231.421 175.14 232.068 174.882 232.672 174.342L233.362 175.335C232.586 176.068 231.701 176.413 230.666 176.413C229.975 176.413 229.35 176.262 228.81 175.96C228.25 175.658 227.818 175.227 227.516 174.687C227.193 174.148 227.042 173.544 227.042 172.897C227.042 172.25 227.193 171.646 227.495 171.107C227.797 170.567 228.228 170.136 228.767 169.834C229.307 169.532 229.889 169.359 230.536 169.359C231.14 169.359 231.658 169.489 232.133 169.769C232.607 170.05 232.974 170.416 233.254 170.869C233.513 171.344 233.664 171.862 233.664 172.444C233.664 172.724 233.621 173.026 233.556 173.35L233.535 173.372ZM220.549 175.011H223.525V170.761H221.26V171.452C221.217 173.091 220.98 174.278 220.549 175.011ZM226.071 175.011V178.204H224.669V176.262H219.707V178.204H218.284V175.011H219.039C219.319 174.709 219.535 174.256 219.664 173.674C219.794 173.091 219.88 172.293 219.901 171.322L219.966 169.532H224.971V175.033H226.092L226.071 175.011ZM217.162 169.359V176.262H215.695V172.077L211.769 176.413H211.251V169.51H212.718V173.738L216.666 169.359H217.162ZM208.512 172.703C208.857 172.875 209.116 173.091 209.288 173.372C209.461 173.652 209.547 173.954 209.547 174.299C209.547 174.968 209.31 175.486 208.835 175.852C208.361 176.219 207.713 176.413 206.894 176.413C205.707 176.413 204.801 175.982 204.154 175.14L205.039 174.278C205.254 174.536 205.513 174.752 205.794 174.903C206.074 175.054 206.419 175.14 206.829 175.14C207.239 175.14 207.562 175.054 207.778 174.882C207.994 174.709 208.123 174.493 208.123 174.191C208.123 173.932 208.015 173.717 207.8 173.544C207.584 173.393 207.282 173.307 206.894 173.307H206.117V172.142H206.851C207.153 172.142 207.411 172.077 207.562 171.926C207.735 171.797 207.8 171.603 207.8 171.365C207.8 171.128 207.713 170.956 207.541 170.826C207.368 170.697 207.109 170.61 206.786 170.61C206.419 170.61 206.096 170.675 205.837 170.805C205.578 170.934 205.341 171.128 205.146 171.365L204.262 170.503C204.542 170.136 204.909 169.855 205.362 169.64C205.815 169.424 206.311 169.316 206.872 169.316C207.606 169.316 208.188 169.489 208.598 169.812C209.029 170.157 209.223 170.61 209.223 171.214C209.223 171.516 209.159 171.797 209.029 172.034C208.9 172.271 208.727 172.487 208.49 172.638L208.512 172.703ZM199.991 170.589C199.516 170.589 199.106 170.74 198.74 171.042C198.394 171.344 198.157 171.732 198.049 172.25H201.716C201.716 171.732 201.544 171.344 201.199 171.042C200.875 170.74 200.465 170.61 199.991 170.61V170.589ZM203.054 173.372H198.028C198.114 173.911 198.373 174.364 198.761 174.666C199.149 174.989 199.646 175.14 200.228 175.14C200.94 175.14 201.587 174.882 202.191 174.342L202.881 175.335C202.105 176.068 201.22 176.413 200.185 176.413C199.495 176.413 198.869 176.262 198.33 175.96C197.769 175.658 197.337 175.227 197.035 174.687C196.712 174.148 196.561 173.544 196.561 172.897C196.561 172.25 196.712 171.646 197.014 171.107C197.316 170.567 197.747 170.136 198.287 169.834C198.826 169.532 199.408 169.359 200.055 169.359C200.659 169.359 201.177 169.489 201.652 169.769C202.126 170.05 202.493 170.416 202.773 170.869C203.054 171.344 203.183 171.862 203.183 172.444C203.183 172.724 203.14 173.026 203.076 173.35L203.054 173.372ZM191.772 175.097C192.16 175.097 192.505 175.011 192.807 174.817C193.109 174.623 193.368 174.364 193.541 174.04C193.713 173.717 193.821 173.328 193.821 172.897C193.821 172.466 193.735 172.077 193.562 171.754C193.39 171.409 193.131 171.15 192.829 170.977C192.505 170.783 192.16 170.697 191.772 170.697C191.405 170.697 191.082 170.783 190.78 170.934C190.478 171.085 190.219 171.344 190.025 171.667C189.83 171.991 189.744 172.401 189.744 172.897C189.744 173.393 189.83 173.803 190.025 174.127C190.219 174.472 190.456 174.709 190.78 174.86C191.082 175.011 191.427 175.097 191.772 175.097ZM192.009 169.359C192.635 169.359 193.217 169.51 193.713 169.812C194.21 170.114 194.619 170.546 194.9 171.085C195.18 171.624 195.331 172.228 195.331 172.875C195.331 173.523 195.18 174.148 194.9 174.687C194.619 175.227 194.231 175.637 193.713 175.96C193.217 176.262 192.635 176.413 192.009 176.413C191.556 176.413 191.125 176.327 190.737 176.154C190.348 175.982 190.025 175.744 189.744 175.442V178.743H188.299V169.51H189.636V170.459C189.874 170.114 190.219 169.834 190.629 169.64C191.039 169.446 191.492 169.359 191.988 169.359H192.009ZM178.829 167.202H186.163V176.284H184.696V168.518H180.274V176.284H178.807V167.202H178.829ZM166.986 169.51H168.453V172.099H171.344V169.51H172.789V176.262H171.344V173.35H168.453V176.262H166.986V169.51ZM159.846 175.011C160.234 175.011 160.536 174.925 160.752 174.752C160.968 174.58 161.075 174.321 161.075 173.976C161.075 173.63 160.968 173.372 160.752 173.199C160.536 173.026 160.234 172.919 159.824 172.919H158.487V175.033H159.846V175.011ZM163.405 169.51H164.851V176.262H163.405V169.51ZM157.02 169.51H158.487V171.646H159.911C160.709 171.646 161.334 171.862 161.83 172.271C162.327 172.681 162.564 173.242 162.564 173.954C162.564 174.666 162.327 175.227 161.83 175.637C161.334 176.046 160.709 176.262 159.911 176.262H157.042V169.51H157.02ZM149.103 169.51H150.57V172.099H153.461V169.51H154.906V176.262H153.461V173.35H150.57V176.262H149.103V169.51ZM141.963 175.011C142.351 175.011 142.653 174.925 142.869 174.752C143.085 174.58 143.193 174.321 143.193 173.976C143.193 173.63 143.085 173.372 142.869 173.199C142.653 173.026 142.351 172.919 141.941 172.919H140.604V175.033H141.963V175.011ZM145.522 169.51H146.968V176.262H145.522V169.51ZM139.137 169.51H140.604V171.646H142.028C142.826 171.646 143.451 171.862 143.948 172.271C144.444 172.681 144.681 173.242 144.681 173.954C144.681 174.666 144.444 175.227 143.948 175.637C143.451 176.046 142.826 176.262 142.028 176.262H139.159V169.51H139.137ZM134.672 176.413C134.003 176.413 133.399 176.262 132.86 175.939C132.32 175.637 131.889 175.205 131.565 174.666C131.242 174.127 131.091 173.523 131.091 172.875C131.091 172.228 131.242 171.624 131.565 171.085C131.889 170.546 132.32 170.114 132.86 169.812C133.421 169.51 134.003 169.338 134.672 169.338C135.341 169.338 135.858 169.467 136.333 169.748C136.829 170.028 137.217 170.416 137.498 170.891L136.484 171.689C135.988 170.999 135.384 170.654 134.672 170.654C134.262 170.654 133.917 170.74 133.593 170.934C133.27 171.128 133.011 171.387 132.838 171.732C132.644 172.077 132.558 172.444 132.558 172.832C132.558 173.221 132.644 173.609 132.838 173.954C133.011 174.278 133.27 174.558 133.593 174.752C133.917 174.946 134.284 175.033 134.672 175.033C135.384 175.033 135.988 174.687 136.484 174.019L137.498 174.795C137.196 175.291 136.807 175.658 136.311 175.939C135.815 176.219 135.276 176.348 134.65 176.348L134.672 176.413ZM126.324 175.313C126.82 175.313 127.23 175.162 127.553 174.86C127.898 174.558 128.071 174.17 128.071 173.717V173.587H126.345C125.957 173.587 125.655 173.652 125.461 173.803C125.245 173.932 125.159 174.148 125.159 174.429C125.159 174.709 125.267 174.925 125.482 175.097C125.698 175.248 125.978 175.335 126.345 175.335L126.324 175.313ZM126.755 169.359C127.596 169.359 128.265 169.597 128.761 170.093C129.257 170.589 129.516 171.279 129.516 172.185V176.262H128.179V175.507C127.941 175.809 127.618 176.025 127.251 176.176C126.884 176.327 126.475 176.413 126.022 176.413C125.31 176.413 124.749 176.241 124.317 175.874C123.886 175.507 123.67 175.054 123.67 174.45C123.67 173.846 123.886 173.393 124.339 173.048C124.792 172.703 125.396 172.53 126.151 172.53H128.071V172.099C128.071 171.624 127.941 171.279 127.683 171.02C127.424 170.783 127.079 170.654 126.626 170.654C126.259 170.654 125.914 170.74 125.612 170.891C125.31 171.063 125.029 171.301 124.749 171.646L123.908 170.783C124.253 170.287 124.663 169.942 125.137 169.704C125.633 169.467 126.151 169.338 126.755 169.338V169.359ZM123.002 176.262H121.233L118.32 172.638L121.039 169.51H122.743L120.025 172.595L123.002 176.262ZM116.81 169.51H118.277V176.262H116.81V169.51ZM114.696 169.359V176.262H113.23V172.077L109.304 176.413H108.786V169.51H110.253V173.738L114.2 169.359H114.696ZM106.672 169.51V176.262H105.226V170.761H103.048V171.43C103.005 172.595 102.918 173.523 102.767 174.234C102.616 174.946 102.379 175.464 102.055 175.809C101.732 176.154 101.3 176.327 100.761 176.327C100.567 176.327 100.394 176.305 100.243 176.241V175.033C100.351 175.033 100.438 175.054 100.524 175.054C100.934 175.054 101.214 174.752 101.387 174.127C101.559 173.501 101.667 172.53 101.667 171.171V169.489H106.65L106.672 169.51ZM95.9507 175.076C96.339 175.076 96.6841 174.989 97.0077 174.795C97.3313 174.601 97.5686 174.364 97.7627 174.04C97.9569 173.717 98.0431 173.372 98.0431 173.005C98.0431 172.638 97.9569 172.293 97.7627 171.969C97.5901 171.646 97.3313 171.409 97.0077 171.214C96.6841 171.02 96.339 170.934 95.9507 170.934C95.5624 170.934 95.2388 171.02 94.9153 171.214C94.5917 171.387 94.3544 171.646 94.1602 171.969C93.9661 172.293 93.8798 172.638 93.8798 173.005C93.8798 173.372 93.9661 173.738 94.1602 174.04C94.3544 174.364 94.5917 174.623 94.9153 174.795C95.2388 174.968 95.584 175.076 95.9507 175.076ZM96.2311 169.618C96.8351 169.618 97.3744 169.769 97.8706 170.071C98.3667 170.373 98.7766 170.783 99.057 171.301C99.3374 171.818 99.4884 172.379 99.4884 173.005C99.4884 173.63 99.3374 174.213 99.0139 174.731C98.7119 175.248 98.2804 175.658 97.7411 175.96C97.2019 176.262 96.5978 176.413 95.9507 176.413C95.2388 176.413 94.6348 176.241 94.0955 175.917C93.5562 175.593 93.1464 175.14 92.8444 174.536C92.5424 173.954 92.3914 173.264 92.3914 172.487V171.409C92.3914 170.373 92.4992 169.51 92.7365 168.842C92.9738 168.173 93.4052 167.612 94.0308 167.181C94.6564 166.749 95.584 166.426 96.7704 166.253C97.8274 166.102 98.5393 165.951 98.906 165.8V167.137C98.4746 167.31 97.7843 167.461 96.8351 167.569C95.9507 167.677 95.3035 167.871 94.8505 168.151C94.3975 168.432 94.1171 168.798 93.9877 169.208C93.8582 169.64 93.772 170.179 93.772 170.848C94.0524 170.459 94.3975 170.157 94.829 169.92C95.2604 169.704 95.735 169.597 96.2527 169.597L96.2311 169.618ZM91.3775 169.51L88.0986 177.039C87.8182 177.686 87.473 178.16 87.0847 178.441C86.6964 178.743 86.2003 178.894 85.6179 178.894C85.2512 178.894 84.8629 178.851 84.4961 178.764V177.535C84.9276 177.578 85.1864 177.6 85.2943 177.6C85.6394 177.6 85.9199 177.535 86.1572 177.384C86.3944 177.233 86.5886 176.974 86.7612 176.607L87.0416 175.982L84.3451 169.532H85.8983L87.8398 174.45L89.8243 169.532H91.3559L91.3775 169.51ZM77.2912 169.51H83.0293V176.262H81.5624V170.761H78.7365V176.262H77.2696V169.51H77.2912ZM72.8475 176.413C72.1787 176.413 71.5747 176.262 71.0354 175.939C70.4961 175.637 70.0647 175.205 69.7411 174.666C69.4176 174.127 69.2666 173.523 69.2666 172.875C69.2666 172.228 69.4176 171.624 69.7411 171.085C70.0647 170.546 70.4961 170.114 71.0354 169.812C71.5747 169.51 72.1787 169.338 72.8259 169.338C73.473 169.338 74.0123 169.467 74.4869 169.748C74.983 170.028 75.3713 170.416 75.6518 170.891L74.6379 171.689C74.1418 170.999 73.5377 170.654 72.8259 170.654C72.416 170.654 72.0709 170.74 71.7473 170.934C71.4237 171.128 71.1649 171.387 70.9923 171.732C70.7981 172.077 70.7119 172.444 70.7119 172.832C70.7119 173.221 70.7981 173.609 70.9923 173.954C71.1649 174.278 71.4237 174.558 71.7473 174.752C72.0709 174.946 72.4376 175.033 72.8259 175.033C73.5377 175.033 74.1418 174.687 74.6379 174.019L75.6518 174.795C75.3498 175.291 74.9615 175.658 74.4653 175.939C73.9692 176.219 73.4299 176.348 72.8043 176.348L72.8475 176.413ZM64.8659 170.589C64.3914 170.589 63.9815 170.74 63.6148 171.042C63.2481 171.344 63.0324 171.732 62.9245 172.25H66.5917C66.5917 171.732 66.4191 171.344 66.074 171.042C65.7288 170.74 65.3405 170.61 64.8659 170.61V170.589ZM67.9291 173.372H62.9029C62.9892 173.911 63.2481 174.364 63.6364 174.666C64.0247 174.989 64.5208 175.14 65.1032 175.14C65.8151 175.14 66.4622 174.882 67.0663 174.342L67.7565 175.335C66.98 176.068 66.0955 176.413 65.0601 176.413C64.3698 176.413 63.7442 176.262 63.2049 175.96C62.6656 175.658 62.2126 175.227 61.9106 174.687C61.5871 174.148 61.4361 173.544 61.4361 172.897C61.4361 172.25 61.5871 171.646 61.8891 171.107C62.1911 170.567 62.6225 170.136 63.1618 169.834C63.7011 169.532 64.2835 169.359 64.9307 169.359C65.5347 169.359 66.0524 169.489 66.527 169.769C67.0015 170.05 67.3683 170.416 67.6487 170.869C67.9291 171.344 68.0585 171.862 68.0585 172.444C68.0585 172.724 68.0154 173.026 67.9507 173.35L67.9291 173.372ZM57.3806 171.473C57.8983 171.473 58.2866 171.344 58.567 171.063C58.8475 170.783 58.9769 170.438 58.9769 169.985C58.9769 169.532 58.8475 169.165 58.567 168.906C58.2866 168.626 57.8983 168.496 57.3806 168.496H55.547V171.473H57.3806ZM54.1017 167.202H57.4237C58.0277 167.202 58.567 167.31 59.0416 167.547C59.5162 167.785 59.8613 168.108 60.1202 168.54C60.379 168.971 60.5085 169.446 60.5085 169.985C60.5085 170.524 60.379 170.999 60.1202 171.43C59.8613 171.862 59.4946 172.185 59.0416 172.422C58.567 172.66 58.0277 172.789 57.4237 172.789H55.5686V176.305H54.1017V167.224V167.202ZM47.4145 172.703C47.7596 172.875 48.0185 173.091 48.1911 173.372C48.3636 173.652 48.4499 173.954 48.4499 174.299C48.4499 174.968 48.2126 175.486 47.7381 175.852C47.2635 176.219 46.6163 176.413 45.7966 176.413C44.6102 176.413 43.7042 175.982 43.057 175.14L43.9414 174.278C44.1572 174.536 44.416 174.752 44.6965 174.903C44.9769 175.054 45.322 175.14 45.7319 175.14C46.1418 175.14 46.4653 175.054 46.681 174.882C46.8968 174.709 47.0262 174.493 47.0262 174.191C47.0262 173.932 46.9183 173.717 46.7026 173.544C46.4869 173.393 46.1849 173.307 45.7966 173.307H45.02V172.142H45.7535C46.0555 172.142 46.2928 172.077 46.4653 171.926C46.6379 171.797 46.7026 171.603 46.7026 171.365C46.7026 171.128 46.6163 170.956 46.4438 170.826C46.2712 170.697 46.0123 170.61 45.6888 170.61C45.322 170.61 44.9985 170.675 44.7396 170.805C44.4807 170.934 44.2435 171.128 44.0277 171.365L43.1433 170.503C43.4237 170.136 43.7904 169.855 44.2435 169.64C44.6965 169.424 45.1926 169.316 45.7535 169.316C46.4869 169.316 47.0693 169.489 47.4792 169.812C47.9106 170.157 48.1048 170.61 48.1048 171.214C48.1048 171.516 48.0401 171.797 47.9106 172.034C47.7812 172.271 47.6086 172.487 47.3713 172.638L47.4145 172.703ZM36.4345 175.011C36.8228 175.011 37.1248 174.925 37.3405 174.752C37.5562 174.58 37.6641 174.321 37.6641 173.976C37.6641 173.63 37.5562 173.372 37.3405 173.199C37.1248 173.026 36.8228 172.919 36.4129 172.919H35.0755V175.033H36.4345V175.011ZM40.0154 169.51H41.4607V176.262H40.0154V169.51ZM33.6086 169.51H35.0755V171.646H36.4992C37.2974 171.646 37.923 171.862 38.4191 172.271C38.9153 172.681 39.1525 173.242 39.1525 173.954C39.1525 174.666 38.9153 175.227 38.4191 175.637C37.923 176.046 37.2974 176.262 36.4992 176.262H33.6302V169.51H33.6086ZM27.5039 169.51H32.2712V170.761H28.9707V176.262H27.5039V169.51ZM22.2835 175.097C22.6718 175.097 23.0169 175.011 23.319 174.817C23.621 174.623 23.8798 174.364 24.0524 174.04C24.225 173.717 24.3328 173.328 24.3328 172.897C24.3328 172.466 24.2465 172.077 24.074 171.754C23.9014 171.409 23.6425 171.15 23.3405 170.977C23.0169 170.783 22.6718 170.697 22.2835 170.697C21.9168 170.697 21.5932 170.783 21.2912 170.934C20.9892 171.085 20.7304 171.344 20.5362 171.667C20.3421 171.991 20.2558 172.401 20.2558 172.897C20.2558 173.393 20.3421 173.803 20.5362 174.127C20.7304 174.472 20.9676 174.709 21.2912 174.86C21.5932 175.011 21.9384 175.097 22.2835 175.097ZM22.5208 169.359C23.1464 169.359 23.7288 169.51 24.225 169.812C24.7211 170.114 25.131 170.546 25.4114 171.085C25.6918 171.624 25.8428 172.228 25.8428 172.875C25.8428 173.523 25.6918 174.148 25.4114 174.687C25.131 175.227 24.7427 175.637 24.225 175.96C23.7288 176.262 23.1464 176.413 22.5208 176.413C22.0678 176.413 21.6364 176.327 21.2481 176.154C20.8598 175.982 20.5362 175.744 20.2558 175.442V178.743H18.8105V169.51H20.1479V170.459C20.3852 170.114 20.7304 169.834 21.1402 169.64C21.5501 169.446 22.0031 169.359 22.4992 169.359H22.5208ZM11.6918 175.011C12.0801 175.011 12.3821 174.925 12.5978 174.752C12.8136 174.58 12.9214 174.321 12.9214 173.976C12.9214 173.63 12.8136 173.372 12.5978 173.199C12.3821 173.026 12.0801 172.919 11.6703 172.919H10.3328V175.033H11.6918V175.011ZM15.2512 169.51H16.6965V176.262H15.2512V169.51ZM8.86595 169.51H10.3328V171.646H11.7565C12.5547 171.646 13.1803 171.862 13.6764 172.271C14.1726 172.681 14.4099 173.242 14.4099 173.954C14.4099 174.666 14.1726 175.227 13.6764 175.637C13.1803 176.046 12.5547 176.262 11.7565 176.262H8.88752V169.51H8.86595ZM7.50693 176.262H5.71649L1.51002 171.43L5.3282 167.181H7.11864L3.34361 171.43L7.52851 176.262H7.50693ZM0 167.202H1.46687V176.284H0V167.202Z" fill="#D9B96B"/>
<path d="M264.857 190.564C265.245 190.564 265.547 190.478 265.763 190.305C265.979 190.133 266.086 189.874 266.086 189.529C266.086 189.184 265.979 188.925 265.763 188.752C265.547 188.558 265.245 188.472 264.835 188.472H263.498V190.586H264.857V190.564ZM268.416 185.063H269.861V191.815H268.416V185.063ZM262.031 185.063H263.498V187.199H264.922C265.72 187.199 266.345 187.415 266.841 187.825C267.338 188.234 267.575 188.795 267.575 189.507C267.575 190.219 267.338 190.78 266.841 191.19C266.345 191.6 265.72 191.815 264.922 191.815H262.053V185.063H262.031ZM255.926 185.063H260.694V186.315H257.393V191.815H255.926V185.063ZM250.706 190.866C251.202 190.866 251.612 190.715 251.935 190.413C252.281 190.111 252.453 189.723 252.453 189.27V189.14H250.727C250.339 189.14 250.037 189.205 249.843 189.356C249.627 189.486 249.541 189.701 249.541 189.982C249.541 190.262 249.649 190.478 249.865 190.65C250.08 190.801 250.361 190.888 250.706 190.888V190.866ZM251.137 184.912C251.979 184.912 252.647 185.15 253.143 185.646C253.64 186.142 253.898 186.832 253.898 187.738V191.815H252.561V191.06C252.324 191.362 252 191.578 251.633 191.729C251.267 191.88 250.857 191.966 250.404 191.966C249.692 191.966 249.131 191.794 248.7 191.427C248.268 191.06 248.053 190.607 248.053 190.003C248.053 189.399 248.268 188.946 248.721 188.601C249.174 188.256 249.778 188.083 250.533 188.083H252.453V187.652C252.453 187.177 252.324 186.832 252.065 186.573C251.806 186.336 251.461 186.207 251.008 186.207C250.641 186.207 250.296 186.293 249.994 186.444C249.692 186.617 249.412 186.854 249.131 187.199L248.29 186.336C248.635 185.84 249.045 185.495 249.519 185.257C250.016 185.02 250.533 184.891 251.137 184.891V184.912ZM241.495 190.564H244.472V186.315H242.207V187.005C242.163 188.644 241.926 189.831 241.495 190.564ZM247.039 190.564V193.757H245.637V191.815H240.675V193.757H239.251V190.564H240.006C240.287 190.262 240.502 189.809 240.632 189.227C240.761 188.644 240.848 187.846 240.869 186.875L240.934 185.063H245.939V190.564H247.06H247.039ZM232.305 185.063H233.772V187.652H236.663V185.063H238.108V191.815H236.663V188.903H233.772V191.815H232.305V185.063ZM225.165 190.564C225.553 190.564 225.855 190.478 226.071 190.305C226.287 190.133 226.395 189.874 226.395 189.529C226.395 189.184 226.287 188.925 226.071 188.752C225.855 188.558 225.553 188.472 225.143 188.472H223.806V190.586H225.165V190.564ZM228.724 185.063H230.17V191.815H228.724V185.063ZM222.339 185.063H223.806V187.199H225.23C226.028 187.199 226.653 187.415 227.15 187.825C227.646 188.234 227.883 188.795 227.883 189.507C227.883 190.219 227.646 190.78 227.15 191.19C226.653 191.6 226.028 191.815 225.23 191.815H222.361V185.063H222.339ZM217.442 186.315H215.264V185.063H221.045V186.315H218.866V191.815H217.421V186.315H217.442ZM211.014 190.866C211.51 190.866 211.92 190.715 212.244 190.413C212.589 190.111 212.761 189.723 212.761 189.27V189.14H211.036C210.647 189.14 210.345 189.205 210.151 189.356C209.935 189.486 209.849 189.701 209.849 189.982C209.849 190.262 209.957 190.478 210.173 190.65C210.388 190.801 210.669 190.888 211.036 190.888L211.014 190.866ZM211.445 184.912C212.287 184.912 212.955 185.15 213.452 185.646C213.948 186.142 214.207 186.832 214.207 187.738V191.815H212.869V191.06C212.632 191.362 212.308 191.578 211.942 191.729C211.575 191.88 211.165 191.966 210.712 191.966C210 191.966 209.439 191.794 209.008 191.427C208.576 191.06 208.361 190.607 208.361 190.003C208.361 189.399 208.576 188.946 209.029 188.601C209.482 188.256 210.086 188.083 210.841 188.083H212.761V187.652C212.761 187.177 212.632 186.832 212.373 186.573C212.114 186.336 211.769 186.207 211.316 186.207C210.949 186.207 210.604 186.293 210.302 186.444C210 186.617 209.72 186.854 209.439 187.199L208.598 186.336C208.943 185.84 209.353 185.495 209.828 185.257C210.324 185.02 210.841 184.891 211.445 184.891V184.912ZM200.703 190.672C201.07 190.672 201.35 190.586 201.566 190.413C201.781 190.241 201.868 190.025 201.868 189.744C201.868 189.464 201.76 189.27 201.566 189.119C201.35 188.968 201.07 188.882 200.703 188.882H198.891V190.672H200.703ZM198.891 187.76H200.379C201.026 187.76 201.35 187.501 201.35 186.983C201.35 186.466 201.026 186.228 200.379 186.228H198.891V187.76ZM202.083 188.17C202.45 188.299 202.731 188.515 202.946 188.774C203.14 189.054 203.248 189.378 203.248 189.766C203.248 190.37 203.033 190.866 202.58 191.254C202.127 191.643 201.566 191.815 200.832 191.815H197.467V185.063H200.444C201.113 185.063 201.652 185.236 202.083 185.559C202.515 185.905 202.709 186.336 202.709 186.897C202.709 187.156 202.666 187.393 202.558 187.609C202.45 187.825 202.299 188.019 202.105 188.148L202.083 188.17ZM192.225 190.629C192.613 190.629 192.98 190.543 193.304 190.348C193.627 190.154 193.886 189.895 194.059 189.55C194.231 189.205 194.339 188.838 194.339 188.45C194.339 188.062 194.253 187.652 194.059 187.328C193.865 186.983 193.627 186.724 193.304 186.53C192.98 186.336 192.635 186.25 192.247 186.25C191.858 186.25 191.492 186.336 191.168 186.53C190.845 186.724 190.586 186.983 190.413 187.328C190.219 187.674 190.133 188.04 190.133 188.45C190.133 188.86 190.219 189.227 190.413 189.572C190.607 189.895 190.845 190.176 191.168 190.348C191.492 190.543 191.837 190.629 192.225 190.629ZM192.225 191.966C191.578 191.966 190.974 191.815 190.435 191.492C189.895 191.168 189.464 190.737 189.14 190.197C188.817 189.658 188.666 189.076 188.666 188.429C188.666 187.781 188.817 187.177 189.14 186.638C189.464 186.099 189.895 185.667 190.435 185.365C190.974 185.063 191.578 184.891 192.225 184.891C192.872 184.891 193.498 185.042 194.037 185.365C194.598 185.667 195.029 186.099 195.331 186.638C195.655 187.177 195.806 187.76 195.806 188.407C195.806 189.054 195.655 189.637 195.331 190.176C195.008 190.715 194.576 191.147 194.037 191.47C193.498 191.794 192.872 191.945 192.225 191.945V191.966ZM181.18 185.063H182.647V187.652H185.538V185.063H186.983V191.815H185.538V188.903H182.647V191.815H181.18V185.063ZM175.96 190.866C176.456 190.866 176.866 190.715 177.19 190.413C177.513 190.111 177.707 189.723 177.707 189.27V189.14H175.982C175.593 189.14 175.291 189.205 175.097 189.356C174.882 189.486 174.795 189.701 174.795 189.982C174.795 190.262 174.903 190.478 175.119 190.65C175.335 190.801 175.615 190.888 175.982 190.888L175.96 190.866ZM176.392 184.912C177.233 184.912 177.902 185.15 178.398 185.646C178.894 186.142 179.153 186.832 179.153 187.738V191.815H177.815V191.06C177.578 191.362 177.254 191.578 176.888 191.729C176.521 191.88 176.111 191.966 175.658 191.966C174.946 191.966 174.385 191.794 173.954 191.427C173.523 191.06 173.307 190.607 173.307 190.003C173.307 189.399 173.523 188.946 173.976 188.601C174.429 188.256 175.033 188.083 175.788 188.083H177.707V187.652C177.707 187.177 177.578 186.832 177.319 186.573C177.06 186.336 176.715 186.207 176.262 186.207C175.895 186.207 175.55 186.293 175.248 186.444C174.946 186.617 174.666 186.854 174.385 187.199L173.544 186.336C173.889 185.84 174.299 185.495 174.774 185.257C175.27 185.02 175.788 184.891 176.392 184.891V184.912ZM164.333 184.912H164.851L168.022 188.58L171.214 184.912H171.689V191.815H170.244V187.911L168.259 190.197H167.741L165.778 187.911V191.794H164.311V184.891L164.333 184.912ZM161.421 191.815L159.738 189.335L158.056 191.815H156.416L158.919 188.299L156.589 185.063H158.228L159.738 187.285L161.227 185.063H162.866L160.536 188.321L163.06 191.815H161.421ZM152.059 190.866C152.555 190.866 152.965 190.715 153.288 190.413C153.633 190.111 153.806 189.723 153.806 189.27V189.14H152.08C151.692 189.14 151.39 189.205 151.196 189.356C150.98 189.486 150.894 189.701 150.894 189.982C150.894 190.262 151.002 190.478 151.217 190.65C151.433 190.801 151.714 190.888 152.08 190.888L152.059 190.866ZM152.49 184.912C153.331 184.912 154 185.15 154.496 185.646C154.992 186.142 155.251 186.832 155.251 187.738V191.815H153.914V191.06C153.677 191.362 153.353 191.578 152.986 191.729C152.62 191.88 152.21 191.966 151.757 191.966C151.045 191.966 150.484 191.794 150.053 191.427C149.621 191.06 149.405 190.607 149.405 190.003C149.405 189.399 149.621 188.946 150.074 188.601C150.527 188.256 151.131 188.083 151.886 188.083H153.806V187.652C153.806 187.177 153.677 186.832 153.418 186.573C153.159 186.336 152.814 186.207 152.361 186.207C151.994 186.207 151.649 186.293 151.347 186.444C151.045 186.617 150.764 186.854 150.484 187.199L149.643 186.336C149.988 185.84 150.398 185.495 150.872 185.257C151.368 185.02 151.886 184.891 152.49 184.891V184.912ZM144.681 190.65C145.07 190.65 145.415 190.564 145.717 190.37C146.019 190.176 146.278 189.917 146.45 189.593C146.644 189.27 146.731 188.882 146.731 188.45C146.731 188.019 146.644 187.63 146.472 187.307C146.299 186.962 146.04 186.703 145.738 186.53C145.415 186.336 145.07 186.25 144.681 186.25C144.314 186.25 143.991 186.336 143.689 186.487C143.387 186.638 143.128 186.897 142.934 187.221C142.74 187.544 142.653 187.954 142.653 188.45C142.653 188.946 142.74 189.356 142.934 189.68C143.128 190.025 143.387 190.262 143.689 190.413C143.991 190.564 144.336 190.65 144.681 190.65ZM144.919 184.912C145.544 184.912 146.127 185.063 146.623 185.365C147.119 185.667 147.529 186.099 147.809 186.638C148.09 187.177 148.241 187.781 148.241 188.429C148.241 189.076 148.09 189.701 147.809 190.241C147.529 190.78 147.14 191.19 146.623 191.513C146.127 191.815 145.544 191.966 144.919 191.966C144.465 191.966 144.034 191.88 143.646 191.707C143.257 191.535 142.934 191.298 142.653 190.996V194.296H141.208V185.063H142.546V186.013C142.783 185.667 143.128 185.387 143.538 185.193C143.948 184.999 144.401 184.912 144.897 184.912H144.919ZM134.176 190.564H137.153V186.315H134.888V187.005C134.845 188.644 134.607 189.831 134.176 190.564ZM139.698 190.564V193.757H138.296V191.815H133.335V193.757H131.911V190.564H132.666C132.946 190.262 133.162 189.809 133.291 189.227C133.421 188.644 133.507 187.846 133.529 186.875L133.593 185.063H138.598V190.564H139.72H139.698ZM127.812 190.629C128.2 190.629 128.546 190.543 128.869 190.348C129.193 190.154 129.43 189.917 129.624 189.593C129.797 189.27 129.905 188.925 129.905 188.558C129.905 188.191 129.818 187.846 129.624 187.523C129.452 187.199 129.193 186.962 128.869 186.768C128.546 186.595 128.2 186.487 127.812 186.487C127.424 186.487 127.1 186.573 126.777 186.768C126.453 186.962 126.216 187.199 126.022 187.523C125.828 187.846 125.741 188.191 125.741 188.558C125.741 188.925 125.828 189.291 126.022 189.593C126.216 189.917 126.453 190.176 126.777 190.348C127.1 190.521 127.445 190.629 127.812 190.629ZM128.114 185.171C128.718 185.171 129.257 185.322 129.754 185.624C130.25 185.926 130.66 186.336 130.94 186.854C131.221 187.372 131.372 187.932 131.372 188.558C131.372 189.184 131.221 189.766 130.897 190.284C130.595 190.801 130.163 191.211 129.624 191.513C129.085 191.815 128.481 191.966 127.834 191.966C127.122 191.966 126.518 191.794 125.979 191.47C125.439 191.147 125.029 190.694 124.727 190.09C124.425 189.507 124.274 188.817 124.274 188.04V186.962C124.274 185.926 124.382 185.063 124.62 184.395C124.857 183.726 125.288 183.165 125.914 182.734C126.539 182.302 127.467 181.979 128.653 181.806C129.71 181.655 130.422 181.504 130.789 181.353V182.69C130.358 182.863 129.667 183.014 128.718 183.122C127.834 183.23 127.187 183.424 126.734 183.704C126.281 183.985 126 184.351 125.871 184.761C125.741 185.193 125.655 185.732 125.655 186.401C125.935 186.013 126.281 185.689 126.712 185.473C127.143 185.258 127.618 185.15 128.136 185.15L128.114 185.171ZM119.162 185.301L117.63 189.054H120.672L119.162 185.301ZM121.211 190.305H117.134L116.487 191.815H114.934L118.925 182.583H119.421L123.412 191.815H121.837L121.19 190.305H121.211ZM103.976 185.063H109.714V191.815H108.247V186.315H105.421V191.815H103.954V185.063H103.976ZM102.66 185.063L99.3808 192.592C99.1003 193.239 98.7552 193.714 98.3669 193.994C97.9786 194.296 97.4824 194.447 96.9 194.447C96.5333 194.447 96.145 194.404 95.7783 194.318V193.088C96.2097 193.131 96.4686 193.153 96.5764 193.153C96.9216 193.153 97.202 193.088 97.4393 192.937C97.6766 192.786 97.8707 192.527 98.0433 192.16L98.3237 191.535L95.6273 185.085H97.1804L99.1219 190.003L101.106 185.085H102.638L102.66 185.063ZM91.9817 191.966C91.313 191.966 90.7089 191.815 90.1697 191.492C89.6304 191.19 89.1989 190.758 88.8754 190.219C88.5518 189.68 88.4008 189.076 88.4008 188.429C88.4008 187.781 88.5518 187.177 88.8754 186.638C89.1989 186.099 89.6304 185.667 90.1697 185.365C90.7089 185.063 91.313 184.891 91.9601 184.891C92.6073 184.891 93.1465 185.02 93.6211 185.301C94.1173 185.581 94.5056 185.969 94.786 186.444L93.7721 187.242C93.276 186.552 92.672 186.207 91.9601 186.207C91.5502 186.207 91.2051 186.293 90.8815 186.487C90.558 186.681 90.2991 186.94 90.1265 187.285C89.9324 187.63 89.8461 187.997 89.8461 188.385C89.8461 188.774 89.9324 189.162 90.1265 189.507C90.2991 189.852 90.558 190.111 90.8815 190.305C91.2051 190.499 91.5718 190.586 91.9601 190.586C92.672 190.586 93.276 190.241 93.7721 189.572L94.786 190.348C94.484 190.845 94.0957 191.211 93.5995 191.492C93.1034 191.772 92.5641 191.902 91.9385 191.902L91.9817 191.966ZM87.7968 185.063L84.5179 192.592C84.2375 193.239 83.8923 193.714 83.504 193.994C83.1157 194.296 82.6196 194.447 82.0371 194.447C81.6704 194.447 81.2821 194.404 80.9154 194.318V193.088C81.3468 193.131 81.6057 193.153 81.7136 193.153C82.0587 193.153 82.3391 193.088 82.5764 192.937C82.8137 192.786 83.0079 192.527 83.1804 192.16L83.4609 191.535L80.7644 185.085H82.3176L84.259 190.003L86.2436 185.085H87.7752L87.7968 185.063ZM80.7644 191.815H78.974L75.1126 186.983L78.6504 182.734H80.4408L76.86 186.983L80.786 191.815H80.7644ZM73.6026 182.755H75.0695V191.837H73.6026V182.755ZM70.0433 182.755L73.5595 187.005L69.7197 191.837H67.9077L71.8338 187.005L68.2313 182.755H70.0217H70.0433ZM63.4855 185.063L60.2066 192.592C59.9262 193.239 59.5811 193.714 59.1928 193.994C58.8045 194.296 58.3083 194.447 57.7259 194.447C57.3592 194.447 56.9709 194.404 56.6042 194.318V193.088C57.0356 193.131 57.2945 193.153 57.4023 193.153C57.7475 193.153 58.0279 193.088 58.2652 192.937C58.5025 192.786 58.6966 192.527 58.8692 192.16L59.1496 191.535L56.4532 185.085H58.0063L59.9478 190.003L61.9324 185.085H63.464L63.4855 185.063ZM55.9355 185.063L52.6566 192.592C52.3761 193.239 52.031 193.714 51.6427 193.994C51.2544 194.296 50.7583 194.447 50.1758 194.447C49.8091 194.447 49.4208 194.404 49.0541 194.318V193.088C49.4855 193.131 49.7444 193.153 49.8522 193.153C50.1974 193.153 50.4778 193.088 50.7151 192.937C50.9524 192.786 51.1465 192.527 51.3191 192.16L51.5996 191.535L48.9031 185.085H50.4563L52.3977 190.003L54.3823 185.085H55.9139L55.9355 185.063ZM44.7398 186.315H42.561V185.063H48.3422V186.315H46.1635V191.815H44.7182V186.315H44.7398ZM31.9478 185.063H33.3931V190.564H35.8954V185.063H37.3407V190.564H39.843V185.063H41.2883V191.815H31.9478V185.063ZM26.7274 190.866C27.2236 190.866 27.6335 190.715 27.957 190.413C28.3022 190.111 28.4747 189.723 28.4747 189.27V189.14H26.749C26.3607 189.14 26.0587 189.205 25.8646 189.356C25.6489 189.486 25.5626 189.701 25.5626 189.982C25.5626 190.262 25.6704 190.478 25.8861 190.65C26.1019 190.801 26.3823 190.888 26.749 190.888L26.7274 190.866ZM27.1589 184.912C28.0002 184.912 28.6689 185.15 29.165 185.646C29.6612 186.142 29.92 186.832 29.92 187.738V191.815H28.5826V191.06C28.3453 191.362 28.0217 191.578 27.655 191.729C27.2883 191.88 26.8784 191.966 26.4254 191.966C25.7136 191.966 25.1527 191.794 24.7213 191.427C24.2898 191.06 24.0741 190.607 24.0741 190.003C24.0741 189.399 24.2898 188.946 24.7429 188.601C25.1959 188.256 25.7999 188.083 26.5549 188.083H28.4747V187.652C28.4747 187.177 28.3453 186.832 28.0865 186.573C27.8276 186.336 27.4824 186.207 27.0294 186.207C26.6627 186.207 26.3176 186.293 26.0156 186.444C25.7136 186.617 25.4331 186.854 25.1527 187.199L24.3114 186.336C24.6566 185.84 25.0664 185.495 25.541 185.257C26.0371 185.02 26.5549 184.891 27.1589 184.891V184.912ZM19.3499 190.65C19.7382 190.65 20.0834 190.564 20.3854 190.37C20.6874 190.176 20.9462 189.917 21.1188 189.593C21.2914 189.27 21.3992 188.882 21.3992 188.45C21.3992 188.019 21.313 187.63 21.1404 187.307C20.9678 186.962 20.709 186.703 20.4069 186.53C20.0834 186.336 19.7382 186.25 19.3499 186.25C18.9832 186.25 18.6596 186.336 18.3576 186.487C18.0556 186.638 17.7968 186.897 17.6026 187.221C17.4085 187.544 17.3222 187.954 17.3222 188.45C17.3222 188.946 17.4085 189.356 17.6026 189.68C17.7968 190.025 18.0341 190.262 18.3576 190.413C18.6596 190.564 19.0048 190.65 19.3499 190.65ZM19.5872 184.912C20.2128 184.912 20.7952 185.063 21.2914 185.365C21.7875 185.667 22.1974 186.099 22.4778 186.638C22.7583 187.177 22.9093 187.781 22.9093 188.429C22.9093 189.076 22.7583 189.701 22.4778 190.241C22.1974 190.78 21.8091 191.19 21.2914 191.513C20.7952 191.815 20.2128 191.966 19.5872 191.966C19.1342 191.966 18.7028 191.88 18.3145 191.707C17.9262 191.535 17.6026 191.298 17.3222 190.996V194.296H15.8769V185.063H17.2143V186.013C17.4516 185.667 17.7968 185.387 18.2066 185.193C18.6165 184.999 19.0695 184.912 19.5657 184.912H19.5872ZM10.6781 190.866C11.1743 190.866 11.5841 190.715 11.9077 190.413C12.2529 190.111 12.4254 189.723 12.4254 189.27V189.14H10.6997C10.3114 189.14 10.0094 189.205 9.81527 189.356C9.59955 189.486 9.51327 189.701 9.51327 189.982C9.51327 190.262 9.62113 190.478 9.83684 190.65C10.0526 190.801 10.333 190.888 10.6997 190.888L10.6781 190.866ZM11.1096 184.912C11.9509 184.912 12.6196 185.15 13.1157 185.646C13.6119 186.142 13.8707 186.832 13.8707 187.738V191.815H12.5333V191.06C12.296 191.362 11.9724 191.578 11.6057 191.729C11.239 191.88 10.8291 191.966 10.3761 191.966C9.66427 191.966 9.10341 191.794 8.67197 191.427C8.24054 191.06 8.02482 190.607 8.02482 190.003C8.02482 189.399 8.24054 188.946 8.69354 188.601C9.14655 188.256 9.75056 188.083 10.5056 188.083H12.4254V187.652C12.4254 187.177 12.296 186.832 12.0371 186.573C11.7783 186.336 11.4331 186.207 10.9801 186.207C10.6134 186.207 10.2683 186.293 9.96627 186.444C9.66427 186.617 9.38384 186.854 9.1034 187.199L8.26211 186.336C8.60726 185.84 9.01712 185.495 9.4917 185.257C9.98784 185.02 10.5056 184.891 11.1096 184.891V184.912ZM7.3561 191.815H5.58723L2.67505 188.191L5.39308 185.063H7.09724L4.37921 188.148L7.3561 191.815ZM1.16504 185.063H2.63191V191.815H1.16504V185.063Z" fill="#D9B96B"/>
<path d="M249.347 206.117C249.735 206.117 250.037 206.031 250.253 205.858C250.468 205.686 250.576 205.427 250.576 205.082C250.576 204.737 250.468 204.478 250.253 204.305C250.037 204.111 249.735 204.025 249.325 204.025H247.988V206.139H249.347V206.117ZM252.927 200.616H254.373V207.368H252.927V200.616ZM246.521 200.616H247.988V202.752H249.411C250.209 202.752 250.835 202.968 251.331 203.378C251.827 203.787 252.065 204.348 252.065 205.06C252.065 205.772 251.827 206.333 251.331 206.743C250.835 207.153 250.209 207.368 249.411 207.368H246.542V200.616H246.521ZM242.077 207.519C241.408 207.519 240.826 207.368 240.265 207.045C239.726 206.743 239.294 206.311 238.971 205.772C238.647 205.233 238.496 204.629 238.496 203.982C238.496 203.334 238.647 202.73 238.971 202.191C239.294 201.652 239.726 201.22 240.265 200.918C240.804 200.616 241.408 200.444 242.055 200.444C242.703 200.444 243.242 200.573 243.716 200.854C244.213 201.134 244.601 201.522 244.881 201.997L243.867 202.795C243.371 202.105 242.767 201.76 242.055 201.76C241.645 201.76 241.3 201.846 240.977 202.04C240.653 202.234 240.394 202.493 240.222 202.838C240.028 203.162 239.941 203.55 239.941 203.938C239.941 204.327 240.028 204.715 240.222 205.06C240.394 205.384 240.653 205.664 240.977 205.858C241.3 206.053 241.667 206.139 242.055 206.139C242.767 206.139 243.371 205.794 243.867 205.125L244.881 205.902C244.579 206.398 244.191 206.764 243.695 207.045C243.199 207.325 242.659 207.455 242.034 207.455L242.077 207.519ZM235.39 201.868H234.031C233.664 201.868 233.384 201.954 233.189 202.126C232.995 202.299 232.887 202.558 232.887 202.86C232.887 203.162 232.995 203.421 233.189 203.593C233.405 203.766 233.686 203.852 234.031 203.852H235.368V201.846L235.39 201.868ZM236.813 200.616V207.368H235.368V205.103H234.354L232.607 207.368H230.946L232.887 204.909C232.413 204.737 232.046 204.478 231.766 204.111C231.507 203.766 231.356 203.334 231.356 202.86C231.356 202.191 231.593 201.63 232.046 201.22C232.499 200.811 233.125 200.616 233.901 200.616H236.77H236.813ZM229.414 200.465V207.368H227.947V203.183L224.021 207.519H223.504V200.616H224.971V204.844L228.918 200.465H229.414ZM214.034 200.465H214.552L217.723 204.133L220.915 200.465H221.39V207.368H219.944V203.464L217.96 205.751H217.442L215.479 203.464V207.347H214.012V200.444L214.034 200.465ZM209.202 201.695C208.727 201.695 208.317 201.846 207.951 202.148C207.605 202.45 207.368 202.838 207.26 203.356H210.927C210.927 202.838 210.755 202.45 210.41 202.148C210.065 201.846 209.676 201.717 209.202 201.717V201.695ZM212.265 204.478H207.239C207.325 205.017 207.584 205.47 207.972 205.772C208.36 206.096 208.857 206.247 209.439 206.247C210.151 206.247 210.798 205.988 211.402 205.448L212.092 206.441C211.316 207.174 210.431 207.519 209.396 207.519C208.706 207.519 208.08 207.368 207.541 207.066C207.001 206.764 206.548 206.333 206.246 205.794C205.923 205.254 205.772 204.65 205.772 204.003C205.772 203.356 205.923 202.752 206.225 202.213C206.527 201.673 206.958 201.242 207.498 200.94C208.037 200.638 208.619 200.465 209.266 200.465C209.87 200.465 210.388 200.595 210.863 200.875C211.337 201.156 211.704 201.522 211.984 201.975C212.265 202.45 212.394 202.968 212.394 203.55C212.394 203.831 212.351 204.133 212.286 204.456L212.265 204.478ZM199.3 206.117H202.277V201.868H200.012V202.558C199.969 204.197 199.732 205.384 199.3 206.117ZM204.823 206.117V209.31H203.421V207.368H198.459V209.31H197.035V206.117H197.79C198.071 205.815 198.286 205.362 198.416 204.78C198.545 204.197 198.632 203.399 198.653 202.428L198.718 200.638H203.723V206.139H204.844L204.823 206.117ZM192.786 206.398C193.282 206.398 193.692 206.247 194.015 205.945C194.36 205.643 194.533 205.254 194.533 204.801V204.672H192.807C192.419 204.672 192.117 204.737 191.923 204.888C191.707 205.017 191.621 205.233 191.621 205.513C191.621 205.794 191.729 206.009 191.944 206.182C192.16 206.333 192.441 206.419 192.807 206.419L192.786 206.398ZM193.239 200.465C194.08 200.465 194.749 200.703 195.245 201.199C195.741 201.695 196 202.385 196 203.291V207.368H194.662V206.613C194.425 206.915 194.102 207.131 193.735 207.282C193.368 207.433 192.958 207.519 192.505 207.519C191.793 207.519 191.233 207.347 190.801 206.98C190.37 206.613 190.154 206.16 190.154 205.556C190.154 204.952 190.37 204.499 190.823 204.154C191.276 203.809 191.88 203.636 192.635 203.636H194.555V203.205C194.555 202.73 194.425 202.385 194.166 202.126C193.907 201.889 193.562 201.76 193.109 201.76C192.743 201.76 192.397 201.846 192.095 201.997C191.793 202.17 191.513 202.407 191.233 202.752L190.391 201.911C190.736 201.415 191.146 201.069 191.621 200.832C192.117 200.595 192.635 200.465 193.239 200.465ZM189.464 207.368H187.695L184.783 203.744L187.501 200.616H189.205L186.487 203.701L189.464 207.368ZM183.273 200.616H184.739V207.368H183.273V200.616ZM178.052 206.398C178.548 206.398 178.958 206.247 179.282 205.945C179.627 205.643 179.8 205.254 179.8 204.801V204.672H178.074C177.686 204.672 177.384 204.737 177.189 204.888C176.974 205.017 176.887 205.233 176.887 205.513C176.887 205.794 176.995 206.009 177.211 206.182C177.427 206.333 177.707 206.419 178.074 206.419L178.052 206.398ZM178.484 200.465C179.325 200.465 179.994 200.703 180.49 201.199C180.986 201.695 181.245 202.385 181.245 203.291V207.368H179.907V206.613C179.67 206.915 179.347 207.131 178.98 207.282C178.613 207.433 178.203 207.519 177.75 207.519C177.038 207.519 176.478 207.347 176.046 206.98C175.615 206.613 175.399 206.16 175.399 205.556C175.399 204.952 175.615 204.499 176.068 204.154C176.521 203.809 177.125 203.636 177.88 203.636H179.8V203.205C179.8 202.73 179.67 202.385 179.411 202.126C179.152 201.889 178.807 201.76 178.354 201.76C177.988 201.76 177.642 201.846 177.34 201.997C177.038 202.17 176.758 202.407 176.478 202.752L175.636 201.911C175.981 201.415 176.391 201.069 176.866 200.832C177.362 200.595 177.88 200.465 178.484 200.465ZM170.74 200.616L167.461 208.145C167.18 208.792 166.835 209.267 166.447 209.547C166.058 209.849 165.562 210 164.98 210C164.613 210 164.225 209.957 163.858 209.871V208.641C164.29 208.684 164.548 208.706 164.656 208.706C165.001 208.706 165.282 208.641 165.519 208.49C165.756 208.339 165.951 208.08 166.123 207.714L166.404 207.088L163.707 200.638H165.26L167.202 205.556L169.186 200.638H170.718L170.74 200.616ZM163.189 200.616L159.911 208.145C159.63 208.792 159.285 209.267 158.897 209.547C158.508 209.849 158.012 210 157.43 210C157.063 210 156.675 209.957 156.308 209.871V208.641C156.739 208.684 156.998 208.706 157.106 208.706C157.451 208.706 157.732 208.641 157.969 208.49C158.206 208.339 158.401 208.08 158.573 207.714L158.854 207.088L156.157 200.638H157.71L159.652 205.556L161.636 200.638H163.168L163.189 200.616ZM152.037 206.204C152.425 206.204 152.77 206.117 153.072 205.923C153.374 205.729 153.633 205.47 153.806 205.146C153.978 204.823 154.086 204.435 154.086 204.003C154.086 203.572 154 203.183 153.827 202.86C153.655 202.536 153.396 202.256 153.094 202.083C152.77 201.889 152.425 201.803 152.037 201.803C151.67 201.803 151.347 201.889 151.045 202.04C150.743 202.191 150.484 202.45 150.29 202.774C150.095 203.097 150.009 203.507 150.009 204.003C150.009 204.499 150.095 204.909 150.29 205.233C150.484 205.556 150.743 205.815 151.045 205.966C151.347 206.117 151.692 206.204 152.037 206.204ZM152.274 200.465C152.9 200.465 153.482 200.616 153.978 200.918C154.474 201.22 154.884 201.652 155.165 202.191C155.445 202.73 155.596 203.334 155.596 203.982C155.596 204.629 155.445 205.254 155.165 205.794C154.884 206.333 154.496 206.743 153.978 207.066C153.482 207.368 152.9 207.519 152.274 207.519C151.821 207.519 151.39 207.433 151.001 207.261C150.613 207.088 150.29 206.851 150.009 206.549V209.849H148.564V200.616H149.901V201.566C150.139 201.22 150.484 200.94 150.894 200.746C151.303 200.552 151.756 200.465 152.253 200.465H152.274ZM143.365 206.398C143.861 206.398 144.271 206.247 144.595 205.945C144.94 205.643 145.112 205.254 145.112 204.801V204.672H143.387C142.998 204.672 142.696 204.737 142.502 204.888C142.286 205.017 142.2 205.233 142.2 205.513C142.2 205.794 142.308 206.009 142.524 206.182C142.739 206.333 143.02 206.419 143.387 206.419L143.365 206.398ZM143.797 200.465C144.638 200.465 145.307 200.703 145.803 201.199C146.299 201.695 146.558 202.385 146.558 203.291V207.368H145.22V206.613C144.983 206.915 144.659 207.131 144.293 207.282C143.926 207.433 143.516 207.519 143.063 207.519C142.351 207.519 141.79 207.347 141.359 206.98C140.927 206.613 140.712 206.16 140.712 205.556C140.712 204.952 140.927 204.499 141.38 204.154C141.833 203.809 142.437 203.636 143.192 203.636H145.112V203.205C145.112 202.73 144.983 202.385 144.746 202.126C144.487 201.889 144.142 201.76 143.689 201.76C143.322 201.76 142.977 201.846 142.675 201.997C142.373 202.17 142.092 202.407 141.812 202.752L140.971 201.911C141.316 201.415 141.726 201.069 142.2 200.832C142.696 200.595 143.214 200.465 143.818 200.465H143.797ZM140.021 207.368H138.253L135.34 203.744L138.058 200.616H139.763L137.045 203.701L140.021 207.368ZM133.852 200.616H135.319V207.368H133.852V200.616ZM122.397 200.616H123.843V206.117H126.345V200.616H127.79V206.117H130.293V200.616H131.738V207.368H122.397V200.616ZM117.177 206.398C117.673 206.398 118.083 206.247 118.407 205.945C118.752 205.643 118.924 205.254 118.924 204.801V204.672H117.199C116.81 204.672 116.508 204.737 116.314 204.888C116.099 205.017 116.012 205.233 116.012 205.513C116.012 205.794 116.12 206.009 116.336 206.182C116.552 206.333 116.832 206.419 117.177 206.419V206.398ZM117.609 200.465C118.45 200.465 119.119 200.703 119.615 201.199C120.111 201.695 120.37 202.385 120.37 203.291V207.368H119.032V206.613C118.795 206.915 118.471 207.131 118.105 207.282C117.738 207.433 117.328 207.519 116.875 207.519C116.163 207.519 115.602 207.347 115.171 206.98C114.739 206.613 114.524 206.16 114.524 205.556C114.524 204.952 114.739 204.499 115.193 204.154C115.646 203.809 116.25 203.636 117.005 203.636H118.924V203.205C118.924 202.73 118.795 202.385 118.536 202.126C118.277 201.889 117.932 201.76 117.479 201.76C117.112 201.76 116.767 201.846 116.465 201.997C116.163 202.17 115.883 202.407 115.602 202.752L114.761 201.911C115.106 201.415 115.516 201.069 115.991 200.832C116.487 200.595 117.005 200.465 117.609 200.465ZM109.8 206.182C110.188 206.182 110.533 206.096 110.857 205.902C111.18 205.707 111.417 205.47 111.612 205.146C111.806 204.823 111.892 204.478 111.892 204.111C111.892 203.744 111.806 203.399 111.612 203.076C111.439 202.752 111.18 202.515 110.857 202.321C110.533 202.148 110.188 202.04 109.8 202.04C109.411 202.04 109.088 202.126 108.764 202.321C108.441 202.515 108.203 202.752 108.009 203.076C107.815 203.399 107.729 203.744 107.729 204.111C107.729 204.478 107.815 204.844 108.009 205.146C108.182 205.47 108.441 205.729 108.764 205.902C109.088 206.096 109.433 206.182 109.8 206.182ZM110.08 200.724C110.684 200.724 111.223 200.875 111.719 201.177C112.216 201.479 112.625 201.889 112.906 202.407C113.186 202.925 113.337 203.485 113.337 204.111C113.337 204.737 113.186 205.319 112.863 205.837C112.561 206.355 112.129 206.764 111.59 207.066C111.051 207.368 110.447 207.519 109.8 207.519C109.088 207.519 108.484 207.347 107.944 207.023C107.405 206.7 106.995 206.247 106.693 205.643C106.391 205.06 106.24 204.37 106.24 203.593V202.515C106.24 201.479 106.348 200.616 106.585 199.948C106.823 199.279 107.254 198.718 107.88 198.287C108.505 197.855 109.433 197.532 110.619 197.359C111.676 197.208 112.388 197.057 112.755 196.906V198.244C112.323 198.416 111.633 198.567 110.684 198.675C109.8 198.783 109.152 198.977 108.699 199.257C108.246 199.538 107.966 199.905 107.837 200.314C107.707 200.746 107.621 201.285 107.621 201.954C107.901 201.566 108.246 201.242 108.678 201.026C109.109 200.811 109.584 200.703 110.102 200.703L110.08 200.724ZM101.451 207.368H99.6825L96.7703 203.744L99.4883 200.616H101.193L98.4745 203.701L101.451 207.368ZM95.2603 200.616H96.7272V207.368H95.2603V200.616ZM93.1463 200.465V207.368H91.6794V203.183L87.7534 207.519H87.2356V200.616H88.7025V204.844L92.6501 200.465H93.1463ZM82.3389 201.868H80.1601V200.616H85.9414V201.868H83.7626V207.368H82.3173V201.868H82.3389ZM76.0831 201.868H73.9044V200.616H79.6856V201.868H77.5068V207.368H76.0615V201.868H76.0831ZM70.0215 201.695C69.5469 201.695 69.137 201.846 68.7703 202.148C68.4252 202.45 68.1879 202.838 68.08 203.356H71.7472C71.7472 202.838 71.5746 202.45 71.2295 202.148C70.8843 201.846 70.496 201.717 70.0215 201.717V201.695ZM73.0846 204.478H68.0584C68.1447 205.017 68.4036 205.47 68.7919 205.772C69.1802 206.096 69.6763 206.247 70.2588 206.247C70.9706 206.247 71.6178 205.988 72.2218 205.448L72.9121 206.441C72.1355 207.174 71.2511 207.519 70.2156 207.519C69.5253 207.519 68.8997 207.368 68.3605 207.066C67.8212 206.764 67.3682 206.333 67.0662 205.794C66.7426 205.254 66.5916 204.65 66.5916 204.003C66.5916 203.356 66.7426 202.752 67.0446 202.213C67.3466 201.673 67.778 201.242 68.3173 200.94C68.8566 200.638 69.439 200.465 70.0862 200.465C70.6902 200.465 71.2079 200.595 71.6825 200.875C72.1571 201.156 72.5238 201.522 72.8042 201.975C73.0631 202.45 73.2141 202.968 73.2141 203.55C73.2141 203.831 73.1709 204.133 73.1062 204.456L73.0846 204.478ZM65.9876 207.368H64.2187L61.3065 203.744L64.0246 200.616H65.7287L63.0107 203.701L65.9876 207.368ZM59.7965 200.616H61.2634V207.368H59.7965V200.616ZM54.9645 201.695C54.4899 201.695 54.08 201.846 53.7133 202.148C53.3682 202.45 53.1309 202.838 53.023 203.356H56.6902C56.6902 202.838 56.5176 202.45 56.1725 202.148C55.8273 201.846 55.439 201.717 54.9645 201.717V201.695ZM58.0276 204.478H53.0014C53.0877 205.017 53.3466 205.47 53.7349 205.772C54.1232 206.096 54.6193 206.247 55.2018 206.247C55.9136 206.247 56.5608 205.988 57.1648 205.448L57.8551 206.441C57.0785 207.174 56.194 207.519 55.1586 207.519C54.4683 207.519 53.8427 207.368 53.3034 207.066C52.7642 206.764 52.3111 206.333 52.0091 205.794C51.6856 205.254 51.5346 204.65 51.5346 204.003C51.5346 203.356 51.6856 202.752 51.9876 202.213C52.2896 201.673 52.721 201.242 53.2603 200.94C53.7996 200.638 54.382 200.465 55.0292 200.465C55.6332 200.465 56.1509 200.595 56.6255 200.875C57.1001 201.156 57.4668 201.522 57.7472 201.975C58.0061 202.45 58.1571 202.968 58.1571 203.55C58.1571 203.831 58.1139 204.133 58.0492 204.456L58.0276 204.478ZM49.852 200.616V207.368H48.4067V201.868H46.2279V202.536C46.1848 203.701 46.0985 204.629 45.9475 205.341C45.7965 206.053 45.5592 206.57 45.2356 206.915C44.9121 207.261 44.4806 207.433 43.9414 207.433C43.7472 207.433 43.5746 207.412 43.4236 207.347V206.139C43.5315 206.139 43.6178 206.16 43.7041 206.16C44.1139 206.16 44.3944 205.858 44.5669 205.233C44.7395 204.607 44.8474 203.636 44.8474 202.277V200.595H49.8304L49.852 200.616ZM34.8597 200.465H35.3774L38.5484 204.133L41.741 200.465H42.2156V207.368H40.7703V203.464L38.7857 205.751H38.268L36.305 203.464V207.347H34.8381V200.444L34.8597 200.465ZM29.6393 206.398C30.1355 206.398 30.5454 206.247 30.8689 205.945C31.2141 205.643 31.3867 205.254 31.3867 204.801V204.672H29.6609C29.2726 204.672 28.9706 204.737 28.7765 204.888C28.5608 205.017 28.4745 205.233 28.4745 205.513C28.4745 205.794 28.5823 206.009 28.7981 206.182C29.0138 206.333 29.2942 206.419 29.6609 206.419L29.6393 206.398ZM30.0708 200.465C30.9121 200.465 31.5808 200.703 32.0769 201.199C32.5731 201.695 32.832 202.385 32.832 203.291V207.368H31.4945V206.613C31.2572 206.915 30.9336 207.131 30.5669 207.282C30.2002 207.433 29.7903 207.519 29.3373 207.519C28.6255 207.519 28.0646 207.347 27.6332 206.98C27.2018 206.613 26.986 206.16 26.986 205.556C26.986 204.952 27.2017 204.499 27.6548 204.154C28.1078 203.809 28.7118 203.636 29.4668 203.636H31.3867V203.205C31.3867 202.73 31.2572 202.385 30.9984 202.126C30.7395 201.889 30.3944 201.76 29.9413 201.76C29.5746 201.76 29.2295 201.846 28.9275 201.997C28.6255 202.17 28.345 202.407 28.0646 202.752L27.2233 201.911C27.5685 201.415 27.9783 201.069 28.4529 200.832C28.9491 200.595 29.4668 200.465 30.0708 200.465ZM25.3682 198.136V207.368H23.9013V201.673L21.3127 205.082H20.8165L18.2064 201.652V207.347H16.7395V198.114H17.2572L21.0754 203.183L24.8936 198.114H25.3897L25.3682 198.136Z" fill="#D9B96B"/>
</svg>
