<svg width="264" height="76" viewBox="0 0 264 76" fill="none" xmlns="http://www.w3.org/2000/svg">
<path d="M114.812 22.848L109.42 10.3455L104.067 22.848H114.812ZM116.57 27.0155H102.27L99.4471 33.6328H93.9747L106.85 5.03297H112.083L124.998 33.6328H119.446L116.583 27.0155H116.57Z" fill="#D9B96B"/>
<path d="M147.327 9.52001H133.146L133.186 33.6328H127.954V5.03297H147.366L147.327 9.52001Z" fill="#D9B96B"/>
<path d="M177.83 5.03297L165.408 28.1206C164.316 30.1577 163.011 31.7022 161.507 32.7141C159.989 33.7393 158.351 34.2453 156.58 34.2453C155.169 34.2453 153.758 33.9391 152.373 33.3399L153.678 29.1724C154.796 29.5319 155.715 29.705 156.46 29.705C158.178 29.705 159.589 28.8262 160.708 27.0554L161.16 26.363L149.763 5.03297H155.448L163.903 21.8227L172.611 5.03297H177.844H177.83Z" fill="#D9B96B"/>
<path d="M206.35 5.03297V33.6328H201.131V9.52001H186.285V33.6328H181.066V5.03297H206.35Z" fill="#D9B96B"/>
<path d="M221.09 21.5831H215.777V33.6328H210.544V5.03297H215.777V17.0028H221.249L229.465 5.03297H235.097L225.337 18.8802L235.47 33.6328H229.465L221.09 21.5831Z" fill="#D9B96B"/>
<path d="M251.114 20.8774C253.431 20.8774 255.188 20.3848 256.387 19.4128C257.585 18.4275 258.184 17.0295 258.184 15.2054C258.184 13.3813 257.585 11.9832 256.387 10.9979C255.188 10.0127 253.431 9.52001 251.114 9.52001H244.909V20.8774H251.114ZM251.354 5.03297C253.83 5.03297 255.987 5.44573 257.825 6.25792C259.662 7.07011 261.073 8.2418 262.059 9.77299C263.044 11.3042 263.523 13.115 263.523 15.2054C263.523 17.2958 263.031 19.0799 262.059 20.6244C261.073 22.1689 259.662 23.3406 257.825 24.1528C255.987 24.965 253.83 25.3778 251.354 25.3778H244.896V33.6328H239.584V5.03297H251.354Z" fill="#D9B96B"/>
<path d="M170.561 58.8907C170.8 58.8907 171 58.8374 171.133 58.7309C171.266 58.6244 171.333 58.4646 171.333 58.2516C171.333 58.0385 171.266 57.8788 171.133 57.7589C171 57.6391 170.8 57.5858 170.561 57.5858H169.722V58.8907H170.561ZM172.784 55.4688H173.676V59.6629H172.784V55.4688ZM168.816 55.4688H169.722V56.8003H170.601C171.093 56.8003 171.493 56.9334 171.786 57.1864C172.092 57.4394 172.238 57.7856 172.238 58.225C172.238 58.6643 172.092 59.0105 171.786 59.2768C171.479 59.5298 171.08 59.6629 170.601 59.6629H168.816V55.4688ZM167.964 59.6629H166.846L164.236 56.6671L166.606 54.0308H167.711L165.368 56.6671L167.964 59.6629ZM163.304 54.0308H164.209V59.6629H163.304V54.0308ZM157.858 56.1346C157.565 56.1346 157.299 56.2278 157.086 56.4142C156.873 56.6006 156.727 56.8535 156.66 57.1598H158.937C158.937 56.8402 158.83 56.5872 158.617 56.4142C158.404 56.2278 158.151 56.1346 157.858 56.1346ZM159.762 57.8655H156.633C156.687 58.2116 156.846 58.4779 157.086 58.6776C157.339 58.8774 157.632 58.9706 157.992 58.9706C158.431 58.9706 158.83 58.8108 159.216 58.4779L159.643 59.0904C159.163 59.5431 158.604 59.7694 157.965 59.7694C157.539 59.7694 157.153 59.6762 156.807 59.4898C156.46 59.3034 156.194 59.0371 155.994 58.7043C155.795 58.3714 155.701 57.9986 155.701 57.5858C155.701 57.1731 155.795 56.8136 155.981 56.4807C156.167 56.1479 156.434 55.8816 156.767 55.6819C157.099 55.4821 157.459 55.3889 157.858 55.3889C158.231 55.3889 158.564 55.4688 158.857 55.6419C159.15 55.815 159.376 56.0414 159.549 56.3343C159.722 56.6272 159.802 56.9467 159.802 57.3196C159.802 57.4926 159.776 57.6791 159.736 57.8788L159.762 57.8655ZM152.959 56.2544H151.614V55.4821H155.209V56.2544H153.864V59.6762H152.972V56.2544H152.959ZM147.207 55.4688H148.112V57.0799H149.91V55.4688H150.802V59.6629H149.91V57.8521H148.112V59.6629H147.207V55.4688ZM144.198 56.1346C143.905 56.1346 143.638 56.2278 143.425 56.4142C143.212 56.6006 143.066 56.8535 142.999 57.1598H145.276C145.276 56.8402 145.17 56.5872 144.957 56.4142C144.743 56.2278 144.491 56.1346 144.198 56.1346ZM146.102 57.8655H142.973C143.026 58.2116 143.186 58.4779 143.425 58.6776C143.678 58.8774 143.971 58.9706 144.331 58.9706C144.77 58.9706 145.17 58.8108 145.556 58.4779L145.982 59.0904C145.502 59.5431 144.943 59.7694 144.304 59.7694C143.878 59.7694 143.492 59.6762 143.146 59.4898C142.8 59.3034 142.533 59.0371 142.334 58.7043C142.134 58.3714 142.041 57.9986 142.041 57.5858C142.041 57.1731 142.134 56.8136 142.32 56.4807C142.507 56.1479 142.773 55.8816 143.106 55.6819C143.439 55.4821 143.798 55.3889 144.198 55.3889C144.57 55.3889 144.903 55.4688 145.196 55.6419C145.489 55.815 145.715 56.0414 145.889 56.3343C146.062 56.6272 146.142 56.9467 146.142 57.3196C146.142 57.4926 146.115 57.6791 146.075 57.8788L146.102 57.8655ZM138.033 58.8907H139.87V56.2544H138.472V56.6805C138.446 57.6924 138.299 58.4247 138.033 58.8907ZM141.468 58.8907V60.8746H140.603V59.6762H137.514V60.8746H136.635V58.8907H137.101C137.274 58.7043 137.407 58.4247 137.487 58.0519C137.567 57.679 137.62 57.1997 137.633 56.5872L137.673 55.4688H140.776V58.8907H141.468ZM135.929 55.3756V59.6629H135.024V57.0533L132.587 59.7561H132.268V55.4688H133.173V58.0918L135.623 55.3756H135.929ZM130.563 57.4527C130.776 57.5592 130.936 57.6924 131.043 57.8655C131.149 58.0385 131.216 58.225 131.216 58.438C131.216 58.8507 131.069 59.1703 130.776 59.41C130.483 59.6363 130.084 59.7561 129.565 59.7561C128.832 59.7561 128.26 59.4898 127.861 58.9573L128.406 58.4247C128.54 58.5844 128.699 58.7176 128.886 58.8241C129.059 58.9173 129.285 58.9706 129.525 58.9706C129.764 58.9706 129.978 58.9173 130.124 58.8108C130.257 58.7043 130.337 58.5711 130.337 58.3847C130.337 58.2249 130.27 58.0918 130.137 57.9853C130.004 57.8921 129.818 57.8388 129.578 57.8388H129.085V57.1198H129.551C129.751 57.1198 129.898 57.0799 129.991 56.9867C130.097 56.9068 130.151 56.787 130.151 56.6405C130.151 56.494 130.097 56.3875 129.991 56.2943C129.884 56.2144 129.725 56.1612 129.525 56.1612C129.285 56.1612 129.099 56.2011 128.939 56.281C128.779 56.3609 128.633 56.4807 128.5 56.6272L127.954 56.0946C128.127 55.8683 128.353 55.6952 128.633 55.562C128.912 55.4289 129.219 55.3623 129.565 55.3623C130.017 55.3623 130.377 55.4688 130.643 55.6685C130.91 55.8816 131.029 56.1745 131.029 56.5473C131.029 56.7337 130.989 56.9068 130.91 57.0533C130.83 57.1997 130.723 57.3329 130.577 57.4394L130.563 57.4527ZM125.277 56.1346C124.985 56.1346 124.718 56.2278 124.505 56.4142C124.292 56.6006 124.146 56.8535 124.079 57.1598H126.356C126.356 56.8402 126.249 56.5872 126.036 56.4142C125.823 56.2278 125.57 56.1346 125.277 56.1346ZM127.181 57.8655H124.053C124.106 58.2116 124.266 58.4779 124.505 58.6776C124.758 58.8774 125.051 58.9706 125.411 58.9706C125.85 58.9706 126.249 58.8108 126.636 58.4779L127.062 59.0904C126.582 59.5431 126.023 59.7694 125.384 59.7694C124.958 59.7694 124.572 59.6762 124.226 59.4898C123.879 59.3034 123.613 59.0371 123.413 58.7043C123.214 58.3714 123.12 57.9986 123.12 57.5858C123.12 57.1731 123.214 56.8136 123.4 56.4807C123.587 56.1479 123.853 55.8816 124.186 55.6819C124.519 55.4821 124.878 55.3889 125.277 55.3889C125.65 55.3889 125.983 55.4688 126.276 55.6419C126.569 55.815 126.795 56.0414 126.968 56.3343C127.142 56.6272 127.221 56.9467 127.221 57.3196C127.221 57.4926 127.195 57.6791 127.155 57.8788L127.181 57.8655ZM120.165 58.9439C120.404 58.9439 120.617 58.8907 120.817 58.7709C121.017 58.651 121.163 58.4912 121.283 58.2915C121.403 58.0918 121.456 57.8521 121.456 57.5858C121.456 57.3196 121.403 57.0799 121.283 56.8669C121.177 56.6538 121.017 56.494 120.817 56.3742C120.617 56.2544 120.404 56.2011 120.165 56.2011C119.938 56.2011 119.739 56.2544 119.552 56.3476C119.366 56.4408 119.206 56.6006 119.086 56.8003C118.966 57 118.913 57.253 118.913 57.5592C118.913 57.8655 118.966 58.1184 119.086 58.3182C119.206 58.5312 119.366 58.6777 119.552 58.7842C119.739 58.8774 119.952 58.9306 120.165 58.9306V58.9439ZM120.311 55.3756C120.697 55.3756 121.057 55.4688 121.376 55.6552C121.696 55.8416 121.935 56.1079 122.109 56.4408C122.282 56.7737 122.375 57.1465 122.375 57.5592C122.375 57.972 122.282 58.3448 122.109 58.6776C121.935 59.0105 121.683 59.2768 121.376 59.4632C121.057 59.6496 120.711 59.7428 120.311 59.7428C120.031 59.7428 119.765 59.6896 119.526 59.583C119.286 59.4765 119.086 59.3301 118.913 59.1303V61.1808H118.021V55.4555H118.86V56.0413C119.02 55.8283 119.219 55.6552 119.472 55.5354C119.725 55.4156 120.005 55.3623 120.311 55.3623V55.3756ZM112.136 54.0308H116.69V59.6629H115.784V54.843H113.028V59.6629H112.123V54.0308H112.136ZM108.368 55.3756V59.6629H107.462V57.0533L105.026 59.7561H104.706V55.4688H105.612V58.0918L108.062 55.3756H108.368ZM101.471 58.9439C101.711 58.9439 101.924 58.8907 102.123 58.7709C102.323 58.651 102.469 58.4912 102.589 58.2915C102.709 58.0918 102.762 57.8521 102.762 57.5858C102.762 57.3196 102.709 57.0799 102.603 56.8669C102.496 56.6538 102.336 56.494 102.137 56.3742C101.937 56.2544 101.724 56.2011 101.484 56.2011C101.258 56.2011 101.058 56.2544 100.872 56.3476C100.685 56.4408 100.526 56.6006 100.406 56.8003C100.286 57 100.233 57.253 100.233 57.5592C100.233 57.8655 100.299 58.1184 100.406 58.3182C100.526 58.5312 100.685 58.6777 100.872 58.7842C101.058 58.8774 101.271 58.9306 101.484 58.9306L101.471 58.9439ZM101.617 55.3756C102.003 55.3756 102.363 55.4688 102.683 55.6552C103.002 55.8416 103.242 56.1079 103.415 56.4408C103.588 56.7737 103.681 57.1465 103.681 57.5592C103.681 57.972 103.588 58.3448 103.415 58.6776C103.242 59.0105 102.989 59.2768 102.683 59.4632C102.363 59.6496 102.017 59.7428 101.617 59.7428C101.338 59.7428 101.071 59.6896 100.832 59.583C100.592 59.4765 100.392 59.3301 100.219 59.1303V61.1808H99.3272V55.4555H100.166V56.0413C100.326 55.8283 100.526 55.6552 100.779 55.5354C101.031 55.4156 101.311 55.3623 101.617 55.3623V55.3756ZM94.4407 55.4688H97.9957V59.6629H97.0904V56.2411H95.3461V59.6629H94.4407V55.4688ZM260.554 46.588H259.715C259.489 46.588 259.316 46.6412 259.196 46.761C259.076 46.8676 259.01 47.0273 259.01 47.2137C259.01 47.4001 259.076 47.5599 259.196 47.6664C259.329 47.773 259.502 47.8262 259.715 47.8262H260.554V46.5746V46.588ZM261.46 45.8157V50.0098H260.568V48.5985H259.942L258.863 50.0098H257.825L259.023 48.4786C258.73 48.3721 258.491 48.2123 258.331 47.986C258.171 47.773 258.078 47.5067 258.078 47.2004C258.078 46.7744 258.224 46.4415 258.504 46.1885C258.783 45.9355 259.183 45.8024 259.662 45.8024H261.446L261.46 45.8157ZM256.853 45.7225V50.0098H255.947V47.4001L253.511 50.103H253.191V45.8157H254.097V48.4387L256.547 45.7225H256.853ZM248.278 45.8157H249.184V47.4268H250.981V45.8157H251.873V50.0098H250.981V48.199H249.184V50.0098H248.278V45.8157ZM245.269 46.4814C244.976 46.4814 244.71 46.5746 244.497 46.761C244.284 46.9474 244.137 47.2004 244.071 47.5067H246.348C246.348 47.1871 246.241 46.9341 246.028 46.761C245.815 46.5746 245.562 46.4814 245.269 46.4814ZM247.173 48.199H244.044C244.097 48.5452 244.257 48.8115 244.497 49.0112C244.75 49.2109 245.043 49.3041 245.402 49.3041C245.842 49.3041 246.241 49.1444 246.627 48.8115L247.053 49.424C246.574 49.8767 246.015 50.103 245.376 50.103C244.949 50.103 244.563 50.0098 244.217 49.8234C243.871 49.637 243.605 49.3707 243.405 49.0378C243.205 48.705 243.112 48.3322 243.112 47.9194C243.112 47.5067 243.205 47.1472 243.392 46.8143C243.578 46.4814 243.844 46.2151 244.177 46.0154C244.51 45.8157 244.87 45.7225 245.269 45.7225C245.642 45.7225 245.975 45.8024 246.268 45.9755C246.561 46.1486 246.787 46.3749 246.96 46.6678C247.133 46.9608 247.213 47.2803 247.213 47.6531C247.213 47.8262 247.186 48.0126 247.146 48.2123L247.173 48.199ZM242.087 45.8157V50.0098H241.195V46.588H239.85V47.0007C239.823 47.7197 239.77 48.3055 239.677 48.7449C239.584 49.1843 239.437 49.5172 239.238 49.7302C239.038 49.9432 238.772 50.0498 238.439 50.0498C238.319 50.0498 238.199 50.0364 238.119 49.9965V49.2509C238.186 49.2509 238.239 49.2642 238.292 49.2642C238.545 49.2642 238.718 49.0778 238.825 48.6917C238.931 48.3055 238.998 47.6931 238.998 46.8542V45.8024H242.1L242.087 45.8157ZM235.989 49.2908C236.215 49.2908 236.388 49.2376 236.521 49.1311C236.654 49.0245 236.708 48.8914 236.708 48.7183C236.708 48.5452 236.641 48.4254 236.521 48.3189C236.388 48.2257 236.215 48.1724 235.989 48.1724H234.857V49.2775H235.989V49.2908ZM234.857 47.48H235.789C236.188 47.48 236.388 47.3203 236.388 47.0007C236.388 46.6812 236.188 46.5347 235.789 46.5347H234.857V47.48ZM236.841 47.7463C237.067 47.8262 237.24 47.9594 237.373 48.1325C237.493 48.3055 237.56 48.5053 237.56 48.7449C237.56 49.1177 237.427 49.424 237.147 49.6636C236.868 49.9033 236.508 50.0231 236.069 50.0231H233.978V45.829H235.829C236.242 45.829 236.588 45.9355 236.841 46.1353C237.107 46.3483 237.227 46.6146 237.227 46.9741C237.227 47.1339 237.2 47.2803 237.134 47.4135C237.067 47.5466 236.974 47.6664 236.841 47.7596V47.7463ZM230.729 49.4107C231.036 49.4107 231.289 49.3175 231.502 49.1311C231.715 48.9446 231.821 48.705 231.821 48.4254V48.3455H230.743C230.503 48.3455 230.317 48.3854 230.197 48.4786C230.064 48.5585 230.01 48.6917 230.01 48.8648C230.01 49.0378 230.077 49.1843 230.21 49.2775C230.343 49.3707 230.516 49.424 230.743 49.424L230.729 49.4107ZM231.009 45.7225C231.528 45.7225 231.941 45.869 232.261 46.1752C232.58 46.4814 232.727 46.9075 232.727 47.48V50.0098H231.888V49.5438C231.728 49.7302 231.542 49.8634 231.315 49.9566C231.089 50.0498 230.836 50.103 230.543 50.103C230.104 50.103 229.758 49.9965 229.478 49.7702C229.212 49.5438 229.078 49.2509 229.078 48.8914C229.078 48.5319 229.212 48.239 229.491 48.0259C229.771 47.8129 230.144 47.7064 230.623 47.7064H231.808V47.4268C231.808 47.1339 231.728 46.9208 231.568 46.761C231.409 46.6013 231.195 46.5347 230.903 46.5347C230.663 46.5347 230.463 46.588 230.277 46.6945C230.09 46.801 229.917 46.9474 229.744 47.1605L229.225 46.6279C229.438 46.3217 229.691 46.0953 229.997 45.9488C230.303 45.8024 230.636 45.7225 230.996 45.7225H231.009ZM226.163 49.2775C226.402 49.2775 226.615 49.2243 226.815 49.1044C227.015 48.9846 227.161 48.8248 227.281 48.6251C227.401 48.4254 227.454 48.1857 227.454 47.9194C227.454 47.6531 227.401 47.4135 227.294 47.2004C227.188 46.9874 227.028 46.8276 226.828 46.7078C226.629 46.588 226.416 46.5347 226.176 46.5347C225.949 46.5347 225.75 46.588 225.563 46.6812C225.377 46.7744 225.217 46.9341 225.097 47.1339C224.978 47.3336 224.924 47.5866 224.924 47.8928C224.924 48.199 224.978 48.452 225.097 48.6517C225.217 48.8648 225.377 49.0112 225.563 49.1177C225.75 49.2109 225.963 49.2642 226.176 49.2642L226.163 49.2775ZM226.296 45.7225C226.682 45.7225 227.041 45.8157 227.361 46.0154C227.68 46.2018 227.92 46.4681 228.093 46.801C228.266 47.1339 228.359 47.5067 228.359 47.9194C228.359 48.3322 228.266 48.705 228.093 49.0378C227.92 49.3707 227.667 49.637 227.361 49.8234C227.041 50.0098 226.695 50.103 226.296 50.103C226.016 50.103 225.75 50.0498 225.51 49.9432C225.27 49.8367 225.071 49.6903 224.898 49.4905V51.541H224.006V45.8157H224.844V46.4015C225.004 46.1885 225.204 46.0154 225.457 45.8956C225.71 45.7758 225.989 45.7225 226.309 45.7225H226.296ZM219.132 45.8157H222.687V50.0098H221.782V46.588H220.038V50.0098H219.132V45.8157ZM218.32 45.8157L216.283 50.4891C216.11 50.8886 215.897 51.1815 215.657 51.3679C215.418 51.5543 215.111 51.6475 214.752 51.6475C214.512 51.6475 214.286 51.6209 214.06 51.5676V50.8087C214.326 50.8353 214.486 50.8486 214.552 50.8486C214.765 50.8486 214.938 50.8087 215.085 50.7155C215.231 50.6223 215.364 50.4625 215.458 50.2362L215.631 49.8367L213.953 45.829H214.912L216.11 48.8781L217.348 45.829H218.307L218.32 45.8157ZM208.8 49.2642C209.04 49.2642 209.266 49.2109 209.466 49.0911C209.666 48.9713 209.825 48.8115 209.932 48.5985C210.052 48.3854 210.105 48.1591 210.105 47.9061C210.105 47.6531 210.052 47.4135 209.932 47.2004C209.812 46.9874 209.666 46.8276 209.466 46.7078C209.266 46.588 209.053 46.5347 208.814 46.5347C208.574 46.5347 208.348 46.6013 208.148 46.7078C207.948 46.8276 207.788 46.9874 207.682 47.2004C207.562 47.4135 207.509 47.6398 207.509 47.9061C207.509 48.1724 207.562 48.3987 207.682 48.5985C207.802 48.8115 207.948 48.9713 208.148 49.0911C208.348 49.2109 208.561 49.2642 208.814 49.2642H208.8ZM208.8 50.103C208.401 50.103 208.028 50.0098 207.682 49.8101C207.349 49.6104 207.069 49.3441 206.883 49.0112C206.683 48.6784 206.59 48.3055 206.59 47.9061C206.59 47.5067 206.683 47.1339 206.883 46.801C207.083 46.4681 207.349 46.2018 207.682 46.0154C208.015 45.8157 208.387 45.7225 208.8 45.7225C209.213 45.7225 209.586 45.8157 209.932 46.0154C210.278 46.2151 210.544 46.4681 210.744 46.8143C210.944 47.1472 211.037 47.52 211.037 47.9194C211.037 48.3189 210.944 48.6917 210.744 49.0245C210.544 49.3574 210.278 49.6237 209.932 49.8234C209.586 50.0231 209.213 50.1163 208.8 50.1163V50.103ZM203.221 45.8157H206.177V46.588H204.127V50.0098H203.221V45.8157ZM199.959 49.2642C200.199 49.2642 200.425 49.2109 200.625 49.0911C200.825 48.9713 200.985 48.8115 201.091 48.5985C201.211 48.3854 201.264 48.1591 201.264 47.9061C201.264 47.6531 201.211 47.4135 201.091 47.2004C200.971 46.9874 200.825 46.8276 200.625 46.7078C200.425 46.588 200.212 46.5347 199.973 46.5347C199.733 46.5347 199.507 46.6013 199.307 46.7078C199.107 46.8276 198.947 46.9874 198.841 47.2004C198.721 47.4135 198.668 47.6398 198.668 47.9061C198.668 48.1724 198.721 48.3987 198.841 48.5985C198.961 48.7982 199.107 48.9713 199.307 49.0911C199.507 49.2109 199.72 49.2642 199.973 49.2642H199.959ZM199.959 50.103C199.56 50.103 199.187 50.0098 198.841 49.8101C198.508 49.6104 198.228 49.3441 198.042 49.0112C197.842 48.6784 197.749 48.3055 197.749 47.9061C197.749 47.5067 197.842 47.1339 198.042 46.801C198.242 46.4681 198.508 46.2018 198.841 46.0154C199.174 45.8157 199.547 45.7225 199.959 45.7225C200.372 45.7225 200.745 45.8157 201.091 46.0154C201.437 46.2151 201.704 46.4681 201.903 46.8143C202.103 47.1472 202.196 47.52 202.196 47.9194C202.196 48.3189 202.103 48.6917 201.903 49.0245C201.704 49.3574 201.437 49.6237 201.091 49.8234C200.745 50.0231 200.372 50.1163 199.959 50.1163V50.103ZM193.102 45.8157H194.008V47.4268H195.805V45.8157H196.697V50.0098H195.805V48.199H194.008V50.0098H193.102V45.8157ZM188.176 45.8157H189.081V47.4268H190.879V45.8157H191.771V50.0098H190.879V48.199H189.081V50.0098H188.176V45.8157ZM185.18 46.4814C184.887 46.4814 184.621 46.5746 184.408 46.761C184.195 46.9474 184.048 47.2004 183.982 47.5067H186.259C186.259 47.1871 186.152 46.9341 185.939 46.761C185.726 46.5746 185.473 46.4814 185.18 46.4814ZM187.084 48.199H183.955C184.008 48.5452 184.168 48.8115 184.408 49.0112C184.661 49.2109 184.954 49.3041 185.313 49.3041C185.753 49.3041 186.165 49.1444 186.538 48.8115L186.964 49.424C186.485 49.8767 185.926 50.103 185.287 50.103C184.861 50.103 184.474 50.0098 184.128 49.8234C183.782 49.637 183.516 49.3707 183.316 49.0378C183.116 48.705 183.023 48.3322 183.023 47.9194C183.023 47.5067 183.116 47.1472 183.316 46.8143C183.502 46.4814 183.769 46.2151 184.102 46.0154C184.434 45.8157 184.794 45.7225 185.193 45.7225C185.566 45.7225 185.899 45.8024 186.192 45.9755C186.485 46.1486 186.711 46.3749 186.884 46.6678C187.057 46.9608 187.137 47.2803 187.137 47.6531C187.137 47.8262 187.111 48.0126 187.071 48.2123L187.084 48.199ZM180.64 49.2908C180.866 49.2908 181.039 49.2376 181.172 49.1311C181.306 49.0245 181.359 48.8914 181.359 48.7183C181.359 48.5452 181.292 48.4254 181.172 48.3189C181.039 48.2257 180.866 48.1724 180.64 48.1724H179.508V49.2775H180.64V49.2908ZM179.508 47.48H180.44C180.839 47.48 181.039 47.3203 181.039 47.0007C181.039 46.6812 180.839 46.5347 180.44 46.5347H179.508V47.48ZM181.492 47.7463C181.718 47.8262 181.891 47.9594 182.024 48.1325C182.144 48.3055 182.211 48.5053 182.211 48.7449C182.211 49.1177 182.078 49.424 181.798 49.6636C181.519 49.9033 181.159 50.0231 180.72 50.0231H178.629V45.829H180.48C180.893 45.829 181.239 45.9355 181.492 46.1353C181.745 46.335 181.891 46.6146 181.891 46.9741C181.891 47.1339 181.865 47.2803 181.798 47.4135C181.732 47.5466 181.638 47.6664 181.519 47.7596L181.492 47.7463ZM175.58 46.588H174.235V45.8157H177.83V46.588H176.486V50.0098H175.594V46.588H175.58ZM171.972 50.103C171.559 50.103 171.186 50.0098 170.854 49.8101C170.521 49.6104 170.241 49.3574 170.055 49.0112C169.855 48.6784 169.762 48.3055 169.762 47.9061C169.762 47.5067 169.855 47.1339 170.055 46.801C170.254 46.4681 170.521 46.2018 170.867 46.0154C171.213 45.8157 171.586 45.7225 171.985 45.7225C172.385 45.7225 172.718 45.8157 173.024 45.9888C173.33 46.1619 173.57 46.4015 173.756 46.7078L173.13 47.2004C172.824 46.7744 172.451 46.5613 171.999 46.5613C171.746 46.5613 171.519 46.6146 171.32 46.7344C171.12 46.8542 170.96 47.014 170.854 47.2271C170.734 47.4401 170.68 47.6664 170.68 47.9194C170.68 48.1724 170.734 48.4121 170.854 48.6118C170.973 48.8248 171.12 48.9846 171.32 49.1044C171.519 49.2243 171.746 49.2775 171.999 49.2775C172.438 49.2775 172.824 49.0645 173.13 48.6517L173.756 49.1444C173.57 49.4506 173.317 49.6903 173.024 49.8634C172.718 50.0364 172.371 50.1296 171.999 50.1296L171.972 50.103ZM166.779 49.2775C167.019 49.2775 167.232 49.2243 167.432 49.1044C167.631 48.9846 167.778 48.8248 167.898 48.6251C168.017 48.4254 168.071 48.1857 168.071 47.9194C168.071 47.6531 168.017 47.4135 167.898 47.2004C167.791 46.9874 167.631 46.8276 167.432 46.7078C167.232 46.588 167.019 46.5347 166.779 46.5347C166.553 46.5347 166.353 46.588 166.167 46.6812C165.98 46.7744 165.821 46.9341 165.701 47.1339C165.581 47.3336 165.528 47.5866 165.528 47.8928C165.528 48.199 165.581 48.452 165.701 48.6517C165.821 48.8648 165.98 49.0112 166.167 49.1177C166.353 49.2109 166.566 49.2642 166.779 49.2642V49.2775ZM166.926 45.7225C167.312 45.7225 167.671 45.8157 167.991 46.0154C168.31 46.2018 168.55 46.4681 168.723 46.801C168.896 47.1339 168.989 47.5067 168.989 47.9194C168.989 48.3322 168.896 48.705 168.723 49.0378C168.55 49.3707 168.297 49.637 167.991 49.8234C167.671 50.0098 167.325 50.103 166.926 50.103C166.646 50.103 166.38 50.0498 166.14 49.9432C165.9 49.8367 165.701 49.6903 165.528 49.4905V51.541H164.636V45.8157H165.474V46.4015C165.634 46.1885 165.834 46.0154 166.087 45.8956C166.34 45.7758 166.619 45.7225 166.926 45.7225ZM161.4 49.4107C161.706 49.4107 161.959 49.3175 162.172 49.1311C162.385 48.9446 162.492 48.705 162.492 48.4254V48.3455H161.413C161.174 48.3455 160.987 48.3854 160.868 48.4786C160.734 48.5585 160.681 48.6917 160.681 48.8648C160.681 49.0378 160.748 49.1843 160.881 49.2775C161.014 49.3707 161.2 49.424 161.413 49.424L161.4 49.4107ZM161.666 45.7225C162.186 45.7225 162.598 45.869 162.918 46.1752C163.238 46.4814 163.384 46.9075 163.384 47.48V50.0098H162.545V49.5438C162.385 49.7302 162.199 49.8634 161.973 49.9566C161.746 50.0498 161.493 50.103 161.2 50.103C160.761 50.103 160.415 49.9965 160.135 49.7702C159.869 49.5438 159.736 49.2509 159.736 48.8914C159.736 48.5319 159.869 48.239 160.149 48.0259C160.428 47.8129 160.801 47.7064 161.28 47.7064H162.465V47.4268C162.465 47.1339 162.385 46.9208 162.226 46.761C162.066 46.6013 161.853 46.5347 161.56 46.5347C161.32 46.5347 161.12 46.588 160.934 46.6945C160.748 46.801 160.575 46.9474 160.401 47.1605L159.882 46.6279C160.095 46.3217 160.348 46.0953 160.654 45.9488C160.961 45.8024 161.294 45.7225 161.653 45.7225H161.666ZM155.688 49.2243H157.539V46.588H156.141V47.014C156.114 48.0259 155.968 48.7716 155.701 49.2243H155.688ZM159.11 49.2243V51.2081H158.245V50.0098H155.156V51.2081H154.277V49.2243H154.743C154.916 49.0378 155.049 48.7582 155.129 48.3854C155.209 48.0126 155.262 47.5333 155.275 46.9208L155.315 45.8024H158.418V49.2243H159.11ZM154.49 45.8157L152.453 50.4891C152.28 50.8886 152.067 51.1815 151.827 51.3679C151.587 51.5543 151.281 51.6475 150.921 51.6475C150.682 51.6475 150.455 51.6209 150.229 51.5676V50.8087C150.495 50.8353 150.655 50.8486 150.722 50.8486C150.935 50.8486 151.108 50.8087 151.254 50.7155C151.401 50.6223 151.534 50.4625 151.627 50.2362L151.8 49.8367L150.123 45.829H151.081L152.28 48.8781L153.518 45.829H154.476L154.49 45.8157ZM147.846 50.103C147.433 50.103 147.06 50.0098 146.727 49.8101C146.394 49.6104 146.115 49.3574 145.928 49.0112C145.729 48.6784 145.636 48.3055 145.636 47.9061C145.636 47.5067 145.729 47.1339 145.928 46.801C146.128 46.4681 146.394 46.2018 146.741 46.0154C147.087 45.8157 147.46 45.7225 147.859 45.7225C148.259 45.7225 148.591 45.8157 148.898 45.9888C149.204 46.1619 149.444 46.4015 149.63 46.7078L149.004 47.2004C148.698 46.7744 148.325 46.5613 147.872 46.5613C147.619 46.5613 147.393 46.6146 147.193 46.7344C146.994 46.8542 146.834 47.014 146.727 47.2271C146.608 47.4401 146.554 47.6664 146.554 47.9194C146.554 48.1724 146.608 48.4121 146.727 48.6118C146.847 48.8248 146.994 48.9846 147.193 49.1044C147.393 49.2243 147.619 49.2775 147.872 49.2775C148.312 49.2775 148.698 49.0645 149.004 48.6517L149.63 49.1444C149.444 49.4506 149.191 49.6903 148.884 49.8634C148.578 50.0364 148.232 50.1296 147.859 50.1296L147.846 50.103ZM142.64 49.2642C142.879 49.2642 143.106 49.2109 143.305 49.0911C143.505 48.9713 143.665 48.8115 143.772 48.5985C143.891 48.3854 143.945 48.1591 143.945 47.9061C143.945 47.6531 143.891 47.4135 143.772 47.2004C143.652 46.9874 143.505 46.8276 143.305 46.7078C143.106 46.588 142.893 46.5347 142.653 46.5347C142.413 46.5347 142.187 46.6013 141.987 46.7078C141.788 46.8276 141.628 46.9874 141.521 47.2004C141.402 47.4135 141.348 47.6398 141.348 47.9061C141.348 48.1724 141.402 48.3987 141.521 48.5985C141.641 48.8115 141.788 48.9713 141.987 49.0911C142.187 49.2109 142.4 49.2642 142.653 49.2642H142.64ZM142.64 50.103C142.24 50.103 141.868 50.0098 141.521 49.8101C141.188 49.6104 140.909 49.3441 140.722 49.0112C140.523 48.6784 140.43 48.3055 140.43 47.9061C140.43 47.5067 140.523 47.1339 140.722 46.801C140.922 46.4681 141.188 46.2018 141.521 46.0154C141.854 45.8157 142.227 45.7225 142.64 45.7225C143.053 45.7225 143.425 45.8157 143.772 46.0154C144.118 46.2151 144.384 46.4681 144.584 46.8143C144.783 47.1472 144.877 47.52 144.877 47.9194C144.877 48.3189 144.783 48.6917 144.584 49.0245C144.384 49.3574 144.118 49.6237 143.772 49.8234C143.425 50.0231 143.053 50.1163 142.64 50.1163V50.103ZM137.061 45.8157H140.017V46.588H137.966V50.0098H137.061V45.8157ZM132.467 46.588H131.629C131.402 46.588 131.229 46.6412 131.109 46.761C130.989 46.8676 130.923 47.0273 130.923 47.2137C130.923 47.4001 130.989 47.5599 131.109 47.6664C131.242 47.773 131.416 47.8262 131.629 47.8262H132.467V46.5746V46.588ZM133.359 45.8157V50.0098H132.467V48.5985H131.842L130.763 50.0098H129.725L130.923 48.4786C130.63 48.3721 130.39 48.2123 130.231 47.986C130.071 47.773 129.978 47.5067 129.978 47.2004C129.978 46.7744 130.124 46.4415 130.404 46.1885C130.697 45.9355 131.083 45.8024 131.562 45.8024H133.346L133.359 45.8157ZM128.753 45.7225V50.0098H127.847V47.4001L125.411 50.103H125.091V45.8157H125.996V48.4387L128.446 45.7225H128.753ZM119.206 45.7225H119.526L121.496 47.9993L123.48 45.7225H123.773V50.0098H122.881V47.5866L121.656 49.0112H121.336L120.111 47.5999V50.0231H119.206V45.7358V45.7225ZM116.21 46.4814C115.917 46.4814 115.651 46.5746 115.438 46.761C115.225 46.9474 115.078 47.2004 115.012 47.5067H117.289C117.289 47.1871 117.182 46.9341 116.969 46.761C116.756 46.5746 116.503 46.4814 116.21 46.4814ZM118.114 48.199H114.985C115.038 48.5452 115.198 48.8115 115.438 49.0112C115.691 49.2109 115.984 49.3041 116.343 49.3041C116.783 49.3041 117.182 49.1444 117.568 48.8115L117.994 49.424C117.515 49.8767 116.956 50.103 116.317 50.103C115.891 50.103 115.505 50.0098 115.158 49.8234C114.812 49.637 114.546 49.3707 114.346 49.0378C114.146 48.705 114.053 48.3322 114.053 47.9194C114.053 47.5067 114.146 47.1472 114.333 46.8143C114.519 46.4814 114.786 46.2151 115.118 46.0154C115.451 45.8157 115.811 45.7225 116.21 45.7225C116.583 45.7225 116.916 45.8024 117.209 45.9755C117.502 46.1486 117.728 46.3749 117.901 46.6678C118.074 46.9608 118.154 47.2803 118.154 47.6531C118.154 47.8262 118.127 48.0126 118.088 48.2123L118.114 48.199ZM110.046 49.2243H111.896V46.588H110.498V47.014C110.472 48.0259 110.325 48.7716 110.059 49.2243H110.046ZM113.481 49.2243V51.2081H112.615V50.0098H109.526V51.2081H108.647V49.2243H109.113C109.287 49.0378 109.42 48.7582 109.5 48.3854C109.579 48.0126 109.633 47.5333 109.646 46.9208L109.686 45.8024H112.788V49.2243H113.481ZM106.011 49.4107C106.317 49.4107 106.57 49.3175 106.783 49.1311C106.996 48.9446 107.103 48.705 107.103 48.4254V48.3455H106.024C105.785 48.3455 105.598 48.3854 105.479 48.4786C105.345 48.5585 105.292 48.6917 105.292 48.8648C105.292 49.0378 105.359 49.1843 105.492 49.2775C105.625 49.3707 105.811 49.424 106.024 49.424L106.011 49.4107ZM106.277 45.7225C106.797 45.7225 107.209 45.869 107.529 46.1752C107.849 46.4814 107.995 46.9075 107.995 47.48V50.0098H107.156V49.5438C106.996 49.7302 106.81 49.8634 106.584 49.9566C106.357 50.0498 106.104 50.103 105.811 50.103C105.372 50.103 105.026 49.9965 104.746 49.7702C104.48 49.5438 104.347 49.2509 104.347 48.8914C104.347 48.5319 104.48 48.239 104.76 48.0259C105.039 47.8129 105.412 47.7064 105.891 47.7064H107.076V47.4268C107.076 47.1339 106.996 46.9208 106.837 46.761C106.677 46.6013 106.464 46.5347 106.171 46.5347C105.931 46.5347 105.732 46.588 105.545 46.6945C105.359 46.801 105.186 46.9474 105.013 47.1605L104.493 46.6279C104.706 46.3217 104.959 46.0953 105.266 45.9488C105.572 45.8024 105.905 45.7225 106.264 45.7225H106.277ZM103.947 50.0098H102.856L101.045 47.7596L102.722 45.8157H103.788L102.11 47.733L103.961 50.0098H103.947ZM100.099 45.8157H101.005V50.0098H100.099V45.8157ZM96.611 45.9622L95.6657 48.2922H97.5564L96.611 45.9622ZM97.8759 49.0645H95.3461L94.9467 50.0098H93.988L96.4779 44.2845H96.7841L99.274 50.0098H98.302L97.9025 49.0645H97.8759Z" fill="#D9B96B"/>
<path d="M213.074 68.7302C213.38 68.7302 213.633 68.637 213.846 68.4506C214.059 68.2642 214.166 68.0245 214.166 67.7449V67.665H213.088C212.848 67.665 212.661 67.705 212.542 67.7982C212.408 67.8781 212.355 68.0112 212.355 68.1843C212.355 68.3574 212.422 68.5039 212.555 68.5971C212.688 68.6903 212.874 68.7435 213.088 68.7435M213.34 65.042C213.86 65.042 214.273 65.1885 214.592 65.4947C214.912 65.801 215.058 66.2271 215.058 66.7863V69.3161H214.219V68.85C214.059 69.0364 213.873 69.1696 213.647 69.2628C213.42 69.356 213.167 69.4093 212.874 69.4093C212.435 69.4093 212.089 69.3027 211.809 69.0764C211.543 68.85 211.41 68.5571 211.41 68.1976C211.41 67.8381 211.543 67.5452 211.823 67.3322C212.102 67.1191 212.475 67.0126 212.954 67.0126H214.139V66.733C214.139 66.4401 214.059 66.2271 213.9 66.0673C213.74 65.9075 213.527 65.8409 213.234 65.8409C212.994 65.8409 212.795 65.8942 212.608 66.0007C212.422 66.1072 212.249 66.2537 212.076 66.4667L211.556 65.9341C211.769 65.6279 212.022 65.4015 212.329 65.2551C212.635 65.1086 212.968 65.0287 213.327 65.0287L213.34 65.042ZM209.067 68.6104C209.293 68.6104 209.466 68.5571 209.599 68.4506C209.732 68.3441 209.785 68.2109 209.785 68.0378C209.785 67.8648 209.719 67.7449 209.599 67.6384C209.466 67.5452 209.293 67.4919 209.067 67.4919H207.935V68.5971H209.067V68.6104ZM207.935 66.7996H208.867C209.266 66.7996 209.466 66.6398 209.466 66.3203C209.466 66.0007 209.266 65.8542 208.867 65.8542H207.935V66.7996ZM209.919 67.0659C210.145 67.1458 210.318 67.2789 210.451 67.452C210.571 67.6251 210.638 67.8248 210.638 68.0645C210.638 68.4373 210.504 68.7435 210.225 68.9832C209.945 69.2229 209.586 69.3427 209.146 69.3427H207.056V65.1486H208.893C209.306 65.1486 209.652 65.2551 209.905 65.4548C210.172 65.6678 210.305 65.9341 210.305 66.2936C210.305 66.4534 210.278 66.5999 210.212 66.733C210.145 66.8662 210.052 66.986 209.932 67.0792L209.919 67.0659ZM203.794 68.5971C204.034 68.5971 204.26 68.5305 204.46 68.424C204.659 68.3041 204.819 68.1444 204.926 67.9313C205.045 67.7183 205.099 67.4919 205.099 67.239C205.099 66.986 205.045 66.7463 204.926 66.5333C204.806 66.3203 204.659 66.1605 204.46 66.0406C204.26 65.9208 204.047 65.8676 203.807 65.8676C203.568 65.8676 203.341 65.9208 203.141 66.0406C202.942 66.1605 202.782 66.3203 202.675 66.5333C202.556 66.7463 202.502 66.9727 202.502 67.239C202.502 67.5053 202.556 67.7316 202.675 67.9313C202.795 68.1444 202.942 68.3041 203.141 68.424C203.341 68.5438 203.554 68.5971 203.807 68.5971H203.794ZM203.794 69.4226C203.394 69.4226 203.022 69.3294 202.675 69.1296C202.343 68.9299 202.063 68.6636 201.877 68.3308C201.677 67.9979 201.584 67.6251 201.584 67.2257C201.584 66.8262 201.677 66.4534 201.877 66.1205C202.076 65.7877 202.343 65.5214 202.675 65.335C203.008 65.1353 203.381 65.042 203.794 65.042C204.207 65.042 204.579 65.1353 204.926 65.335C205.272 65.5347 205.538 65.7877 205.738 66.1339C205.938 66.4667 206.031 66.8395 206.031 67.239C206.031 67.6384 205.938 67.9979 205.738 68.3441C205.538 68.677 205.272 68.9432 204.926 69.143C204.579 69.3427 204.207 69.4359 203.794 69.4359V69.4226ZM196.937 65.1353H197.842V66.7463H199.64V65.1353H200.532V69.3294H199.64V67.5186H197.842V69.3294H196.937V65.1353ZM193.688 68.7302C193.994 68.7302 194.247 68.637 194.46 68.4506C194.673 68.2642 194.78 68.0245 194.78 67.7449V67.665H193.701C193.462 67.665 193.275 67.705 193.156 67.7982C193.022 67.8781 192.969 68.0112 192.969 68.1843C192.969 68.3574 193.036 68.5039 193.169 68.5971C193.302 68.6903 193.488 68.7435 193.701 68.7435L193.688 68.7302ZM193.968 65.042C194.487 65.042 194.9 65.1885 195.219 65.4947C195.539 65.801 195.685 66.2271 195.685 66.7863V69.3161H194.846V68.85C194.687 69.0364 194.5 69.1696 194.274 69.2628C194.048 69.356 193.795 69.4093 193.502 69.4093C193.062 69.4093 192.716 69.3027 192.437 69.0764C192.17 68.85 192.037 68.5571 192.037 68.1976C192.037 67.8381 192.17 67.5452 192.45 67.3322C192.729 67.1191 193.102 67.0126 193.582 67.0126H194.767V66.733C194.767 66.4401 194.687 66.2271 194.527 66.0673C194.367 65.9075 194.154 65.8409 193.861 65.8409C193.622 65.8409 193.422 65.8942 193.235 66.0007C193.049 66.1072 192.876 66.2537 192.703 66.4667L192.184 65.9341C192.397 65.6279 192.65 65.4015 192.956 65.2551C193.262 65.1086 193.595 65.0287 193.954 65.0287L193.968 65.042ZM186.472 65.042H186.791L188.762 67.3189L190.746 65.042H191.038V69.3294H190.146V66.9061L188.921 68.3308H188.602L187.377 66.9194V69.3427H186.472V65.0554V65.042ZM184.661 69.3294L183.609 67.7982L182.57 69.3294H181.545L183.103 67.1458L181.665 65.1353H182.69L183.636 66.52L184.568 65.1353H185.593L184.141 67.1591L185.699 69.3294H184.674H184.661ZM178.842 68.7302C179.149 68.7302 179.401 68.637 179.615 68.4506C179.828 68.2642 179.934 68.0245 179.934 67.7449V67.665H178.856C178.616 67.665 178.43 67.705 178.31 67.7982C178.177 67.8781 178.123 68.0112 178.123 68.1843C178.123 68.3574 178.19 68.5039 178.323 68.5971C178.456 68.6903 178.643 68.7435 178.856 68.7435L178.842 68.7302ZM179.109 65.042C179.628 65.042 180.041 65.1885 180.36 65.4947C180.68 65.801 180.826 66.2271 180.826 66.7863V69.3161H179.987V68.85C179.828 69.0364 179.641 69.1696 179.415 69.2628C179.188 69.356 178.935 69.4093 178.643 69.4093C178.203 69.4093 177.857 69.3027 177.577 69.0764C177.311 68.85 177.178 68.5571 177.178 68.1976C177.178 67.8381 177.311 67.5452 177.591 67.3322C177.87 67.1191 178.243 67.0126 178.722 67.0126H179.907V66.733C179.907 66.4401 179.828 66.2271 179.668 66.0673C179.508 65.9075 179.295 65.8409 179.002 65.8409C178.762 65.8409 178.563 65.8942 178.376 66.0007C178.19 66.1072 178.017 66.2537 177.844 66.4667L177.324 65.9341C177.537 65.6279 177.79 65.4015 178.097 65.2551C178.403 65.1086 178.736 65.0287 179.095 65.0287L179.109 65.042ZM174.262 68.5971C174.502 68.5971 174.715 68.5438 174.914 68.424C175.114 68.3041 175.261 68.1444 175.38 67.9446C175.5 67.7449 175.554 67.5053 175.554 67.239C175.554 66.9727 175.5 66.733 175.394 66.52C175.287 66.3069 175.127 66.1472 174.928 66.0273C174.728 65.9075 174.515 65.8542 174.275 65.8542C174.049 65.8542 173.849 65.9075 173.65 66.0007C173.463 66.0939 173.303 66.2537 173.184 66.4534C173.064 66.6531 173.01 66.9061 173.01 67.2123C173.01 67.5186 173.077 67.7716 173.184 67.9713C173.303 68.1843 173.463 68.3308 173.65 68.4373C173.836 68.5305 174.049 68.5837 174.275 68.5837L174.262 68.5971ZM174.408 65.042C174.808 65.042 175.154 65.1353 175.474 65.3217C175.793 65.5081 176.033 65.7744 176.206 66.1072C176.379 66.4401 176.472 66.8129 176.472 67.2257C176.472 67.6384 176.379 68.0112 176.206 68.3441C176.033 68.677 175.78 68.9432 175.474 69.1296C175.154 69.316 174.808 69.4226 174.408 69.4226C174.129 69.4226 173.863 69.3693 173.623 69.2628C173.383 69.1563 173.184 69.0098 173.01 68.8101V70.8606H172.118V65.1353H172.957V65.7211C173.117 65.5081 173.317 65.335 173.57 65.2151C173.823 65.0953 174.102 65.042 174.408 65.042ZM167.738 68.5438H169.589V65.9075H168.191V66.3336C168.164 67.3455 168.017 68.0778 167.751 68.5438H167.738ZM171.173 68.5438V70.5277H170.308V69.3294H167.219V70.5277H166.34V68.5438H166.806C166.979 68.3574 167.112 68.0778 167.192 67.705C167.272 67.3322 167.325 66.8528 167.338 66.2404L167.378 65.1219H170.481V68.5438H171.173ZM163.783 68.5971C164.023 68.5971 164.236 68.5438 164.436 68.424C164.636 68.3041 164.782 68.1577 164.902 67.958C165.022 67.7582 165.075 67.5452 165.075 67.3055C165.075 67.0659 165.022 66.8528 164.902 66.6664C164.782 66.48 164.636 66.3203 164.436 66.2004C164.236 66.0806 164.023 66.0273 163.783 66.0273C163.544 66.0273 163.331 66.0806 163.144 66.2004C162.945 66.3203 162.798 66.4667 162.678 66.6664C162.558 66.8662 162.505 67.0792 162.505 67.3055C162.505 67.5319 162.558 67.7582 162.678 67.958C162.798 68.1577 162.945 68.3175 163.144 68.424C163.344 68.5438 163.557 68.5971 163.783 68.5971ZM163.97 65.1885C164.343 65.1885 164.675 65.2817 164.995 65.4681C165.315 65.6545 165.554 65.9075 165.727 66.2271C165.9 66.5466 165.994 66.9061 165.994 67.2922C165.994 67.6784 165.9 68.0378 165.701 68.3574C165.501 68.6769 165.248 68.9299 164.902 69.1163C164.569 69.3027 164.196 69.3959 163.783 69.3959C163.344 69.3959 162.958 69.2894 162.625 69.0897C162.292 68.89 162.039 68.5971 161.853 68.2376C161.666 67.8648 161.573 67.452 161.573 66.9727V66.2936C161.573 65.6545 161.64 65.1219 161.786 64.6959C161.933 64.2831 162.199 63.9369 162.585 63.6573C162.985 63.3777 163.544 63.1913 164.289 63.0848C164.955 62.9916 165.394 62.8984 165.621 62.8052V63.644C165.341 63.7505 164.915 63.8437 164.329 63.9103C163.783 63.9769 163.371 64.0967 163.091 64.2831C162.811 64.4562 162.638 64.6826 162.545 64.9355C162.465 65.2018 162.412 65.5347 162.412 65.9474C162.585 65.7078 162.798 65.5081 163.064 65.3749C163.331 65.2418 163.624 65.1752 163.943 65.1752L163.97 65.1885ZM158.418 65.2817L157.472 67.6118H159.363L158.418 65.2817ZM159.682 68.384H157.153L156.753 69.3294H155.795L158.284 63.6041H158.591L161.081 69.3294H160.109L159.709 68.384H159.682ZM150.615 68.7302C150.921 68.7302 151.174 68.637 151.387 68.4506C151.6 68.2642 151.707 68.0245 151.707 67.7449V67.665H150.629C150.389 67.665 150.202 67.705 150.083 67.7982C149.949 67.8781 149.896 68.0112 149.896 68.1843C149.896 68.3574 149.963 68.5039 150.096 68.5971C150.229 68.6903 150.415 68.7435 150.629 68.7435L150.615 68.7302ZM150.882 65.042C151.401 65.042 151.814 65.1885 152.133 65.4947C152.453 65.801 152.599 66.2271 152.599 66.7863V69.3161H151.76V68.85C151.6 69.0364 151.414 69.1696 151.188 69.2628C150.961 69.356 150.708 69.4093 150.415 69.4093C149.976 69.4093 149.63 69.3027 149.35 69.0764C149.084 68.85 148.951 68.5571 148.951 68.1976C148.951 67.8381 149.084 67.5452 149.364 67.3322C149.643 67.1191 150.016 67.0126 150.495 67.0126H151.68V66.733C151.68 66.4401 151.6 66.2271 151.441 66.0673C151.281 65.9075 151.068 65.8409 150.775 65.8409C150.535 65.8409 150.336 65.8942 150.149 66.0007C149.963 66.1072 149.79 66.2537 149.617 66.4667L149.097 65.9341C149.31 65.6279 149.563 65.4015 149.87 65.2551C150.176 65.1086 150.509 65.0287 150.868 65.0287L150.882 65.042ZM144.397 65.1353H147.952V69.3294H147.047V65.9075H145.303V69.3294H144.397V65.1353ZM143.585 65.1353L141.548 69.8087C141.375 70.2081 141.162 70.5011 140.922 70.6875C140.682 70.8739 140.376 70.9671 140.017 70.9671C139.777 70.9671 139.551 70.9404 139.324 70.8872V70.1282C139.591 70.1549 139.75 70.1682 139.817 70.1682C140.03 70.1682 140.203 70.1282 140.35 70.035C140.496 69.9418 140.629 69.7821 140.722 69.5557L140.896 69.1563L139.218 65.1486H140.177L141.375 68.1976L142.613 65.1486H143.572L143.585 65.1353ZM136.941 69.4226C136.528 69.4226 136.156 69.3294 135.823 69.1296C135.49 68.9299 135.21 68.6769 135.024 68.3308C134.824 67.9979 134.731 67.6251 134.731 67.2257C134.731 66.8262 134.824 66.4534 135.024 66.1205C135.223 65.7877 135.49 65.5214 135.836 65.335C136.182 65.1486 136.555 65.042 136.954 65.042C137.354 65.042 137.687 65.1353 137.993 65.3083C138.299 65.4814 138.539 65.7211 138.725 66.0273L138.099 66.52C137.793 66.0939 137.42 65.8809 136.968 65.8809C136.715 65.8809 136.488 65.9474 136.289 66.0673C136.089 66.1871 135.929 66.3469 135.823 66.5599C135.703 66.773 135.65 66.9993 135.65 67.2523C135.65 67.5053 135.703 67.7449 135.823 67.9446C135.942 68.1577 136.089 68.3175 136.289 68.4373C136.488 68.5571 136.715 68.6104 136.968 68.6104C137.407 68.6104 137.793 68.3973 138.099 67.9846L138.725 68.4772C138.539 68.7835 138.286 69.0231 137.993 69.1962C137.687 69.3693 137.341 69.4625 136.968 69.4625L136.941 69.4226ZM134.345 65.1353L132.308 69.8087C132.134 70.2081 131.921 70.5011 131.682 70.6875C131.442 70.8739 131.136 70.9671 130.776 70.9671C130.537 70.9671 130.31 70.9404 130.084 70.8872V70.1282C130.35 70.1549 130.51 70.1682 130.577 70.1682C130.79 70.1682 130.963 70.1282 131.109 70.035C131.256 69.9418 131.389 69.7821 131.482 69.5557L131.655 69.1563L129.978 65.1486H130.936L132.134 68.1976L133.373 65.1486H134.331L134.345 65.1353ZM129.978 69.3294H128.859L126.462 66.3336L128.659 63.6973H129.764L127.541 66.3336L129.978 69.3294ZM125.53 63.684H126.436V69.3161H125.53V63.684ZM123.32 63.684L125.504 66.3203L123.107 69.3161H121.989L124.425 66.3203L122.188 63.684H123.307H123.32ZM118.753 65.042V69.3294H117.848V66.7197L115.411 69.4226H115.092V65.1353H115.997V67.7582L118.447 65.042H118.753ZM110.179 65.1353H111.084V66.7463H112.882V65.1353H113.774V69.3294H112.882V67.5186H111.084V69.3294H110.179V65.1353ZM107.17 65.801C106.877 65.801 106.61 65.8942 106.397 66.0806C106.184 66.267 106.038 66.52 105.971 66.8262H108.248C108.248 66.5067 108.141 66.2537 107.928 66.0806C107.715 65.8942 107.462 65.801 107.17 65.801ZM109.074 67.5186H105.945C105.998 67.8648 106.158 68.131 106.397 68.3308C106.65 68.5305 106.943 68.6237 107.303 68.6237C107.742 68.6237 108.141 68.4639 108.528 68.131L108.954 68.7435C108.474 69.1962 107.915 69.4226 107.276 69.4226C106.85 69.4226 106.464 69.3294 106.118 69.1296C105.771 68.9432 105.505 68.677 105.305 68.3441C105.106 68.0112 105.013 67.6384 105.013 67.2257C105.013 66.8129 105.106 66.4534 105.292 66.1205C105.479 65.7877 105.745 65.5214 106.078 65.3217C106.411 65.1219 106.77 65.0287 107.17 65.0287C107.542 65.0287 107.875 65.1086 108.168 65.2817C108.461 65.4548 108.687 65.6812 108.86 65.9741C109.034 66.267 109.113 66.5866 109.113 66.9594C109.113 67.1325 109.087 67.3189 109.047 67.5186H109.074ZM99.4204 65.042H99.74L101.711 67.3189L103.694 65.042H103.987V69.3294H103.095V66.9061L101.87 68.3308H101.551L100.326 66.9194V69.3427H99.4204V65.0554V65.042ZM98.1156 65.042V69.3294H97.2102V66.7197L94.7736 69.4226H94.454V65.1353H95.3594V67.7582L97.8093 65.042H98.1156ZM263.537 55.3756V59.6629H262.631V57.0533L260.195 59.7561H259.875V55.4688H260.781V58.0918L263.23 55.3756H263.537ZM259.09 59.6629H257.998L256.187 57.4128L257.865 55.4688H258.93L257.252 57.3861L259.103 59.6629H259.09ZM255.242 55.4688H256.147V59.6629H255.242V55.4688ZM253.937 55.3756V59.6629H253.031V57.0533L250.595 59.7561H250.275V55.4688H251.181V58.0918L253.631 55.3756H253.937ZM248.957 55.4688V59.6629H248.065V56.2411H246.72V56.6538C246.694 57.3728 246.64 57.9587 246.547 58.398C246.454 58.8374 246.308 59.1703 246.108 59.3833C245.908 59.5964 245.642 59.7029 245.309 59.7029C245.189 59.7029 245.069 59.6896 244.989 59.6496V58.904C245.056 58.904 245.109 58.9173 245.163 58.9173C245.415 58.9173 245.589 58.7309 245.695 58.3448C245.802 57.9587 245.868 57.3462 245.868 56.5074V55.4555H248.971L248.957 55.4688ZM242.287 58.9306C242.526 58.9306 242.739 58.8774 242.939 58.7575C243.139 58.6377 243.285 58.4912 243.405 58.2915C243.525 58.0918 243.578 57.8788 243.578 57.6391C243.578 57.3994 243.525 57.1864 243.405 57C243.285 56.8003 243.139 56.6538 242.939 56.534C242.739 56.4142 242.526 56.3609 242.287 56.3609C242.047 56.3609 241.834 56.4142 241.647 56.534C241.448 56.6538 241.301 56.8003 241.181 57C241.062 57.1997 241.008 57.4128 241.008 57.6391C241.008 57.8655 241.062 58.0918 241.181 58.2915C241.301 58.4912 241.448 58.651 241.647 58.7575C241.847 58.8774 242.06 58.9306 242.287 58.9306ZM242.46 55.5354C242.832 55.5354 243.165 55.6286 243.485 55.815C243.804 56.0014 244.044 56.2544 244.217 56.5739C244.39 56.8935 244.483 57.253 244.483 57.6391C244.483 58.0252 244.39 58.3847 244.191 58.7043C243.991 59.0238 243.738 59.2768 243.392 59.4632C243.059 59.6496 242.686 59.7428 242.273 59.7428C241.834 59.7428 241.448 59.6363 241.115 59.4366C240.782 59.2369 240.529 58.9439 240.343 58.5844C240.156 58.2116 240.063 57.7989 240.063 57.3196V56.6405C240.063 56.0014 240.13 55.4688 240.276 55.0428C240.423 54.63 240.689 54.2838 241.075 54.0042C241.461 53.7246 242.034 53.5382 242.779 53.4317C243.445 53.3385 243.884 53.2453 244.111 53.1521V53.9909C243.831 54.0974 243.405 54.1906 242.819 54.2572C242.273 54.3238 241.86 54.4436 241.581 54.63C241.301 54.8031 241.128 55.0294 241.035 55.2824C240.955 55.5487 240.902 55.8816 240.902 56.2943C241.075 56.0547 241.288 55.8549 241.554 55.7218C241.821 55.5887 242.113 55.5221 242.433 55.5221L242.46 55.5354ZM239.451 55.4688L237.413 60.1423C237.24 60.5417 237.027 60.8346 236.788 61.021C236.548 61.2074 236.242 61.3006 235.882 61.3006C235.643 61.3006 235.416 61.274 235.19 61.2207V60.4618C235.456 60.4884 235.616 60.5018 235.682 60.5018C235.896 60.5018 236.069 60.4618 236.215 60.3686C236.362 60.2754 236.495 60.1156 236.588 59.8893L236.761 59.4898L235.083 55.4821H236.042L237.24 58.5312L238.479 55.4821H239.437L239.451 55.4688ZM230.703 55.4688H234.258V59.6629H233.352V56.2411H231.608V59.6629H230.703V55.4688ZM227.933 59.7561C227.521 59.7561 227.148 59.6629 226.815 59.4632C226.482 59.2635 226.202 59.0105 226.016 58.6643C225.816 58.3315 225.723 57.9587 225.723 57.5592C225.723 57.1598 225.816 56.787 226.016 56.4541C226.216 56.1212 226.482 55.8549 226.828 55.6685C227.174 55.4688 227.547 55.3756 227.947 55.3756C228.346 55.3756 228.679 55.4688 228.985 55.6419C229.291 55.815 229.531 56.0547 229.718 56.3609L229.092 56.8535C228.785 56.4275 228.413 56.2144 227.96 56.2144C227.707 56.2144 227.481 56.2677 227.281 56.3875C227.081 56.5074 226.921 56.6671 226.815 56.8802C226.695 57.0932 226.642 57.3196 226.642 57.5725C226.642 57.8255 226.695 58.0652 226.815 58.2649C226.935 58.4779 227.081 58.6377 227.281 58.7575C227.481 58.8774 227.707 58.9306 227.96 58.9306C228.399 58.9306 228.785 58.7176 229.092 58.3048L229.718 58.7975C229.531 59.1037 229.278 59.3434 228.985 59.5165C228.679 59.6896 228.333 59.7828 227.96 59.7828L227.933 59.7561ZM222.98 56.1346C222.687 56.1346 222.421 56.2278 222.208 56.4142C221.995 56.6006 221.849 56.8535 221.782 57.1598H224.059C224.059 56.8402 223.952 56.5873 223.739 56.4142C223.526 56.2278 223.273 56.1346 222.98 56.1346ZM224.898 57.8655H221.769C221.822 58.2116 221.982 58.4779 222.221 58.6777C222.474 58.8774 222.767 58.9706 223.127 58.9706C223.566 58.9706 223.966 58.8108 224.352 58.4779L224.778 59.0904C224.298 59.5431 223.739 59.7695 223.1 59.7695C222.674 59.7695 222.288 59.6762 221.942 59.4898C221.596 59.3034 221.329 59.0371 221.13 58.7043C220.93 58.3714 220.837 57.9986 220.837 57.5858C220.837 57.1731 220.93 56.8136 221.116 56.4807C221.303 56.1479 221.569 55.8816 221.902 55.6819C222.235 55.4821 222.594 55.3889 222.994 55.3889C223.366 55.3889 223.699 55.4688 223.992 55.6419C224.285 55.815 224.511 56.0414 224.685 56.3343C224.858 56.6272 224.938 56.9467 224.938 57.3196C224.938 57.4926 224.911 57.6791 224.871 57.8788L224.898 57.8655ZM218.333 56.6805C218.653 56.6805 218.893 56.6006 219.066 56.4275C219.239 56.2544 219.332 56.0414 219.332 55.7617C219.332 55.4821 219.252 55.2558 219.066 55.0827C218.893 54.9096 218.64 54.8297 218.333 54.8297H217.202V56.6805H218.333ZM216.296 54.0308H218.36C218.733 54.0308 219.066 54.0974 219.359 54.2439C219.652 54.3903 219.878 54.5901 220.038 54.8563C220.198 55.1226 220.277 55.4156 220.277 55.7484C220.277 56.0813 220.198 56.3875 220.038 56.6405C219.878 56.9068 219.652 57.1065 219.359 57.253C219.066 57.3994 218.733 57.4793 218.36 57.4793H217.202V59.6629H216.296V54.0308ZM210.797 54.7765C210.385 54.7765 210.052 54.6433 209.799 54.377C209.546 54.1107 209.413 53.7779 209.413 53.3518V53.0988H210.145V53.3385C210.145 53.5915 210.198 53.7779 210.305 53.911C210.411 54.0442 210.571 54.1107 210.784 54.1107C210.997 54.1107 211.157 54.0442 211.263 53.911C211.37 53.7779 211.423 53.5781 211.423 53.3385V53.0988H212.169V53.3518C212.169 53.7779 212.036 54.1107 211.783 54.377C211.53 54.6433 211.197 54.7765 210.771 54.7765H210.797ZM212.542 55.3756V59.6629H211.636V57.0533L209.2 59.7561H208.88V55.4688H209.785V58.0918L212.235 55.3756H212.542ZM205.605 58.9306C205.844 58.9306 206.071 58.8774 206.27 58.7575C206.47 58.6377 206.63 58.4779 206.736 58.2649C206.856 58.0519 206.91 57.8255 206.91 57.5725C206.91 57.3196 206.856 57.0799 206.736 56.8669C206.617 56.6538 206.47 56.494 206.27 56.3742C206.071 56.2544 205.858 56.2011 205.618 56.2011C205.378 56.2011 205.152 56.2677 204.952 56.3742C204.753 56.494 204.593 56.6538 204.486 56.8669C204.366 57.0799 204.313 57.3062 204.313 57.5725C204.313 57.8388 204.366 58.0652 204.486 58.2649C204.606 58.4779 204.753 58.6377 204.952 58.7575C205.152 58.8774 205.365 58.9306 205.618 58.9306H205.605ZM205.605 59.7561C205.205 59.7561 204.832 59.6629 204.486 59.4632C204.153 59.2635 203.874 58.9972 203.687 58.6643C203.488 58.3315 203.394 57.9587 203.394 57.5592C203.394 57.1598 203.488 56.787 203.687 56.4541C203.887 56.1212 204.153 55.8549 204.486 55.6685C204.819 55.4688 205.192 55.3756 205.605 55.3756C206.017 55.3756 206.39 55.4688 206.736 55.6685C207.083 55.8683 207.349 56.1212 207.549 56.4674C207.748 56.8003 207.842 57.1731 207.842 57.5725C207.842 57.972 207.748 58.3448 207.549 58.6777C207.349 59.0105 207.083 59.2768 206.736 59.4765C206.39 59.6762 206.017 59.7695 205.605 59.7695V59.7561ZM203.022 59.6629H201.93L200.119 57.4128L201.797 55.4688H202.862L201.184 57.3861L203.035 59.6629H203.022ZM199.174 55.4688H200.079V59.6629H199.174V55.4688ZM196.418 59.7561C196.005 59.7561 195.632 59.6629 195.299 59.4632C194.966 59.2635 194.687 59.0105 194.5 58.6643C194.301 58.3315 194.207 57.9587 194.207 57.5592C194.207 57.1598 194.301 56.787 194.5 56.4541C194.7 56.1212 194.966 55.8549 195.312 55.6685C195.659 55.4688 196.031 55.3756 196.431 55.3756C196.83 55.3756 197.163 55.4688 197.469 55.6419C197.776 55.815 198.015 56.0547 198.202 56.3609L197.576 56.8535C197.27 56.4275 196.897 56.2144 196.444 56.2144C196.191 56.2144 195.965 56.2677 195.765 56.3875C195.565 56.5074 195.406 56.6671 195.299 56.8802C195.179 57.0932 195.126 57.3196 195.126 57.5725C195.126 57.8255 195.179 58.0652 195.299 58.2649C195.419 58.4779 195.565 58.6377 195.765 58.7575C195.965 58.8774 196.191 58.9306 196.444 58.9306C196.884 58.9306 197.27 58.7176 197.576 58.3048L198.202 58.7975C198.015 59.1037 197.762 59.3434 197.469 59.5165C197.163 59.6896 196.817 59.7828 196.444 59.7828L196.418 59.7561ZM192.756 57.4527C192.969 57.5592 193.129 57.6924 193.235 57.8655C193.342 58.0385 193.395 58.225 193.395 58.438C193.395 58.8507 193.249 59.1703 192.956 59.41C192.663 59.6363 192.263 59.7561 191.744 59.7561C191.012 59.7561 190.439 59.4898 190.04 58.9573L190.586 58.4247C190.719 58.5844 190.879 58.7176 191.065 58.8241C191.238 58.9173 191.465 58.9706 191.704 58.9706C191.944 58.9706 192.157 58.9173 192.303 58.8108C192.437 58.7043 192.516 58.5711 192.516 58.3847C192.516 58.225 192.45 58.0918 192.317 57.9853C192.184 57.8921 191.997 57.8388 191.757 57.8388H191.265V57.1198H191.731C191.931 57.1198 192.077 57.0799 192.17 56.9867C192.277 56.9068 192.33 56.787 192.33 56.6405C192.33 56.4941 192.277 56.3875 192.17 56.2943C192.064 56.2144 191.904 56.1612 191.704 56.1612C191.465 56.1612 191.278 56.2011 191.118 56.281C190.959 56.3609 190.812 56.4807 190.679 56.6272L190.133 56.0946C190.306 55.8683 190.533 55.6952 190.812 55.562C191.092 55.4289 191.398 55.3623 191.744 55.3623C192.197 55.3623 192.556 55.4688 192.823 55.6685C193.089 55.8816 193.222 56.1745 193.222 56.5473C193.222 56.7337 193.182 56.9068 193.102 57.0533C193.022 57.1997 192.916 57.3329 192.769 57.4394L192.756 57.4527ZM185.939 58.8907C186.179 58.8907 186.378 58.8374 186.511 58.7309C186.645 58.6244 186.711 58.4646 186.711 58.2516C186.711 58.0385 186.645 57.8788 186.511 57.7589C186.378 57.6391 186.179 57.5858 185.939 57.5858H185.1V58.8907H185.939ZM188.149 55.4688H189.041V59.6629H188.149V55.4688ZM184.181 55.4688H185.087V56.8003H185.966C186.458 56.8003 186.858 56.9334 187.151 57.1864C187.457 57.4394 187.603 57.7856 187.603 58.225C187.603 58.6643 187.457 59.0105 187.151 59.2768C186.844 59.5298 186.445 59.6629 185.966 59.6629H184.181V55.4688ZM180.4 55.4688H183.356V56.2411H181.305V59.6629H180.4V55.4688ZM177.151 58.9439C177.391 58.9439 177.604 58.8907 177.804 58.7709C178.003 58.651 178.15 58.4912 178.27 58.2915C178.39 58.0918 178.443 57.8521 178.443 57.5858C178.443 57.3196 178.39 57.0799 178.27 56.8669C178.163 56.6538 178.003 56.494 177.804 56.3742C177.604 56.2544 177.391 56.2011 177.151 56.2011C176.925 56.2011 176.725 56.2544 176.539 56.3476C176.352 56.4408 176.193 56.6006 176.073 56.8003C175.953 57 175.9 57.253 175.9 57.5592C175.9 57.8655 175.953 58.1184 176.073 58.3182C176.193 58.5312 176.352 58.6777 176.539 58.7842C176.725 58.8774 176.938 58.9306 177.151 58.9306V58.9439ZM177.298 55.3756C177.697 55.3756 178.043 55.4688 178.363 55.6552C178.682 55.8416 178.922 56.1079 179.095 56.4408C179.268 56.7737 179.362 57.1465 179.362 57.5592C179.362 57.972 179.268 58.3448 179.095 58.6777C178.922 59.0105 178.669 59.2768 178.363 59.4632C178.043 59.6496 177.697 59.7428 177.298 59.7428C177.018 59.7428 176.752 59.6896 176.512 59.583C176.273 59.4765 176.073 59.3301 175.9 59.1303V61.1808H175.008V55.4555H175.846V56.0414C176.006 55.8283 176.206 55.6552 176.459 55.5354C176.712 55.4156 176.992 55.3623 177.311 55.3623L177.298 55.3756Z" fill="#D9B96B"/>
<path d="M62.8984 13.0883C56.5207 6.71058 47.7197 2.76945 38 2.76945C28.2803 2.76945 19.466 6.71058 13.1016 13.0883C6.7239 19.466 2.78276 28.267 2.78276 37.9867C2.78276 47.7064 6.7239 56.5207 13.1016 62.8851C19.4793 69.2628 28.2803 73.2039 38 73.2039C47.7197 73.2039 56.534 69.2628 62.8984 62.8851C69.2761 56.5074 73.2172 47.7064 73.2172 37.9867C73.2172 28.267 69.2761 19.4527 62.8984 13.0883ZM37.9867 0C48.4786 0 57.972 4.24737 64.8556 11.131C71.726 18.0014 75.9867 27.5081 75.9867 38C75.9867 48.4919 71.7393 57.9853 64.8556 64.8689C57.9853 71.7393 48.4786 76 37.9867 76C27.4947 76 18.0014 71.7526 11.1177 64.8689C4.23406 57.9853 0 48.4786 0 37.9867C0 27.4947 4.24737 18.0014 11.131 11.131C18.0014 4.24737 27.4947 0 37.9867 0Z" fill="#D9B96B"/>
<path fill-rule="evenodd" clip-rule="evenodd" d="M26.8822 53.4317H4.79318C4.35379 52.4731 3.94104 51.5011 3.58154 50.5025L10.3454 40.4899C10.4253 40.37 10.585 40.3434 10.7049 40.41C16.3103 43.6321 21.4365 47.4135 25.9768 51.8606C26.3496 52.2334 26.7224 52.6062 27.0952 52.979C27.1751 53.0589 27.1884 53.1654 27.1485 53.2719C27.1085 53.3785 27.0153 53.4317 26.8955 53.4317" fill="#D9B96B"/>
<path fill-rule="evenodd" clip-rule="evenodd" d="M65.6412 40.4899L72.405 50.5025C72.0455 51.5011 71.6328 52.4864 71.1934 53.4317H49.1044C48.9979 53.4317 48.9047 53.3651 48.8514 53.2719C48.8115 53.1654 48.8248 53.0589 48.9047 52.979C53.7112 48.0259 59.2102 43.8851 65.2817 40.3967C65.4015 40.3301 65.5613 40.3567 65.6412 40.4765" fill="#D9B96B"/>
<path fill-rule="evenodd" clip-rule="evenodd" d="M39.265 1.41133L64.4829 38.7855C64.5495 38.8921 64.5495 39.0252 64.4563 39.1184C64.3631 39.2116 64.2299 39.2249 64.1234 39.1583C58.9707 36.0827 54.2306 32.5277 50.0099 28.3735C45.3365 23.7932 41.2888 18.4807 37.9868 12.3293C31.6889 24.0462 22.7016 32.6874 11.8501 39.1583C11.7436 39.2249 11.6105 39.1983 11.5173 39.1184C11.424 39.0252 11.424 38.8921 11.4906 38.7855L36.7219 1.41133C37.1479 1.39801 37.574 1.3847 38.0001 1.3847C38.4262 1.3847 38.8522 1.3847 39.2783 1.41133" fill="#D9B96B"/>
<path fill-rule="evenodd" clip-rule="evenodd" d="M48.0925 40.117C45.9888 41.3153 44.0581 42.7134 42.3672 44.3777C40.6762 46.042 39.1983 47.9726 38 50.2095C36.8017 47.9726 35.3237 46.042 33.6328 44.3777C31.9418 42.7134 30.0112 41.302 27.9075 40.117C32.1282 37.7337 35.6033 34.4849 38.0133 30.0112C39.2116 32.248 40.6895 34.1787 42.3805 35.843C44.0848 37.5073 46.0021 38.9187 48.1058 40.1037L48.0925 40.117Z" fill="#E5262B"/>
<path d="M32.3146 60.1689V65.2817H31.5024V61.1409L30.4639 61.4737L30.2509 60.7547L32.035 60.1689H32.3146Z" fill="#D9B96B"/>
<path d="M35.2571 62.8718C35.5368 62.8718 35.7764 62.7786 35.9628 62.5788C36.1492 62.3791 36.2557 62.1395 36.2557 61.8598C36.2557 61.5802 36.1625 61.3273 35.9628 61.1409C35.7764 60.9411 35.5368 60.8479 35.2571 60.8479C34.9775 60.8479 34.7379 60.9411 34.5382 61.1409C34.3384 61.3406 34.2452 61.5802 34.2452 61.8598C34.2452 62.1395 34.3384 62.3924 34.5382 62.5788C34.7379 62.7786 34.9642 62.8718 35.2571 62.8718ZM35.2571 60.089C35.5767 60.089 35.8829 60.1689 36.1625 60.3154C36.4422 60.4618 36.6552 60.6748 36.815 60.9545C36.9747 61.2207 37.0546 61.527 37.0546 61.8598C37.0546 62.0596 37.028 62.246 36.9614 62.4191C36.9082 62.5922 36.8283 62.7519 36.7351 62.8851C36.6419 63.0315 36.5087 63.2179 36.3356 63.4709L35.0707 65.2817H34.0988L35.337 63.5375C35.2705 63.5508 35.1906 63.5641 35.1107 63.5641C34.8178 63.5641 34.5515 63.4842 34.2852 63.3378C34.0322 63.1913 33.8192 62.9783 33.6594 62.7253C33.4996 62.459 33.433 62.1794 33.433 61.8598C33.433 61.5403 33.5129 61.2341 33.686 60.9678C33.8458 60.7015 34.0721 60.4884 34.3518 60.3287C34.6314 60.1689 34.9243 60.1023 35.2571 60.1023V60.089Z" fill="#D9B96B"/>
<path d="M39.5577 62.8718C39.8374 62.8718 40.077 62.7786 40.2634 62.5788C40.4498 62.3791 40.5563 62.1395 40.5563 61.8598C40.5563 61.5802 40.4631 61.3273 40.2634 61.1409C40.077 60.9411 39.8374 60.8479 39.5577 60.8479C39.2781 60.8479 39.0385 60.9411 38.8388 61.1409C38.639 61.3406 38.5458 61.5802 38.5458 61.8598C38.5458 62.1395 38.639 62.3924 38.8388 62.5788C39.0385 62.7652 39.2648 62.8718 39.5577 62.8718ZM39.5577 60.089C39.8773 60.089 40.1835 60.1689 40.4631 60.3154C40.7428 60.4618 40.9558 60.6748 41.1156 60.9545C41.2753 61.2207 41.3552 61.527 41.3552 61.8598C41.3552 62.0596 41.3286 62.246 41.262 62.4191C41.2088 62.5922 41.1289 62.7519 41.0357 62.8851C40.9425 63.0315 40.8093 63.2179 40.6362 63.4709L39.3713 65.2817H38.3994L39.6376 63.5375C39.5711 63.5508 39.4912 63.5641 39.4113 63.5641C39.1184 63.5641 38.8521 63.4842 38.5858 63.3378C38.3328 63.1913 38.1198 62.9783 37.96 62.7253C37.8002 62.459 37.7336 62.1794 37.7336 61.8598C37.7336 61.5403 37.8135 61.2341 37.9866 60.9678C38.1464 60.7015 38.3727 60.4884 38.6524 60.3287C38.932 60.1689 39.2249 60.1023 39.5577 60.1023V60.089Z" fill="#D9B96B"/>
<path d="M45.7224 64.5761V65.2951H42.0609V65.1087L43.885 63.1514C44.1646 62.8585 44.3777 62.5922 44.5108 62.3925C44.644 62.1794 44.7105 61.9664 44.7105 61.7534C44.7105 61.5004 44.6306 61.2874 44.4842 61.1143C44.3244 60.9412 44.1247 60.8613 43.8584 60.8613C43.5921 60.8613 43.3924 60.9545 43.2326 61.1276C43.0728 61.3007 42.9929 61.527 42.9929 61.7933C42.9929 61.8998 42.9929 62.033 43.0329 62.1927H42.2074C42.1674 62.0596 42.1541 61.8998 42.1541 61.7534C42.1541 61.4738 42.2207 61.2075 42.3671 60.9545C42.5003 60.7015 42.7133 60.5018 42.9663 60.342C43.2326 60.1822 43.5255 60.1157 43.8717 60.1157C44.1913 60.1157 44.4842 60.1822 44.7372 60.3287C44.9901 60.4618 45.1899 60.6616 45.3363 60.9012C45.4828 61.1409 45.5627 61.4072 45.5627 61.7134C45.5627 62.0596 45.4695 62.3792 45.2831 62.6588C45.0966 62.9517 44.8304 63.2712 44.4709 63.6574L43.5788 64.616H45.7358L45.7224 64.5761Z" fill="#D9B96B"/>
<path fill-rule="evenodd" clip-rule="evenodd" d="M25.3911 61.6468C25.9636 61.6468 26.4296 62.1128 26.4296 62.6853C26.4296 63.2579 25.9636 63.7239 25.3911 63.7239C24.8186 63.7239 24.3525 63.2579 24.3525 62.6853C24.3525 62.1128 24.8186 61.6468 25.3911 61.6468Z" fill="#D9B96B"/>
<path fill-rule="evenodd" clip-rule="evenodd" d="M50.5956 61.6468C51.1681 61.6468 51.6341 62.1128 51.6341 62.6853C51.6341 63.2579 51.1681 63.7239 50.5956 63.7239C50.0231 63.7239 49.5571 63.2579 49.5571 62.6853C49.5571 62.1128 50.0231 61.6468 50.5956 61.6468Z" fill="#D9B96B"/>
</svg>
