<svg width="1366" height="81" viewBox="0 0 1366 81" fill="none" xmlns="http://www.w3.org/2000/svg">
<path d="M38.689 53.0801C38.239 53.0801 37.849 52.8501 37.629 52.4701C36.499 50.4901 35.109 48.6801 33.489 47.0901C31.829 45.4601 29.859 44.0001 27.639 42.7401L27.209 42.4901V41.5001L27.639 41.2501C32.049 38.7501 35.319 35.5701 37.629 31.5201C38.069 30.7501 39.299 30.7501 39.739 31.5201C40.869 33.5101 42.259 35.3101 43.879 36.9001C45.549 38.5401 47.519 40.0001 49.729 41.2501L50.159 41.4901V42.4801L49.729 42.7301C47.509 43.9801 45.549 45.4501 43.879 47.0801C42.269 48.6701 40.869 50.4801 39.739 52.4601C39.519 52.8401 39.129 53.0701 38.689 53.0701V53.0801ZM29.719 42.0001C31.569 43.1601 33.229 44.4601 34.679 45.8801C36.219 47.3901 37.559 49.0801 38.679 50.9101C39.809 49.0701 41.149 47.3801 42.679 45.8801C44.129 44.4501 45.799 43.1501 47.639 42.0001C45.799 40.8501 44.129 39.5501 42.679 38.1201C41.149 36.6201 39.809 34.9301 38.679 33.0901C36.479 36.6901 33.529 39.6201 29.719 42.0101V42.0001Z" fill="#D9B96B"/>
<path d="M26.4787 56.5901H1.20866C0.758662 56.5901 0.348662 56.3401 0.138662 55.9401C-0.0713384 55.5401 -0.0413384 55.0601 0.218662 54.6901L8.95866 42.0601C9.31866 41.5401 10.0187 41.3901 10.5687 41.7001C16.6187 45.2101 22.0087 49.2701 26.5987 53.7701C26.8487 54.0201 27.1087 54.2701 27.3587 54.5201C27.6987 54.8701 27.7987 55.3901 27.6087 55.8401C27.4187 56.2901 26.9787 56.5801 26.4887 56.5801L26.4787 56.5901ZM2.13866 54.8901H25.2987C20.9387 50.6201 15.8187 46.7601 10.0887 43.4001L2.13866 54.8901Z" fill="#D9B96B"/>
<path d="M76.1385 56.5899H50.8685C50.3785 56.5899 49.9385 56.2999 49.7485 55.8499C49.5585 55.3899 49.6585 54.8799 49.9985 54.5299C50.2485 54.2799 50.4985 54.0299 50.7585 53.7799C55.3585 49.2699 60.7585 45.2099 66.7985 41.7099C67.3385 41.3999 68.0485 41.5499 68.4085 42.0699L77.1485 54.6999C77.4085 55.0699 77.4385 55.5499 77.2285 55.9499C77.0185 56.3499 76.6085 56.5999 76.1585 56.5999L76.1385 56.5899ZM52.0485 54.8899H75.2085L67.2585 43.3999C61.5385 46.7499 56.4285 50.6099 52.0485 54.8899Z" fill="#D9B96B"/>
<path d="M65.6388 41.4101C65.4188 41.4101 65.2089 41.3501 65.0089 41.2301C59.7089 38.0001 54.9188 34.2901 50.7588 30.2201C46.0288 25.5701 41.9688 20.2701 38.6788 14.4501C32.4688 25.4401 23.8488 34.2101 12.3488 41.2301C11.8588 41.5301 11.2288 41.4501 10.8388 41.0301C10.4488 40.6201 10.3988 39.9801 10.7188 39.5101L37.6788 0.530088C38.1388 -0.139912 39.2188 -0.139912 39.6788 0.530088L66.6388 39.5001C66.9688 39.9701 66.9188 40.6001 66.5288 41.0201C66.2888 41.2701 65.9688 41.4001 65.6488 41.4001L65.6388 41.4101ZM38.6788 10.9001L39.4288 12.2901C42.7688 18.5001 46.9788 24.1201 51.9588 29.0101C55.4888 32.4701 59.4988 35.6601 63.8888 38.5201L38.6788 2.08009L13.4688 38.5101C24.1588 31.5801 32.1788 22.9801 37.9288 12.2801L38.6788 10.8901V10.9001Z" fill="#D9B96B"/>
<path d="M189.999 53.08C189.549 53.08 189.159 52.85 188.939 52.47C187.809 50.49 186.419 48.68 184.799 47.09C183.139 45.46 181.169 44 178.949 42.74L178.519 42.49V41.5L178.949 41.25C183.359 38.75 186.629 35.57 188.939 31.52C189.369 30.76 190.609 30.75 191.049 31.52C192.179 33.5 193.569 35.31 195.189 36.9C196.859 38.54 198.829 40 201.039 41.25L201.469 41.49V42.48L201.039 42.73C198.819 43.98 196.849 45.45 195.189 47.08C193.569 48.67 192.179 50.48 191.049 52.46C190.829 52.84 190.439 53.07 189.999 53.07V53.08ZM181.029 42C182.879 43.16 184.539 44.46 185.989 45.88C187.519 47.39 188.869 49.08 189.989 50.91C191.119 49.07 192.459 47.38 193.989 45.88C195.439 44.46 197.109 43.15 198.949 42C197.109 40.85 195.439 39.55 193.989 38.12C192.459 36.62 191.119 34.93 189.989 33.09C187.789 36.69 184.839 39.63 181.029 42.01V42Z" fill="#D9B96B"/>
<path d="M177.799 56.5901H152.529C152.079 56.5901 151.669 56.3401 151.459 55.9401C151.249 55.5401 151.279 55.0601 151.539 54.6901L160.279 42.0601C160.639 41.5401 161.339 41.3901 161.889 41.7001C167.939 45.2101 173.329 49.2701 177.919 53.7701C178.169 54.0201 178.429 54.2701 178.679 54.5201C179.019 54.8701 179.119 55.3901 178.939 55.8401C178.749 56.2901 178.309 56.5901 177.819 56.5901H177.799ZM153.459 54.8901H176.619C172.259 50.6201 167.139 46.7601 161.409 43.4001L153.459 54.8901Z" fill="#D9B96B"/>
<path d="M227.458 56.5899H202.188C201.698 56.5899 201.258 56.2999 201.068 55.8499C200.878 55.3899 200.978 54.8699 201.328 54.5299C201.578 54.2799 201.828 54.0299 202.078 53.7799C206.678 49.2699 212.078 45.2099 218.118 41.7099C218.658 41.3899 219.368 41.5499 219.728 42.0699L228.468 54.6999C228.728 55.0699 228.758 55.5499 228.548 55.9499C228.338 56.3499 227.928 56.5999 227.478 56.5999L227.458 56.5899ZM203.368 54.8899H226.528L218.578 43.3999C212.858 46.7499 207.748 50.6099 203.368 54.8899Z" fill="#D9B96B"/>
<path d="M216.958 41.41C216.738 41.41 216.528 41.35 216.328 41.23C211.028 38 206.238 34.29 202.078 30.22C197.348 25.57 193.288 20.27 189.998 14.45C183.788 25.44 175.168 34.21 163.668 41.23C163.168 41.53 162.548 41.45 162.158 41.03C161.768 40.62 161.718 39.98 162.038 39.51L188.998 0.530007C189.458 -0.129993 190.528 -0.139993 190.988 0.530007L217.948 39.51C218.278 39.98 218.228 40.61 217.838 41.03C217.598 41.28 217.278 41.41 216.958 41.41ZM189.998 10.9L190.748 12.29C194.088 18.5 198.298 24.12 203.278 29.01C206.808 32.47 210.818 35.66 215.208 38.52L189.998 2.08001L164.788 38.51C175.478 31.58 183.498 22.98 189.248 12.28L189.998 10.89V10.9Z" fill="#D9B96B"/>
<path d="M341.319 53.08C340.869 53.08 340.479 52.85 340.259 52.47C339.129 50.49 337.739 48.68 336.119 47.09C334.459 45.46 332.489 44 330.269 42.74L329.839 42.49V41.5L330.269 41.25C334.679 38.75 337.949 35.57 340.259 31.52C340.689 30.76 341.929 30.75 342.369 31.52C343.499 33.5 344.889 35.31 346.509 36.9C348.179 38.54 350.149 40 352.359 41.25L352.789 41.49V42.48L352.359 42.73C350.139 43.98 348.169 45.45 346.509 47.08C344.889 48.67 343.499 50.48 342.369 52.46C342.149 52.84 341.759 53.07 341.319 53.07V53.08ZM332.349 42C334.199 43.16 335.859 44.46 337.309 45.88C338.839 47.39 340.189 49.08 341.309 50.91C342.439 49.07 343.779 47.38 345.309 45.88C346.759 44.46 348.429 43.15 350.269 42C348.429 40.85 346.759 39.55 345.309 38.12C343.779 36.62 342.439 34.93 341.309 33.09C339.109 36.69 336.159 39.63 332.349 42.01V42Z" fill="#D9B96B"/>
<path d="M329.118 56.5902H303.848C303.398 56.5902 302.988 56.3401 302.778 55.9402C302.568 55.5402 302.598 55.0602 302.858 54.6902L311.598 42.0601C311.958 41.5401 312.658 41.3801 313.208 41.7001C319.258 45.2101 324.648 49.2701 329.238 53.7701C329.488 54.0201 329.748 54.2701 329.998 54.5201C330.338 54.8701 330.438 55.3902 330.258 55.8402C330.068 56.2902 329.628 56.5902 329.138 56.5902H329.118ZM304.778 54.8902H327.938C323.578 50.6202 318.458 46.7601 312.728 43.4001L304.778 54.8902Z" fill="#D9B96B"/>
<path d="M378.779 56.5902H353.509C353.019 56.5902 352.579 56.3002 352.389 55.8402C352.199 55.3802 352.299 54.8701 352.649 54.5201C352.899 54.2701 353.149 54.0201 353.399 53.7701C357.999 49.2601 363.399 45.2001 369.439 41.7001C369.979 41.3801 370.689 41.5401 371.049 42.0601L379.789 54.6902C380.049 55.0602 380.079 55.5402 379.869 55.9402C379.659 56.3401 379.249 56.5902 378.789 56.5902H378.779ZM354.689 54.8902H377.849L369.899 43.4001C364.179 46.7501 359.069 50.6102 354.689 54.8902Z" fill="#D9B96B"/>
<path d="M368.279 41.4101C368.059 41.4101 367.849 41.3501 367.649 41.2301C362.349 38.0001 357.559 34.2901 353.399 30.2201C348.669 25.5701 344.609 20.2701 341.319 14.4501C335.109 25.4401 326.489 34.2101 314.989 41.2301C314.489 41.5301 313.869 41.4501 313.479 41.0301C313.089 40.6201 313.039 39.9801 313.369 39.5101L340.319 0.530088C340.779 -0.139912 341.859 -0.139912 342.319 0.530088L369.279 39.5001C369.609 39.9801 369.559 40.6001 369.169 41.0201C368.929 41.2701 368.609 41.4001 368.289 41.4001L368.279 41.4101ZM341.309 10.9001L342.059 12.2901C345.399 18.5001 349.609 24.1201 354.589 29.0101C358.119 32.4701 362.129 35.6701 366.519 38.5201L341.309 2.08009L316.099 38.5101C326.789 31.5801 334.809 22.9801 340.559 12.2901L341.309 10.9001Z" fill="#D9B96B"/>
<path d="M492.638 53.0801C492.188 53.0801 491.798 52.8501 491.578 52.4701C490.448 50.4901 489.058 48.6801 487.438 47.0901C485.778 45.4601 483.808 44.0001 481.588 42.7401L481.158 42.4901V41.5001L481.588 41.2501C485.998 38.7501 489.268 35.5701 491.578 31.5201C492.018 30.7501 493.248 30.7501 493.688 31.5201C494.818 33.5101 496.208 35.3101 497.828 36.9001C499.498 38.5401 501.468 40.0001 503.678 41.2501L504.108 41.4901V42.4801L503.678 42.7301C501.458 43.9801 499.498 45.4501 497.828 47.0801C496.218 48.6701 494.818 50.4801 493.688 52.4601C493.468 52.8401 493.078 53.0701 492.638 53.0701V53.0801ZM483.668 42.0001C485.518 43.1601 487.178 44.4601 488.628 45.8801C490.158 47.3901 491.508 49.0801 492.628 50.9101C493.758 49.0701 495.098 47.3801 496.628 45.8801C498.078 44.4501 499.748 43.1501 501.588 42.0001C499.748 40.8501 498.078 39.5501 496.628 38.1201C495.098 36.6201 493.758 34.9301 492.628 33.0901C490.428 36.6901 487.478 39.6201 483.668 42.0101V42.0001Z" fill="#D9B96B"/>
<path d="M480.429 56.5901H455.159C454.709 56.5901 454.299 56.3401 454.089 55.9401C453.879 55.5401 453.909 55.0601 454.169 54.6901L462.909 42.0601C463.269 41.5401 463.969 41.3901 464.519 41.7001C470.569 45.2101 475.959 49.2701 480.549 53.7701C480.799 54.0201 481.059 54.2701 481.309 54.5301C481.649 54.8801 481.749 55.4001 481.569 55.8501C481.379 56.3001 480.939 56.6001 480.449 56.6001L480.429 56.5901ZM456.099 54.8901H479.259C474.899 50.6201 469.779 46.7601 464.049 43.4001L456.099 54.8901Z" fill="#D9B96B"/>
<path d="M530.099 56.5899H504.829C504.339 56.5899 503.899 56.2999 503.709 55.8499C503.519 55.3899 503.619 54.8699 503.969 54.5299C504.219 54.2799 504.469 54.0299 504.719 53.7799C509.319 49.2699 514.719 45.2099 520.759 41.7099C521.309 41.3899 522.009 41.5499 522.369 42.0699L531.109 54.6999C531.369 55.0699 531.399 55.5499 531.189 55.9499C530.979 56.3499 530.569 56.5999 530.119 56.5999L530.099 56.5899ZM505.999 54.8899H529.159L521.209 43.3999C515.489 46.7499 510.379 50.6099 505.999 54.8899Z" fill="#D9B96B"/>
<path d="M519.599 41.41C519.379 41.41 519.169 41.35 518.969 41.23C513.669 38 508.879 34.29 504.719 30.22C499.989 25.57 495.929 20.27 492.639 14.45C486.439 25.44 477.809 34.21 466.309 41.23C465.809 41.53 465.189 41.45 464.799 41.03C464.409 40.62 464.359 39.98 464.679 39.51L491.629 0.530007C492.089 -0.139993 493.169 -0.129993 493.629 0.530007L520.589 39.5C520.919 39.98 520.869 40.6 520.479 41.02C520.239 41.27 519.919 41.4 519.599 41.4V41.41ZM492.629 10.9L493.379 12.29C496.719 18.5 500.929 24.12 505.909 29.01C509.439 32.47 513.449 35.66 517.839 38.52L492.629 2.08001L467.419 38.51C478.109 31.58 486.129 22.98 491.879 12.28L492.629 10.89V10.9Z" fill="#D9B96B"/>
<path d="M643.959 53.0801C643.509 53.0801 643.119 52.8501 642.899 52.4701C641.769 50.4901 640.379 48.6801 638.759 47.0901C637.099 45.4601 635.129 44.0001 632.909 42.7401L632.479 42.4901V41.5001L632.909 41.2501C637.319 38.7501 640.589 35.5701 642.899 31.5201C643.339 30.7501 644.569 30.7501 645.009 31.5201C646.139 33.5101 647.529 35.3201 649.149 36.9001C650.819 38.5401 652.789 40.0001 654.999 41.2501L655.429 41.4901V42.4801L654.999 42.7301C652.779 43.9801 650.819 45.4501 649.149 47.0801C647.529 48.6701 646.139 50.4801 645.009 52.4601C644.789 52.8401 644.399 53.0701 643.959 53.0701V53.0801ZM634.989 42.0001C636.839 43.1601 638.499 44.4601 639.949 45.8801C641.479 47.3901 642.829 49.0801 643.949 50.9101C645.079 49.0701 646.419 47.3801 647.949 45.8801C649.399 44.4601 651.069 43.1501 652.909 42.0001C651.069 40.8501 649.399 39.5501 647.949 38.1201C646.419 36.6201 645.079 34.9301 643.949 33.0901C641.749 36.6901 638.799 39.6201 634.989 42.0101V42.0001Z" fill="#D9B96B"/>
<path d="M631.748 56.5902H606.478C606.028 56.5902 605.618 56.3401 605.408 55.9402C605.198 55.5402 605.228 55.0602 605.488 54.6902L614.228 42.0601C614.588 41.5401 615.288 41.3801 615.838 41.7001C621.888 45.2101 627.278 49.2701 631.868 53.7701C632.128 54.0201 632.378 54.2702 632.628 54.5302C632.968 54.8802 633.068 55.4002 632.888 55.8502C632.698 56.3001 632.258 56.6002 631.768 56.6002L631.748 56.5902ZM607.408 54.8902H630.568C626.208 50.6202 621.088 46.7601 615.358 43.4001L607.408 54.8902Z" fill="#D9B96B"/>
<path d="M681.409 56.5899H656.139C655.649 56.5899 655.209 56.2999 655.019 55.8499C654.829 55.3899 654.929 54.8699 655.279 54.5299C655.529 54.2799 655.779 54.0299 656.029 53.7799C660.629 49.2699 666.029 45.2099 672.069 41.7099C672.609 41.3899 673.319 41.5499 673.679 42.0699L682.419 54.6999C682.679 55.0699 682.709 55.5499 682.499 55.9499C682.289 56.3499 681.879 56.5999 681.429 56.5999L681.409 56.5899ZM657.319 54.8899H680.479L672.529 43.3999C666.809 46.7499 661.699 50.6099 657.319 54.8899Z" fill="#D9B96B"/>
<path d="M670.908 41.41C670.688 41.41 670.478 41.35 670.278 41.23C664.978 38 660.188 34.29 656.028 30.22C651.298 25.57 647.238 20.27 643.948 14.45C637.738 25.44 629.118 34.21 617.618 41.23C617.128 41.53 616.498 41.45 616.108 41.03C615.718 40.62 615.668 39.98 615.988 39.51L642.948 0.530007C643.408 -0.139993 644.488 -0.129993 644.948 0.530007L671.908 39.5C672.238 39.97 672.188 40.6 671.798 41.02C671.558 41.27 671.238 41.4 670.918 41.4L670.908 41.41ZM643.948 10.9L644.698 12.29C648.038 18.5 652.248 24.12 657.228 29.01C660.758 32.47 664.768 35.66 669.158 38.52L643.948 2.09001L618.738 38.52C629.428 31.59 637.448 22.99 643.198 12.3L643.948 10.91V10.9Z" fill="#D9B96B"/>
<path d="M114.339 25.69C113.899 25.69 113.509 25.46 113.289 25.08C110.979 21.03 107.719 17.85 103.299 15.35L101.999 14.61L103.299 13.87C105.519 12.61 107.489 11.14 109.149 9.51002C110.769 7.92002 112.159 6.11002 113.289 4.13002C113.509 3.75002 113.899 3.52002 114.339 3.52002C114.779 3.52002 115.179 3.75002 115.389 4.13002C116.519 6.11002 117.909 7.92002 119.529 9.51002C121.199 11.14 123.159 12.61 125.379 13.86L126.689 14.6L125.379 15.34C123.169 16.59 121.199 18.06 119.529 19.7C117.909 21.29 116.519 23.1 115.389 25.08C115.169 25.46 114.779 25.69 114.339 25.69ZM105.379 14.6C109.199 16.98 112.139 19.92 114.339 23.52C115.469 21.68 116.809 19.99 118.339 18.49C119.799 17.06 121.459 15.76 123.299 14.61C121.449 13.45 119.789 12.15 118.339 10.73C116.809 9.23002 115.469 7.54002 114.339 5.70002C113.219 7.53002 111.869 9.23002 110.339 10.73C108.889 12.15 107.229 13.45 105.379 14.61V14.6Z" fill="#D9B96B"/>
<path d="M85.6088 15.07C85.2288 15.07 84.8488 14.89 84.6188 14.55L75.8788 1.92002C75.6188 1.55002 75.5888 1.07002 75.7988 0.67002C76.0088 0.27002 76.4188 0.0200195 76.8688 0.0200195H102.139C102.629 0.0200195 103.069 0.31002 103.259 0.77002C103.449 1.22002 103.349 1.73002 103.009 2.08002C102.759 2.34002 102.509 2.59002 102.249 2.84002C97.6588 7.34002 92.2688 11.41 86.2188 14.91C86.0288 15.02 85.8188 15.08 85.6088 15.08V15.07ZM77.7988 1.71002L85.7488 13.2C91.4788 9.84002 96.5888 5.98002 100.959 1.71002H77.7988Z" fill="#D9B96B"/>
<path d="M143.059 15.06C142.849 15.06 142.649 15.01 142.459 14.9C136.419 11.4 131.029 7.34001 126.419 2.83001C126.169 2.58001 125.909 2.33001 125.659 2.08001C125.309 1.73001 125.209 1.21001 125.399 0.76001C125.589 0.31001 126.029 0.0100098 126.519 0.0100098H151.789C152.239 0.0100098 152.659 0.26001 152.869 0.66001C153.079 1.06001 153.049 1.54001 152.789 1.91001L144.049 14.54C143.819 14.88 143.439 15.06 143.049 15.06H143.059ZM127.709 1.71001C132.089 5.99001 137.209 9.85001 142.919 13.2L150.869 1.71001H127.709Z" fill="#D9B96B"/>
<path d="M114.339 56.5901C113.939 56.5901 113.569 56.4001 113.339 56.0701L86.3786 17.1001C86.0486 16.6201 86.0986 16.0001 86.4986 15.5801C86.8986 15.1601 87.5186 15.0801 88.0086 15.3801C99.5086 22.4001 108.139 31.1701 114.339 42.1601C117.629 36.3401 121.689 31.0401 126.419 26.3901C130.579 22.3101 135.369 18.6101 140.669 15.3801C141.159 15.0801 141.789 15.1601 142.189 15.5901C142.579 16.0001 142.629 16.6401 142.299 17.1101L115.339 56.0801C115.109 56.4101 114.749 56.6001 114.339 56.6001V56.5901ZM89.1286 18.0801L114.339 54.5101L139.549 18.0801C135.149 20.9301 131.149 24.1201 127.619 27.5901C122.649 32.4701 118.429 38.1001 115.089 44.3101L114.339 45.7001L113.589 44.3101C107.839 33.6101 99.8186 25.0201 89.1286 18.0801Z" fill="#D9B96B"/>
<path d="M265.658 25.69C265.218 25.69 264.818 25.46 264.608 25.08C262.298 21.03 259.038 17.85 254.618 15.35L253.318 14.61L254.618 13.87C256.838 12.61 258.808 11.14 260.468 9.51002C262.088 7.92002 263.478 6.11002 264.608 4.13002C264.828 3.75002 265.218 3.52002 265.658 3.52002C266.098 3.52002 266.498 3.75002 266.708 4.13002C267.838 6.11002 269.228 7.92002 270.848 9.51002C272.508 11.14 274.478 12.61 276.698 13.86L278.008 14.6L276.698 15.34C274.488 16.59 272.518 18.06 270.848 19.7C269.228 21.29 267.838 23.1 266.708 25.08C266.488 25.46 266.098 25.69 265.658 25.69ZM256.688 14.6C260.508 16.98 263.448 19.92 265.648 23.52C266.778 21.68 268.118 19.99 269.648 18.49C271.108 17.06 272.768 15.76 274.608 14.61C272.758 13.45 271.098 12.15 269.648 10.73C268.118 9.23002 266.778 7.54002 265.648 5.70002C264.528 7.54002 263.178 9.23002 261.648 10.73C260.198 12.15 258.538 13.45 256.688 14.61V14.6Z" fill="#D9B96B"/>
<path d="M236.928 15.06C236.538 15.06 236.158 14.88 235.928 14.54L227.188 1.91001C226.928 1.54001 226.898 1.06001 227.108 0.66001C227.318 0.26001 227.728 0.0100098 228.178 0.0100098H253.448C253.938 0.0100098 254.378 0.30001 254.568 0.76001C254.758 1.21001 254.658 1.73001 254.308 2.08001C254.058 2.33001 253.808 2.59001 253.548 2.83001C248.958 7.33001 243.568 11.39 237.518 14.9C237.328 15.01 237.118 15.06 236.918 15.06H236.928ZM229.118 1.71001L237.068 13.2C242.798 9.84001 247.908 5.98001 252.278 1.71001H229.118Z" fill="#D9B96B"/>
<path d="M294.379 15.06C294.169 15.06 293.969 15.01 293.779 14.9C287.739 11.4 282.349 7.34001 277.739 2.83001C277.489 2.58001 277.229 2.33001 276.979 2.08001C276.639 1.73001 276.529 1.21001 276.719 0.76001C276.909 0.30001 277.349 0.0100098 277.839 0.0100098H303.109C303.559 0.0100098 303.969 0.26001 304.179 0.66001C304.389 1.06001 304.359 1.54001 304.099 1.91001L295.359 14.54C295.129 14.88 294.749 15.06 294.359 15.06H294.379ZM279.029 1.71001C283.409 5.99001 288.529 9.85001 294.239 13.2L302.189 1.71001H279.029Z" fill="#D9B96B"/>
<path d="M265.659 56.5899C265.259 56.5899 264.889 56.3999 264.659 56.0699L237.699 17.0999C237.369 16.6199 237.419 15.9999 237.819 15.5699C238.219 15.1499 238.839 15.0699 239.329 15.3699C250.829 22.3899 259.459 31.1599 265.659 42.1499C268.949 36.3299 273.009 31.0299 277.739 26.3799C281.899 22.2999 286.689 18.5999 291.989 15.3699C292.479 15.0699 293.119 15.1599 293.509 15.5799C293.899 15.9899 293.949 16.6299 293.619 17.0999L266.659 56.0699C266.429 56.3999 266.069 56.5899 265.659 56.5899ZM240.449 18.0799L265.659 54.5099L290.869 18.0799C286.469 20.9299 282.469 24.1199 278.939 27.5899C273.969 32.4699 269.749 38.0999 266.409 44.3099L265.659 45.6999L264.909 44.3099C259.159 33.6099 251.139 25.0199 240.449 18.0799Z" fill="#D9B96B"/>
<path d="M416.969 25.69C416.529 25.69 416.139 25.46 415.919 25.08C413.609 21.03 410.349 17.85 405.929 15.35L404.629 14.61L405.929 13.87C408.149 12.61 410.119 11.14 411.779 9.51002C413.399 7.92002 414.799 6.11002 415.919 4.13002C416.139 3.75002 416.529 3.52002 416.969 3.52002C417.409 3.52002 417.809 3.75002 418.019 4.13002C419.149 6.11002 420.539 7.92002 422.159 9.51002C423.819 11.14 425.789 12.61 428.009 13.86L429.319 14.6L428.009 15.34C425.799 16.59 423.829 18.06 422.159 19.7C420.549 21.29 419.149 23.1 418.019 25.08C417.799 25.46 417.409 25.69 416.969 25.69ZM408.009 14.6C411.829 16.98 414.769 19.92 416.969 23.52C418.099 21.68 419.439 19.99 420.969 18.49C422.429 17.06 424.089 15.76 425.929 14.61C424.079 13.45 422.419 12.15 420.969 10.73C419.439 9.23002 418.099 7.54002 416.969 5.70002C415.849 7.53002 414.499 9.23002 412.969 10.73C411.519 12.15 409.859 13.45 408.009 14.61V14.6Z" fill="#D9B96B"/>
<path d="M388.249 15.06C387.859 15.06 387.479 14.88 387.249 14.54L378.509 1.91001C378.249 1.54001 378.219 1.06001 378.429 0.66001C378.639 0.26001 379.049 0.0100098 379.499 0.0100098H404.769C405.259 0.0100098 405.699 0.30001 405.889 0.76001C406.079 1.21001 405.979 1.73001 405.629 2.08001C405.379 2.33001 405.129 2.59001 404.869 2.83001C400.279 7.33001 394.889 11.39 388.839 14.9C388.649 15.01 388.439 15.06 388.239 15.06H388.249ZM380.439 1.71001L388.389 13.2C394.119 9.84001 399.229 5.98001 403.599 1.71001H380.439Z" fill="#D9B96B"/>
<path d="M445.699 15.06C445.489 15.06 445.289 15.01 445.099 14.9C439.059 11.4 433.659 7.34 429.059 2.83C428.809 2.58 428.549 2.33 428.299 2.07C427.959 1.72 427.849 1.2 428.039 0.75C428.229 0.29 428.669 0 429.159 0H454.429C454.879 0 455.299 0.25 455.509 0.65C455.719 1.05 455.689 1.53 455.429 1.9L446.689 14.53C446.459 14.87 446.079 15.05 445.689 15.05L445.699 15.06ZM430.349 1.71C434.729 5.99 439.839 9.85 445.559 13.2L453.509 1.71H430.349Z" fill="#D9B96B"/>
<path d="M416.968 56.5899C416.568 56.5899 416.208 56.3999 415.968 56.0699L389.008 17.0999C388.678 16.6199 388.728 15.9999 389.128 15.5699C389.528 15.1499 390.148 15.0699 390.638 15.3699C402.138 22.3899 410.768 31.1599 416.968 42.1499C420.258 36.3299 424.318 31.0299 429.048 26.3799C433.198 22.2999 437.998 18.5999 443.298 15.3699C443.788 15.0699 444.418 15.1499 444.818 15.5799C445.208 15.9899 445.258 16.6299 444.928 17.0999L417.968 56.0699C417.738 56.3999 417.378 56.5899 416.968 56.5899ZM391.768 18.0799L416.978 54.5099L442.188 18.0799C437.788 20.9299 433.788 24.1199 430.258 27.5899C425.288 32.4699 421.068 38.0999 417.728 44.3099L416.978 45.6999L416.228 44.3099C410.478 33.6199 402.458 25.0199 391.768 18.0799Z" fill="#D9B96B"/>
<path d="M568.288 25.69C567.848 25.69 567.458 25.46 567.238 25.08C564.928 21.03 561.658 17.84 557.248 15.34L555.948 14.6L557.248 13.86C559.468 12.6 561.438 11.13 563.098 9.50001C564.718 7.91001 566.108 6.10001 567.238 4.12001C567.458 3.74001 567.848 3.51001 568.288 3.51001C568.728 3.51001 569.128 3.74001 569.338 4.12001C570.468 6.10001 571.858 7.91001 573.478 9.50001C575.148 11.13 577.108 12.6 579.328 13.85L580.638 14.59L579.328 15.33C577.118 16.58 575.148 18.05 573.478 19.69C571.858 21.28 570.468 23.09 569.338 25.07C569.118 25.45 568.728 25.68 568.288 25.68V25.69ZM559.328 14.6C563.148 16.98 566.088 19.92 568.288 23.52C569.418 21.68 570.758 19.99 572.288 18.49C573.748 17.06 575.408 15.76 577.248 14.61C575.398 13.45 573.738 12.15 572.288 10.73C570.758 9.23001 569.418 7.54001 568.288 5.70001C567.168 7.53001 565.818 9.23001 564.288 10.73C562.838 12.15 561.178 13.45 559.328 14.61V14.6Z" fill="#D9B96B"/>
<path d="M539.569 15.06C539.179 15.06 538.799 14.88 538.569 14.54L529.829 1.91001C529.569 1.54001 529.539 1.06001 529.749 0.66001C529.959 0.26001 530.369 0.0100098 530.819 0.0100098H556.089C556.579 0.0100098 557.019 0.30001 557.209 0.76001C557.399 1.21001 557.299 1.73001 556.949 2.08001C556.699 2.33001 556.449 2.59001 556.189 2.83001C551.599 7.33001 546.209 11.4 540.159 14.9C539.969 15.01 539.759 15.06 539.559 15.06H539.569ZM531.759 1.71001L539.709 13.2C545.439 9.84001 550.549 5.98001 554.919 1.71001H531.759Z" fill="#D9B96B"/>
<path d="M597.009 15.06C596.799 15.06 596.599 15.01 596.409 14.9C590.369 11.4 584.969 7.34 580.369 2.83C580.119 2.58 579.859 2.33 579.609 2.07C579.269 1.72 579.169 1.2 579.349 0.75C579.539 0.3 579.979 0 580.469 0H605.739C606.189 0 606.599 0.25 606.809 0.65C607.019 1.05 606.989 1.53 606.729 1.9L597.989 14.53C597.759 14.87 597.379 15.05 596.989 15.05L597.009 15.06ZM581.659 1.71C586.039 5.99 591.149 9.85 596.869 13.2L604.819 1.71H581.659Z" fill="#D9B96B"/>
<path d="M568.289 56.5899C567.889 56.5899 567.529 56.3999 567.289 56.0699L540.329 17.0999C539.999 16.6199 540.049 15.9999 540.449 15.5699C540.849 15.1499 541.469 15.0699 541.959 15.3699C553.459 22.3899 562.089 31.1599 568.289 42.1499C571.589 36.3199 575.649 31.0299 580.369 26.3799C584.529 22.2999 589.319 18.5999 594.619 15.3699C595.109 15.0699 595.739 15.1499 596.139 15.5799C596.529 15.9899 596.579 16.6299 596.249 17.0999L569.289 56.0699C569.059 56.3999 568.699 56.5899 568.289 56.5899ZM543.079 18.0799L568.289 54.5099L593.499 18.0799C589.099 20.9299 585.099 24.1199 581.569 27.5899C576.599 32.4699 572.379 38.0999 569.039 44.3099L568.289 45.6999L567.539 44.3099C561.789 33.6199 553.769 25.0199 543.079 18.0799Z" fill="#D9B96B"/>
<path d="M568.288 80.5701C567.848 80.5701 567.458 80.3401 567.238 79.9601C566.108 77.9801 564.718 76.1701 563.098 74.5801C561.428 72.9401 559.458 71.4801 557.248 70.2301L556.818 69.9901V69.0001L557.248 68.7501C559.468 67.4901 561.438 66.0301 563.098 64.4001C564.718 62.8101 566.108 61.0001 567.238 59.0201C567.678 58.2501 568.908 58.2501 569.348 59.0201C570.478 61.0001 571.868 62.8101 573.488 64.4001C575.148 66.0301 577.118 67.4901 579.338 68.7501L579.768 69.0001V69.9901L579.338 70.2401C574.928 72.7401 571.658 75.9201 569.348 79.9701C569.128 80.3501 568.738 80.5801 568.298 80.5801L568.288 80.5701ZM559.328 69.4801C561.168 70.6301 562.838 71.9301 564.288 73.3601C565.818 74.8601 567.158 76.5501 568.288 78.3901C570.488 74.7901 573.438 71.8601 577.248 69.4701C575.398 68.3101 573.738 67.0101 572.288 65.5901C570.748 64.0801 569.408 62.3901 568.288 60.5601C567.158 62.4001 565.818 64.0901 564.288 65.5901C562.838 67.0101 561.168 68.3201 559.328 69.4701V69.4801Z" fill="#D9B96B"/>
<path d="M597.019 69.9401C596.809 69.9401 596.598 69.8901 596.408 69.7801C590.358 66.2801 584.969 62.2101 580.379 57.7101C580.129 57.4601 579.868 57.2101 579.618 56.9601C579.268 56.6101 579.168 56.0901 579.358 55.6401C579.548 55.1901 579.988 54.9001 580.478 54.9001H605.749C606.199 54.9001 606.609 55.1501 606.819 55.5501C607.029 55.9501 606.998 56.4301 606.738 56.8001L597.999 69.4301C597.769 69.7701 597.389 69.9501 596.999 69.9501L597.019 69.9401ZM581.668 56.5901C586.038 60.8601 591.149 64.7201 596.879 68.0801L604.829 56.5901H581.668Z" fill="#D9B96B"/>
<path d="M539.569 69.9399C539.179 69.9399 538.799 69.7599 538.569 69.4199L529.829 56.7899C529.569 56.4199 529.539 55.9399 529.749 55.5399C529.959 55.1399 530.369 54.8899 530.819 54.8899H556.089C556.579 54.8899 557.019 55.1799 557.209 55.6399C557.399 56.0899 557.299 56.6099 556.949 56.9599C556.699 57.2099 556.449 57.4599 556.189 57.7099C551.589 62.2199 546.189 66.2899 540.149 69.7799C539.959 69.8899 539.749 69.9399 539.549 69.9399H539.569ZM531.759 56.5899L539.709 68.0799C545.429 64.7299 550.539 60.8699 554.919 56.5899H531.759Z" fill="#D9B96B"/>
<path d="M416.969 80.5701C416.529 80.5701 416.139 80.3401 415.919 79.9601C414.789 77.9801 413.399 76.1701 411.779 74.5801C410.109 72.9401 408.139 71.4801 405.929 70.2301L405.499 69.9901V69.0001L405.929 68.7501C408.149 67.5001 410.119 66.0301 411.779 64.4001C413.399 62.8101 414.789 61.0001 415.919 59.0201C416.359 58.2501 417.589 58.2501 418.029 59.0201C419.159 61.0001 420.549 62.8101 422.169 64.4001C423.829 66.0301 425.799 67.4901 428.019 68.7501L428.449 69.0001V69.9901L428.019 70.2401C423.609 72.7401 420.339 75.9201 418.029 79.9701C417.809 80.3501 417.419 80.5801 416.979 80.5801L416.969 80.5701ZM408.009 69.4801C409.849 70.6301 411.519 71.9301 412.969 73.3601C414.499 74.8601 415.839 76.5601 416.969 78.4001C419.169 74.8001 422.119 71.8701 425.929 69.4801C424.079 68.3201 422.419 67.0201 420.969 65.6001C419.429 64.0901 418.089 62.4001 416.969 60.5701C415.839 62.4101 414.499 64.1001 412.969 65.6001C411.519 67.0301 409.849 68.3301 408.009 69.4801Z" fill="#D9B96B"/>
<path d="M445.698 69.9399C445.488 69.9399 445.278 69.8899 445.088 69.7799C439.038 66.2799 433.648 62.2099 429.058 57.7099C428.808 57.4599 428.548 57.2099 428.298 56.9599C427.948 56.6099 427.848 56.0899 428.038 55.6399C428.228 55.1899 428.668 54.8899 429.158 54.8899H454.428C454.878 54.8899 455.298 55.1399 455.508 55.5399C455.718 55.9399 455.688 56.4199 455.428 56.7899L446.688 69.4199C446.458 69.7599 446.078 69.9399 445.688 69.9399H445.698ZM430.348 56.5899C434.718 60.8599 439.828 64.7199 445.558 68.0799L453.508 56.5899H430.348Z" fill="#D9B96B"/>
<path d="M388.249 69.9399C387.859 69.9399 387.479 69.7599 387.249 69.4199L378.509 56.7899C378.249 56.4199 378.219 55.9399 378.429 55.5399C378.639 55.1399 379.049 54.8899 379.499 54.8899H404.769C405.259 54.8899 405.699 55.1799 405.889 55.6399C406.079 56.0899 405.979 56.6099 405.629 56.9599C405.379 57.2099 405.129 57.4599 404.869 57.7099C400.269 62.2199 394.869 66.2899 388.829 69.7799C388.639 69.8899 388.429 69.9399 388.229 69.9399H388.249ZM380.439 56.5899L388.389 68.0799C394.109 64.7299 399.219 60.8699 403.599 56.5899H380.439Z" fill="#D9B96B"/>
<path d="M265.658 80.5701C265.218 80.5701 264.828 80.3401 264.608 79.9601C263.478 77.9801 262.088 76.1701 260.468 74.5801C258.798 72.9401 256.828 71.4801 254.618 70.2301L254.188 69.9901V69.0001L254.618 68.7501C256.838 67.4901 258.808 66.0301 260.468 64.4001C262.078 62.8101 263.478 61.0001 264.608 59.0201C265.048 58.2501 266.278 58.2501 266.718 59.0201C267.848 61.0001 269.238 62.8101 270.858 64.4001C272.518 66.0301 274.488 67.4901 276.708 68.7501L277.138 69.0001V69.9901L276.708 70.2401C272.298 72.7401 269.028 75.9201 266.718 79.9701C266.498 80.3501 266.108 80.5801 265.668 80.5801L265.658 80.5701ZM256.688 69.4801C258.528 70.6301 260.198 71.9301 261.648 73.3601C263.178 74.8601 264.518 76.5501 265.648 78.4001C267.848 74.8001 270.798 71.8701 274.608 69.4801C272.758 68.3201 271.098 67.0201 269.648 65.6001C268.108 64.0901 266.768 62.4001 265.648 60.5701C264.518 62.4101 263.178 64.1001 261.648 65.6001C260.198 67.0201 258.528 68.3301 256.688 69.4801Z" fill="#D9B96B"/>
<path d="M294.379 69.9399C294.169 69.9399 293.959 69.8899 293.769 69.7799C287.719 66.2799 282.329 62.2099 277.739 57.7099C277.489 57.4599 277.229 57.2099 276.979 56.9599C276.629 56.6099 276.529 56.0899 276.719 55.6399C276.909 55.1899 277.349 54.8899 277.839 54.8899H303.109C303.559 54.8899 303.969 55.1399 304.179 55.5399C304.389 55.9399 304.359 56.4199 304.099 56.7899L295.359 69.4199C295.129 69.7599 294.749 69.9399 294.359 69.9399H294.379ZM279.029 56.5899C283.399 60.8599 288.509 64.7199 294.239 68.0799L302.189 56.5899H279.029Z" fill="#D9B96B"/>
<path d="M236.928 69.9399C236.538 69.9399 236.158 69.7599 235.928 69.4199L227.188 56.7899C226.928 56.4199 226.898 55.9399 227.108 55.5399C227.318 55.1399 227.728 54.8899 228.178 54.8899H253.448C253.938 54.8899 254.378 55.1799 254.568 55.6399C254.758 56.0899 254.658 56.6099 254.308 56.9599C254.058 57.2099 253.808 57.4599 253.558 57.7099C248.958 62.2199 243.558 66.2799 237.518 69.7799C237.328 69.8899 237.118 69.9399 236.918 69.9399H236.928ZM229.118 56.5899L237.068 68.0799C242.788 64.7299 247.898 60.8699 252.278 56.5899H229.118Z" fill="#D9B96B"/>
<path d="M114.339 80.5701C113.899 80.5701 113.509 80.3401 113.289 79.9601C112.159 77.9701 110.769 76.1601 109.149 74.5801C107.479 72.9401 105.509 71.4801 103.299 70.2301L102.869 69.9901V69.0001L103.299 68.7501C105.519 67.5001 107.479 66.0301 109.149 64.4001C110.759 62.8201 112.159 61.0101 113.289 59.0201C113.729 58.2501 114.959 58.2501 115.399 59.0201C116.529 61.0001 117.919 62.8101 119.539 64.4001C121.199 66.0301 123.169 67.5001 125.389 68.7501L125.819 69.0001V69.9901L125.389 70.2401C120.979 72.7401 117.709 75.9201 115.399 79.9701C115.179 80.3501 114.789 80.5801 114.349 80.5801L114.339 80.5701ZM105.369 69.4801C107.209 70.6301 108.879 71.9301 110.329 73.3601C111.859 74.8601 113.199 76.5501 114.329 78.4001C116.529 74.8001 119.479 71.8701 123.289 69.4801C121.439 68.3201 119.779 67.0201 118.329 65.6001C116.789 64.0901 115.449 62.4001 114.329 60.5701C113.199 62.4101 111.859 64.1001 110.329 65.6001C108.879 67.0301 107.209 68.3301 105.369 69.4801Z" fill="#D9B96B"/>
<path d="M143.059 69.9399C142.849 69.9399 142.639 69.8899 142.449 69.7799C136.399 66.2799 131.009 62.2099 126.419 57.7099C126.169 57.4599 125.909 57.2099 125.659 56.9599C125.309 56.6099 125.209 56.0899 125.399 55.6399C125.589 55.1899 126.029 54.8899 126.519 54.8899H151.789C152.239 54.8899 152.659 55.1399 152.869 55.5399C153.079 55.9399 153.049 56.4199 152.789 56.7899L144.049 69.4199C143.819 69.7599 143.439 69.9399 143.049 69.9399H143.059ZM127.719 56.5899C132.089 60.8599 137.199 64.7199 142.929 68.0799L150.879 56.5899H127.719Z" fill="#D9B96B"/>
<path d="M85.6091 69.9399C85.2191 69.9399 84.8391 69.7599 84.6091 69.4199L75.8691 56.7899C75.6091 56.4199 75.5791 55.9399 75.7891 55.5399C75.9991 55.1399 76.4091 54.8899 76.8591 54.8899H102.129C102.619 54.8899 103.059 55.1799 103.249 55.6299C103.439 56.0899 103.339 56.5999 102.989 56.9499C102.739 57.1999 102.489 57.4499 102.239 57.6999C97.639 62.2099 92.239 66.2699 86.199 69.7699C86.009 69.8799 85.799 69.9299 85.599 69.9299L85.6091 69.9399ZM77.7991 56.5899L85.7491 68.0799C91.469 64.7299 96.579 60.8699 100.959 56.5899H77.7991Z" fill="#D9B96B"/>
<path d="M721.327 53.0801C720.877 53.0801 720.487 52.8501 720.267 52.4701C719.137 50.4901 717.747 48.6801 716.127 47.0901C714.467 45.4601 712.497 44.0001 710.277 42.7401L709.847 42.4901V41.5001L710.277 41.2501C714.687 38.7501 717.957 35.5701 720.267 31.5201C720.707 30.7501 721.937 30.7501 722.377 31.5201C723.507 33.5101 724.897 35.3101 726.517 36.9001C728.187 38.5401 730.157 40.0001 732.367 41.2501L732.797 41.4901V42.4801L732.367 42.7301C730.147 43.9801 728.187 45.4501 726.517 47.0801C724.907 48.6701 723.507 50.4801 722.377 52.4601C722.157 52.8401 721.767 53.0701 721.327 53.0701V53.0801ZM712.357 42.0001C714.207 43.1601 715.867 44.4601 717.317 45.8801C718.857 47.3901 720.197 49.0801 721.317 50.9101C722.447 49.0701 723.787 47.3801 725.317 45.8801C726.767 44.4501 728.437 43.1501 730.277 42.0001C728.437 40.8501 726.767 39.5501 725.317 38.1201C723.787 36.6201 722.447 34.9301 721.317 33.0901C719.117 36.6901 716.167 39.6201 712.357 42.0101V42.0001Z" fill="#D9B96B"/>
<path d="M709.116 56.5901H683.846C683.396 56.5901 682.986 56.3401 682.776 55.9401C682.566 55.5401 682.596 55.0601 682.856 54.6901L691.596 42.0601C691.956 41.5401 692.656 41.3901 693.206 41.7001C699.256 45.2101 704.646 49.2701 709.236 53.7701C709.486 54.0201 709.746 54.2701 709.996 54.5201C710.336 54.8701 710.436 55.3901 710.246 55.8401C710.056 56.2901 709.616 56.5801 709.126 56.5801L709.116 56.5901ZM684.776 54.8901H707.936C703.576 50.6201 698.456 46.7601 692.726 43.4001L684.776 54.8901Z" fill="#D9B96B"/>
<path d="M758.776 56.5899H733.506C733.016 56.5899 732.576 56.2999 732.386 55.8499C732.196 55.3899 732.296 54.8799 732.636 54.5299C732.886 54.2799 733.136 54.0299 733.396 53.7799C737.996 49.2699 743.396 45.2099 749.436 41.7099C749.976 41.3999 750.686 41.5499 751.046 42.0699L759.786 54.6999C760.046 55.0699 760.076 55.5499 759.866 55.9499C759.656 56.3499 759.246 56.5999 758.796 56.5999L758.776 56.5899ZM734.686 54.8899H757.846L749.896 43.3999C744.176 46.7499 739.066 50.6099 734.686 54.8899Z" fill="#D9B96B"/>
<path d="M748.277 41.4101C748.057 41.4101 747.847 41.3501 747.647 41.2301C742.347 38.0001 737.557 34.2901 733.397 30.2201C728.667 25.5701 724.607 20.2701 721.317 14.4501C715.107 25.4401 706.487 34.2101 694.987 41.2301C694.497 41.5301 693.867 41.4501 693.477 41.0301C693.087 40.6201 693.037 39.9801 693.357 39.5101L720.317 0.530088C720.777 -0.139912 721.857 -0.139912 722.317 0.530088L749.277 39.5001C749.607 39.9701 749.557 40.6001 749.167 41.0201C748.927 41.2701 748.607 41.4001 748.287 41.4001L748.277 41.4101ZM721.317 10.9001L722.067 12.2901C725.407 18.5001 729.617 24.1201 734.597 29.0101C738.127 32.4701 742.137 35.6601 746.527 38.5201L721.317 2.08009L696.107 38.5101C706.797 31.5801 714.817 22.9801 720.567 12.2801L721.317 10.8901V10.9001Z" fill="#D9B96B"/>
<path d="M872.636 53.08C872.186 53.08 871.796 52.85 871.576 52.47C870.446 50.49 869.056 48.68 867.436 47.09C865.776 45.46 863.806 44 861.586 42.74L861.156 42.49V41.5L861.586 41.25C865.996 38.75 869.266 35.57 871.576 31.52C872.006 30.76 873.246 30.75 873.686 31.52C874.816 33.5 876.206 35.31 877.826 36.9C879.496 38.54 881.466 40 883.676 41.25L884.106 41.49V42.48L883.676 42.73C881.456 43.98 879.486 45.45 877.826 47.08C876.206 48.67 874.816 50.48 873.686 52.46C873.466 52.84 873.076 53.07 872.636 53.07V53.08ZM863.666 42C865.516 43.16 867.176 44.46 868.626 45.88C870.156 47.39 871.506 49.08 872.626 50.91C873.756 49.07 875.096 47.38 876.626 45.88C878.076 44.46 879.746 43.15 881.586 42C879.746 40.85 878.076 39.55 876.626 38.12C875.096 36.62 873.756 34.93 872.626 33.09C870.426 36.69 867.476 39.63 863.666 42.01V42Z" fill="#D9B96B"/>
<path d="M860.437 56.5901H835.167C834.717 56.5901 834.307 56.3401 834.097 55.9401C833.887 55.5401 833.917 55.0601 834.177 54.6901L842.917 42.0601C843.277 41.5401 843.977 41.3901 844.527 41.7001C850.577 45.2101 855.967 49.2701 860.557 53.7701C860.807 54.0201 861.067 54.2701 861.317 54.5201C861.657 54.8701 861.757 55.3901 861.577 55.8401C861.387 56.2901 860.947 56.5901 860.457 56.5901H860.437ZM836.097 54.8901H859.257C854.897 50.6201 849.777 46.7601 844.047 43.4001L836.097 54.8901Z" fill="#D9B96B"/>
<path d="M910.096 56.5899H884.826C884.336 56.5899 883.896 56.2999 883.706 55.8499C883.516 55.3899 883.616 54.8699 883.966 54.5299C884.216 54.2799 884.466 54.0299 884.716 53.7799C889.316 49.2699 894.716 45.2099 900.756 41.7099C901.296 41.3899 902.006 41.5499 902.366 42.0699L911.106 54.6999C911.366 55.0699 911.396 55.5499 911.186 55.9499C910.976 56.3499 910.566 56.5999 910.116 56.5999L910.096 56.5899ZM886.006 54.8899H909.166L901.216 43.3999C895.496 46.7499 890.386 50.6099 886.006 54.8899Z" fill="#D9B96B"/>
<path d="M899.596 41.41C899.376 41.41 899.166 41.35 898.966 41.23C893.666 38 888.876 34.29 884.716 30.22C879.986 25.57 875.926 20.27 872.636 14.45C866.426 25.44 857.806 34.21 846.306 41.23C845.806 41.53 845.186 41.45 844.796 41.03C844.406 40.62 844.356 39.98 844.676 39.51L871.636 0.530007C872.096 -0.129993 873.166 -0.139993 873.626 0.530007L900.586 39.51C900.916 39.98 900.866 40.61 900.476 41.03C900.236 41.28 899.916 41.41 899.596 41.41ZM872.636 10.9L873.386 12.29C876.726 18.5 880.936 24.12 885.916 29.01C889.446 32.47 893.456 35.66 897.846 38.52L872.636 2.08001L847.426 38.51C858.116 31.58 866.136 22.98 871.886 12.28L872.636 10.89V10.9Z" fill="#D9B96B"/>
<path d="M1023.96 53.08C1023.51 53.08 1023.12 52.85 1022.9 52.47C1021.77 50.49 1020.38 48.68 1018.76 47.09C1017.1 45.46 1015.13 44 1012.91 42.74L1012.48 42.49V41.5L1012.91 41.25C1017.32 38.75 1020.59 35.57 1022.9 31.52C1023.33 30.76 1024.57 30.75 1025.01 31.52C1026.14 33.5 1027.53 35.31 1029.15 36.9C1030.82 38.54 1032.79 40 1035 41.25L1035.43 41.49V42.48L1035 42.73C1032.78 43.98 1030.81 45.45 1029.15 47.08C1027.53 48.67 1026.14 50.48 1025.01 52.46C1024.79 52.84 1024.4 53.07 1023.96 53.07V53.08ZM1014.99 42C1016.84 43.16 1018.5 44.46 1019.95 45.88C1021.48 47.39 1022.83 49.08 1023.95 50.91C1025.08 49.07 1026.42 47.38 1027.95 45.88C1029.4 44.46 1031.07 43.15 1032.91 42C1031.07 40.85 1029.4 39.55 1027.95 38.12C1026.42 36.62 1025.08 34.93 1023.95 33.09C1021.75 36.69 1018.8 39.63 1014.99 42.01V42Z" fill="#D9B96B"/>
<path d="M1011.76 56.5902H986.486C986.036 56.5902 985.626 56.3401 985.416 55.9402C985.206 55.5402 985.236 55.0602 985.496 54.6902L994.236 42.0601C994.596 41.5401 995.296 41.3801 995.846 41.7001C1001.9 45.2101 1007.29 49.2701 1011.88 53.7701C1012.13 54.0201 1012.39 54.2701 1012.64 54.5201C1012.98 54.8701 1013.08 55.3902 1012.9 55.8402C1012.71 56.2902 1012.27 56.5902 1011.78 56.5902H1011.76ZM987.416 54.8902H1010.58C1006.22 50.6202 1001.1 46.7601 995.366 43.4001L987.416 54.8902Z" fill="#D9B96B"/>
<path d="M1061.42 56.5902H1036.15C1035.66 56.5902 1035.22 56.3002 1035.03 55.8402C1034.84 55.3802 1034.94 54.8701 1035.29 54.5201C1035.54 54.2701 1035.79 54.0201 1036.04 53.7701C1040.64 49.2601 1046.04 45.2001 1052.08 41.7001C1052.62 41.3801 1053.33 41.5401 1053.69 42.0601L1062.43 54.6902C1062.69 55.0602 1062.72 55.5402 1062.51 55.9402C1062.3 56.3401 1061.89 56.5902 1061.43 56.5902H1061.42ZM1037.33 54.8902H1060.49L1052.54 43.4001C1046.82 46.7501 1041.71 50.6102 1037.33 54.8902Z" fill="#D9B96B"/>
<path d="M1050.92 41.4101C1050.7 41.4101 1050.49 41.3501 1050.29 41.2301C1044.99 38.0001 1040.2 34.2901 1036.04 30.2201C1031.31 25.5701 1027.25 20.2701 1023.96 14.4501C1017.75 25.4401 1009.13 34.2101 997.626 41.2301C997.126 41.5301 996.506 41.4501 996.116 41.0301C995.726 40.6201 995.676 39.9801 996.006 39.5101L1022.96 0.530088C1023.42 -0.139912 1024.5 -0.139912 1024.96 0.530088L1051.92 39.5001C1052.25 39.9801 1052.2 40.6001 1051.81 41.0201C1051.57 41.2701 1051.25 41.4001 1050.93 41.4001L1050.92 41.4101ZM1023.95 10.9001L1024.7 12.2901C1028.04 18.5001 1032.25 24.1201 1037.23 29.0101C1040.76 32.4701 1044.77 35.6701 1049.16 38.5201L1023.95 2.08009L998.736 38.5101C1009.43 31.5801 1017.45 22.9801 1023.2 12.2901L1023.95 10.9001Z" fill="#D9B96B"/>
<path d="M1175.28 53.0801C1174.83 53.0801 1174.44 52.8501 1174.22 52.4701C1173.09 50.4901 1171.7 48.6801 1170.08 47.0901C1168.42 45.4601 1166.45 44.0001 1164.23 42.7401L1163.8 42.4901V41.5001L1164.23 41.2501C1168.64 38.7501 1171.91 35.5701 1174.22 31.5201C1174.66 30.7501 1175.89 30.7501 1176.33 31.5201C1177.46 33.5101 1178.85 35.3101 1180.47 36.9001C1182.14 38.5401 1184.11 40.0001 1186.32 41.2501L1186.75 41.4901V42.4801L1186.32 42.7301C1184.1 43.9801 1182.14 45.4501 1180.47 47.0801C1178.86 48.6701 1177.46 50.4801 1176.33 52.4601C1176.11 52.8401 1175.72 53.0701 1175.28 53.0701V53.0801ZM1166.31 42.0001C1168.16 43.1601 1169.82 44.4601 1171.27 45.8801C1172.8 47.3901 1174.15 49.0801 1175.27 50.9101C1176.4 49.0701 1177.74 47.3801 1179.27 45.8801C1180.72 44.4501 1182.39 43.1501 1184.23 42.0001C1182.39 40.8501 1180.72 39.5501 1179.27 38.1201C1177.74 36.6201 1176.4 34.9301 1175.27 33.0901C1173.07 36.6901 1170.12 39.6201 1166.31 42.0101V42.0001Z" fill="#D9B96B"/>
<path d="M1163.07 56.5901H1137.8C1137.35 56.5901 1136.94 56.3401 1136.73 55.9401C1136.52 55.5401 1136.55 55.0601 1136.81 54.6901L1145.55 42.0601C1145.91 41.5401 1146.61 41.3901 1147.16 41.7001C1153.21 45.2101 1158.6 49.2701 1163.19 53.7701C1163.44 54.0201 1163.7 54.2701 1163.95 54.5301C1164.29 54.8801 1164.39 55.4001 1164.21 55.8501C1164.02 56.3001 1163.58 56.6001 1163.09 56.6001L1163.07 56.5901ZM1138.74 54.8901H1161.9C1157.54 50.6201 1152.42 46.7601 1146.69 43.4001L1138.74 54.8901Z" fill="#D9B96B"/>
<path d="M1212.74 56.5899H1187.47C1186.98 56.5899 1186.54 56.2999 1186.35 55.8499C1186.16 55.3899 1186.26 54.8699 1186.61 54.5299C1186.86 54.2799 1187.11 54.0299 1187.36 53.7799C1191.96 49.2699 1197.36 45.2099 1203.4 41.7099C1203.95 41.3899 1204.65 41.5499 1205.01 42.0699L1213.75 54.6999C1214.01 55.0699 1214.04 55.5499 1213.83 55.9499C1213.62 56.3499 1213.21 56.5999 1212.76 56.5999L1212.74 56.5899ZM1188.64 54.8899H1211.8L1203.85 43.3999C1198.13 46.7499 1193.02 50.6099 1188.64 54.8899Z" fill="#D9B96B"/>
<path d="M1202.24 41.41C1202.02 41.41 1201.81 41.35 1201.61 41.23C1196.31 38 1191.52 34.29 1187.36 30.22C1182.63 25.57 1178.57 20.27 1175.28 14.45C1169.08 25.44 1160.45 34.21 1148.95 41.23C1148.45 41.53 1147.83 41.45 1147.44 41.03C1147.05 40.62 1147 39.98 1147.32 39.51L1174.27 0.530007C1174.73 -0.139993 1175.81 -0.129993 1176.27 0.530007L1203.23 39.5C1203.56 39.98 1203.51 40.6 1203.12 41.02C1202.88 41.27 1202.56 41.4 1202.24 41.4V41.41ZM1175.27 10.9L1176.02 12.29C1179.36 18.5 1183.57 24.12 1188.55 29.01C1192.08 32.47 1196.09 35.66 1200.48 38.52L1175.27 2.08001L1150.06 38.51C1160.75 31.58 1168.77 22.98 1174.52 12.28L1175.27 10.89V10.9Z" fill="#D9B96B"/>
<path d="M1326.6 53.0801C1326.15 53.0801 1325.76 52.8501 1325.54 52.4701C1324.41 50.4901 1323.02 48.6801 1321.4 47.0901C1319.74 45.4601 1317.77 44.0001 1315.55 42.7401L1315.12 42.4901V41.5001L1315.55 41.2501C1319.96 38.7501 1323.23 35.5701 1325.54 31.5201C1325.98 30.7501 1327.21 30.7501 1327.65 31.5201C1328.78 33.5101 1330.17 35.3201 1331.79 36.9001C1333.46 38.5401 1335.43 40.0001 1337.64 41.2501L1338.07 41.4901V42.4801L1337.64 42.7301C1335.42 43.9801 1333.46 45.4501 1331.79 47.0801C1330.17 48.6701 1328.78 50.4801 1327.65 52.4601C1327.43 52.8401 1327.04 53.0701 1326.6 53.0701V53.0801ZM1317.63 42.0001C1319.48 43.1601 1321.14 44.4601 1322.59 45.8801C1324.12 47.3901 1325.47 49.0801 1326.59 50.9101C1327.72 49.0701 1329.06 47.3801 1330.59 45.8801C1332.04 44.4601 1333.71 43.1501 1335.55 42.0001C1333.71 40.8501 1332.04 39.5501 1330.59 38.1201C1329.06 36.6201 1327.72 34.9301 1326.59 33.0901C1324.39 36.6901 1321.44 39.6201 1317.63 42.0101V42.0001Z" fill="#D9B96B"/>
<path d="M1314.39 56.5902H1289.12C1288.67 56.5902 1288.26 56.3401 1288.05 55.9402C1287.84 55.5402 1287.87 55.0602 1288.13 54.6902L1296.87 42.0601C1297.23 41.5401 1297.93 41.3801 1298.48 41.7001C1304.53 45.2101 1309.92 49.2701 1314.51 53.7701C1314.77 54.0201 1315.02 54.2702 1315.27 54.5302C1315.61 54.8802 1315.71 55.4002 1315.53 55.8502C1315.34 56.3001 1314.9 56.6002 1314.41 56.6002L1314.39 56.5902ZM1290.05 54.8902H1313.21C1308.85 50.6202 1303.73 46.7601 1298 43.4001L1290.05 54.8902Z" fill="#D9B96B"/>
<path d="M1364.05 56.5899H1338.78C1338.29 56.5899 1337.85 56.2999 1337.66 55.8499C1337.47 55.3899 1337.57 54.8699 1337.92 54.5299C1338.17 54.2799 1338.42 54.0299 1338.67 53.7799C1343.27 49.2699 1348.67 45.2099 1354.71 41.7099C1355.25 41.3899 1355.96 41.5499 1356.32 42.0699L1365.06 54.6999C1365.32 55.0699 1365.35 55.5499 1365.14 55.9499C1364.93 56.3499 1364.52 56.5999 1364.07 56.5999L1364.05 56.5899ZM1339.96 54.8899H1363.12L1355.17 43.3999C1349.45 46.7499 1344.34 50.6099 1339.96 54.8899Z" fill="#D9B96B"/>
<path d="M1353.55 41.41C1353.33 41.41 1353.12 41.35 1352.92 41.23C1347.62 38 1342.83 34.29 1338.67 30.22C1333.94 25.57 1329.88 20.27 1326.59 14.45C1320.38 25.44 1311.76 34.21 1300.26 41.23C1299.77 41.53 1299.14 41.45 1298.75 41.03C1298.36 40.62 1298.31 39.98 1298.63 39.51L1325.59 0.530007C1326.05 -0.139993 1327.13 -0.129993 1327.59 0.530007L1354.55 39.5C1354.88 39.97 1354.83 40.6 1354.44 41.02C1354.2 41.27 1353.88 41.4 1353.56 41.4L1353.55 41.41ZM1326.59 10.9L1327.34 12.29C1330.68 18.5 1334.89 24.12 1339.87 29.01C1343.4 32.47 1347.41 35.66 1351.8 38.52L1326.59 2.09001L1301.38 38.52C1312.07 31.59 1320.09 22.99 1325.84 12.3L1326.59 10.91V10.9Z" fill="#D9B96B"/>
<path d="M796.977 25.69C796.537 25.69 796.147 25.46 795.927 25.08C793.617 21.03 790.357 17.85 785.937 15.35L784.637 14.61L785.937 13.87C788.157 12.61 790.127 11.14 791.787 9.51002C793.407 7.92002 794.797 6.11002 795.927 4.13002C796.147 3.75002 796.537 3.52002 796.977 3.52002C797.417 3.52002 797.817 3.75002 798.027 4.13002C799.157 6.11002 800.547 7.92002 802.167 9.51002C803.837 11.14 805.797 12.61 808.017 13.86L809.327 14.6L808.017 15.34C805.807 16.59 803.837 18.06 802.167 19.7C800.547 21.29 799.157 23.1 798.027 25.08C797.807 25.46 797.417 25.69 796.977 25.69ZM788.017 14.6C791.837 16.98 794.777 19.92 796.977 23.52C798.107 21.68 799.447 19.99 800.977 18.49C802.437 17.06 804.097 15.76 805.937 14.61C804.087 13.45 802.427 12.15 800.977 10.73C799.447 9.23002 798.107 7.54002 796.977 5.70002C795.857 7.53002 794.507 9.23002 792.977 10.73C791.527 12.15 789.867 13.45 788.017 14.61V14.6Z" fill="#D9B96B"/>
<path d="M768.247 15.07C767.867 15.07 767.487 14.89 767.257 14.55L758.517 1.92002C758.257 1.55002 758.227 1.07002 758.437 0.67002C758.647 0.27002 759.057 0.0200195 759.507 0.0200195H784.777C785.267 0.0200195 785.707 0.31002 785.897 0.77002C786.087 1.22002 785.987 1.73002 785.647 2.08002C785.397 2.34002 785.147 2.59002 784.887 2.84002C780.297 7.34002 774.907 11.41 768.857 14.91C768.667 15.02 768.457 15.08 768.247 15.08V15.07ZM760.437 1.71002L768.387 13.2C774.117 9.84002 779.227 5.98002 783.597 1.71002H760.437Z" fill="#D9B96B"/>
<path d="M825.696 15.06C825.486 15.06 825.286 15.01 825.096 14.9C819.056 11.4 813.666 7.34001 809.056 2.83001C808.806 2.58001 808.546 2.33001 808.296 2.08001C807.946 1.73001 807.846 1.21001 808.036 0.76001C808.226 0.31001 808.666 0.0100098 809.156 0.0100098H834.426C834.876 0.0100098 835.296 0.26001 835.506 0.66001C835.716 1.06001 835.686 1.54001 835.426 1.91001L826.686 14.54C826.456 14.88 826.076 15.06 825.686 15.06H825.696ZM810.346 1.71001C814.726 5.99001 819.846 9.85001 825.556 13.2L833.506 1.71001H810.346Z" fill="#D9B96B"/>
<path d="M796.976 56.5901C796.576 56.5901 796.206 56.4001 795.976 56.0701L769.016 17.1001C768.686 16.6201 768.736 16.0001 769.136 15.5801C769.536 15.1601 770.156 15.0801 770.646 15.3801C782.146 22.4001 790.776 31.1701 796.976 42.1601C800.266 36.3401 804.326 31.0401 809.056 26.3901C813.216 22.3101 818.006 18.6101 823.306 15.3801C823.796 15.0801 824.426 15.1601 824.826 15.5901C825.216 16.0001 825.266 16.6401 824.936 17.1101L797.976 56.0801C797.746 56.4101 797.386 56.6001 796.976 56.6001V56.5901ZM771.766 18.0801L796.976 54.5101L822.186 18.0801C817.786 20.9301 813.786 24.1201 810.256 27.5901C805.286 32.4701 801.066 38.1001 797.726 44.3101L796.976 45.7001L796.226 44.3101C790.476 33.6101 782.456 25.0201 771.766 18.0801Z" fill="#D9B96B"/>
<path d="M948.296 25.69C947.856 25.69 947.456 25.46 947.246 25.08C944.936 21.03 941.676 17.85 937.256 15.35L935.956 14.61L937.256 13.87C939.476 12.61 941.446 11.14 943.106 9.51002C944.726 7.92002 946.116 6.11002 947.246 4.13002C947.466 3.75002 947.856 3.52002 948.296 3.52002C948.736 3.52002 949.136 3.75002 949.346 4.13002C950.476 6.11002 951.866 7.92002 953.486 9.51002C955.146 11.14 957.116 12.61 959.336 13.86L960.646 14.6L959.336 15.34C957.126 16.59 955.156 18.06 953.486 19.7C951.866 21.29 950.476 23.1 949.346 25.08C949.126 25.46 948.736 25.69 948.296 25.69ZM939.326 14.6C943.146 16.98 946.086 19.92 948.286 23.52C949.416 21.68 950.756 19.99 952.286 18.49C953.746 17.06 955.406 15.76 957.246 14.61C955.396 13.45 953.736 12.15 952.286 10.73C950.756 9.23002 949.416 7.54002 948.286 5.70002C947.166 7.54002 945.816 9.23002 944.286 10.73C942.836 12.15 941.176 13.45 939.326 14.61V14.6Z" fill="#D9B96B"/>
<path d="M919.566 15.06C919.176 15.06 918.796 14.88 918.566 14.54L909.826 1.91001C909.566 1.54001 909.536 1.06001 909.746 0.66001C909.956 0.26001 910.366 0.0100098 910.816 0.0100098H936.086C936.576 0.0100098 937.016 0.30001 937.206 0.76001C937.396 1.21001 937.296 1.73001 936.946 2.08001C936.696 2.33001 936.446 2.59001 936.186 2.83001C931.596 7.33001 926.206 11.39 920.156 14.9C919.966 15.01 919.756 15.06 919.556 15.06H919.566ZM911.756 1.71001L919.706 13.2C925.436 9.84001 930.546 5.98001 934.916 1.71001H911.756Z" fill="#D9B96B"/>
<path d="M977.016 15.06C976.806 15.06 976.606 15.01 976.416 14.9C970.376 11.4 964.986 7.34001 960.376 2.83001C960.126 2.58001 959.866 2.33001 959.616 2.08001C959.276 1.73001 959.166 1.21001 959.356 0.76001C959.546 0.30001 959.986 0.0100098 960.476 0.0100098H985.746C986.196 0.0100098 986.606 0.26001 986.816 0.66001C987.026 1.06001 986.996 1.54001 986.736 1.91001L977.996 14.54C977.766 14.88 977.386 15.06 976.996 15.06H977.016ZM961.666 1.71001C966.046 5.99001 971.166 9.85001 976.876 13.2L984.826 1.71001H961.666Z" fill="#D9B96B"/>
<path d="M948.297 56.5899C947.897 56.5899 947.527 56.3999 947.297 56.0699L920.337 17.0999C920.007 16.6199 920.057 15.9999 920.457 15.5699C920.857 15.1499 921.477 15.0699 921.967 15.3699C933.467 22.3899 942.097 31.1599 948.297 42.1499C951.587 36.3299 955.647 31.0299 960.377 26.3799C964.537 22.2999 969.327 18.5999 974.627 15.3699C975.117 15.0699 975.757 15.1599 976.147 15.5799C976.537 15.9899 976.587 16.6299 976.257 17.0999L949.297 56.0699C949.067 56.3999 948.707 56.5899 948.297 56.5899ZM923.087 18.0799L948.297 54.5099L973.507 18.0799C969.107 20.9299 965.107 24.1199 961.577 27.5899C956.607 32.4699 952.387 38.0999 949.047 44.3099L948.297 45.6999L947.547 44.3099C941.797 33.6099 933.777 25.0199 923.087 18.0799Z" fill="#D9B96B"/>
<path d="M1099.61 25.69C1099.17 25.69 1098.78 25.46 1098.56 25.08C1096.25 21.03 1092.99 17.85 1088.57 15.35L1087.27 14.61L1088.57 13.87C1090.79 12.61 1092.76 11.14 1094.42 9.51002C1096.04 7.92002 1097.44 6.11002 1098.56 4.13002C1098.78 3.75002 1099.17 3.52002 1099.61 3.52002C1100.05 3.52002 1100.45 3.75002 1100.66 4.13002C1101.79 6.11002 1103.18 7.92002 1104.8 9.51002C1106.46 11.14 1108.43 12.61 1110.65 13.86L1111.96 14.6L1110.65 15.34C1108.44 16.59 1106.47 18.06 1104.8 19.7C1103.19 21.29 1101.79 23.1 1100.66 25.08C1100.44 25.46 1100.05 25.69 1099.61 25.69ZM1090.65 14.6C1094.47 16.98 1097.41 19.92 1099.61 23.52C1100.74 21.68 1102.08 19.99 1103.61 18.49C1105.07 17.06 1106.73 15.76 1108.57 14.61C1106.72 13.45 1105.06 12.15 1103.61 10.73C1102.08 9.23002 1100.74 7.54002 1099.61 5.70002C1098.49 7.53002 1097.14 9.23002 1095.61 10.73C1094.16 12.15 1092.5 13.45 1090.65 14.61V14.6Z" fill="#D9B96B"/>
<path d="M1070.89 15.06C1070.5 15.06 1070.12 14.88 1069.89 14.54L1061.15 1.91001C1060.89 1.54001 1060.86 1.06001 1061.07 0.66001C1061.28 0.26001 1061.69 0.0100098 1062.14 0.0100098H1087.41C1087.9 0.0100098 1088.34 0.30001 1088.53 0.76001C1088.72 1.21001 1088.62 1.73001 1088.27 2.08001C1088.02 2.33001 1087.77 2.59001 1087.51 2.83001C1082.92 7.33001 1077.53 11.39 1071.48 14.9C1071.29 15.01 1071.08 15.06 1070.88 15.06H1070.89ZM1063.08 1.71001L1071.03 13.2C1076.76 9.84001 1081.87 5.98001 1086.24 1.71001H1063.08Z" fill="#D9B96B"/>
<path d="M1128.34 15.06C1128.13 15.06 1127.93 15.01 1127.74 14.9C1121.7 11.4 1116.3 7.34 1111.7 2.83C1111.45 2.58 1111.19 2.33 1110.94 2.07C1110.6 1.72 1110.49 1.2 1110.68 0.75C1110.87 0.29 1111.31 0 1111.8 0H1137.07C1137.52 0 1137.94 0.25 1138.15 0.65C1138.36 1.05 1138.33 1.53 1138.07 1.9L1129.33 14.53C1129.1 14.87 1128.72 15.05 1128.33 15.05L1128.34 15.06ZM1112.99 1.71C1117.37 5.99 1122.48 9.85 1128.2 13.2L1136.15 1.71H1112.99Z" fill="#D9B96B"/>
<path d="M1099.61 56.5899C1099.21 56.5899 1098.85 56.3999 1098.61 56.0699L1071.65 17.0999C1071.32 16.6199 1071.37 15.9999 1071.77 15.5699C1072.17 15.1499 1072.79 15.0699 1073.28 15.3699C1084.78 22.3899 1093.41 31.1599 1099.61 42.1499C1102.9 36.3299 1106.96 31.0299 1111.69 26.3799C1115.84 22.2999 1120.64 18.5999 1125.94 15.3699C1126.43 15.0699 1127.06 15.1499 1127.46 15.5799C1127.85 15.9899 1127.9 16.6299 1127.57 17.0999L1100.61 56.0699C1100.38 56.3999 1100.02 56.5899 1099.61 56.5899ZM1074.41 18.0799L1099.62 54.5099L1124.83 18.0799C1120.43 20.9299 1116.43 24.1199 1112.9 27.5899C1107.93 32.4699 1103.71 38.0999 1100.37 44.3099L1099.62 45.6999L1098.87 44.3099C1093.12 33.6199 1085.1 25.0199 1074.41 18.0799Z" fill="#D9B96B"/>
<path d="M1250.93 25.69C1250.49 25.69 1250.1 25.46 1249.88 25.08C1247.57 21.03 1244.3 17.84 1239.89 15.34L1238.59 14.6L1239.89 13.86C1242.11 12.6 1244.08 11.13 1245.74 9.50001C1247.36 7.91001 1248.75 6.10001 1249.88 4.12001C1250.1 3.74001 1250.49 3.51001 1250.93 3.51001C1251.37 3.51001 1251.77 3.74001 1251.98 4.12001C1253.11 6.10001 1254.5 7.91001 1256.12 9.50001C1257.79 11.13 1259.75 12.6 1261.97 13.85L1263.28 14.59L1261.97 15.33C1259.76 16.58 1257.79 18.05 1256.12 19.69C1254.5 21.28 1253.11 23.09 1251.98 25.07C1251.76 25.45 1251.37 25.68 1250.93 25.68V25.69ZM1241.97 14.6C1245.79 16.98 1248.73 19.92 1250.93 23.52C1252.06 21.68 1253.4 19.99 1254.93 18.49C1256.39 17.06 1258.05 15.76 1259.89 14.61C1258.04 13.45 1256.38 12.15 1254.93 10.73C1253.4 9.23001 1252.06 7.54001 1250.93 5.70001C1249.81 7.53001 1248.46 9.23001 1246.93 10.73C1245.48 12.15 1243.82 13.45 1241.97 14.61V14.6Z" fill="#D9B96B"/>
<path d="M1222.21 15.06C1221.82 15.06 1221.44 14.88 1221.21 14.54L1212.47 1.91001C1212.21 1.54001 1212.18 1.06001 1212.39 0.66001C1212.6 0.26001 1213.01 0.0100098 1213.46 0.0100098H1238.73C1239.22 0.0100098 1239.66 0.30001 1239.85 0.76001C1240.04 1.21001 1239.94 1.73001 1239.59 2.08001C1239.34 2.33001 1239.09 2.59001 1238.83 2.83001C1234.24 7.33001 1228.85 11.4 1222.8 14.9C1222.61 15.01 1222.4 15.06 1222.2 15.06H1222.21ZM1214.4 1.71001L1222.35 13.2C1228.08 9.84001 1233.19 5.98001 1237.56 1.71001H1214.4Z" fill="#D9B96B"/>
<path d="M1279.65 15.06C1279.44 15.06 1279.24 15.01 1279.05 14.9C1273.01 11.4 1267.61 7.34 1263.01 2.83C1262.76 2.58 1262.5 2.33 1262.25 2.07C1261.91 1.72 1261.81 1.2 1261.99 0.75C1262.18 0.3 1262.62 0 1263.11 0H1288.38C1288.83 0 1289.24 0.25 1289.45 0.65C1289.66 1.05 1289.63 1.53 1289.37 1.9L1280.63 14.53C1280.4 14.87 1280.02 15.05 1279.63 15.05L1279.65 15.06ZM1264.3 1.71C1268.68 5.99 1273.79 9.85 1279.51 13.2L1287.46 1.71H1264.3Z" fill="#D9B96B"/>
<path d="M1250.93 56.5899C1250.53 56.5899 1250.17 56.3999 1249.93 56.0699L1222.97 17.0999C1222.64 16.6199 1222.69 15.9999 1223.09 15.5699C1223.49 15.1499 1224.11 15.0699 1224.6 15.3699C1236.1 22.3899 1244.73 31.1599 1250.93 42.1499C1254.23 36.3199 1258.29 31.0299 1263.01 26.3799C1267.17 22.2999 1271.96 18.5999 1277.26 15.3699C1277.75 15.0699 1278.38 15.1499 1278.78 15.5799C1279.17 15.9899 1279.22 16.6299 1278.89 17.0999L1251.93 56.0699C1251.7 56.3999 1251.34 56.5899 1250.93 56.5899ZM1225.72 18.0799L1250.93 54.5099L1276.14 18.0799C1271.74 20.9299 1267.74 24.1199 1264.21 27.5899C1259.24 32.4699 1255.02 38.0999 1251.68 44.3099L1250.93 45.6999L1250.18 44.3099C1244.43 33.6199 1236.41 25.0199 1225.72 18.0799Z" fill="#D9B96B"/>
<path d="M1250.93 80.5701C1250.49 80.5701 1250.1 80.3401 1249.88 79.9601C1248.75 77.9801 1247.36 76.1701 1245.74 74.5801C1244.07 72.9401 1242.1 71.4801 1239.89 70.2301L1239.46 69.9901V69.0001L1239.89 68.7501C1242.11 67.4901 1244.08 66.0301 1245.74 64.4001C1247.36 62.8101 1248.75 61.0001 1249.88 59.0201C1250.32 58.2501 1251.55 58.2501 1251.99 59.0201C1253.12 61.0001 1254.51 62.8101 1256.13 64.4001C1257.79 66.0301 1259.76 67.4901 1261.98 68.7501L1262.41 69.0001V69.9901L1261.98 70.2401C1257.57 72.7401 1254.3 75.9201 1251.99 79.9701C1251.77 80.3501 1251.38 80.5801 1250.94 80.5801L1250.93 80.5701ZM1241.97 69.4801C1243.81 70.6301 1245.48 71.9301 1246.93 73.3601C1248.46 74.8601 1249.8 76.5501 1250.93 78.3901C1253.13 74.7901 1256.08 71.8601 1259.89 69.4701C1258.04 68.3101 1256.38 67.0101 1254.93 65.5901C1253.39 64.0801 1252.05 62.3901 1250.93 60.5601C1249.8 62.4001 1248.46 64.0901 1246.93 65.5901C1245.48 67.0101 1243.81 68.3201 1241.97 69.4701V69.4801Z" fill="#D9B96B"/>
<path d="M1279.66 69.9401C1279.45 69.9401 1279.24 69.8901 1279.05 69.7801C1273 66.2801 1267.61 62.2101 1263.02 57.7101C1262.77 57.4601 1262.51 57.2101 1262.26 56.9601C1261.91 56.6101 1261.81 56.0901 1262 55.6401C1262.19 55.1901 1262.63 54.9001 1263.12 54.9001H1288.39C1288.84 54.9001 1289.25 55.1501 1289.46 55.5501C1289.67 55.9501 1289.64 56.4301 1289.38 56.8001L1280.64 69.4301C1280.41 69.7701 1280.03 69.9501 1279.64 69.9501L1279.66 69.9401ZM1264.31 56.5901C1268.68 60.8601 1273.79 64.7201 1279.52 68.0801L1287.47 56.5901H1264.31Z" fill="#D9B96B"/>
<path d="M1222.21 69.9399C1221.82 69.9399 1221.44 69.7599 1221.21 69.4199L1212.47 56.7899C1212.21 56.4199 1212.18 55.9399 1212.39 55.5399C1212.6 55.1399 1213.01 54.8899 1213.46 54.8899H1238.73C1239.22 54.8899 1239.66 55.1799 1239.85 55.6399C1240.04 56.0899 1239.94 56.6099 1239.59 56.9599C1239.34 57.2099 1239.09 57.4599 1238.83 57.7099C1234.23 62.2199 1228.83 66.2899 1222.79 69.7799C1222.6 69.8899 1222.39 69.9399 1222.19 69.9399H1222.21ZM1214.4 56.5899L1222.35 68.0799C1228.07 64.7299 1233.18 60.8699 1237.56 56.5899H1214.4Z" fill="#D9B96B"/>
<path d="M1099.61 80.5701C1099.17 80.5701 1098.78 80.3401 1098.56 79.9601C1097.43 77.9801 1096.04 76.1701 1094.42 74.5801C1092.75 72.9401 1090.78 71.4801 1088.57 70.2301L1088.14 69.9901V69.0001L1088.57 68.7501C1090.79 67.5001 1092.76 66.0301 1094.42 64.4001C1096.04 62.8101 1097.43 61.0001 1098.56 59.0201C1099 58.2501 1100.23 58.2501 1100.67 59.0201C1101.8 61.0001 1103.19 62.8101 1104.81 64.4001C1106.47 66.0301 1108.44 67.4901 1110.66 68.7501L1111.09 69.0001V69.9901L1110.66 70.2401C1106.25 72.7401 1102.98 75.9201 1100.67 79.9701C1100.45 80.3501 1100.06 80.5801 1099.62 80.5801L1099.61 80.5701ZM1090.65 69.4801C1092.49 70.6301 1094.16 71.9301 1095.61 73.3601C1097.14 74.8601 1098.48 76.5601 1099.61 78.4001C1101.81 74.8001 1104.76 71.8701 1108.57 69.4801C1106.72 68.3201 1105.06 67.0201 1103.61 65.6001C1102.07 64.0901 1100.73 62.4001 1099.61 60.5701C1098.48 62.4101 1097.14 64.1001 1095.61 65.6001C1094.16 67.0301 1092.49 68.3301 1090.65 69.4801Z" fill="#D9B96B"/>
<path d="M1128.34 69.9399C1128.13 69.9399 1127.92 69.8899 1127.73 69.7799C1121.68 66.2799 1116.29 62.2099 1111.7 57.7099C1111.45 57.4599 1111.19 57.2099 1110.94 56.9599C1110.59 56.6099 1110.49 56.0899 1110.68 55.6399C1110.87 55.1899 1111.31 54.8899 1111.8 54.8899H1137.07C1137.52 54.8899 1137.94 55.1399 1138.15 55.5399C1138.36 55.9399 1138.33 56.4199 1138.07 56.7899L1129.33 69.4199C1129.1 69.7599 1128.72 69.9399 1128.33 69.9399H1128.34ZM1112.99 56.5899C1117.36 60.8599 1122.47 64.7199 1128.2 68.0799L1136.15 56.5899H1112.99Z" fill="#D9B96B"/>
<path d="M1070.89 69.9399C1070.5 69.9399 1070.12 69.7599 1069.89 69.4199L1061.15 56.7899C1060.89 56.4199 1060.86 55.9399 1061.07 55.5399C1061.28 55.1399 1061.69 54.8899 1062.14 54.8899H1087.41C1087.9 54.8899 1088.34 55.1799 1088.53 55.6399C1088.72 56.0899 1088.62 56.6099 1088.27 56.9599C1088.02 57.2099 1087.77 57.4599 1087.51 57.7099C1082.91 62.2199 1077.51 66.2899 1071.47 69.7799C1071.28 69.8899 1071.07 69.9399 1070.87 69.9399H1070.89ZM1063.08 56.5899L1071.03 68.0799C1076.75 64.7299 1081.86 60.8699 1086.24 56.5899H1063.08Z" fill="#D9B96B"/>
<path d="M948.296 80.5701C947.856 80.5701 947.466 80.3401 947.246 79.9601C946.116 77.9801 944.726 76.1701 943.106 74.5801C941.436 72.9401 939.466 71.4801 937.256 70.2301L936.826 69.9901V69.0001L937.256 68.7501C939.476 67.4901 941.446 66.0301 943.106 64.4001C944.716 62.8101 946.116 61.0001 947.246 59.0201C947.686 58.2501 948.916 58.2501 949.356 59.0201C950.486 61.0001 951.876 62.8101 953.496 64.4001C955.156 66.0301 957.126 67.4901 959.346 68.7501L959.776 69.0001V69.9901L959.346 70.2401C954.936 72.7401 951.666 75.9201 949.356 79.9701C949.136 80.3501 948.746 80.5801 948.306 80.5801L948.296 80.5701ZM939.326 69.4801C941.166 70.6301 942.836 71.9301 944.286 73.3601C945.816 74.8601 947.156 76.5501 948.286 78.4001C950.486 74.8001 953.436 71.8701 957.246 69.4801C955.396 68.3201 953.736 67.0201 952.286 65.6001C950.746 64.0901 949.406 62.4001 948.286 60.5701C947.156 62.4101 945.816 64.1001 944.286 65.6001C942.836 67.0201 941.166 68.3301 939.326 69.4801Z" fill="#D9B96B"/>
<path d="M977.017 69.9399C976.807 69.9399 976.597 69.8899 976.407 69.7799C970.357 66.2799 964.967 62.2099 960.377 57.7099C960.127 57.4599 959.867 57.2099 959.617 56.9599C959.267 56.6099 959.167 56.0899 959.357 55.6399C959.547 55.1899 959.987 54.8899 960.477 54.8899H985.747C986.197 54.8899 986.607 55.1399 986.817 55.5399C987.027 55.9399 986.997 56.4199 986.737 56.7899L977.997 69.4199C977.767 69.7599 977.387 69.9399 976.997 69.9399H977.017ZM961.667 56.5899C966.037 60.8599 971.147 64.7199 976.877 68.0799L984.827 56.5899H961.667Z" fill="#D9B96B"/>
<path d="M919.566 69.9399C919.176 69.9399 918.796 69.7599 918.566 69.4199L909.826 56.7899C909.566 56.4199 909.536 55.9399 909.746 55.5399C909.956 55.1399 910.366 54.8899 910.816 54.8899H936.086C936.576 54.8899 937.016 55.1799 937.206 55.6399C937.396 56.0899 937.296 56.6099 936.946 56.9599C936.696 57.2099 936.446 57.4599 936.196 57.7099C931.596 62.2199 926.196 66.2799 920.156 69.7799C919.966 69.8899 919.756 69.9399 919.556 69.9399H919.566ZM911.756 56.5899L919.706 68.0799C925.426 64.7299 930.536 60.8699 934.916 56.5899H911.756Z" fill="#D9B96B"/>
<path d="M796.977 80.5701C796.537 80.5701 796.147 80.3401 795.927 79.9601C794.797 77.9701 793.407 76.1601 791.787 74.5801C790.117 72.9401 788.147 71.4801 785.937 70.2301L785.507 69.9901V69.0001L785.937 68.7501C788.157 67.5001 790.117 66.0301 791.787 64.4001C793.397 62.8201 794.797 61.0101 795.927 59.0201C796.367 58.2501 797.597 58.2501 798.037 59.0201C799.167 61.0001 800.557 62.8101 802.177 64.4001C803.837 66.0301 805.807 67.5001 808.027 68.7501L808.457 69.0001V69.9901L808.027 70.2401C803.617 72.7401 800.347 75.9201 798.037 79.9701C797.817 80.3501 797.427 80.5801 796.987 80.5801L796.977 80.5701ZM788.007 69.4801C789.847 70.6301 791.517 71.9301 792.967 73.3601C794.497 74.8601 795.837 76.5501 796.967 78.4001C799.167 74.8001 802.117 71.8701 805.927 69.4801C804.077 68.3201 802.417 67.0201 800.967 65.6001C799.427 64.0901 798.087 62.4001 796.967 60.5701C795.837 62.4101 794.497 64.1001 792.967 65.6001C791.517 67.0301 789.847 68.3301 788.007 69.4801Z" fill="#D9B96B"/>
<path d="M825.696 69.9399C825.486 69.9399 825.276 69.8899 825.086 69.7799C819.036 66.2799 813.646 62.2099 809.056 57.7099C808.806 57.4599 808.546 57.2099 808.296 56.9599C807.946 56.6099 807.846 56.0899 808.036 55.6399C808.226 55.1899 808.666 54.8899 809.156 54.8899H834.426C834.876 54.8899 835.296 55.1399 835.506 55.5399C835.716 55.9399 835.686 56.4199 835.426 56.7899L826.686 69.4199C826.456 69.7599 826.076 69.9399 825.686 69.9399H825.696ZM810.356 56.5899C814.726 60.8599 819.836 64.7199 825.566 68.0799L833.516 56.5899H810.356Z" fill="#D9B96B"/>
<path d="M768.247 69.9399C767.857 69.9399 767.477 69.7599 767.247 69.4199L758.507 56.7899C758.247 56.4199 758.217 55.9399 758.427 55.5399C758.637 55.1399 759.047 54.8899 759.497 54.8899H784.767C785.257 54.8899 785.697 55.1799 785.887 55.6299C786.077 56.0899 785.977 56.5999 785.627 56.9499C785.377 57.1999 785.127 57.4499 784.877 57.6999C780.277 62.2099 774.877 66.2699 768.837 69.7699C768.647 69.8799 768.437 69.9299 768.237 69.9299L768.247 69.9399ZM760.437 56.5899L768.387 68.0799C774.107 64.7299 779.217 60.8699 783.597 56.5899H760.437Z" fill="#D9B96B"/>
</svg>
