<svg width="1366" height="81" viewBox="0 0 1366 81" fill="none" xmlns="http://www.w3.org/2000/svg">
<path d="M38.689 53.08C38.239 53.08 37.849 52.85 37.629 52.47C36.499 50.49 35.109 48.68 33.489 47.09C31.829 45.46 29.859 44 27.639 42.74L27.209 42.49V41.5L27.639 41.25C32.049 38.75 35.319 35.57 37.629 31.52C38.069 30.75 39.299 30.75 39.739 31.52C40.869 33.51 42.259 35.31 43.879 36.9C45.549 38.54 47.519 40 49.729 41.25L50.159 41.49V42.48L49.729 42.73C47.509 43.98 45.549 45.45 43.879 47.08C42.269 48.67 40.869 50.48 39.739 52.46C39.519 52.84 39.129 53.07 38.689 53.07V53.08ZM29.719 42C31.569 43.16 33.229 44.46 34.679 45.88C36.219 47.39 37.559 49.08 38.679 50.91C39.809 49.07 41.149 47.38 42.679 45.88C44.129 44.45 45.799 43.15 47.639 42C45.799 40.85 44.129 39.55 42.679 38.12C41.149 36.62 39.809 34.93 38.679 33.09C36.479 36.69 33.529 39.62 29.719 42.01V42Z" fill="#D2D2D2"/>
<path d="M26.4787 56.59H1.20866C0.758662 56.59 0.348662 56.34 0.138662 55.94C-0.0713384 55.54 -0.0413384 55.06 0.218662 54.69L8.95866 42.06C9.31866 41.54 10.0187 41.39 10.5687 41.7C16.6187 45.21 22.0087 49.27 26.5987 53.77C26.8487 54.02 27.1087 54.27 27.3587 54.52C27.6987 54.87 27.7987 55.39 27.6087 55.84C27.4187 56.29 26.9787 56.58 26.4887 56.58L26.4787 56.59ZM2.13866 54.89H25.2987C20.9387 50.62 15.8187 46.76 10.0887 43.4L2.13866 54.89Z" fill="#D2D2D2"/>
<path d="M76.1385 56.59H50.8685C50.3785 56.59 49.9385 56.3 49.7485 55.85C49.5585 55.39 49.6585 54.88 49.9985 54.53C50.2485 54.28 50.4985 54.03 50.7585 53.78C55.3585 49.27 60.7585 45.21 66.7985 41.71C67.3385 41.4 68.0485 41.55 68.4085 42.07L77.1485 54.7C77.4085 55.07 77.4385 55.55 77.2285 55.95C77.0185 56.35 76.6085 56.6 76.1585 56.6L76.1385 56.59ZM52.0485 54.89H75.2085L67.2585 43.4C61.5385 46.75 56.4285 50.61 52.0485 54.89Z" fill="#D2D2D2"/>
<path d="M65.6388 41.4101C65.4188 41.4101 65.2089 41.3501 65.0089 41.2301C59.7089 38.0001 54.9188 34.2901 50.7588 30.2201C46.0288 25.5701 41.9688 20.2701 38.6788 14.4501C32.4688 25.4401 23.8488 34.2101 12.3488 41.2301C11.8588 41.5301 11.2288 41.4501 10.8388 41.0301C10.4488 40.6201 10.3988 39.9801 10.7188 39.5101L37.6788 0.530088C38.1388 -0.139912 39.2188 -0.139912 39.6788 0.530088L66.6388 39.5001C66.9688 39.9701 66.9188 40.6001 66.5288 41.0201C66.2888 41.2701 65.9688 41.4001 65.6488 41.4001L65.6388 41.4101ZM38.6788 10.9001L39.4288 12.2901C42.7688 18.5001 46.9788 24.1201 51.9588 29.0101C55.4888 32.4701 59.4988 35.6601 63.8888 38.5201L38.6788 2.08009L13.4688 38.5101C24.1588 31.5801 32.1788 22.9801 37.9288 12.2801L38.6788 10.8901V10.9001Z" fill="#D2D2D2"/>
<path d="M189.999 53.08C189.549 53.08 189.159 52.85 188.939 52.47C187.809 50.49 186.419 48.68 184.799 47.09C183.139 45.46 181.169 44 178.949 42.74L178.519 42.49V41.5L178.949 41.25C183.359 38.75 186.629 35.57 188.939 31.52C189.369 30.76 190.609 30.75 191.049 31.52C192.179 33.5 193.569 35.31 195.189 36.9C196.859 38.54 198.829 40 201.039 41.25L201.469 41.49V42.48L201.039 42.73C198.819 43.98 196.849 45.45 195.189 47.08C193.569 48.67 192.179 50.48 191.049 52.46C190.829 52.84 190.439 53.07 189.999 53.07V53.08ZM181.029 42C182.879 43.16 184.539 44.46 185.989 45.88C187.519 47.39 188.869 49.08 189.989 50.91C191.119 49.07 192.459 47.38 193.989 45.88C195.439 44.46 197.109 43.15 198.949 42C197.109 40.85 195.439 39.55 193.989 38.12C192.459 36.62 191.119 34.93 189.989 33.09C187.789 36.69 184.839 39.63 181.029 42.01V42Z" fill="#D2D2D2"/>
<path d="M177.799 56.59H152.529C152.079 56.59 151.669 56.34 151.459 55.94C151.249 55.54 151.279 55.06 151.539 54.69L160.279 42.06C160.639 41.54 161.339 41.39 161.889 41.7C167.939 45.21 173.329 49.27 177.919 53.77C178.169 54.02 178.429 54.27 178.679 54.52C179.019 54.87 179.119 55.39 178.939 55.84C178.749 56.29 178.309 56.59 177.819 56.59H177.799ZM153.459 54.89H176.619C172.259 50.62 167.139 46.76 161.409 43.4L153.459 54.89Z" fill="#D2D2D2"/>
<path d="M227.458 56.5899H202.188C201.698 56.5899 201.258 56.2999 201.068 55.8499C200.878 55.3899 200.978 54.8699 201.328 54.5299C201.578 54.2799 201.828 54.0299 202.078 53.7799C206.678 49.2699 212.078 45.2099 218.118 41.7099C218.658 41.3899 219.368 41.5499 219.728 42.0699L228.468 54.6999C228.728 55.0699 228.758 55.5499 228.548 55.9499C228.338 56.3499 227.928 56.5999 227.478 56.5999L227.458 56.5899ZM203.368 54.8899H226.528L218.578 43.3999C212.858 46.7499 207.748 50.6099 203.368 54.8899Z" fill="#D2D2D2"/>
<path d="M216.958 41.41C216.738 41.41 216.528 41.35 216.328 41.23C211.028 38 206.238 34.29 202.078 30.22C197.348 25.57 193.288 20.27 189.998 14.45C183.788 25.44 175.168 34.21 163.668 41.23C163.168 41.53 162.548 41.45 162.158 41.03C161.768 40.62 161.718 39.98 162.038 39.51L188.998 0.530007C189.458 -0.129993 190.528 -0.139993 190.988 0.530007L217.948 39.51C218.278 39.98 218.228 40.61 217.838 41.03C217.598 41.28 217.278 41.41 216.958 41.41ZM189.998 10.9L190.748 12.29C194.088 18.5 198.298 24.12 203.278 29.01C206.808 32.47 210.818 35.66 215.208 38.52L189.998 2.08001L164.788 38.51C175.478 31.58 183.498 22.98 189.248 12.28L189.998 10.89V10.9Z" fill="#D2D2D2"/>
<path d="M341.319 53.08C340.869 53.08 340.479 52.85 340.259 52.47C339.129 50.49 337.739 48.68 336.119 47.09C334.459 45.46 332.489 44 330.269 42.74L329.839 42.49V41.5L330.269 41.25C334.679 38.75 337.949 35.57 340.259 31.52C340.689 30.76 341.929 30.75 342.369 31.52C343.499 33.5 344.889 35.31 346.509 36.9C348.179 38.54 350.149 40 352.359 41.25L352.789 41.49V42.48L352.359 42.73C350.139 43.98 348.169 45.45 346.509 47.08C344.889 48.67 343.499 50.48 342.369 52.46C342.149 52.84 341.759 53.07 341.319 53.07V53.08ZM332.349 42C334.199 43.16 335.859 44.46 337.309 45.88C338.839 47.39 340.189 49.08 341.309 50.91C342.439 49.07 343.779 47.38 345.309 45.88C346.759 44.46 348.429 43.15 350.269 42C348.429 40.85 346.759 39.55 345.309 38.12C343.779 36.62 342.439 34.93 341.309 33.09C339.109 36.69 336.159 39.63 332.349 42.01V42Z" fill="#D2D2D2"/>
<path d="M329.118 56.59H303.848C303.398 56.59 302.988 56.34 302.778 55.94C302.568 55.54 302.598 55.06 302.858 54.69L311.598 42.06C311.958 41.54 312.658 41.38 313.208 41.7C319.258 45.21 324.648 49.27 329.238 53.77C329.488 54.02 329.748 54.27 329.998 54.52C330.338 54.87 330.438 55.39 330.258 55.84C330.068 56.29 329.628 56.59 329.138 56.59H329.118ZM304.778 54.89H327.938C323.578 50.62 318.458 46.76 312.728 43.4L304.778 54.89Z" fill="#D2D2D2"/>
<path d="M378.779 56.59H353.509C353.019 56.59 352.579 56.3 352.389 55.84C352.199 55.38 352.299 54.87 352.649 54.52C352.899 54.27 353.149 54.02 353.399 53.77C357.999 49.26 363.399 45.2 369.439 41.7C369.979 41.38 370.689 41.54 371.049 42.06L379.789 54.69C380.049 55.06 380.079 55.54 379.869 55.94C379.659 56.34 379.249 56.59 378.789 56.59H378.779ZM354.689 54.89H377.849L369.899 43.4C364.179 46.75 359.069 50.61 354.689 54.89Z" fill="#D2D2D2"/>
<path d="M368.279 41.4101C368.059 41.4101 367.849 41.3501 367.649 41.2301C362.349 38.0001 357.559 34.2901 353.399 30.2201C348.669 25.5701 344.609 20.2701 341.319 14.4501C335.109 25.4401 326.489 34.2101 314.989 41.2301C314.489 41.5301 313.869 41.4501 313.479 41.0301C313.089 40.6201 313.039 39.9801 313.369 39.5101L340.319 0.530088C340.779 -0.139912 341.859 -0.139912 342.319 0.530088L369.279 39.5001C369.609 39.9801 369.559 40.6001 369.169 41.0201C368.929 41.2701 368.609 41.4001 368.289 41.4001L368.279 41.4101ZM341.309 10.9001L342.059 12.2901C345.399 18.5001 349.609 24.1201 354.589 29.0101C358.119 32.4701 362.129 35.6701 366.519 38.5201L341.309 2.08009L316.099 38.5101C326.789 31.5801 334.809 22.9801 340.559 12.2901L341.309 10.9001Z" fill="#D2D2D2"/>
<path d="M492.638 53.08C492.188 53.08 491.798 52.85 491.578 52.47C490.448 50.49 489.058 48.68 487.438 47.09C485.778 45.46 483.808 44 481.588 42.74L481.158 42.49V41.5L481.588 41.25C485.998 38.75 489.268 35.57 491.578 31.52C492.018 30.75 493.248 30.75 493.688 31.52C494.818 33.51 496.208 35.31 497.828 36.9C499.498 38.54 501.468 40 503.678 41.25L504.108 41.49V42.48L503.678 42.73C501.458 43.98 499.498 45.45 497.828 47.08C496.218 48.67 494.818 50.48 493.688 52.46C493.468 52.84 493.078 53.07 492.638 53.07V53.08ZM483.668 42C485.518 43.16 487.178 44.46 488.628 45.88C490.158 47.39 491.508 49.08 492.628 50.91C493.758 49.07 495.098 47.38 496.628 45.88C498.078 44.45 499.748 43.15 501.588 42C499.748 40.85 498.078 39.55 496.628 38.12C495.098 36.62 493.758 34.93 492.628 33.09C490.428 36.69 487.478 39.62 483.668 42.01V42Z" fill="#D2D2D2"/>
<path d="M480.429 56.59H455.159C454.709 56.59 454.299 56.34 454.089 55.94C453.879 55.54 453.909 55.06 454.169 54.69L462.909 42.06C463.269 41.54 463.969 41.39 464.519 41.7C470.569 45.21 475.959 49.27 480.549 53.77C480.799 54.02 481.059 54.27 481.309 54.53C481.649 54.88 481.749 55.4 481.569 55.85C481.379 56.3 480.939 56.6 480.449 56.6L480.429 56.59ZM456.099 54.89H479.259C474.899 50.62 469.779 46.76 464.049 43.4L456.099 54.89Z" fill="#D2D2D2"/>
<path d="M530.099 56.5899H504.829C504.339 56.5899 503.899 56.2999 503.709 55.8499C503.519 55.3899 503.619 54.8699 503.969 54.5299C504.219 54.2799 504.469 54.0299 504.719 53.7799C509.319 49.2699 514.719 45.2099 520.759 41.7099C521.309 41.3899 522.009 41.5499 522.369 42.0699L531.109 54.6999C531.369 55.0699 531.399 55.5499 531.189 55.9499C530.979 56.3499 530.569 56.5999 530.119 56.5999L530.099 56.5899ZM505.999 54.8899H529.159L521.209 43.3999C515.489 46.7499 510.379 50.6099 505.999 54.8899Z" fill="#D2D2D2"/>
<path d="M519.599 41.41C519.379 41.41 519.169 41.35 518.969 41.23C513.669 38 508.879 34.29 504.719 30.22C499.989 25.57 495.929 20.27 492.639 14.45C486.439 25.44 477.809 34.21 466.309 41.23C465.809 41.53 465.189 41.45 464.799 41.03C464.409 40.62 464.359 39.98 464.679 39.51L491.629 0.530007C492.089 -0.139993 493.169 -0.129993 493.629 0.530007L520.589 39.5C520.919 39.98 520.869 40.6 520.479 41.02C520.239 41.27 519.919 41.4 519.599 41.4V41.41ZM492.629 10.9L493.379 12.29C496.719 18.5 500.929 24.12 505.909 29.01C509.439 32.47 513.449 35.66 517.839 38.52L492.629 2.08001L467.419 38.51C478.109 31.58 486.129 22.98 491.879 12.28L492.629 10.89V10.9Z" fill="#D2D2D2"/>
<path d="M643.959 53.08C643.509 53.08 643.119 52.85 642.899 52.47C641.769 50.49 640.379 48.68 638.759 47.09C637.099 45.46 635.129 44 632.909 42.74L632.479 42.49V41.5L632.909 41.25C637.319 38.75 640.589 35.57 642.899 31.52C643.339 30.75 644.569 30.75 645.009 31.52C646.139 33.51 647.529 35.32 649.149 36.9C650.819 38.54 652.789 40 654.999 41.25L655.429 41.49V42.48L654.999 42.73C652.779 43.98 650.819 45.45 649.149 47.08C647.529 48.67 646.139 50.48 645.009 52.46C644.789 52.84 644.399 53.07 643.959 53.07V53.08ZM634.989 42C636.839 43.16 638.499 44.46 639.949 45.88C641.479 47.39 642.829 49.08 643.949 50.91C645.079 49.07 646.419 47.38 647.949 45.88C649.399 44.46 651.069 43.15 652.909 42C651.069 40.85 649.399 39.55 647.949 38.12C646.419 36.62 645.079 34.93 643.949 33.09C641.749 36.69 638.799 39.62 634.989 42.01V42Z" fill="#D2D2D2"/>
<path d="M631.748 56.59H606.478C606.028 56.59 605.618 56.34 605.408 55.94C605.198 55.54 605.228 55.06 605.488 54.69L614.228 42.06C614.588 41.54 615.288 41.38 615.838 41.7C621.888 45.21 627.278 49.27 631.868 53.77C632.128 54.02 632.378 54.27 632.628 54.53C632.968 54.88 633.068 55.4 632.888 55.85C632.698 56.3 632.258 56.6 631.768 56.6L631.748 56.59ZM607.408 54.89H630.568C626.208 50.62 621.088 46.76 615.358 43.4L607.408 54.89Z" fill="#D2D2D2"/>
<path d="M681.409 56.5899H656.139C655.649 56.5899 655.209 56.2999 655.019 55.8499C654.829 55.3899 654.929 54.8699 655.279 54.5299C655.529 54.2799 655.779 54.0299 656.029 53.7799C660.629 49.2699 666.029 45.2099 672.069 41.7099C672.609 41.3899 673.319 41.5499 673.679 42.0699L682.419 54.6999C682.679 55.0699 682.709 55.5499 682.499 55.9499C682.289 56.3499 681.879 56.5999 681.429 56.5999L681.409 56.5899ZM657.319 54.8899H680.479L672.529 43.3999C666.809 46.7499 661.699 50.6099 657.319 54.8899Z" fill="#D2D2D2"/>
<path d="M670.908 41.41C670.688 41.41 670.478 41.35 670.278 41.23C664.978 38 660.188 34.29 656.028 30.22C651.298 25.57 647.238 20.27 643.948 14.45C637.738 25.44 629.118 34.21 617.618 41.23C617.128 41.53 616.498 41.45 616.108 41.03C615.718 40.62 615.668 39.98 615.988 39.51L642.948 0.530007C643.408 -0.139993 644.488 -0.129993 644.948 0.530007L671.908 39.5C672.238 39.97 672.188 40.6 671.798 41.02C671.558 41.27 671.238 41.4 670.918 41.4L670.908 41.41ZM643.948 10.9L644.698 12.29C648.038 18.5 652.248 24.12 657.228 29.01C660.758 32.47 664.768 35.66 669.158 38.52L643.948 2.09001L618.738 38.52C629.428 31.59 637.448 22.99 643.198 12.3L643.948 10.91V10.9Z" fill="#D2D2D2"/>
<path d="M114.339 25.69C113.899 25.69 113.509 25.46 113.289 25.08C110.979 21.03 107.719 17.85 103.299 15.35L101.999 14.61L103.299 13.87C105.519 12.61 107.489 11.14 109.149 9.51002C110.769 7.92002 112.159 6.11002 113.289 4.13002C113.509 3.75002 113.899 3.52002 114.339 3.52002C114.779 3.52002 115.179 3.75002 115.389 4.13002C116.519 6.11002 117.909 7.92002 119.529 9.51002C121.199 11.14 123.159 12.61 125.379 13.86L126.689 14.6L125.379 15.34C123.169 16.59 121.199 18.06 119.529 19.7C117.909 21.29 116.519 23.1 115.389 25.08C115.169 25.46 114.779 25.69 114.339 25.69ZM105.379 14.6C109.199 16.98 112.139 19.92 114.339 23.52C115.469 21.68 116.809 19.99 118.339 18.49C119.799 17.06 121.459 15.76 123.299 14.61C121.449 13.45 119.789 12.15 118.339 10.73C116.809 9.23002 115.469 7.54002 114.339 5.70002C113.219 7.53002 111.869 9.23002 110.339 10.73C108.889 12.15 107.229 13.45 105.379 14.61V14.6Z" fill="#D2D2D2"/>
<path d="M85.6088 15.07C85.2288 15.07 84.8488 14.89 84.6188 14.55L75.8788 1.92002C75.6188 1.55002 75.5888 1.07002 75.7988 0.67002C76.0088 0.27002 76.4188 0.0200195 76.8688 0.0200195H102.139C102.629 0.0200195 103.069 0.31002 103.259 0.77002C103.449 1.22002 103.349 1.73002 103.009 2.08002C102.759 2.34002 102.509 2.59002 102.249 2.84002C97.6588 7.34002 92.2688 11.41 86.2188 14.91C86.0288 15.02 85.8188 15.08 85.6088 15.08V15.07ZM77.7988 1.71002L85.7488 13.2C91.4788 9.84002 96.5888 5.98002 100.959 1.71002H77.7988Z" fill="#D2D2D2"/>
<path d="M143.059 15.06C142.849 15.06 142.649 15.01 142.459 14.9C136.419 11.4 131.029 7.34001 126.419 2.83001C126.169 2.58001 125.909 2.33001 125.659 2.08001C125.309 1.73001 125.209 1.21001 125.399 0.76001C125.589 0.31001 126.029 0.0100098 126.519 0.0100098H151.789C152.239 0.0100098 152.659 0.26001 152.869 0.66001C153.079 1.06001 153.049 1.54001 152.789 1.91001L144.049 14.54C143.819 14.88 143.439 15.06 143.049 15.06H143.059ZM127.709 1.71001C132.089 5.99001 137.209 9.85001 142.919 13.2L150.869 1.71001H127.709Z" fill="#D2D2D2"/>
<path d="M114.339 56.59C113.939 56.59 113.569 56.4 113.339 56.07L86.3786 17.1C86.0486 16.62 86.0986 16 86.4986 15.58C86.8986 15.16 87.5186 15.08 88.0086 15.38C99.5086 22.4 108.139 31.17 114.339 42.16C117.629 36.34 121.689 31.04 126.419 26.39C130.579 22.31 135.369 18.61 140.669 15.38C141.159 15.08 141.789 15.16 142.189 15.59C142.579 16 142.629 16.64 142.299 17.11L115.339 56.08C115.109 56.41 114.749 56.6 114.339 56.6V56.59ZM89.1286 18.08L114.339 54.51L139.549 18.08C135.149 20.93 131.149 24.12 127.619 27.59C122.649 32.47 118.429 38.1 115.089 44.31L114.339 45.7L113.589 44.31C107.839 33.61 99.8186 25.02 89.1286 18.08Z" fill="#D2D2D2"/>
<path d="M265.658 25.69C265.218 25.69 264.818 25.46 264.608 25.08C262.298 21.03 259.038 17.85 254.618 15.35L253.318 14.61L254.618 13.87C256.838 12.61 258.808 11.14 260.468 9.51002C262.088 7.92002 263.478 6.11002 264.608 4.13002C264.828 3.75002 265.218 3.52002 265.658 3.52002C266.098 3.52002 266.498 3.75002 266.708 4.13002C267.838 6.11002 269.228 7.92002 270.848 9.51002C272.508 11.14 274.478 12.61 276.698 13.86L278.008 14.6L276.698 15.34C274.488 16.59 272.518 18.06 270.848 19.7C269.228 21.29 267.838 23.1 266.708 25.08C266.488 25.46 266.098 25.69 265.658 25.69ZM256.688 14.6C260.508 16.98 263.448 19.92 265.648 23.52C266.778 21.68 268.118 19.99 269.648 18.49C271.108 17.06 272.768 15.76 274.608 14.61C272.758 13.45 271.098 12.15 269.648 10.73C268.118 9.23002 266.778 7.54002 265.648 5.70002C264.528 7.54002 263.178 9.23002 261.648 10.73C260.198 12.15 258.538 13.45 256.688 14.61V14.6Z" fill="#D2D2D2"/>
<path d="M236.928 15.06C236.538 15.06 236.158 14.88 235.928 14.54L227.188 1.91001C226.928 1.54001 226.898 1.06001 227.108 0.66001C227.318 0.26001 227.728 0.0100098 228.178 0.0100098H253.448C253.938 0.0100098 254.378 0.30001 254.568 0.76001C254.758 1.21001 254.658 1.73001 254.308 2.08001C254.058 2.33001 253.808 2.59001 253.548 2.83001C248.958 7.33001 243.568 11.39 237.518 14.9C237.328 15.01 237.118 15.06 236.918 15.06H236.928ZM229.118 1.71001L237.068 13.2C242.798 9.84001 247.908 5.98001 252.278 1.71001H229.118Z" fill="#D2D2D2"/>
<path d="M294.379 15.06C294.169 15.06 293.969 15.01 293.779 14.9C287.739 11.4 282.349 7.34001 277.739 2.83001C277.489 2.58001 277.229 2.33001 276.979 2.08001C276.639 1.73001 276.529 1.21001 276.719 0.76001C276.909 0.30001 277.349 0.0100098 277.839 0.0100098H303.109C303.559 0.0100098 303.969 0.26001 304.179 0.66001C304.389 1.06001 304.359 1.54001 304.099 1.91001L295.359 14.54C295.129 14.88 294.749 15.06 294.359 15.06H294.379ZM279.029 1.71001C283.409 5.99001 288.529 9.85001 294.239 13.2L302.189 1.71001H279.029Z" fill="#D2D2D2"/>
<path d="M265.659 56.59C265.259 56.59 264.889 56.4 264.659 56.07L237.699 17.1C237.369 16.62 237.419 16 237.819 15.57C238.219 15.15 238.839 15.07 239.329 15.37C250.829 22.39 259.459 31.16 265.659 42.15C268.949 36.33 273.009 31.03 277.739 26.38C281.899 22.3 286.689 18.6 291.989 15.37C292.479 15.07 293.119 15.16 293.509 15.58C293.899 15.99 293.949 16.63 293.619 17.1L266.659 56.07C266.429 56.4 266.069 56.59 265.659 56.59ZM240.449 18.08L265.659 54.51L290.869 18.08C286.469 20.93 282.469 24.12 278.939 27.59C273.969 32.47 269.749 38.1 266.409 44.31L265.659 45.7L264.909 44.31C259.159 33.61 251.139 25.02 240.449 18.08Z" fill="#D2D2D2"/>
<path d="M416.969 25.69C416.529 25.69 416.139 25.46 415.919 25.08C413.609 21.03 410.349 17.85 405.929 15.35L404.629 14.61L405.929 13.87C408.149 12.61 410.119 11.14 411.779 9.51002C413.399 7.92002 414.799 6.11002 415.919 4.13002C416.139 3.75002 416.529 3.52002 416.969 3.52002C417.409 3.52002 417.809 3.75002 418.019 4.13002C419.149 6.11002 420.539 7.92002 422.159 9.51002C423.819 11.14 425.789 12.61 428.009 13.86L429.319 14.6L428.009 15.34C425.799 16.59 423.829 18.06 422.159 19.7C420.549 21.29 419.149 23.1 418.019 25.08C417.799 25.46 417.409 25.69 416.969 25.69ZM408.009 14.6C411.829 16.98 414.769 19.92 416.969 23.52C418.099 21.68 419.439 19.99 420.969 18.49C422.429 17.06 424.089 15.76 425.929 14.61C424.079 13.45 422.419 12.15 420.969 10.73C419.439 9.23002 418.099 7.54002 416.969 5.70002C415.849 7.53002 414.499 9.23002 412.969 10.73C411.519 12.15 409.859 13.45 408.009 14.61V14.6Z" fill="#D2D2D2"/>
<path d="M388.249 15.06C387.859 15.06 387.479 14.88 387.249 14.54L378.509 1.91001C378.249 1.54001 378.219 1.06001 378.429 0.66001C378.639 0.26001 379.049 0.0100098 379.499 0.0100098H404.769C405.259 0.0100098 405.699 0.30001 405.889 0.76001C406.079 1.21001 405.979 1.73001 405.629 2.08001C405.379 2.33001 405.129 2.59001 404.869 2.83001C400.279 7.33001 394.889 11.39 388.839 14.9C388.649 15.01 388.439 15.06 388.239 15.06H388.249ZM380.439 1.71001L388.389 13.2C394.119 9.84001 399.229 5.98001 403.599 1.71001H380.439Z" fill="#D2D2D2"/>
<path d="M445.699 15.06C445.489 15.06 445.289 15.01 445.099 14.9C439.059 11.4 433.659 7.34 429.059 2.83C428.809 2.58 428.549 2.33 428.299 2.07C427.959 1.72 427.849 1.2 428.039 0.75C428.229 0.29 428.669 0 429.159 0H454.429C454.879 0 455.299 0.25 455.509 0.65C455.719 1.05 455.689 1.53 455.429 1.9L446.689 14.53C446.459 14.87 446.079 15.05 445.689 15.05L445.699 15.06ZM430.349 1.71C434.729 5.99 439.839 9.85 445.559 13.2L453.509 1.71H430.349Z" fill="#D2D2D2"/>
<path d="M416.969 56.59C416.569 56.59 416.209 56.4 415.969 56.07L389.009 17.1C388.679 16.62 388.729 16 389.129 15.57C389.529 15.15 390.149 15.07 390.639 15.37C402.139 22.39 410.769 31.16 416.969 42.15C420.259 36.33 424.319 31.03 429.049 26.38C433.199 22.3 437.999 18.6 443.299 15.37C443.789 15.07 444.419 15.15 444.819 15.58C445.209 15.99 445.259 16.63 444.929 17.1L417.969 56.07C417.739 56.4 417.379 56.59 416.969 56.59ZM391.769 18.08L416.979 54.51L442.189 18.08C437.789 20.93 433.789 24.12 430.259 27.59C425.289 32.47 421.069 38.1 417.729 44.31L416.979 45.7L416.229 44.31C410.479 33.62 402.459 25.02 391.769 18.08Z" fill="#D2D2D2"/>
<path d="M568.288 25.69C567.848 25.69 567.458 25.46 567.238 25.08C564.928 21.03 561.658 17.84 557.248 15.34L555.948 14.6L557.248 13.86C559.468 12.6 561.438 11.13 563.098 9.50001C564.718 7.91001 566.108 6.10001 567.238 4.12001C567.458 3.74001 567.848 3.51001 568.288 3.51001C568.728 3.51001 569.128 3.74001 569.338 4.12001C570.468 6.10001 571.858 7.91001 573.478 9.50001C575.148 11.13 577.108 12.6 579.328 13.85L580.638 14.59L579.328 15.33C577.118 16.58 575.148 18.05 573.478 19.69C571.858 21.28 570.468 23.09 569.338 25.07C569.118 25.45 568.728 25.68 568.288 25.68V25.69ZM559.328 14.6C563.148 16.98 566.088 19.92 568.288 23.52C569.418 21.68 570.758 19.99 572.288 18.49C573.748 17.06 575.408 15.76 577.248 14.61C575.398 13.45 573.738 12.15 572.288 10.73C570.758 9.23001 569.418 7.54001 568.288 5.70001C567.168 7.53001 565.818 9.23001 564.288 10.73C562.838 12.15 561.178 13.45 559.328 14.61V14.6Z" fill="#D2D2D2"/>
<path d="M539.569 15.06C539.179 15.06 538.799 14.88 538.569 14.54L529.829 1.91001C529.569 1.54001 529.539 1.06001 529.749 0.66001C529.959 0.26001 530.369 0.0100098 530.819 0.0100098H556.089C556.579 0.0100098 557.019 0.30001 557.209 0.76001C557.399 1.21001 557.299 1.73001 556.949 2.08001C556.699 2.33001 556.449 2.59001 556.189 2.83001C551.599 7.33001 546.209 11.4 540.159 14.9C539.969 15.01 539.759 15.06 539.559 15.06H539.569ZM531.759 1.71001L539.709 13.2C545.439 9.84001 550.549 5.98001 554.919 1.71001H531.759Z" fill="#D2D2D2"/>
<path d="M597.009 15.06C596.799 15.06 596.599 15.01 596.409 14.9C590.369 11.4 584.969 7.34 580.369 2.83C580.119 2.58 579.859 2.33 579.609 2.07C579.269 1.72 579.169 1.2 579.349 0.75C579.539 0.3 579.979 0 580.469 0H605.739C606.189 0 606.599 0.25 606.809 0.65C607.019 1.05 606.989 1.53 606.729 1.9L597.989 14.53C597.759 14.87 597.379 15.05 596.989 15.05L597.009 15.06ZM581.659 1.71C586.039 5.99 591.149 9.85 596.869 13.2L604.819 1.71H581.659Z" fill="#D2D2D2"/>
<path d="M568.289 56.59C567.889 56.59 567.529 56.4 567.289 56.07L540.329 17.1C539.999 16.62 540.049 16 540.449 15.57C540.849 15.15 541.469 15.07 541.959 15.37C553.459 22.39 562.089 31.16 568.289 42.15C571.589 36.32 575.649 31.03 580.369 26.38C584.529 22.3 589.319 18.6 594.619 15.37C595.109 15.07 595.739 15.15 596.139 15.58C596.529 15.99 596.579 16.63 596.249 17.1L569.289 56.07C569.059 56.4 568.699 56.59 568.289 56.59ZM543.079 18.08L568.289 54.51L593.499 18.08C589.099 20.93 585.099 24.12 581.569 27.59C576.599 32.47 572.379 38.1 569.039 44.31L568.289 45.7L567.539 44.31C561.789 33.62 553.769 25.02 543.079 18.08Z" fill="#D2D2D2"/>
<path d="M568.288 80.57C567.848 80.57 567.458 80.34 567.238 79.96C566.108 77.98 564.718 76.17 563.098 74.58C561.428 72.94 559.458 71.48 557.248 70.23L556.818 69.99V69L557.248 68.75C559.468 67.49 561.438 66.03 563.098 64.4C564.718 62.81 566.108 61 567.238 59.02C567.678 58.25 568.908 58.25 569.348 59.02C570.478 61 571.868 62.81 573.488 64.4C575.148 66.03 577.118 67.49 579.338 68.75L579.768 69V69.99L579.338 70.24C574.928 72.74 571.658 75.92 569.348 79.97C569.128 80.35 568.738 80.58 568.298 80.58L568.288 80.57ZM559.328 69.48C561.168 70.63 562.838 71.93 564.288 73.36C565.818 74.86 567.158 76.55 568.288 78.39C570.488 74.79 573.438 71.86 577.248 69.47C575.398 68.31 573.738 67.01 572.288 65.59C570.748 64.08 569.408 62.39 568.288 60.56C567.158 62.4 565.818 64.09 564.288 65.59C562.838 67.01 561.168 68.32 559.328 69.47V69.48Z" fill="#D2D2D2"/>
<path d="M597.019 69.94C596.809 69.94 596.599 69.89 596.409 69.78C590.359 66.28 584.969 62.21 580.379 57.71C580.129 57.46 579.869 57.21 579.619 56.96C579.269 56.61 579.169 56.09 579.359 55.64C579.549 55.19 579.989 54.9 580.479 54.9H605.749C606.199 54.9 606.609 55.15 606.819 55.55C607.029 55.95 606.999 56.43 606.739 56.8L597.999 69.43C597.769 69.77 597.389 69.95 596.999 69.95L597.019 69.94ZM581.669 56.59C586.039 60.86 591.149 64.72 596.879 68.08L604.829 56.59H581.669Z" fill="#D2D2D2"/>
<path d="M539.569 69.94C539.179 69.94 538.799 69.76 538.569 69.42L529.829 56.79C529.569 56.42 529.539 55.94 529.749 55.54C529.959 55.14 530.369 54.89 530.819 54.89H556.089C556.579 54.89 557.019 55.18 557.209 55.64C557.399 56.09 557.299 56.61 556.949 56.96C556.699 57.21 556.449 57.46 556.189 57.71C551.589 62.22 546.189 66.29 540.149 69.78C539.959 69.89 539.749 69.94 539.549 69.94H539.569ZM531.759 56.59L539.709 68.08C545.429 64.73 550.539 60.87 554.919 56.59H531.759Z" fill="#D2D2D2"/>
<path d="M416.969 80.57C416.529 80.57 416.139 80.34 415.919 79.96C414.789 77.98 413.399 76.17 411.779 74.58C410.109 72.94 408.139 71.48 405.929 70.23L405.499 69.99V69L405.929 68.75C408.149 67.5 410.119 66.03 411.779 64.4C413.399 62.81 414.789 61 415.919 59.02C416.359 58.25 417.589 58.25 418.029 59.02C419.159 61 420.549 62.81 422.169 64.4C423.829 66.03 425.799 67.49 428.019 68.75L428.449 69V69.99L428.019 70.24C423.609 72.74 420.339 75.92 418.029 79.97C417.809 80.35 417.419 80.58 416.979 80.58L416.969 80.57ZM408.009 69.48C409.849 70.63 411.519 71.93 412.969 73.36C414.499 74.86 415.839 76.56 416.969 78.4C419.169 74.8 422.119 71.87 425.929 69.48C424.079 68.32 422.419 67.02 420.969 65.6C419.429 64.09 418.089 62.4 416.969 60.57C415.839 62.41 414.499 64.1 412.969 65.6C411.519 67.03 409.849 68.33 408.009 69.48Z" fill="#D2D2D2"/>
<path d="M445.698 69.94C445.488 69.94 445.278 69.89 445.088 69.78C439.038 66.28 433.648 62.21 429.058 57.71C428.808 57.46 428.548 57.21 428.298 56.96C427.948 56.61 427.848 56.09 428.038 55.64C428.228 55.19 428.668 54.89 429.158 54.89H454.428C454.878 54.89 455.298 55.14 455.508 55.54C455.718 55.94 455.688 56.42 455.428 56.79L446.688 69.42C446.458 69.76 446.078 69.94 445.688 69.94H445.698ZM430.348 56.59C434.718 60.86 439.828 64.72 445.558 68.08L453.508 56.59H430.348Z" fill="#D2D2D2"/>
<path d="M388.249 69.94C387.859 69.94 387.479 69.76 387.249 69.42L378.509 56.79C378.249 56.42 378.219 55.94 378.429 55.54C378.639 55.14 379.049 54.89 379.499 54.89H404.769C405.259 54.89 405.699 55.18 405.889 55.64C406.079 56.09 405.979 56.61 405.629 56.96C405.379 57.21 405.129 57.46 404.869 57.71C400.269 62.22 394.869 66.29 388.829 69.78C388.639 69.89 388.429 69.94 388.229 69.94H388.249ZM380.439 56.59L388.389 68.08C394.109 64.73 399.219 60.87 403.599 56.59H380.439Z" fill="#D2D2D2"/>
<path d="M265.659 80.57C265.219 80.57 264.829 80.34 264.609 79.96C263.479 77.98 262.089 76.17 260.469 74.58C258.799 72.94 256.829 71.48 254.619 70.23L254.189 69.99V69L254.619 68.75C256.839 67.49 258.809 66.03 260.469 64.4C262.079 62.81 263.479 61 264.609 59.02C265.049 58.25 266.279 58.25 266.719 59.02C267.849 61 269.239 62.81 270.859 64.4C272.519 66.03 274.489 67.49 276.709 68.75L277.139 69V69.99L276.709 70.24C272.299 72.74 269.029 75.92 266.719 79.97C266.499 80.35 266.109 80.58 265.669 80.58L265.659 80.57ZM256.689 69.48C258.529 70.63 260.199 71.93 261.649 73.36C263.179 74.86 264.519 76.55 265.649 78.4C267.849 74.8 270.799 71.87 274.609 69.48C272.759 68.32 271.099 67.02 269.649 65.6C268.109 64.09 266.769 62.4 265.649 60.57C264.519 62.41 263.179 64.1 261.649 65.6C260.199 67.02 258.529 68.33 256.689 69.48Z" fill="#D2D2D2"/>
<path d="M294.379 69.94C294.169 69.94 293.959 69.89 293.769 69.78C287.719 66.28 282.329 62.21 277.739 57.71C277.489 57.46 277.229 57.21 276.979 56.96C276.629 56.61 276.529 56.09 276.719 55.64C276.909 55.19 277.349 54.89 277.839 54.89H303.109C303.559 54.89 303.969 55.14 304.179 55.54C304.389 55.94 304.359 56.42 304.099 56.79L295.359 69.42C295.129 69.76 294.749 69.94 294.359 69.94H294.379ZM279.029 56.59C283.399 60.86 288.509 64.72 294.239 68.08L302.189 56.59H279.029Z" fill="#D2D2D2"/>
<path d="M236.928 69.94C236.538 69.94 236.158 69.76 235.928 69.42L227.188 56.79C226.928 56.42 226.898 55.94 227.108 55.54C227.318 55.14 227.728 54.89 228.178 54.89H253.448C253.938 54.89 254.378 55.18 254.568 55.64C254.758 56.09 254.658 56.61 254.308 56.96C254.058 57.21 253.808 57.46 253.558 57.71C248.958 62.22 243.558 66.28 237.518 69.78C237.328 69.89 237.118 69.94 236.918 69.94H236.928ZM229.118 56.59L237.068 68.08C242.788 64.73 247.898 60.87 252.278 56.59H229.118Z" fill="#D2D2D2"/>
<path d="M114.339 80.57C113.899 80.57 113.509 80.34 113.289 79.96C112.159 77.97 110.769 76.16 109.149 74.58C107.479 72.94 105.509 71.48 103.299 70.23L102.869 69.99V69L103.299 68.75C105.519 67.5 107.479 66.03 109.149 64.4C110.759 62.82 112.159 61.01 113.289 59.02C113.729 58.25 114.959 58.25 115.399 59.02C116.529 61 117.919 62.81 119.539 64.4C121.199 66.03 123.169 67.5 125.389 68.75L125.819 69V69.99L125.389 70.24C120.979 72.74 117.709 75.92 115.399 79.97C115.179 80.35 114.789 80.58 114.349 80.58L114.339 80.57ZM105.369 69.48C107.209 70.63 108.879 71.93 110.329 73.36C111.859 74.86 113.199 76.55 114.329 78.4C116.529 74.8 119.479 71.87 123.289 69.48C121.439 68.32 119.779 67.02 118.329 65.6C116.789 64.09 115.449 62.4 114.329 60.57C113.199 62.41 111.859 64.1 110.329 65.6C108.879 67.03 107.209 68.33 105.369 69.48Z" fill="#D2D2D2"/>
<path d="M143.059 69.94C142.849 69.94 142.639 69.89 142.449 69.78C136.399 66.28 131.009 62.21 126.419 57.71C126.169 57.46 125.909 57.21 125.659 56.96C125.309 56.61 125.209 56.09 125.399 55.64C125.589 55.19 126.029 54.89 126.519 54.89H151.789C152.239 54.89 152.659 55.14 152.869 55.54C153.079 55.94 153.049 56.42 152.789 56.79L144.049 69.42C143.819 69.76 143.439 69.94 143.049 69.94H143.059ZM127.719 56.59C132.089 60.86 137.199 64.72 142.929 68.08L150.879 56.59H127.719Z" fill="#D2D2D2"/>
<path d="M85.6091 69.94C85.2191 69.94 84.8391 69.76 84.6091 69.42L75.8691 56.79C75.6091 56.42 75.5791 55.94 75.7891 55.54C75.9991 55.14 76.4091 54.89 76.8591 54.89H102.129C102.619 54.89 103.059 55.18 103.249 55.63C103.439 56.09 103.339 56.6 102.989 56.95C102.739 57.2 102.489 57.45 102.239 57.7C97.639 62.21 92.239 66.27 86.199 69.77C86.009 69.88 85.799 69.93 85.599 69.93L85.6091 69.94ZM77.7991 56.59L85.7491 68.08C91.469 64.73 96.579 60.87 100.959 56.59H77.7991Z" fill="#D2D2D2"/>
<path d="M721.327 53.08C720.877 53.08 720.487 52.85 720.267 52.47C719.137 50.49 717.747 48.68 716.127 47.09C714.467 45.46 712.497 44 710.277 42.74L709.847 42.49V41.5L710.277 41.25C714.687 38.75 717.957 35.57 720.267 31.52C720.707 30.75 721.937 30.75 722.377 31.52C723.507 33.51 724.897 35.31 726.517 36.9C728.187 38.54 730.157 40 732.367 41.25L732.797 41.49V42.48L732.367 42.73C730.147 43.98 728.187 45.45 726.517 47.08C724.907 48.67 723.507 50.48 722.377 52.46C722.157 52.84 721.767 53.07 721.327 53.07V53.08ZM712.357 42C714.207 43.16 715.867 44.46 717.317 45.88C718.857 47.39 720.197 49.08 721.317 50.91C722.447 49.07 723.787 47.38 725.317 45.88C726.767 44.45 728.437 43.15 730.277 42C728.437 40.85 726.767 39.55 725.317 38.12C723.787 36.62 722.447 34.93 721.317 33.09C719.117 36.69 716.167 39.62 712.357 42.01V42Z" fill="#D2D2D2"/>
<path d="M709.116 56.59H683.846C683.396 56.59 682.986 56.34 682.776 55.94C682.566 55.54 682.596 55.06 682.856 54.69L691.596 42.06C691.956 41.54 692.656 41.39 693.206 41.7C699.256 45.21 704.646 49.27 709.236 53.77C709.486 54.02 709.746 54.27 709.996 54.52C710.336 54.87 710.436 55.39 710.246 55.84C710.056 56.29 709.616 56.58 709.126 56.58L709.116 56.59ZM684.776 54.89H707.936C703.576 50.62 698.456 46.76 692.726 43.4L684.776 54.89Z" fill="#D2D2D2"/>
<path d="M758.776 56.59H733.506C733.016 56.59 732.576 56.3 732.386 55.85C732.196 55.39 732.296 54.88 732.636 54.53C732.886 54.28 733.136 54.03 733.396 53.78C737.996 49.27 743.396 45.21 749.436 41.71C749.976 41.4 750.686 41.55 751.046 42.07L759.786 54.7C760.046 55.07 760.076 55.55 759.866 55.95C759.656 56.35 759.246 56.6 758.796 56.6L758.776 56.59ZM734.686 54.89H757.846L749.896 43.4C744.176 46.75 739.066 50.61 734.686 54.89Z" fill="#D2D2D2"/>
<path d="M748.277 41.4101C748.057 41.4101 747.847 41.3501 747.647 41.2301C742.347 38.0001 737.557 34.2901 733.397 30.2201C728.667 25.5701 724.607 20.2701 721.317 14.4501C715.107 25.4401 706.487 34.2101 694.987 41.2301C694.497 41.5301 693.867 41.4501 693.477 41.0301C693.087 40.6201 693.037 39.9801 693.357 39.5101L720.317 0.530088C720.777 -0.139912 721.857 -0.139912 722.317 0.530088L749.277 39.5001C749.607 39.9701 749.557 40.6001 749.167 41.0201C748.927 41.2701 748.607 41.4001 748.287 41.4001L748.277 41.4101ZM721.317 10.9001L722.067 12.2901C725.407 18.5001 729.617 24.1201 734.597 29.0101C738.127 32.4701 742.137 35.6601 746.527 38.5201L721.317 2.08009L696.107 38.5101C706.797 31.5801 714.817 22.9801 720.567 12.2801L721.317 10.8901V10.9001Z" fill="#D2D2D2"/>
<path d="M872.636 53.08C872.186 53.08 871.796 52.85 871.576 52.47C870.446 50.49 869.056 48.68 867.436 47.09C865.776 45.46 863.806 44 861.586 42.74L861.156 42.49V41.5L861.586 41.25C865.996 38.75 869.266 35.57 871.576 31.52C872.006 30.76 873.246 30.75 873.686 31.52C874.816 33.5 876.206 35.31 877.826 36.9C879.496 38.54 881.466 40 883.676 41.25L884.106 41.49V42.48L883.676 42.73C881.456 43.98 879.486 45.45 877.826 47.08C876.206 48.67 874.816 50.48 873.686 52.46C873.466 52.84 873.076 53.07 872.636 53.07V53.08ZM863.666 42C865.516 43.16 867.176 44.46 868.626 45.88C870.156 47.39 871.506 49.08 872.626 50.91C873.756 49.07 875.096 47.38 876.626 45.88C878.076 44.46 879.746 43.15 881.586 42C879.746 40.85 878.076 39.55 876.626 38.12C875.096 36.62 873.756 34.93 872.626 33.09C870.426 36.69 867.476 39.63 863.666 42.01V42Z" fill="#D2D2D2"/>
<path d="M860.437 56.59H835.167C834.717 56.59 834.307 56.34 834.097 55.94C833.887 55.54 833.917 55.06 834.177 54.69L842.917 42.06C843.277 41.54 843.977 41.39 844.527 41.7C850.577 45.21 855.967 49.27 860.557 53.77C860.807 54.02 861.067 54.27 861.317 54.52C861.657 54.87 861.757 55.39 861.577 55.84C861.387 56.29 860.947 56.59 860.457 56.59H860.437ZM836.097 54.89H859.257C854.897 50.62 849.777 46.76 844.047 43.4L836.097 54.89Z" fill="#D2D2D2"/>
<path d="M910.096 56.5899H884.826C884.336 56.5899 883.896 56.2999 883.706 55.8499C883.516 55.3899 883.616 54.8699 883.966 54.5299C884.216 54.2799 884.466 54.0299 884.716 53.7799C889.316 49.2699 894.716 45.2099 900.756 41.7099C901.296 41.3899 902.006 41.5499 902.366 42.0699L911.106 54.6999C911.366 55.0699 911.396 55.5499 911.186 55.9499C910.976 56.3499 910.566 56.5999 910.116 56.5999L910.096 56.5899ZM886.006 54.8899H909.166L901.216 43.3999C895.496 46.7499 890.386 50.6099 886.006 54.8899Z" fill="#D2D2D2"/>
<path d="M899.596 41.41C899.376 41.41 899.166 41.35 898.966 41.23C893.666 38 888.876 34.29 884.716 30.22C879.986 25.57 875.926 20.27 872.636 14.45C866.426 25.44 857.806 34.21 846.306 41.23C845.806 41.53 845.186 41.45 844.796 41.03C844.406 40.62 844.356 39.98 844.676 39.51L871.636 0.530007C872.096 -0.129993 873.166 -0.139993 873.626 0.530007L900.586 39.51C900.916 39.98 900.866 40.61 900.476 41.03C900.236 41.28 899.916 41.41 899.596 41.41ZM872.636 10.9L873.386 12.29C876.726 18.5 880.936 24.12 885.916 29.01C889.446 32.47 893.456 35.66 897.846 38.52L872.636 2.08001L847.426 38.51C858.116 31.58 866.136 22.98 871.886 12.28L872.636 10.89V10.9Z" fill="#D2D2D2"/>
<path d="M1023.96 53.08C1023.51 53.08 1023.12 52.85 1022.9 52.47C1021.77 50.49 1020.38 48.68 1018.76 47.09C1017.1 45.46 1015.13 44 1012.91 42.74L1012.48 42.49V41.5L1012.91 41.25C1017.32 38.75 1020.59 35.57 1022.9 31.52C1023.33 30.76 1024.57 30.75 1025.01 31.52C1026.14 33.5 1027.53 35.31 1029.15 36.9C1030.82 38.54 1032.79 40 1035 41.25L1035.43 41.49V42.48L1035 42.73C1032.78 43.98 1030.81 45.45 1029.15 47.08C1027.53 48.67 1026.14 50.48 1025.01 52.46C1024.79 52.84 1024.4 53.07 1023.96 53.07V53.08ZM1014.99 42C1016.84 43.16 1018.5 44.46 1019.95 45.88C1021.48 47.39 1022.83 49.08 1023.95 50.91C1025.08 49.07 1026.42 47.38 1027.95 45.88C1029.4 44.46 1031.07 43.15 1032.91 42C1031.07 40.85 1029.4 39.55 1027.95 38.12C1026.42 36.62 1025.08 34.93 1023.95 33.09C1021.75 36.69 1018.8 39.63 1014.99 42.01V42Z" fill="#D2D2D2"/>
<path d="M1011.76 56.59H986.486C986.036 56.59 985.626 56.34 985.416 55.94C985.206 55.54 985.236 55.06 985.496 54.69L994.236 42.06C994.596 41.54 995.296 41.38 995.846 41.7C1001.9 45.21 1007.29 49.27 1011.88 53.77C1012.13 54.02 1012.39 54.27 1012.64 54.52C1012.98 54.87 1013.08 55.39 1012.9 55.84C1012.71 56.29 1012.27 56.59 1011.78 56.59H1011.76ZM987.416 54.89H1010.58C1006.22 50.62 1001.1 46.76 995.366 43.4L987.416 54.89Z" fill="#D2D2D2"/>
<path d="M1061.42 56.59H1036.15C1035.66 56.59 1035.22 56.3 1035.03 55.84C1034.84 55.38 1034.94 54.87 1035.29 54.52C1035.54 54.27 1035.79 54.02 1036.04 53.77C1040.64 49.26 1046.04 45.2 1052.08 41.7C1052.62 41.38 1053.33 41.54 1053.69 42.06L1062.43 54.69C1062.69 55.06 1062.72 55.54 1062.51 55.94C1062.3 56.34 1061.89 56.59 1061.43 56.59H1061.42ZM1037.33 54.89H1060.49L1052.54 43.4C1046.82 46.75 1041.71 50.61 1037.33 54.89Z" fill="#D2D2D2"/>
<path d="M1050.92 41.4101C1050.7 41.4101 1050.49 41.3501 1050.29 41.2301C1044.99 38.0001 1040.2 34.2901 1036.04 30.2201C1031.31 25.5701 1027.25 20.2701 1023.96 14.4501C1017.75 25.4401 1009.13 34.2101 997.626 41.2301C997.126 41.5301 996.506 41.4501 996.116 41.0301C995.726 40.6201 995.676 39.9801 996.006 39.5101L1022.96 0.530088C1023.42 -0.139912 1024.5 -0.139912 1024.96 0.530088L1051.92 39.5001C1052.25 39.9801 1052.2 40.6001 1051.81 41.0201C1051.57 41.2701 1051.25 41.4001 1050.93 41.4001L1050.92 41.4101ZM1023.95 10.9001L1024.7 12.2901C1028.04 18.5001 1032.25 24.1201 1037.23 29.0101C1040.76 32.4701 1044.77 35.6701 1049.16 38.5201L1023.95 2.08009L998.736 38.5101C1009.43 31.5801 1017.45 22.9801 1023.2 12.2901L1023.95 10.9001Z" fill="#D2D2D2"/>
<path d="M1175.28 53.08C1174.83 53.08 1174.44 52.85 1174.22 52.47C1173.09 50.49 1171.7 48.68 1170.08 47.09C1168.42 45.46 1166.45 44 1164.23 42.74L1163.8 42.49V41.5L1164.23 41.25C1168.64 38.75 1171.91 35.57 1174.22 31.52C1174.66 30.75 1175.89 30.75 1176.33 31.52C1177.46 33.51 1178.85 35.31 1180.47 36.9C1182.14 38.54 1184.11 40 1186.32 41.25L1186.75 41.49V42.48L1186.32 42.73C1184.1 43.98 1182.14 45.45 1180.47 47.08C1178.86 48.67 1177.46 50.48 1176.33 52.46C1176.11 52.84 1175.72 53.07 1175.28 53.07V53.08ZM1166.31 42C1168.16 43.16 1169.82 44.46 1171.27 45.88C1172.8 47.39 1174.15 49.08 1175.27 50.91C1176.4 49.07 1177.74 47.38 1179.27 45.88C1180.72 44.45 1182.39 43.15 1184.23 42C1182.39 40.85 1180.72 39.55 1179.27 38.12C1177.74 36.62 1176.4 34.93 1175.27 33.09C1173.07 36.69 1170.12 39.62 1166.31 42.01V42Z" fill="#D2D2D2"/>
<path d="M1163.07 56.59H1137.8C1137.35 56.59 1136.94 56.34 1136.73 55.94C1136.52 55.54 1136.55 55.06 1136.81 54.69L1145.55 42.06C1145.91 41.54 1146.61 41.39 1147.16 41.7C1153.21 45.21 1158.6 49.27 1163.19 53.77C1163.44 54.02 1163.7 54.27 1163.95 54.53C1164.29 54.88 1164.39 55.4 1164.21 55.85C1164.02 56.3 1163.58 56.6 1163.09 56.6L1163.07 56.59ZM1138.74 54.89H1161.9C1157.54 50.62 1152.42 46.76 1146.69 43.4L1138.74 54.89Z" fill="#D2D2D2"/>
<path d="M1212.74 56.5899H1187.47C1186.98 56.5899 1186.54 56.2999 1186.35 55.8499C1186.16 55.3899 1186.26 54.8699 1186.61 54.5299C1186.86 54.2799 1187.11 54.0299 1187.36 53.7799C1191.96 49.2699 1197.36 45.2099 1203.4 41.7099C1203.95 41.3899 1204.65 41.5499 1205.01 42.0699L1213.75 54.6999C1214.01 55.0699 1214.04 55.5499 1213.83 55.9499C1213.62 56.3499 1213.21 56.5999 1212.76 56.5999L1212.74 56.5899ZM1188.64 54.8899H1211.8L1203.85 43.3999C1198.13 46.7499 1193.02 50.6099 1188.64 54.8899Z" fill="#D2D2D2"/>
<path d="M1202.24 41.41C1202.02 41.41 1201.81 41.35 1201.61 41.23C1196.31 38 1191.52 34.29 1187.36 30.22C1182.63 25.57 1178.57 20.27 1175.28 14.45C1169.08 25.44 1160.45 34.21 1148.95 41.23C1148.45 41.53 1147.83 41.45 1147.44 41.03C1147.05 40.62 1147 39.98 1147.32 39.51L1174.27 0.530007C1174.73 -0.139993 1175.81 -0.129993 1176.27 0.530007L1203.23 39.5C1203.56 39.98 1203.51 40.6 1203.12 41.02C1202.88 41.27 1202.56 41.4 1202.24 41.4V41.41ZM1175.27 10.9L1176.02 12.29C1179.36 18.5 1183.57 24.12 1188.55 29.01C1192.08 32.47 1196.09 35.66 1200.48 38.52L1175.27 2.08001L1150.06 38.51C1160.75 31.58 1168.77 22.98 1174.52 12.28L1175.27 10.89V10.9Z" fill="#D2D2D2"/>
<path d="M1326.6 53.08C1326.15 53.08 1325.76 52.85 1325.54 52.47C1324.41 50.49 1323.02 48.68 1321.4 47.09C1319.74 45.46 1317.77 44 1315.55 42.74L1315.12 42.49V41.5L1315.55 41.25C1319.96 38.75 1323.23 35.57 1325.54 31.52C1325.98 30.75 1327.21 30.75 1327.65 31.52C1328.78 33.51 1330.17 35.32 1331.79 36.9C1333.46 38.54 1335.43 40 1337.64 41.25L1338.07 41.49V42.48L1337.64 42.73C1335.42 43.98 1333.46 45.45 1331.79 47.08C1330.17 48.67 1328.78 50.48 1327.65 52.46C1327.43 52.84 1327.04 53.07 1326.6 53.07V53.08ZM1317.63 42C1319.48 43.16 1321.14 44.46 1322.59 45.88C1324.12 47.39 1325.47 49.08 1326.59 50.91C1327.72 49.07 1329.06 47.38 1330.59 45.88C1332.04 44.46 1333.71 43.15 1335.55 42C1333.71 40.85 1332.04 39.55 1330.59 38.12C1329.06 36.62 1327.72 34.93 1326.59 33.09C1324.39 36.69 1321.44 39.62 1317.63 42.01V42Z" fill="#D2D2D2"/>
<path d="M1314.39 56.59H1289.12C1288.67 56.59 1288.26 56.34 1288.05 55.94C1287.84 55.54 1287.87 55.06 1288.13 54.69L1296.87 42.06C1297.23 41.54 1297.93 41.38 1298.48 41.7C1304.53 45.21 1309.92 49.27 1314.51 53.77C1314.77 54.02 1315.02 54.27 1315.27 54.53C1315.61 54.88 1315.71 55.4 1315.53 55.85C1315.34 56.3 1314.9 56.6 1314.41 56.6L1314.39 56.59ZM1290.05 54.89H1313.21C1308.85 50.62 1303.73 46.76 1298 43.4L1290.05 54.89Z" fill="#D2D2D2"/>
<path d="M1364.05 56.5899H1338.78C1338.29 56.5899 1337.85 56.2999 1337.66 55.8499C1337.47 55.3899 1337.57 54.8699 1337.92 54.5299C1338.17 54.2799 1338.42 54.0299 1338.67 53.7799C1343.27 49.2699 1348.67 45.2099 1354.71 41.7099C1355.25 41.3899 1355.96 41.5499 1356.32 42.0699L1365.06 54.6999C1365.32 55.0699 1365.35 55.5499 1365.14 55.9499C1364.93 56.3499 1364.52 56.5999 1364.07 56.5999L1364.05 56.5899ZM1339.96 54.8899H1363.12L1355.17 43.3999C1349.45 46.7499 1344.34 50.6099 1339.96 54.8899Z" fill="#D2D2D2"/>
<path d="M1353.55 41.41C1353.33 41.41 1353.12 41.35 1352.92 41.23C1347.62 38 1342.83 34.29 1338.67 30.22C1333.94 25.57 1329.88 20.27 1326.59 14.45C1320.38 25.44 1311.76 34.21 1300.26 41.23C1299.77 41.53 1299.14 41.45 1298.75 41.03C1298.36 40.62 1298.31 39.98 1298.63 39.51L1325.59 0.530007C1326.05 -0.139993 1327.13 -0.129993 1327.59 0.530007L1354.55 39.5C1354.88 39.97 1354.83 40.6 1354.44 41.02C1354.2 41.27 1353.88 41.4 1353.56 41.4L1353.55 41.41ZM1326.59 10.9L1327.34 12.29C1330.68 18.5 1334.89 24.12 1339.87 29.01C1343.4 32.47 1347.41 35.66 1351.8 38.52L1326.59 2.09001L1301.38 38.52C1312.07 31.59 1320.09 22.99 1325.84 12.3L1326.59 10.91V10.9Z" fill="#D2D2D2"/>
<path d="M796.977 25.69C796.537 25.69 796.147 25.46 795.927 25.08C793.617 21.03 790.357 17.85 785.937 15.35L784.637 14.61L785.937 13.87C788.157 12.61 790.127 11.14 791.787 9.51002C793.407 7.92002 794.797 6.11002 795.927 4.13002C796.147 3.75002 796.537 3.52002 796.977 3.52002C797.417 3.52002 797.817 3.75002 798.027 4.13002C799.157 6.11002 800.547 7.92002 802.167 9.51002C803.837 11.14 805.797 12.61 808.017 13.86L809.327 14.6L808.017 15.34C805.807 16.59 803.837 18.06 802.167 19.7C800.547 21.29 799.157 23.1 798.027 25.08C797.807 25.46 797.417 25.69 796.977 25.69ZM788.017 14.6C791.837 16.98 794.777 19.92 796.977 23.52C798.107 21.68 799.447 19.99 800.977 18.49C802.437 17.06 804.097 15.76 805.937 14.61C804.087 13.45 802.427 12.15 800.977 10.73C799.447 9.23002 798.107 7.54002 796.977 5.70002C795.857 7.53002 794.507 9.23002 792.977 10.73C791.527 12.15 789.867 13.45 788.017 14.61V14.6Z" fill="#D2D2D2"/>
<path d="M768.247 15.07C767.867 15.07 767.487 14.89 767.257 14.55L758.517 1.92002C758.257 1.55002 758.227 1.07002 758.437 0.67002C758.647 0.27002 759.057 0.0200195 759.507 0.0200195H784.777C785.267 0.0200195 785.707 0.31002 785.897 0.77002C786.087 1.22002 785.987 1.73002 785.647 2.08002C785.397 2.34002 785.147 2.59002 784.887 2.84002C780.297 7.34002 774.907 11.41 768.857 14.91C768.667 15.02 768.457 15.08 768.247 15.08V15.07ZM760.437 1.71002L768.387 13.2C774.117 9.84002 779.227 5.98002 783.597 1.71002H760.437Z" fill="#D2D2D2"/>
<path d="M825.696 15.06C825.486 15.06 825.286 15.01 825.096 14.9C819.056 11.4 813.666 7.34001 809.056 2.83001C808.806 2.58001 808.546 2.33001 808.296 2.08001C807.946 1.73001 807.846 1.21001 808.036 0.76001C808.226 0.31001 808.666 0.0100098 809.156 0.0100098H834.426C834.876 0.0100098 835.296 0.26001 835.506 0.66001C835.716 1.06001 835.686 1.54001 835.426 1.91001L826.686 14.54C826.456 14.88 826.076 15.06 825.686 15.06H825.696ZM810.346 1.71001C814.726 5.99001 819.846 9.85001 825.556 13.2L833.506 1.71001H810.346Z" fill="#D2D2D2"/>
<path d="M796.976 56.59C796.576 56.59 796.206 56.4 795.976 56.07L769.016 17.1C768.686 16.62 768.736 16 769.136 15.58C769.536 15.16 770.156 15.08 770.646 15.38C782.146 22.4 790.776 31.17 796.976 42.16C800.266 36.34 804.326 31.04 809.056 26.39C813.216 22.31 818.006 18.61 823.306 15.38C823.796 15.08 824.426 15.16 824.826 15.59C825.216 16 825.266 16.64 824.936 17.11L797.976 56.08C797.746 56.41 797.386 56.6 796.976 56.6V56.59ZM771.766 18.08L796.976 54.51L822.186 18.08C817.786 20.93 813.786 24.12 810.256 27.59C805.286 32.47 801.066 38.1 797.726 44.31L796.976 45.7L796.226 44.31C790.476 33.61 782.456 25.02 771.766 18.08Z" fill="#D2D2D2"/>
<path d="M948.296 25.69C947.856 25.69 947.456 25.46 947.246 25.08C944.936 21.03 941.676 17.85 937.256 15.35L935.956 14.61L937.256 13.87C939.476 12.61 941.446 11.14 943.106 9.51002C944.726 7.92002 946.116 6.11002 947.246 4.13002C947.466 3.75002 947.856 3.52002 948.296 3.52002C948.736 3.52002 949.136 3.75002 949.346 4.13002C950.476 6.11002 951.866 7.92002 953.486 9.51002C955.146 11.14 957.116 12.61 959.336 13.86L960.646 14.6L959.336 15.34C957.126 16.59 955.156 18.06 953.486 19.7C951.866 21.29 950.476 23.1 949.346 25.08C949.126 25.46 948.736 25.69 948.296 25.69ZM939.326 14.6C943.146 16.98 946.086 19.92 948.286 23.52C949.416 21.68 950.756 19.99 952.286 18.49C953.746 17.06 955.406 15.76 957.246 14.61C955.396 13.45 953.736 12.15 952.286 10.73C950.756 9.23002 949.416 7.54002 948.286 5.70002C947.166 7.54002 945.816 9.23002 944.286 10.73C942.836 12.15 941.176 13.45 939.326 14.61V14.6Z" fill="#D2D2D2"/>
<path d="M919.566 15.06C919.176 15.06 918.796 14.88 918.566 14.54L909.826 1.91001C909.566 1.54001 909.536 1.06001 909.746 0.66001C909.956 0.26001 910.366 0.0100098 910.816 0.0100098H936.086C936.576 0.0100098 937.016 0.30001 937.206 0.76001C937.396 1.21001 937.296 1.73001 936.946 2.08001C936.696 2.33001 936.446 2.59001 936.186 2.83001C931.596 7.33001 926.206 11.39 920.156 14.9C919.966 15.01 919.756 15.06 919.556 15.06H919.566ZM911.756 1.71001L919.706 13.2C925.436 9.84001 930.546 5.98001 934.916 1.71001H911.756Z" fill="#D2D2D2"/>
<path d="M977.016 15.06C976.806 15.06 976.606 15.01 976.416 14.9C970.376 11.4 964.986 7.34001 960.376 2.83001C960.126 2.58001 959.866 2.33001 959.616 2.08001C959.276 1.73001 959.166 1.21001 959.356 0.76001C959.546 0.30001 959.986 0.0100098 960.476 0.0100098H985.746C986.196 0.0100098 986.606 0.26001 986.816 0.66001C987.026 1.06001 986.996 1.54001 986.736 1.91001L977.996 14.54C977.766 14.88 977.386 15.06 976.996 15.06H977.016ZM961.666 1.71001C966.046 5.99001 971.166 9.85001 976.876 13.2L984.826 1.71001H961.666Z" fill="#D2D2D2"/>
<path d="M948.297 56.59C947.897 56.59 947.527 56.4 947.297 56.07L920.337 17.1C920.007 16.62 920.057 16 920.457 15.57C920.857 15.15 921.477 15.07 921.967 15.37C933.467 22.39 942.097 31.16 948.297 42.15C951.587 36.33 955.647 31.03 960.377 26.38C964.537 22.3 969.327 18.6 974.627 15.37C975.117 15.07 975.757 15.16 976.147 15.58C976.537 15.99 976.587 16.63 976.257 17.1L949.297 56.07C949.067 56.4 948.707 56.59 948.297 56.59ZM923.087 18.08L948.297 54.51L973.507 18.08C969.107 20.93 965.107 24.12 961.577 27.59C956.607 32.47 952.387 38.1 949.047 44.31L948.297 45.7L947.547 44.31C941.797 33.61 933.777 25.02 923.087 18.08Z" fill="#D2D2D2"/>
<path d="M1099.61 25.69C1099.17 25.69 1098.78 25.46 1098.56 25.08C1096.25 21.03 1092.99 17.85 1088.57 15.35L1087.27 14.61L1088.57 13.87C1090.79 12.61 1092.76 11.14 1094.42 9.51002C1096.04 7.92002 1097.44 6.11002 1098.56 4.13002C1098.78 3.75002 1099.17 3.52002 1099.61 3.52002C1100.05 3.52002 1100.45 3.75002 1100.66 4.13002C1101.79 6.11002 1103.18 7.92002 1104.8 9.51002C1106.46 11.14 1108.43 12.61 1110.65 13.86L1111.96 14.6L1110.65 15.34C1108.44 16.59 1106.47 18.06 1104.8 19.7C1103.19 21.29 1101.79 23.1 1100.66 25.08C1100.44 25.46 1100.05 25.69 1099.61 25.69ZM1090.65 14.6C1094.47 16.98 1097.41 19.92 1099.61 23.52C1100.74 21.68 1102.08 19.99 1103.61 18.49C1105.07 17.06 1106.73 15.76 1108.57 14.61C1106.72 13.45 1105.06 12.15 1103.61 10.73C1102.08 9.23002 1100.74 7.54002 1099.61 5.70002C1098.49 7.53002 1097.14 9.23002 1095.61 10.73C1094.16 12.15 1092.5 13.45 1090.65 14.61V14.6Z" fill="#D2D2D2"/>
<path d="M1070.89 15.06C1070.5 15.06 1070.12 14.88 1069.89 14.54L1061.15 1.91001C1060.89 1.54001 1060.86 1.06001 1061.07 0.66001C1061.28 0.26001 1061.69 0.0100098 1062.14 0.0100098H1087.41C1087.9 0.0100098 1088.34 0.30001 1088.53 0.76001C1088.72 1.21001 1088.62 1.73001 1088.27 2.08001C1088.02 2.33001 1087.77 2.59001 1087.51 2.83001C1082.92 7.33001 1077.53 11.39 1071.48 14.9C1071.29 15.01 1071.08 15.06 1070.88 15.06H1070.89ZM1063.08 1.71001L1071.03 13.2C1076.76 9.84001 1081.87 5.98001 1086.24 1.71001H1063.08Z" fill="#D2D2D2"/>
<path d="M1128.34 15.06C1128.13 15.06 1127.93 15.01 1127.74 14.9C1121.7 11.4 1116.3 7.34 1111.7 2.83C1111.45 2.58 1111.19 2.33 1110.94 2.07C1110.6 1.72 1110.49 1.2 1110.68 0.75C1110.87 0.29 1111.31 0 1111.8 0H1137.07C1137.52 0 1137.94 0.25 1138.15 0.65C1138.36 1.05 1138.33 1.53 1138.07 1.9L1129.33 14.53C1129.1 14.87 1128.72 15.05 1128.33 15.05L1128.34 15.06ZM1112.99 1.71C1117.37 5.99 1122.48 9.85 1128.2 13.2L1136.15 1.71H1112.99Z" fill="#D2D2D2"/>
<path d="M1099.61 56.59C1099.21 56.59 1098.85 56.4 1098.61 56.07L1071.65 17.1C1071.32 16.62 1071.37 16 1071.77 15.57C1072.17 15.15 1072.79 15.07 1073.28 15.37C1084.78 22.39 1093.41 31.16 1099.61 42.15C1102.9 36.33 1106.96 31.03 1111.69 26.38C1115.84 22.3 1120.64 18.6 1125.94 15.37C1126.43 15.07 1127.06 15.15 1127.46 15.58C1127.85 15.99 1127.9 16.63 1127.57 17.1L1100.61 56.07C1100.38 56.4 1100.02 56.59 1099.61 56.59ZM1074.41 18.08L1099.62 54.51L1124.83 18.08C1120.43 20.93 1116.43 24.12 1112.9 27.59C1107.93 32.47 1103.71 38.1 1100.37 44.31L1099.62 45.7L1098.87 44.31C1093.12 33.62 1085.1 25.02 1074.41 18.08Z" fill="#D2D2D2"/>
<path d="M1250.93 25.69C1250.49 25.69 1250.1 25.46 1249.88 25.08C1247.57 21.03 1244.3 17.84 1239.89 15.34L1238.59 14.6L1239.89 13.86C1242.11 12.6 1244.08 11.13 1245.74 9.50001C1247.36 7.91001 1248.75 6.10001 1249.88 4.12001C1250.1 3.74001 1250.49 3.51001 1250.93 3.51001C1251.37 3.51001 1251.77 3.74001 1251.98 4.12001C1253.11 6.10001 1254.5 7.91001 1256.12 9.50001C1257.79 11.13 1259.75 12.6 1261.97 13.85L1263.28 14.59L1261.97 15.33C1259.76 16.58 1257.79 18.05 1256.12 19.69C1254.5 21.28 1253.11 23.09 1251.98 25.07C1251.76 25.45 1251.37 25.68 1250.93 25.68V25.69ZM1241.97 14.6C1245.79 16.98 1248.73 19.92 1250.93 23.52C1252.06 21.68 1253.4 19.99 1254.93 18.49C1256.39 17.06 1258.05 15.76 1259.89 14.61C1258.04 13.45 1256.38 12.15 1254.93 10.73C1253.4 9.23001 1252.06 7.54001 1250.93 5.70001C1249.81 7.53001 1248.46 9.23001 1246.93 10.73C1245.48 12.15 1243.82 13.45 1241.97 14.61V14.6Z" fill="#D2D2D2"/>
<path d="M1222.21 15.06C1221.82 15.06 1221.44 14.88 1221.21 14.54L1212.47 1.91001C1212.21 1.54001 1212.18 1.06001 1212.39 0.66001C1212.6 0.26001 1213.01 0.0100098 1213.46 0.0100098H1238.73C1239.22 0.0100098 1239.66 0.30001 1239.85 0.76001C1240.04 1.21001 1239.94 1.73001 1239.59 2.08001C1239.34 2.33001 1239.09 2.59001 1238.83 2.83001C1234.24 7.33001 1228.85 11.4 1222.8 14.9C1222.61 15.01 1222.4 15.06 1222.2 15.06H1222.21ZM1214.4 1.71001L1222.35 13.2C1228.08 9.84001 1233.19 5.98001 1237.56 1.71001H1214.4Z" fill="#D2D2D2"/>
<path d="M1279.65 15.06C1279.44 15.06 1279.24 15.01 1279.05 14.9C1273.01 11.4 1267.61 7.34 1263.01 2.83C1262.76 2.58 1262.5 2.33 1262.25 2.07C1261.91 1.72 1261.81 1.2 1261.99 0.75C1262.18 0.3 1262.62 0 1263.11 0H1288.38C1288.83 0 1289.24 0.25 1289.45 0.65C1289.66 1.05 1289.63 1.53 1289.37 1.9L1280.63 14.53C1280.4 14.87 1280.02 15.05 1279.63 15.05L1279.65 15.06ZM1264.3 1.71C1268.68 5.99 1273.79 9.85 1279.51 13.2L1287.46 1.71H1264.3Z" fill="#D2D2D2"/>
<path d="M1250.93 56.59C1250.53 56.59 1250.17 56.4 1249.93 56.07L1222.97 17.1C1222.64 16.62 1222.69 16 1223.09 15.57C1223.49 15.15 1224.11 15.07 1224.6 15.37C1236.1 22.39 1244.73 31.16 1250.93 42.15C1254.23 36.32 1258.29 31.03 1263.01 26.38C1267.17 22.3 1271.96 18.6 1277.26 15.37C1277.75 15.07 1278.38 15.15 1278.78 15.58C1279.17 15.99 1279.22 16.63 1278.89 17.1L1251.93 56.07C1251.7 56.4 1251.34 56.59 1250.93 56.59ZM1225.72 18.08L1250.93 54.51L1276.14 18.08C1271.74 20.93 1267.74 24.12 1264.21 27.59C1259.24 32.47 1255.02 38.1 1251.68 44.31L1250.93 45.7L1250.18 44.31C1244.43 33.62 1236.41 25.02 1225.72 18.08Z" fill="#D2D2D2"/>
<path d="M1250.93 80.57C1250.49 80.57 1250.1 80.34 1249.88 79.96C1248.75 77.98 1247.36 76.17 1245.74 74.58C1244.07 72.94 1242.1 71.48 1239.89 70.23L1239.46 69.99V69L1239.89 68.75C1242.11 67.49 1244.08 66.03 1245.74 64.4C1247.36 62.81 1248.75 61 1249.88 59.02C1250.32 58.25 1251.55 58.25 1251.99 59.02C1253.12 61 1254.51 62.81 1256.13 64.4C1257.79 66.03 1259.76 67.49 1261.98 68.75L1262.41 69V69.99L1261.98 70.24C1257.57 72.74 1254.3 75.92 1251.99 79.97C1251.77 80.35 1251.38 80.58 1250.94 80.58L1250.93 80.57ZM1241.97 69.48C1243.81 70.63 1245.48 71.93 1246.93 73.36C1248.46 74.86 1249.8 76.55 1250.93 78.39C1253.13 74.79 1256.08 71.86 1259.89 69.47C1258.04 68.31 1256.38 67.01 1254.93 65.59C1253.39 64.08 1252.05 62.39 1250.93 60.56C1249.8 62.4 1248.46 64.09 1246.93 65.59C1245.48 67.01 1243.81 68.32 1241.97 69.47V69.48Z" fill="#D2D2D2"/>
<path d="M1279.66 69.94C1279.45 69.94 1279.24 69.89 1279.05 69.78C1273 66.28 1267.61 62.21 1263.02 57.71C1262.77 57.46 1262.51 57.21 1262.26 56.96C1261.91 56.61 1261.81 56.09 1262 55.64C1262.19 55.19 1262.63 54.9 1263.12 54.9H1288.39C1288.84 54.9 1289.25 55.15 1289.46 55.55C1289.67 55.95 1289.64 56.43 1289.38 56.8L1280.64 69.43C1280.41 69.77 1280.03 69.95 1279.64 69.95L1279.66 69.94ZM1264.31 56.59C1268.68 60.86 1273.79 64.72 1279.52 68.08L1287.47 56.59H1264.31Z" fill="#D2D2D2"/>
<path d="M1222.21 69.94C1221.82 69.94 1221.44 69.76 1221.21 69.42L1212.47 56.79C1212.21 56.42 1212.18 55.94 1212.39 55.54C1212.6 55.14 1213.01 54.89 1213.46 54.89H1238.73C1239.22 54.89 1239.66 55.18 1239.85 55.64C1240.04 56.09 1239.94 56.61 1239.59 56.96C1239.34 57.21 1239.09 57.46 1238.83 57.71C1234.23 62.22 1228.83 66.29 1222.79 69.78C1222.6 69.89 1222.39 69.94 1222.19 69.94H1222.21ZM1214.4 56.59L1222.35 68.08C1228.07 64.73 1233.18 60.87 1237.56 56.59H1214.4Z" fill="#D2D2D2"/>
<path d="M1099.61 80.57C1099.17 80.57 1098.78 80.34 1098.56 79.96C1097.43 77.98 1096.04 76.17 1094.42 74.58C1092.75 72.94 1090.78 71.48 1088.57 70.23L1088.14 69.99V69L1088.57 68.75C1090.79 67.5 1092.76 66.03 1094.42 64.4C1096.04 62.81 1097.43 61 1098.56 59.02C1099 58.25 1100.23 58.25 1100.67 59.02C1101.8 61 1103.19 62.81 1104.81 64.4C1106.47 66.03 1108.44 67.49 1110.66 68.75L1111.09 69V69.99L1110.66 70.24C1106.25 72.74 1102.98 75.92 1100.67 79.97C1100.45 80.35 1100.06 80.58 1099.62 80.58L1099.61 80.57ZM1090.65 69.48C1092.49 70.63 1094.16 71.93 1095.61 73.36C1097.14 74.86 1098.48 76.56 1099.61 78.4C1101.81 74.8 1104.76 71.87 1108.57 69.48C1106.72 68.32 1105.06 67.02 1103.61 65.6C1102.07 64.09 1100.73 62.4 1099.61 60.57C1098.48 62.41 1097.14 64.1 1095.61 65.6C1094.16 67.03 1092.49 68.33 1090.65 69.48Z" fill="#D2D2D2"/>
<path d="M1128.34 69.94C1128.13 69.94 1127.92 69.89 1127.73 69.78C1121.68 66.28 1116.29 62.21 1111.7 57.71C1111.45 57.46 1111.19 57.21 1110.94 56.96C1110.59 56.61 1110.49 56.09 1110.68 55.64C1110.87 55.19 1111.31 54.89 1111.8 54.89H1137.07C1137.52 54.89 1137.94 55.14 1138.15 55.54C1138.36 55.94 1138.33 56.42 1138.07 56.79L1129.33 69.42C1129.1 69.76 1128.72 69.94 1128.33 69.94H1128.34ZM1112.99 56.59C1117.36 60.86 1122.47 64.72 1128.2 68.08L1136.15 56.59H1112.99Z" fill="#D2D2D2"/>
<path d="M1070.89 69.94C1070.5 69.94 1070.12 69.76 1069.89 69.42L1061.15 56.79C1060.89 56.42 1060.86 55.94 1061.07 55.54C1061.28 55.14 1061.69 54.89 1062.14 54.89H1087.41C1087.9 54.89 1088.34 55.18 1088.53 55.64C1088.72 56.09 1088.62 56.61 1088.27 56.96C1088.02 57.21 1087.77 57.46 1087.51 57.71C1082.91 62.22 1077.51 66.29 1071.47 69.78C1071.28 69.89 1071.07 69.94 1070.87 69.94H1070.89ZM1063.08 56.59L1071.03 68.08C1076.75 64.73 1081.86 60.87 1086.24 56.59H1063.08Z" fill="#D2D2D2"/>
<path d="M948.296 80.57C947.856 80.57 947.466 80.34 947.246 79.96C946.116 77.98 944.726 76.17 943.106 74.58C941.436 72.94 939.466 71.48 937.256 70.23L936.826 69.99V69L937.256 68.75C939.476 67.49 941.446 66.03 943.106 64.4C944.716 62.81 946.116 61 947.246 59.02C947.686 58.25 948.916 58.25 949.356 59.02C950.486 61 951.876 62.81 953.496 64.4C955.156 66.03 957.126 67.49 959.346 68.75L959.776 69V69.99L959.346 70.24C954.936 72.74 951.666 75.92 949.356 79.97C949.136 80.35 948.746 80.58 948.306 80.58L948.296 80.57ZM939.326 69.48C941.166 70.63 942.836 71.93 944.286 73.36C945.816 74.86 947.156 76.55 948.286 78.4C950.486 74.8 953.436 71.87 957.246 69.48C955.396 68.32 953.736 67.02 952.286 65.6C950.746 64.09 949.406 62.4 948.286 60.57C947.156 62.41 945.816 64.1 944.286 65.6C942.836 67.02 941.166 68.33 939.326 69.48Z" fill="#D2D2D2"/>
<path d="M977.017 69.94C976.807 69.94 976.597 69.89 976.407 69.78C970.357 66.28 964.967 62.21 960.377 57.71C960.127 57.46 959.867 57.21 959.617 56.96C959.267 56.61 959.167 56.09 959.357 55.64C959.547 55.19 959.987 54.89 960.477 54.89H985.747C986.197 54.89 986.607 55.14 986.817 55.54C987.027 55.94 986.997 56.42 986.737 56.79L977.997 69.42C977.767 69.76 977.387 69.94 976.997 69.94H977.017ZM961.667 56.59C966.037 60.86 971.147 64.72 976.877 68.08L984.827 56.59H961.667Z" fill="#D2D2D2"/>
<path d="M919.566 69.94C919.176 69.94 918.796 69.76 918.566 69.42L909.826 56.79C909.566 56.42 909.536 55.94 909.746 55.54C909.956 55.14 910.366 54.89 910.816 54.89H936.086C936.576 54.89 937.016 55.18 937.206 55.64C937.396 56.09 937.296 56.61 936.946 56.96C936.696 57.21 936.446 57.46 936.196 57.71C931.596 62.22 926.196 66.28 920.156 69.78C919.966 69.89 919.756 69.94 919.556 69.94H919.566ZM911.756 56.59L919.706 68.08C925.426 64.73 930.536 60.87 934.916 56.59H911.756Z" fill="#D2D2D2"/>
<path d="M796.977 80.57C796.537 80.57 796.147 80.34 795.927 79.96C794.797 77.97 793.407 76.16 791.787 74.58C790.117 72.94 788.147 71.48 785.937 70.23L785.507 69.99V69L785.937 68.75C788.157 67.5 790.117 66.03 791.787 64.4C793.397 62.82 794.797 61.01 795.927 59.02C796.367 58.25 797.597 58.25 798.037 59.02C799.167 61 800.557 62.81 802.177 64.4C803.837 66.03 805.807 67.5 808.027 68.75L808.457 69V69.99L808.027 70.24C803.617 72.74 800.347 75.92 798.037 79.97C797.817 80.35 797.427 80.58 796.987 80.58L796.977 80.57ZM788.007 69.48C789.847 70.63 791.517 71.93 792.967 73.36C794.497 74.86 795.837 76.55 796.967 78.4C799.167 74.8 802.117 71.87 805.927 69.48C804.077 68.32 802.417 67.02 800.967 65.6C799.427 64.09 798.087 62.4 796.967 60.57C795.837 62.41 794.497 64.1 792.967 65.6C791.517 67.03 789.847 68.33 788.007 69.48Z" fill="#D2D2D2"/>
<path d="M825.696 69.94C825.486 69.94 825.276 69.89 825.086 69.78C819.036 66.28 813.646 62.21 809.056 57.71C808.806 57.46 808.546 57.21 808.296 56.96C807.946 56.61 807.846 56.09 808.036 55.64C808.226 55.19 808.666 54.89 809.156 54.89H834.426C834.876 54.89 835.296 55.14 835.506 55.54C835.716 55.94 835.686 56.42 835.426 56.79L826.686 69.42C826.456 69.76 826.076 69.94 825.686 69.94H825.696ZM810.356 56.59C814.726 60.86 819.836 64.72 825.566 68.08L833.516 56.59H810.356Z" fill="#D2D2D2"/>
<path d="M768.247 69.94C767.857 69.94 767.477 69.76 767.247 69.42L758.507 56.79C758.247 56.42 758.217 55.94 758.427 55.54C758.637 55.14 759.047 54.89 759.497 54.89H784.767C785.257 54.89 785.697 55.18 785.887 55.63C786.077 56.09 785.977 56.6 785.627 56.95C785.377 57.2 785.127 57.45 784.877 57.7C780.277 62.21 774.877 66.27 768.837 69.77C768.647 69.88 768.437 69.93 768.237 69.93L768.247 69.94ZM760.437 56.59L768.387 68.08C774.107 64.73 779.217 60.87 783.597 56.59H760.437Z" fill="#D2D2D2"/>
</svg>
