<svg width="154" height="832" viewBox="0 0 154 832" fill="none" xmlns="http://www.w3.org/2000/svg">
<path d="M3.0364 187.672C-2.30223 201.57 1.24128 224.972 7.30502 238.536C15.7716 257.075 31.2679 271.481 50.3731 278.575C56.2232 280.809 66.6754 283.544 72.7249 283.238C76.617 283.218 80.8161 283.271 84.6875 283.018C117.8 280.851 149.337 251.538 152.825 218.143C155.167 209.637 154.034 200.563 152.139 192.126C152.03 190.421 150.629 185.291 150.172 183.152L148.732 180.008C147.832 180.826 147.769 181.036 147.297 182.13L148.681 186.295C149.685 189.181 150.034 190.873 150.622 193.893C151.096 197.081 151.606 201.794 151.449 205.046C150.281 204.585 149.035 203.71 147.942 203.069C120.811 187.166 97.4081 164.393 81.6213 137.132C80.4428 135.097 77.2852 131.757 75.0087 134.298C72.1249 137.518 69.8679 141.963 67.4237 145.574C64.4131 150.021 61.4729 154.41 58.0439 158.543C46.3617 172.859 32.6897 185.43 17.4452 195.872C12.6047 199.237 7.42527 202.209 2.50018 205.537C3.58968 199.963 4.18642 192.823 5.20158 186.78C4.60971 186.8 3.61527 187.382 3.0364 187.672ZM150.072 206.182C149.973 206.477 149.857 206.823 149.724 207.22C147.576 208.354 144.261 210.388 142.414 211.641C139.624 212.796 134.074 217.003 131.465 218.87C114.762 230.743 100.78 244.823 88.7087 261.392C86.6142 264.268 79.0608 277.048 77.6395 278.216C77.4067 278.246 77.1309 278.282 76.8112 278.323C74.8824 276.236 71.9551 271.116 70.565 268.927C57.5865 248.728 40.746 231.292 21.0111 217.619C17.2328 214.753 7.44355 208.517 3.18264 206.425C8.10651 204.933 16.831 199.076 21.1866 196.017C46.3304 178.362 61.4757 159.952 77.2954 134.097C91.7599 160.184 112.345 182.367 137.279 198.737C140.741 201.015 146.343 205.044 150.072 206.182ZM19.2253 218.664C23.2141 221.962 27.1849 224.613 31.0238 227.724C45.2189 239.227 56.8086 252.367 67.121 267.435C69.751 271.278 73.6077 279.79 77.4721 280.23C78.6843 279.778 79.944 278.903 80.6285 277.818C86.9847 267.74 92.8669 258.828 100.769 249.753C110.162 238.905 120.779 229.179 132.406 220.769C136.037 218.141 143.65 213.613 146.511 211.27C148.303 210.15 150.114 209.06 151.942 208.002C151.604 209.816 151.025 212.314 151.346 214.1C151.331 214.347 151.31 214.593 151.285 214.839C149.254 234.881 138.311 253.242 122.662 265.732C107.633 277.606 88.5275 283.071 69.4938 280.941C54.3009 278.508 45.3298 275.754 32.5301 266.506C19.1258 256.821 8.76378 240.88 4.7462 224.859C3.60389 220.303 3.46456 213.051 2.69476 207.948C6.37882 210.671 15.2183 216.468 19.2253 218.664Z" fill="#D0A858"/>
<path d="M19.2277 218.662C23.2164 221.961 27.1873 224.611 31.0261 227.722C45.2213 239.225 56.8109 252.365 67.1234 267.433C69.7533 271.276 73.61 279.789 77.4744 280.228C78.6866 279.776 79.9463 278.902 80.6308 277.817C86.987 267.738 92.8692 258.826 100.771 249.752C110.165 238.904 120.781 229.178 132.408 220.768C136.039 218.14 143.652 213.611 146.514 211.268C145.924 211.225 143.636 211.615 142.416 211.639C139.626 212.794 134.077 217.002 131.468 218.868C114.764 230.741 100.782 244.821 88.7111 261.391C86.6166 264.266 79.0632 277.047 77.6418 278.215C77.409 278.245 77.1332 278.281 76.8135 278.322C74.8847 276.235 71.9575 271.114 70.5674 268.925C57.5888 248.726 40.7483 231.29 21.0134 217.617L19.2277 218.662Z" fill="#D0A858"/>
<path d="M69.4946 280.94C71.5262 282.8 72.1761 281.861 72.7257 283.236C76.6178 283.217 80.817 283.27 84.6883 283.017C117.801 280.85 149.338 251.537 152.826 218.142C151.21 216.968 151.456 215.938 151.347 214.099C151.332 214.345 151.311 214.592 151.285 214.838C149.254 234.88 138.312 253.241 122.662 265.731C107.634 277.605 88.5284 283.07 69.4946 280.94Z" fill="#D8AA54"/>
<path d="M130.278 741.691C126.967 743.868 116.578 750.307 114.803 753.245C117.904 760.801 146.821 802.718 153.062 800.695C154.698 798.761 154.278 794.52 154.056 791.952L154.034 791.712C154.328 785.411 154.746 731.193 153.527 728.512C153.161 727.708 152.836 727.655 152.066 727.383C148.643 728.057 133.918 738.965 130.278 741.691ZM130.221 744.238C137.417 739.501 144.674 733.846 151.712 729.312C151.014 750.425 151.423 774.495 151.577 795.763C151.391 796.376 151.403 796.912 151.373 797.55C146.281 797.4 120.116 760.001 117.389 753.326C121.376 750.234 126.604 747.216 130.221 744.238Z" fill="#D8AA54"/>
<path d="M130.278 741.69C126.967 743.867 116.578 750.306 114.803 753.243C117.904 760.8 146.821 802.716 153.062 800.693C154.698 798.76 154.278 794.518 154.056 791.951L154.034 791.711C153.316 792.597 153.579 793.929 153.625 795.237L152.936 795.245L153.074 794.429L151.577 795.761C151.391 796.375 151.403 796.911 151.373 797.549C146.281 797.399 120.116 759.999 117.389 753.325C121.376 750.233 126.604 747.215 130.221 744.237C129.842 743.497 130.134 742.571 130.278 741.69Z" fill="#D0A858"/>
<path d="M115.138 494.114C114.896 495.109 115.769 496.206 116.574 496.767C127.749 504.522 138.852 512.574 150.306 519.89C151.213 520.467 152.209 520.504 153.202 520.154C154.8 517.55 154.102 479.338 154.094 473.7C154.093 467.578 154.215 461.451 154.193 455.329C154.183 452.51 154.503 448.529 152.085 446.704L151.335 446.814C140.381 456.426 121.071 480.992 115.138 494.114ZM151.67 448.752C151.52 457.442 151.46 466.135 151.49 474.825L151.494 502.178C151.498 506.805 151.281 513.886 151.83 518.33C148.15 516.311 118.94 496.547 117.571 494.471L117.576 493.728C123.027 483.405 132.709 470.763 140.244 461.675C143.312 457.974 149.178 452.197 151.67 448.752Z" fill="#D8AA54"/>
<path d="M133.873 322.002C131.483 323.187 116.79 334.023 114.509 335.899C118.149 342.733 125.664 354.528 130.624 360.678C133.79 364.767 148.54 385.025 153.225 382.93C154.668 380.867 154.122 367.548 154.119 364.167L154.096 334.743C154.093 331.075 154.592 312.126 153.374 310.582C149.85 309.457 137.489 319.541 133.873 322.002ZM151.628 312.293C150.934 324.617 151.877 340.258 151.501 352.896C151.352 357.884 151.25 378.443 152.018 381.966C146.087 376.254 136.521 365.674 132.142 358.883C127.242 353.537 120.978 342.629 117.03 336.246C119.788 334.273 132.708 325.691 134.412 324.142C139.971 320.403 146.259 316.227 151.628 312.293Z" fill="#D8AA54"/>
<path d="M115.531 75.8928C115.309 77.7571 115.674 79.1854 117.338 80.2945C127.815 87.28 137.981 94.8057 148.571 101.607C149.641 102.295 151.955 103.27 153.16 103.075C154.784 100.098 154.098 63.5688 154.089 57.7009C154.07 53.7245 154.577 32.8954 153.755 30.7075C150.309 28.8247 146.471 34.0404 144.238 36.4853C133.262 48.5355 123.636 61.75 115.531 75.8928ZM151.743 32.1821C151.385 40.4833 151.48 49.4508 151.493 57.8025L151.521 86.2196C151.524 90.0542 151.752 97.0803 151.429 100.481C150.002 100.695 118.034 78.7532 117.565 76.8515C122.234 66.8866 143.346 38.4833 151.743 32.1821Z" fill="#D0A858"/>
<path d="M85.6421 414.786C86.2275 417.268 88.6279 418.483 90.6245 419.713C100.462 425.775 109.028 436.353 114.779 446.298C117.515 442.878 119.698 438.97 122.371 435.407C128.836 426.786 135.71 421.798 144.475 416.053C144.263 415.363 143.866 414.534 143.29 414.103C138.226 410.301 133.563 407.558 128.961 403.097C122.786 397.107 119.656 391.482 115.009 384.552C112.194 388.303 109.896 392.172 106.878 396.058C100.291 404.535 93.7613 408.505 85.6421 414.786ZM114.991 388.364C123.173 401.22 129.045 407.412 141.957 415.464C127.293 425.454 125.492 426.457 114.984 442.138C108.402 432.904 102.547 424.897 92.8205 418.702C92.0743 418.227 88.1522 415.789 87.8012 415.444C101.44 407.067 106.249 401.317 114.991 388.364Z" fill="#D8AA54"/>
<path d="M0.00012207 415.358C2.90423 418.909 11.84 424.422 16.0972 427.347L39.649 443.556L85.5993 475.43C92.5112 480.192 99.4837 484.851 106.355 489.674C108.014 490.835 110.088 492.001 111.872 490.697C112.327 488.207 108.098 482.954 106.656 480.756C91.9734 458.396 73.6717 439.867 51.6055 424.69C47.6098 421.94 40.5602 417.288 36.0645 415.712C63.174 400.708 86.4089 379.586 103.92 354.024C105.61 351.577 112.19 342.662 111.962 340.065C111.259 338.958 111.68 339.267 110.376 338.931C107.536 339.398 100.6 345.045 97.6557 346.929L101.442 347.039C104.431 344.865 106.763 343.25 109.922 341.292C94.2308 365.302 77.6182 385.063 53.9608 401.652C47.5408 406.153 38.7764 411.958 31.7833 415.444C63.3613 431.011 92.2212 460.184 110.335 490.189C105.509 486.314 98.3044 481.723 92.9678 477.986C79.5733 468.618 66.1313 459.314 52.6426 450.08L20.7465 427.911C15.3928 424.194 8.08483 418.803 2.55081 415.679C12.86 409.025 25.2646 399.829 35.6416 392.714C35.055 392.429 35.0197 392.335 34.5891 391.825L34.791 390.292C29.2086 394.184 23.6275 398.173 18.0349 402.063C12.6707 405.794 4.4548 410.898 0.00012207 415.358Z" fill="#D0A858"/>
<path d="M4.35942 600.251C0.095259 613.657 -0.359713 624.443 1.6832 638.5C2.1333 641.599 4.3387 646.157 4.68318 649.204L6.14641 646.88C4.72624 642.724 4.1494 638.751 3.63756 634.421C3.38935 632.32 3.49578 628.364 2.88157 626.739L3.38935 626.381C6.33449 627.015 9.78294 630.131 12.3263 631.406C36.0426 646.36 56.0282 666.539 70.7575 690.394C72.1777 692.661 74.8194 698.421 78.1143 697.479C79.7688 697.008 90.3527 680.047 92.3298 677.43C102.743 663.541 115.037 651.166 128.858 640.661C130.869 639.117 149.388 626.385 149.201 626.698C149.067 626.531 148.725 625.711 148.615 625.459C146.793 625.609 140.757 629.594 138.957 630.76C116.193 645.454 97.0335 664.991 82.4662 687.818C81.453 689.407 78.9881 694.944 77.585 695.443C75.4117 694.338 71.2925 686.981 69.655 684.532C65.8787 678.824 61.7876 673.331 57.4008 668.074C47.6843 656.37 35.9293 645.633 23.6641 636.688C20.9753 634.729 17.4326 631.91 14.4992 630.468C11.663 628.286 6.89468 625.65 3.66559 624.126L6.7724 622.574C5.38717 622.465 5.34167 622.038 5.08372 620.901C4.52475 621.356 3.96132 621.807 3.393 622.25L2.88522 621.998C2.68617 620.482 4.65921 607.401 4.99638 605.236C4.79124 603.395 5.40667 601.478 4.35942 600.251Z" fill="#D0A858"/>
<path d="M5.08313 620.9C5.34108 622.038 5.38658 622.464 6.77181 622.574C35.6366 604.191 58.5141 584.155 75.6235 553.946C76.1025 553.101 76.6667 552.609 77.5417 552.301C80.2403 555.478 82.8214 560.621 85.2515 564.244C96.5365 581.059 111.695 597.691 128.299 609.383L130.152 608.29C127.763 606.933 124.807 604.288 122.621 602.517C105.364 588.558 91.4338 570.948 79.9689 552.045C76.332 547.572 72.6698 554.385 70.9763 557.184C55.3711 582.985 31.2709 606.015 5.08313 620.9Z" fill="#D8AA54"/>
<path d="M151.952 607.194C142.429 570.712 112.534 546.329 74.3098 547.524C60.169 547.97 46.4333 552.35 34.6479 560.178C32.6358 561.503 29.6367 563.449 28.0386 565.151L28.6621 567.535C59.8441 540.406 107.183 544.07 133.681 575.575C141.378 584.724 148.687 598.134 150.29 610.102C151.938 608.981 151.508 609.517 151.952 607.194Z" fill="#D8AA54"/>
<path d="M56.2024 133.007L57.9203 134.748C76.9768 129.587 97.3052 132.253 114.386 142.154C129.169 150.746 141.962 165.818 147.299 182.127C147.771 181.033 147.834 180.824 148.734 180.005C144.229 165.567 131.273 150.592 118.519 142.326C105.361 133.799 88.9239 129.53 73.2152 129.965C70.0035 130.054 59.7882 132.243 56.2024 133.007Z" fill="#D8AA54"/>
<path d="M7.23816 654.766C8.26429 659.076 10.8475 662.57 13.2787 666.312C28.2051 689.281 55.2017 702.33 82.3823 700.392C82.5103 700.38 83.0103 700.217 83.1513 700.173L84.0129 698.474C76.0521 699.226 68.0214 698.604 60.2698 696.642C41.399 691.731 27.4008 682.452 15.8205 666.36C12.6495 661.953 11.1489 657.752 8.70139 653.645L8.58277 653.45C8.28785 654.185 7.92346 654.319 7.23816 654.766Z" fill="#D0A858"/>
<path d="M128.3 609.383C131.951 613.133 144.863 620.641 149.722 623.7C149.739 623.907 149.757 624.114 149.774 624.321L148.616 625.459C148.726 625.711 149.067 626.531 149.201 626.698C150.583 626.324 150.587 626.052 151.526 626.564L151.642 627.279C151.802 628.839 151.712 632.649 152.166 633.368C152.603 632.812 153.311 631.967 153.667 631.394C154.611 620.901 153.787 617.468 151.952 607.194C151.508 609.517 151.939 608.981 150.29 610.102C151.411 614.141 151.057 618.211 151.83 622.534C145.651 619.016 135.456 612.654 130.154 608.291L128.3 609.383Z" fill="#D0A858"/>
<path d="M147.291 649.034C146.801 650 146.373 651.451 145.904 652.523C140.303 665.324 131.5 677.053 119.805 684.962L121.425 686.583C134.151 676.784 142.64 666.791 148.654 651.613L147.291 649.034Z" fill="#D0A858"/>
<path d="M34.7915 390.292L34.5896 391.825C35.0202 392.334 35.0555 392.428 35.6421 392.713C43.5859 386.921 52.0082 381.457 60.0218 375.746C63.4499 373.303 67.8855 370.519 71.0911 367.895C70.8368 367.415 70.1478 366.584 69.7871 366.116C58.2222 374.319 46.5558 382.378 34.7915 390.292Z" fill="#D8AA54"/>
<path d="M28.0374 565.152C19.135 571.961 6.26368 589.58 4.35889 600.252C5.40614 601.479 4.79071 603.396 4.99585 605.237C8.87085 591.319 17.2639 576.616 28.661 567.537L28.0374 565.152Z" fill="#D0A858"/>
<path d="M30.1921 146.162C20.9245 152.499 11.5288 165.099 7.2334 175.612C7.62784 176.513 7.80415 177.148 8.56623 177.759C14.0824 164.927 21.078 156.771 31.5436 147.948C30.97 146.59 31.332 147.054 30.1921 146.162Z" fill="#D0A858"/>
<path d="M84.0142 698.474L83.1526 700.172C98.4767 698.422 108.408 696.118 121.428 686.583L119.808 684.963C110.169 691.796 95.876 697.609 84.0142 698.474Z" fill="#D8AA54"/>
<path d="M76.8936 361.561C77.1775 362.551 77.0431 362.688 77.7381 363.3C81.8251 361.04 87.6415 356.589 91.6912 353.902C93.6207 352.622 99.9055 348.369 101.443 347.038L97.6566 346.929C95.5138 347.996 78.5144 360.033 76.8936 361.561Z" fill="#D8AA54"/>
<path d="M30.1924 146.163C31.3323 147.055 30.9703 146.591 31.5439 147.949C33.8167 146.174 38.7333 142.778 41.3266 141.415C43.6104 140.407 45.4181 139.474 47.6211 138.293C46.7684 137.819 45.1439 137.616 44.1255 137.438C41.953 138.603 40.3606 139.476 38.3206 140.851C36.8825 141.224 31.4529 145.19 30.1924 146.163Z" fill="#D8AA54"/>
<path d="M148.89 643.826C149.395 644.797 150.082 645.983 150.331 647.019C151.76 641.746 152.662 636.749 153.666 631.395C153.31 631.968 152.602 632.813 152.165 633.369C151.711 632.65 151.801 628.84 151.641 627.28C150.419 632.585 151.192 636.749 148.89 643.826Z" fill="#D8AA54"/>
<path d="M56.2014 133.009C53.9562 133.09 46.5141 136.429 44.1255 137.439C45.1439 137.616 46.7684 137.82 47.6211 138.294C51.1085 136.694 54.7199 136.202 57.9193 134.75L56.2014 133.009Z" fill="#D6AB48"/>
<path d="M3.03882 187.671C3.61769 187.381 4.61213 186.798 5.20401 186.779C5.76663 185.261 8.3482 178.892 8.56756 177.76C7.80548 177.149 7.62917 176.514 7.23473 175.613C5.49242 179.201 3.93658 183.769 3.03882 187.671Z" fill="#D8AA54"/>
<path d="M76.8923 361.561C74.3757 363.055 72.2125 364.476 69.7861 366.117C70.1469 366.584 70.8358 367.416 71.0901 367.896C73.7651 366.291 75.2637 365.216 77.7368 363.301C77.0417 362.688 77.1762 362.552 76.8923 361.561Z" fill="#D0A858"/>
<path d="M4.68188 649.204C5.31844 651.508 6.07524 652.698 7.23664 654.766C7.92195 654.319 8.28633 654.185 8.58125 653.45C7.83461 651.235 7.02216 649.046 6.14511 646.88L4.68188 649.204Z" fill="#D6AB48"/>
<path d="M148.892 643.825C148.079 645.592 147.759 647.152 147.294 649.033L148.657 651.612C149.208 650.15 149.876 648.496 150.333 647.018C150.083 645.982 149.397 644.796 148.892 643.825Z" fill="#D0A858"/>
<path d="M1.40393 -0.189941C19.0569 12.9614 40.4277 26.9394 58.7038 39.6295C70.2288 47.7008 81.8245 55.6714 93.4893 63.54C96.9118 65.8719 107.839 74.4235 111.273 74.6075C114.306 72.3841 101.547 56.1199 99.5344 53.4476C87.5406 37.4725 73.2836 23.3297 57.2129 11.4646C55.8281 10.46 51.1703 7.03033 49.8066 6.41336L49.1111 8.60686C72.1531 23.221 96.0075 48.4369 109.48 72.0997L42.841 26.113C30.2549 17.3856 17.6197 8.27947 4.8731 -0.189941L1.40393 -0.189941Z" fill="#D0A858"/>
<path d="M18.002 819.346L19.035 821.223C43.372 804.774 67.7911 787.48 92.0282 770.763C91.9278 770.243 91.3624 769.361 91.0784 768.862C72.0504 781.22 53.7417 794.967 34.8388 807.549C29.2008 811.299 23.408 815.288 18.002 819.346Z" fill="#D8AA54"/>
<path d="M85.6458 831.81H89.6731C103.2 821.499 105.039 820.134 115.06 805.794C119.99 813.131 128.763 825.273 137.05 829.255C137.418 828.917 138.126 828.336 138.341 827.926C127.352 820.094 121.577 812.753 114.996 801.207C110.623 809.222 103.183 818.57 96.0321 824.112C92.9932 826.468 88.1075 829.612 85.6458 831.81Z" fill="#D8AA54"/>
<path d="M46.473 824.001L47.2233 826.024C61.8296 816.863 75.1144 805.748 86.7085 792.992L84.6892 791.688C72.53 805.086 61.297 813.983 46.473 824.001Z" fill="#D8AA54"/>
<path d="M108.497 761.129C107.028 762.324 101.802 770.518 100.287 772.492C95.9059 778.208 89.8438 786.808 84.6892 791.687L86.7086 792.991C93.6392 784.615 100.415 777.01 106.335 767.694C107.636 765.647 110.052 762.498 111.009 760.422L108.497 761.129Z" fill="#D0A858"/>
<path d="M106.163 16.5816L106.295 16.7259C109.533 20.3167 111.931 25.8285 114.582 28.7075L115.28 28.5846C117.889 23.6062 126.234 13.1752 130.241 9.3396L126.94 9.79594C123.762 11.767 117.141 21.6709 115.032 25.2931C113.018 22.1376 110.484 18.4789 108.017 15.7096C107.416 15.8627 106.725 16.2807 106.163 16.5816Z" fill="#D0A858"/>
<path d="M86.6902 -0.189941C91.9528 3.39886 96.2922 6.30022 100.943 10.7303C102.805 12.5044 104.589 15.1726 106.162 16.5823C106.724 16.2814 107.415 15.8633 108.016 15.7103C105.243 10.5736 95.435 3.03915 90.3084 -0.189941L86.6902 -0.189941Z" fill="#D8AA54"/>
<path d="M18.0031 819.345C12.3074 823.513 5.84838 827.36 0.331421 831.808H4.08414C5.6412 830.468 17.2572 822.176 19.0361 821.221L18.0031 819.345Z" fill="#D8AA54"/>
<path d="M104.499 759.575C101.815 761.037 94.0188 766.794 91.0793 768.861C91.3633 769.361 91.9288 770.243 92.0291 770.763C96.6853 767.96 102.507 763.747 107.036 760.546C106.3 760.107 105.327 759.843 104.499 759.575Z" fill="#D0A858"/>
<path d="M139.326 -0.189941C134.523 3.07913 130.808 5.42601 126.94 9.79661L130.241 9.34027C135.088 5.47687 137.964 3.20655 143.229 -0.189941L139.326 -0.189941Z" fill="#D8AA54"/>
<path d="M35.3618 -0.189941L49.1118 8.60686L49.8072 6.41336C46.4315 4.18228 42.8222 1.96866 39.3843 -0.189941L35.3618 -0.189941Z" fill="#D8AA54"/>
<path d="M33.8446 831.809H38.4C41.3334 829.729 44.1835 827.937 47.2212 826.024L46.4709 824.001C43.477 825.829 36.1808 829.806 33.8446 831.809Z" fill="#D6AB48"/>
<path d="M104.497 759.573C105.326 759.842 106.298 760.106 107.034 760.544L108.296 759.626L108.846 759.728C108.765 760.293 108.758 760.609 108.495 761.129L111.007 760.423C111.806 759.383 112.285 758.196 111.932 756.933L111.125 756.498C108.117 756.551 106.855 757.81 104.497 759.573Z" fill="#D8AA54"/>
<path d="M137.047 829.254L140.028 831.809H144.043C142.022 830.318 140.481 829.229 138.338 827.925C138.123 828.336 137.416 828.917 137.047 829.254Z" fill="#D8AA54" fill-opacity="0.988235"/>
</svg>
