<svg width="270" height="451" viewBox="0 0 270 451" fill="none" xmlns="http://www.w3.org/2000/svg">
<path fill-rule="evenodd" clip-rule="evenodd" d="M135 317C172.003 317 202 346.997 202 384C202 421.003 172.003 451 135 451C97.9969 451 68 421.003 68 384C68 346.997 97.9969 317 135 317ZM79.056 404.109C85.906 389.782 95.3734 377.121 106.32 366.472C108.031 367.595 109.726 368.761 111.403 369.968C99.9072 380.957 89.8883 394.555 82.3301 411.216C81.0894 408.934 79.9966 406.559 79.056 404.109ZM139.726 369.527C141.28 370.829 142.812 372.175 144.319 373.563C145.927 372.245 147.557 370.97 149.207 369.741C147.703 368.379 146.173 367.055 144.623 365.768C142.971 366.981 141.338 368.234 139.726 369.527ZM129.991 362.097C131.68 363.27 133.351 364.485 135 365.745C136.649 364.485 138.32 363.27 140.009 362.097C138.366 360.843 136.696 359.625 135 358.443C133.312 359.619 131.642 360.837 129.991 362.097ZM130.44 377.66C131.986 379.055 133.506 380.494 135 381.979C136.494 380.494 138.015 379.055 139.56 377.66C138.066 376.233 136.545 374.84 135 373.489C133.455 374.84 131.935 376.233 130.44 377.66ZM120.794 369.741C122.444 370.97 124.074 372.245 125.681 373.563C127.189 372.175 128.721 370.829 130.274 369.527C128.662 368.234 127.029 366.98 125.377 365.768C123.827 367.055 122.298 368.379 120.794 369.741ZM150.765 355.332C149.106 354.066 147.427 352.841 145.73 351.658C143.799 352.761 141.882 353.917 139.982 355.126C141.716 356.275 143.433 357.469 145.13 358.708C146.99 357.534 148.869 356.409 150.765 355.332ZM159.634 362.685C158.144 361.346 156.632 360.04 155.098 358.773C153.287 359.869 151.489 361.014 149.709 362.204C151.278 363.455 152.825 364.749 154.351 366.085C156.094 364.907 157.856 363.776 159.634 362.685ZM128.964 348.525C130.958 347.25 132.971 346.031 135 344.872C137.029 346.031 139.042 347.25 141.037 348.525C139.007 349.621 136.993 350.771 135 351.974C133.007 350.771 130.993 349.621 128.964 348.525ZM119.236 355.332C120.895 354.066 122.573 352.841 124.27 351.658C126.201 352.761 128.118 353.917 130.018 355.126C128.283 356.275 126.567 357.469 124.871 358.708C123.01 357.534 121.131 356.409 119.236 355.332ZM110.366 362.685C111.856 361.346 113.368 360.04 114.902 358.773C116.713 359.869 118.511 361.014 120.292 362.204C118.723 363.455 117.175 364.749 115.649 366.085C113.906 364.907 112.144 363.776 110.366 362.685ZM82.415 353.931C88.6121 356.414 94.7914 359.463 100.825 363.039C91.5371 371.891 83.2086 382.442 76.3552 394.931C75.5284 390.966 75.0931 386.859 75.0931 382.65C75.0931 372.243 77.7471 362.457 82.415 353.931ZM87.5069 346.138C94.8113 348.498 102.163 351.67 109.355 355.585C107.807 356.826 106.279 358.107 104.773 359.431C98.2045 355.803 91.4567 352.737 84.6509 350.178C85.5482 348.79 86.5014 347.443 87.5069 346.138ZM93.8941 339.073C102.152 341.239 110.547 344.474 118.772 348.685C117.038 349.846 115.32 351.05 113.624 352.3C106.014 348.403 98.1977 345.231 90.3624 342.7C91.4886 341.443 92.6665 340.232 93.8941 339.073ZM103.211 331.867C103.386 331.932 103.571 331.997 103.767 332.063C103.986 332.119 104.205 332.176 104.425 332.231C112.834 334.42 121.388 337.72 129.763 342.03C127.635 343.191 125.527 344.412 123.441 345.691C115.336 341.744 107.028 338.596 98.7328 336.15C98.6615 336.13 98.1992 335.97 97.6782 335.789C99.4445 334.382 101.291 333.071 103.211 331.867ZM161.683 329.002C161.361 329.105 161.126 329.183 161.055 329.21C152.305 331.76 143.534 335.087 135 339.31C126.628 335.167 118.028 331.886 109.443 329.356C109.277 329.307 109.111 329.259 108.945 329.21C108.711 329.15 108.497 329.083 108.299 329.012C116.339 325.001 125.405 322.741 135 322.741C144.588 322.741 153.649 324.996 161.683 329.002ZM172.378 335.835C172.156 335.902 171.949 335.961 171.776 336.002C163.311 338.467 154.83 341.663 146.559 345.691C144.473 344.412 142.365 343.191 140.237 342.03C148.831 337.608 157.613 334.248 166.233 332.063C166.445 332.029 166.658 331.978 166.868 331.916C168.78 333.121 170.62 334.428 172.378 335.835ZM179.638 342.7C171.802 345.231 163.987 348.403 156.376 352.3C154.68 351.05 152.963 349.846 151.228 348.685C159.454 344.474 167.848 341.239 176.106 339.073C177.333 340.232 178.512 341.443 179.638 342.7ZM185.35 350.178C178.544 352.737 171.796 355.802 165.228 359.431C163.721 358.107 162.193 356.826 160.645 355.585C167.837 351.67 175.19 348.498 182.493 346.138C183.499 347.443 184.453 348.79 185.35 350.178ZM193.644 394.931C186.793 382.443 178.463 371.891 169.175 363.039C175.209 359.463 181.388 356.414 187.585 353.931C192.251 362.458 194.907 372.243 194.907 382.65C194.907 386.859 194.472 390.967 193.644 394.931ZM187.67 411.216C179.5 394.5 170.093 380.957 158.597 369.968C160.274 368.761 161.969 367.595 163.679 366.472C174.627 377.121 184.095 389.781 190.945 404.109C190.004 406.558 188.911 408.934 187.67 411.216ZM178.339 424.009C171.041 405.198 160.758 389.975 148.695 377.784C150.278 376.417 151.886 375.091 153.514 373.804C165.999 386.081 176.513 400.992 183.351 418.018C181.809 420.122 180.137 422.125 178.339 424.009ZM167.03 433.28L166.233 431.141C159.617 413.271 150.339 398.568 139.397 386.57C140.888 385.028 142.412 383.522 143.963 382.057C156.492 395.134 166.787 410.965 172.98 428.978C171.09 430.53 169.102 431.967 167.03 433.28ZM109.067 436.668L109.833 434.274C115.352 418.062 124.193 403.613 135 391.337C145.807 403.613 154.648 418.062 160.167 434.274L160.952 436.659C153.1 440.439 144.298 442.556 135 442.556C125.711 442.556 116.914 440.442 109.067 436.668ZM97.0204 428.978C103.214 410.965 113.508 395.134 126.037 382.057C127.588 383.522 129.112 385.028 130.603 386.57C119.661 398.568 110.383 413.271 103.767 431.141L102.973 433.282C100.899 431.968 98.9112 430.53 97.0204 428.978ZM86.6482 418.018C93.4875 400.992 104.002 386.081 116.486 373.804C118.114 375.091 119.722 376.417 121.305 377.784C109.243 389.975 98.9596 405.198 91.6614 424.009C89.8639 422.125 88.1906 420.122 86.6482 418.018Z" fill="white"/>
<path fill-rule="evenodd" clip-rule="evenodd" d="M53.5846 297.073C66.6204 302.01 78.9258 308.465 89.4869 316.27C90.1533 316.762 91.1047 316.29 91.1047 315.462V308.353C91.1047 308.072 90.9867 307.804 90.7789 307.615C85.5051 302.821 79.9195 298.363 74.1453 294.26C58.5829 283.225 41.5144 274.654 24.6642 268.787C22.1141 267.916 20.5217 265.523 20.5171 262.975C20.5171 262.969 20.5122 262.964 20.5062 262.964C20.5002 262.964 20.4953 262.959 20.4953 262.953V127.877C20.4953 127.407 20.1686 127 19.7091 126.903C13.6336 125.613 7.39732 124.792 1.04975 124.425C0.478829 124.392 0 124.848 0 125.419V284.948C0 285.484 0.421581 285.924 0.956836 285.95C18.2476 286.789 36.5684 290.628 53.5846 297.073Z" fill="white"/>
<path fill-rule="evenodd" clip-rule="evenodd" d="M81.2856 284.205C90.9374 291.062 100.038 298.811 108.216 307.416C108.843 308.076 109.966 307.635 109.966 306.725V294.37C109.966 294.156 109.898 293.948 109.771 293.777C105.51 288.005 101.1 282.467 96.4988 277.139C84.1231 262.833 70.5032 250.14 55.8357 238.865C54.2455 237.646 53.4162 235.84 53.4129 233.99C53.4129 233.984 53.408 233.979 53.402 233.979C53.396 233.979 53.3911 233.974 53.3911 233.968V109.009C53.3911 108.66 53.2095 108.336 52.911 108.156C46.9342 104.543 40.7048 101.348 34.2559 98.5846C33.5999 98.3036 32.874 98.7872 32.874 99.5008V257.95C32.874 258.368 33.1333 258.741 33.5245 258.888C49.8543 265.021 66.2503 273.53 81.2856 284.205Z" fill="white"/>
<path fill-rule="evenodd" clip-rule="evenodd" d="M105.819 269.07C113.338 277.759 120.384 286.995 126.972 296.81C127.526 297.635 128.824 297.245 128.824 296.252V165.738C128.824 165.609 128.799 165.482 128.751 165.363C120.579 145.173 110.541 126.696 98.5723 110.04C89.3643 97.2171 78.9832 85.4874 67.4289 74.8693C66.7912 74.2833 65.7668 74.738 65.7668 75.604V230.506C65.7668 230.813 65.9079 231.103 66.149 231.293C80.474 242.577 93.7468 255.106 105.819 269.07Z" fill="white"/>
<path fill-rule="evenodd" clip-rule="evenodd" d="M216.415 297.073C203.38 302.01 191.074 308.465 180.513 316.27C179.847 316.762 178.895 316.291 178.895 315.462V308.353C178.895 308.072 179.013 307.804 179.221 307.616C184.495 302.822 190.081 298.363 195.876 294.26C211.417 283.225 228.507 274.654 245.336 268.787C247.886 267.916 249.478 265.523 249.483 262.975C249.483 262.969 249.488 262.964 249.494 262.964C249.5 262.964 249.505 262.959 249.505 262.953V127.877C249.505 127.407 249.831 127.001 250.291 126.903C256.367 125.613 262.62 124.793 268.95 124.425C269.521 124.392 270 124.848 270 125.42V284.949C270 285.484 269.578 285.925 269.043 285.951C251.752 286.79 233.432 290.628 216.415 297.073Z" fill="white"/>
<path fill-rule="evenodd" clip-rule="evenodd" d="M188.718 284.205C179.066 291.062 169.984 298.811 161.79 307.417C161.162 308.077 160.041 307.635 160.042 306.724L160.06 294.368C160.06 294.155 160.128 293.949 160.253 293.778C164.494 288.006 168.904 282.467 173.505 277.139C185.881 262.833 199.501 250.14 214.168 238.865C215.759 237.646 216.588 235.84 216.591 233.99C216.591 233.984 216.596 233.979 216.602 233.979C216.608 233.979 216.613 233.974 216.613 233.968V109.009C216.613 108.66 216.795 108.336 217.093 108.156C223.069 104.544 229.315 101.349 235.747 98.5866C236.403 98.3048 237.13 98.7885 237.13 99.5026V257.95C237.13 258.368 236.871 258.741 236.48 258.888C220.15 265.021 203.754 273.53 188.718 284.205Z" fill="white"/>
<path fill-rule="evenodd" clip-rule="evenodd" d="M164.179 269.07C156.662 277.757 149.618 286.989 143.049 296.8C142.495 297.627 141.195 297.237 141.195 296.243V165.738C141.195 165.609 141.22 165.482 141.268 165.363C149.44 145.173 159.456 126.696 171.425 110.04C180.633 97.2171 191.014 85.4874 202.569 74.8693C203.206 74.2833 204.231 74.738 204.231 75.604V230.506C204.231 230.813 204.09 231.103 203.849 231.293C189.524 242.577 176.251 255.106 164.179 269.07Z" fill="white"/>
<path d="M23.2889 42.0434H10.9615L24.8504 0H40.4651L54.354 42.0434H42.0266L32.8221 11.5784H32.4934L23.2889 42.0434ZM20.9878 25.4559H44.1633V33.996H20.9878V25.4559Z" fill="white"/>
<path d="M88.571 0V9.19699H70.4086V42.0434H58.9852V0H88.571Z" fill="white"/>
<path d="M99.4892 42.6182V33.7497H101.544C102.749 33.7497 103.701 33.6539 104.4 33.4622C105.112 33.257 105.66 32.9011 106.043 32.3947C106.441 31.8747 106.776 31.1493 107.05 30.2187L107.461 28.9869L91.6819 0H103.352L112.145 17.0801L118.884 0H130.39L115.926 32.8464C115.131 34.5708 114.186 36.1789 113.09 37.6707C111.995 39.1488 110.632 40.3463 109.002 41.2633C107.372 42.1665 105.352 42.6182 102.941 42.6182H99.4892Z" fill="white"/>
<path d="M173.293 0V42.0434H162.034V9.03275H147.816V42.0434H136.557V0H173.293Z" fill="white"/>
<path d="M207.109 42.0434L194.206 25.0454H192.604V42.0434H181.18V0H192.604V15.8484H194.083L206.164 0H220.546L204.52 20.2005L221.45 42.0434H207.109Z" fill="white"/>
<path d="M225.095 42.0434V0H243.257C246.38 0 249.113 0.61587 251.455 1.84761C253.797 3.07935 255.619 4.81063 256.92 7.04144C258.222 9.27226 258.872 11.8794 258.872 14.863C258.872 17.8739 258.201 20.4811 256.859 22.6845C255.53 24.888 253.66 26.585 251.25 27.7757C248.853 28.9664 246.052 29.5617 242.846 29.5617H231.998V20.6932H240.545C241.888 20.6932 243.031 20.4606 243.977 19.9952C244.935 19.5162 245.668 18.8388 246.175 17.9629C246.695 17.087 246.956 16.0537 246.956 14.863C246.956 13.6586 246.695 12.6322 246.175 11.7836C245.668 10.9214 244.935 10.2645 243.977 9.81286C243.031 9.34753 241.888 9.11487 240.545 9.11487H236.518V42.0434H225.095Z" fill="white"/>
</svg>
